<?xml version="1.0" encoding="utf-8" standalone="no"?>
<!DOCTYPE svg PUBLIC "-//W3C//DTD SVG 1.1//EN"
  "http://www.w3.org/Graphics/SVG/1.1/DTD/svg11.dtd">
<svg xmlns:xlink="http://www.w3.org/1999/xlink" width="1948.130598pt" height="712.9815pt" viewBox="0 0 1948.130598 712.9815" xmlns="http://www.w3.org/2000/svg" version="1.1">
 <metadata>
  <rdf:RDF xmlns:dc="http://purl.org/dc/elements/1.1/" xmlns:cc="http://creativecommons.org/ns#" xmlns:rdf="http://www.w3.org/1999/02/22-rdf-syntax-ns#">
   <cc:Work>
    <dc:type rdf:resource="http://purl.org/dc/dcmitype/StillImage"/>
    <dc:date>2026-01-18T09:41:50.220747</dc:date>
    <dc:format>image/svg+xml</dc:format>
    <dc:creator>
     <cc:Agent>
      <dc:title>Matplotlib v3.10.6, https://matplotlib.org/</dc:title>
     </cc:Agent>
    </dc:creator>
   </cc:Work>
  </rdf:RDF>
 </metadata>
 <defs>
  <style type="text/css">*{stroke-linejoin: round; stroke-linecap: butt}</style>
 </defs>
 <g id="figure_1">
  <g id="patch_1">
   <path d="M 0 712.9815 
L 1948.130598 712.9815 
L 1948.130598 0 
L 0 0 
z
" style="fill: #ffffff"/>
  </g>
  <g id="axes_1">
   <g id="patch_2">
    <path d="M 64.7025 644.776 
L 1731.9105 644.776 
L 1731.9105 7.2 
L 64.7025 7.2 
z
" style="fill: #ffffff"/>
   </g>
   <g id="patch_3">
    <path d="M 140.484682 644.776 
L 160.009462 644.776 
L 160.009462 198.568297 
L 140.484682 198.568297 
z
" clip-path="url(#pc5fb1e1e73)" style="fill: #ff6b6b; opacity: 0.9"/>
   </g>
   <g id="patch_4">
    <path d="M 400.81509 644.776 
L 420.339871 644.776 
L 420.339871 206.659588 
L 400.81509 206.659588 
z
" clip-path="url(#pc5fb1e1e73)" style="fill: #ff6b6b; opacity: 0.9"/>
   </g>
   <g id="patch_5">
    <path d="M 661.145498 644.776 
L 680.670279 644.776 
L 680.670279 103.843812 
L 661.145498 103.843812 
z
" clip-path="url(#pc5fb1e1e73)" style="fill: #ff6b6b; opacity: 0.9"/>
   </g>
   <g id="patch_6">
    <path d="M 921.475906 644.776 
L 941.000687 644.776 
L 941.000687 175.209934 
L 921.475906 175.209934 
z
" clip-path="url(#pc5fb1e1e73)" style="fill: #ff6b6b; opacity: 0.9"/>
   </g>
   <g id="patch_7">
    <path d="M 1181.806314 644.776 
L 1201.331095 644.776 
L 1201.331095 202.28445 
L 1181.806314 202.28445 
z
" clip-path="url(#pc5fb1e1e73)" style="fill: #ff6b6b; opacity: 0.9"/>
   </g>
   <g id="patch_8">
    <path d="M 1442.136723 644.776 
L 1461.661503 644.776 
L 1461.661503 268.69669 
L 1442.136723 268.69669 
z
" clip-path="url(#pc5fb1e1e73)" style="fill: #ff6b6b; opacity: 0.9"/>
   </g>
   <g id="patch_9">
    <path d="M 162.092106 644.776 
L 181.616886 644.776 
L 181.616886 231.796531 
L 162.092106 231.796531 
z
" clip-path="url(#pc5fb1e1e73)" style="fill: #ffa07a; opacity: 0.9"/>
   </g>
   <g id="patch_10">
    <path d="M 422.422514 644.776 
L 441.947294 644.776 
L 441.947294 227.156659 
L 422.422514 227.156659 
z
" clip-path="url(#pc5fb1e1e73)" style="fill: #ffa07a; opacity: 0.9"/>
   </g>
   <g id="patch_11">
    <path d="M 682.752922 644.776 
L 702.277703 644.776 
L 702.277703 100.140093 
L 682.752922 100.140093 
z
" clip-path="url(#pc5fb1e1e73)" style="fill: #ffa07a; opacity: 0.9"/>
   </g>
   <g id="patch_12">
    <path d="M 943.08333 644.776 
L 962.608111 644.776 
L 962.608111 177.837627 
L 943.08333 177.837627 
z
" clip-path="url(#pc5fb1e1e73)" style="fill: #ffa07a; opacity: 0.9"/>
   </g>
   <g id="patch_13">
    <path d="M 1203.413738 644.776 
L 1222.938519 644.776 
L 1222.938519 234.402778 
L 1203.413738 234.402778 
z
" clip-path="url(#pc5fb1e1e73)" style="fill: #ffa07a; opacity: 0.9"/>
   </g>
   <g id="patch_14">
    <path d="M 1463.744147 644.776 
L 1483.268927 644.776 
L 1483.268927 308.980952 
L 1463.744147 308.980952 
z
" clip-path="url(#pc5fb1e1e73)" style="fill: #ffa07a; opacity: 0.9"/>
   </g>
   <g id="patch_15">
    <path d="M 183.69953 644.776 
L 203.22431 644.776 
L 203.22431 288.759216 
L 183.69953 288.759216 
z
" clip-path="url(#pc5fb1e1e73)" style="fill: #4ecdc4; opacity: 0.9"/>
   </g>
   <g id="patch_16">
    <path d="M 444.029938 644.776 
L 463.554718 644.776 
L 463.554718 289.825607 
L 444.029938 289.825607 
z
" clip-path="url(#pc5fb1e1e73)" style="fill: #4ecdc4; opacity: 0.9"/>
   </g>
   <g id="patch_17">
    <path d="M 704.360346 644.776 
L 723.885127 644.776 
L 723.885127 161.876539 
L 704.360346 161.876539 
z
" clip-path="url(#pc5fb1e1e73)" style="fill: #4ecdc4; opacity: 0.9"/>
   </g>
   <g id="patch_18">
    <path d="M 964.690754 644.776 
L 984.215535 644.776 
L 984.215535 301.204752 
L 964.690754 301.204752 
z
" clip-path="url(#pc5fb1e1e73)" style="fill: #4ecdc4; opacity: 0.9"/>
   </g>
   <g id="patch_19">
    <path d="M 1225.021162 644.776 
L 1244.545943 644.776 
L 1244.545943 297.462747 
L 1225.021162 297.462747 
z
" clip-path="url(#pc5fb1e1e73)" style="fill: #4ecdc4; opacity: 0.9"/>
   </g>
   <g id="patch_20">
    <path d="M 1485.35157 644.776 
L 1504.876351 644.776 
L 1504.876351 384.92894 
L 1485.35157 384.92894 
z
" clip-path="url(#pc5fb1e1e73)" style="fill: #4ecdc4; opacity: 0.9"/>
   </g>
   <g id="patch_21">
    <path d="M 205.306953 644.776 
L 224.831734 644.776 
L 224.831734 255.530983 
L 205.306953 255.530983 
z
" clip-path="url(#pc5fb1e1e73)" style="fill: #45b7d1; opacity: 0.9"/>
   </g>
   <g id="patch_22">
    <path d="M 465.637362 644.776 
L 485.162142 644.776 
L 485.162142 278.048284 
L 465.637362 278.048284 
z
" clip-path="url(#pc5fb1e1e73)" style="fill: #45b7d1; opacity: 0.9"/>
   </g>
   <g id="patch_23">
    <path d="M 725.96777 644.776 
L 745.49255 644.776 
L 745.49255 142.464688 
L 725.96777 142.464688 
z
" clip-path="url(#pc5fb1e1e73)" style="fill: #45b7d1; opacity: 0.9"/>
   </g>
   <g id="patch_24">
    <path d="M 986.298178 644.776 
L 1005.822959 644.776 
L 1005.822959 256.393914 
L 986.298178 256.393914 
z
" clip-path="url(#pc5fb1e1e73)" style="fill: #45b7d1; opacity: 0.9"/>
   </g>
   <g id="patch_25">
    <path d="M 1246.628586 644.776 
L 1266.153367 644.776 
L 1266.153367 262.630879 
L 1246.628586 262.630879 
z
" clip-path="url(#pc5fb1e1e73)" style="fill: #45b7d1; opacity: 0.9"/>
   </g>
   <g id="patch_26">
    <path d="M 1506.958994 644.776 
L 1526.483775 644.776 
L 1526.483775 346.427021 
L 1506.958994 346.427021 
z
" clip-path="url(#pc5fb1e1e73)" style="fill: #45b7d1; opacity: 0.9"/>
   </g>
   <g id="patch_27">
    <path d="M 226.914377 644.776 
L 246.439158 644.776 
L 246.439158 174.833845 
L 226.914377 174.833845 
z
" clip-path="url(#pc5fb1e1e73)" style="fill: #9b59b6; opacity: 0.9"/>
   </g>
   <g id="patch_28">
    <path d="M 487.244786 644.776 
L 506.769566 644.776 
L 506.769566 186.887275 
L 487.244786 186.887275 
z
" clip-path="url(#pc5fb1e1e73)" style="fill: #9b59b6; opacity: 0.9"/>
   </g>
   <g id="patch_29">
    <path d="M 747.575194 644.776 
L 767.099974 644.776 
L 767.099974 85.168897 
L 747.575194 85.168897 
z
" clip-path="url(#pc5fb1e1e73)" style="fill: #9b59b6; opacity: 0.9"/>
   </g>
   <g id="patch_30">
    <path d="M 1007.905602 644.776 
L 1027.430382 644.776 
L 1027.430382 156.916069 
L 1007.905602 156.916069 
z
" clip-path="url(#pc5fb1e1e73)" style="fill: #9b59b6; opacity: 0.9"/>
   </g>
   <g id="patch_31">
    <path d="M 1268.23601 644.776 
L 1287.760791 644.776 
L 1287.760791 180.021617 
L 1268.23601 180.021617 
z
" clip-path="url(#pc5fb1e1e73)" style="fill: #9b59b6; opacity: 0.9"/>
   </g>
   <g id="patch_32">
    <path d="M 1528.566418 644.776 
L 1548.091199 644.776 
L 1548.091199 235.069364 
L 1528.566418 235.069364 
z
" clip-path="url(#pc5fb1e1e73)" style="fill: #9b59b6; opacity: 0.9"/>
   </g>
   <g id="patch_33">
    <path d="M 248.521801 644.776 
L 268.046582 644.776 
L 268.046582 265.024764 
L 248.521801 265.024764 
z
" clip-path="url(#pc5fb1e1e73)" style="fill: #f39c12; opacity: 0.9"/>
   </g>
   <g id="patch_34">
    <path d="M 508.852209 644.776 
L 528.37699 644.776 
L 528.37699 294.264751 
L 508.852209 294.264751 
z
" clip-path="url(#pc5fb1e1e73)" style="fill: #f39c12; opacity: 0.9"/>
   </g>
   <g id="patch_35">
    <path d="M 769.182618 644.776 
L 788.707398 644.776 
L 788.707398 131.778893 
L 769.182618 131.778893 
z
" clip-path="url(#pc5fb1e1e73)" style="fill: #f39c12; opacity: 0.9"/>
   </g>
   <g id="patch_36">
    <path d="M 1029.513026 644.776 
L 1049.037806 644.776 
L 1049.037806 247.189751 
L 1029.513026 247.189751 
z
" clip-path="url(#pc5fb1e1e73)" style="fill: #f39c12; opacity: 0.9"/>
   </g>
   <g id="patch_37">
    <path d="M 1289.843434 644.776 
L 1309.368214 644.776 
L 1309.368214 283.703357 
L 1289.843434 283.703357 
z
" clip-path="url(#pc5fb1e1e73)" style="fill: #f39c12; opacity: 0.9"/>
   </g>
   <g id="patch_38">
    <path d="M 1550.173842 644.776 
L 1569.698623 644.776 
L 1569.698623 365.350624 
L 1550.173842 365.350624 
z
" clip-path="url(#pc5fb1e1e73)" style="fill: #f39c12; opacity: 0.9"/>
   </g>
   <g id="patch_39">
    <path d="M 270.129225 644.776 
L 289.654006 644.776 
L 289.654006 321.987449 
L 270.129225 321.987449 
z
" clip-path="url(#pc5fb1e1e73)" style="fill: #e74c3c; opacity: 0.9"/>
   </g>
   <g id="patch_40">
    <path d="M 530.459633 644.776 
L 549.984414 644.776 
L 549.984414 333.854675 
L 530.459633 333.854675 
z
" clip-path="url(#pc5fb1e1e73)" style="fill: #e74c3c; opacity: 0.9"/>
   </g>
   <g id="patch_41">
    <path d="M 790.790041 644.776 
L 810.314822 644.776 
L 810.314822 205.564966 
L 790.790041 205.564966 
z
" clip-path="url(#pc5fb1e1e73)" style="fill: #e74c3c; opacity: 0.9"/>
   </g>
   <g id="patch_42">
    <path d="M 1051.12045 644.776 
L 1070.64523 644.776 
L 1070.64523 256.65091 
L 1051.12045 256.65091 
z
" clip-path="url(#pc5fb1e1e73)" style="fill: #e74c3c; opacity: 0.9"/>
   </g>
   <g id="patch_43">
    <path d="M 1311.450858 644.776 
L 1330.975638 644.776 
L 1330.975638 374.847654 
L 1311.450858 374.847654 
z
" clip-path="url(#pc5fb1e1e73)" style="fill: #e74c3c; opacity: 0.9"/>
   </g>
   <g id="patch_44">
    <path d="M 1571.781266 644.776 
L 1591.306047 644.776 
L 1591.306047 489.719154 
L 1571.781266 489.719154 
z
" clip-path="url(#pc5fb1e1e73)" style="fill: #e74c3c; opacity: 0.9"/>
   </g>
   <g id="patch_45">
    <path d="M 291.736649 644.776 
L 311.26143 644.776 
L 311.26143 265.024764 
L 291.736649 265.024764 
z
" clip-path="url(#pc5fb1e1e73)" style="fill: #3498db; opacity: 0.9"/>
   </g>
   <g id="patch_46">
    <path d="M 552.067057 644.776 
L 571.591838 644.776 
L 571.591838 298.839788 
L 552.067057 298.839788 
z
" clip-path="url(#pc5fb1e1e73)" style="fill: #3498db; opacity: 0.9"/>
   </g>
   <g id="patch_47">
    <path d="M 812.397465 644.776 
L 831.922246 644.776 
L 831.922246 114.170848 
L 812.397465 114.170848 
z
" clip-path="url(#pc5fb1e1e73)" style="fill: #3498db; opacity: 0.9"/>
   </g>
   <g id="patch_48">
    <path d="M 1072.727873 644.776 
L 1092.252654 644.776 
L 1092.252654 219.083355 
L 1072.727873 219.083355 
z
" clip-path="url(#pc5fb1e1e73)" style="fill: #3498db; opacity: 0.9"/>
   </g>
   <g id="patch_49">
    <path d="M 1333.058282 644.776 
L 1352.583062 644.776 
L 1352.583062 281.286158 
L 1333.058282 281.286158 
z
" clip-path="url(#pc5fb1e1e73)" style="fill: #3498db; opacity: 0.9"/>
   </g>
   <g id="patch_50">
    <path d="M 1593.38869 644.776 
L 1612.91347 644.776 
L 1612.91347 365.0823 
L 1593.38869 365.0823 
z
" clip-path="url(#pc5fb1e1e73)" style="fill: #3498db; opacity: 0.9"/>
   </g>
   <g id="patch_51">
    <path d="M 313.344073 644.776 
L 332.868853 644.776 
L 332.868853 416.925258 
L 313.344073 416.925258 
z
" clip-path="url(#pc5fb1e1e73)" style="fill: #8e44ad; opacity: 0.9"/>
   </g>
   <g id="patch_52">
    <path d="M 573.674481 644.776 
L 593.199262 644.776 
L 593.199262 489.315338 
L 573.674481 489.315338 
z
" clip-path="url(#pc5fb1e1e73)" style="fill: #8e44ad; opacity: 0.9"/>
   </g>
   <g id="patch_53">
    <path d="M 834.004889 644.776 
L 853.52967 644.776 
L 853.52967 318.809642 
L 834.004889 318.809642 
z
" clip-path="url(#pc5fb1e1e73)" style="fill: #8e44ad; opacity: 0.9"/>
   </g>
   <g id="patch_54">
    <path d="M 1094.335297 644.776 
L 1113.860078 644.776 
L 1113.860078 475.944497 
L 1094.335297 475.944497 
z
" clip-path="url(#pc5fb1e1e73)" style="fill: #8e44ad; opacity: 0.9"/>
   </g>
   <g id="patch_55">
    <path d="M 1354.665706 644.776 
L 1374.190486 644.776 
L 1374.190486 561.400449 
L 1354.665706 561.400449 
z
" clip-path="url(#pc5fb1e1e73)" style="fill: #8e44ad; opacity: 0.9"/>
   </g>
   <g id="patch_56">
    <path d="M 1614.996114 644.776 
L 1634.520894 644.776 
L 1634.520894 644.776 
L 1614.996114 644.776 
z
" clip-path="url(#pc5fb1e1e73)" style="fill: #8e44ad; opacity: 0.9"/>
   </g>
   <g id="patch_57">
    <path d="M 334.951497 644.776 
L 354.476277 644.776 
L 354.476277 101.847392 
L 334.951497 101.847392 
z
" clip-path="url(#pc5fb1e1e73)" style="fill: #ff0000; opacity: 0.9"/>
   </g>
   <g id="patch_58">
    <path d="M 595.281905 644.776 
L 614.806686 644.776 
L 614.806686 111.815542 
L 595.281905 111.815542 
z
" clip-path="url(#pc5fb1e1e73)" style="fill: #ff0000; opacity: 0.9"/>
   </g>
   <g id="patch_59">
    <path d="M 855.612313 644.776 
L 875.137094 644.776 
L 875.137094 56.947412 
L 855.612313 56.947412 
z
" clip-path="url(#pc5fb1e1e73)" style="fill: #ff0000; opacity: 0.9"/>
   </g>
   <g id="patch_60">
    <path d="M 1115.942721 644.776 
L 1135.467502 644.776 
L 1135.467502 84.766113 
L 1115.942721 84.766113 
z
" clip-path="url(#pc5fb1e1e73)" style="fill: #ff0000; opacity: 0.9"/>
   </g>
   <g id="patch_61">
    <path d="M 1376.273129 644.776 
L 1395.79791 644.776 
L 1395.79791 111.815542 
L 1376.273129 111.815542 
z
" clip-path="url(#pc5fb1e1e73)" style="fill: #ff0000; opacity: 0.9"/>
   </g>
   <g id="patch_62">
    <path d="M 1636.603538 644.776 
L 1656.128318 644.776 
L 1656.128318 131.906399 
L 1636.603538 131.906399 
z
" clip-path="url(#pc5fb1e1e73)" style="fill: #ff0000; opacity: 0.9"/>
   </g>
   <g id="matplotlib.axis_1">
    <g id="xtick_1">
     <g id="line2d_1">
      <defs>
       <path id="me14ae276e7" d="M 0 0 
L 0 3.5 
" style="stroke: #000000; stroke-width: 0.8"/>
      </defs>
      <g>
       <use xlink:href="#me14ae276e7" x="247.48048" y="644.776" style="stroke: #000000; stroke-width: 0.8"/>
      </g>
     </g>
     <g id="text_1">
      <!-- Accuracy -->
      <g transform="translate(214.58298 663.2285) scale(0.16 -0.16)">
       <defs>
        <path id="ArialMT-41" d="M -9 0 
L 1750 4581 
L 2403 4581 
L 4278 0 
L 3588 0 
L 3053 1388 
L 1138 1388 
L 634 0 
L -9 0 
z
M 1313 1881 
L 2866 1881 
L 2388 3150 
Q 2169 3728 2063 4100 
Q 1975 3659 1816 3225 
L 1313 1881 
z
" transform="scale(0.015625)"/>
        <path id="ArialMT-63" d="M 2588 1216 
L 3141 1144 
Q 3050 572 2676 248 
Q 2303 -75 1759 -75 
Q 1078 -75 664 370 
Q 250 816 250 1647 
Q 250 2184 428 2587 
Q 606 2991 970 3192 
Q 1334 3394 1763 3394 
Q 2303 3394 2647 3120 
Q 2991 2847 3088 2344 
L 2541 2259 
Q 2463 2594 2264 2762 
Q 2066 2931 1784 2931 
Q 1359 2931 1093 2626 
Q 828 2322 828 1663 
Q 828 994 1084 691 
Q 1341 388 1753 388 
Q 2084 388 2306 591 
Q 2528 794 2588 1216 
z
" transform="scale(0.015625)"/>
        <path id="ArialMT-75" d="M 2597 0 
L 2597 488 
Q 2209 -75 1544 -75 
Q 1250 -75 995 37 
Q 741 150 617 320 
Q 494 491 444 738 
Q 409 903 409 1263 
L 409 3319 
L 972 3319 
L 972 1478 
Q 972 1038 1006 884 
Q 1059 663 1231 536 
Q 1403 409 1656 409 
Q 1909 409 2131 539 
Q 2353 669 2445 892 
Q 2538 1116 2538 1541 
L 2538 3319 
L 3100 3319 
L 3100 0 
L 2597 0 
z
" transform="scale(0.015625)"/>
        <path id="ArialMT-72" d="M 416 0 
L 416 3319 
L 922 3319 
L 922 2816 
Q 1116 3169 1280 3281 
Q 1444 3394 1641 3394 
Q 1925 3394 2219 3213 
L 2025 2691 
Q 1819 2813 1613 2813 
Q 1428 2813 1281 2702 
Q 1134 2591 1072 2394 
Q 978 2094 978 1738 
L 978 0 
L 416 0 
z
" transform="scale(0.015625)"/>
        <path id="ArialMT-61" d="M 2588 409 
Q 2275 144 1986 34 
Q 1697 -75 1366 -75 
Q 819 -75 525 192 
Q 231 459 231 875 
Q 231 1119 342 1320 
Q 453 1522 633 1644 
Q 813 1766 1038 1828 
Q 1203 1872 1538 1913 
Q 2219 1994 2541 2106 
Q 2544 2222 2544 2253 
Q 2544 2597 2384 2738 
Q 2169 2928 1744 2928 
Q 1347 2928 1158 2789 
Q 969 2650 878 2297 
L 328 2372 
Q 403 2725 575 2942 
Q 747 3159 1072 3276 
Q 1397 3394 1825 3394 
Q 2250 3394 2515 3294 
Q 2781 3194 2906 3042 
Q 3031 2891 3081 2659 
Q 3109 2516 3109 2141 
L 3109 1391 
Q 3109 606 3145 398 
Q 3181 191 3288 0 
L 2700 0 
Q 2613 175 2588 409 
z
M 2541 1666 
Q 2234 1541 1622 1453 
Q 1275 1403 1131 1340 
Q 988 1278 909 1158 
Q 831 1038 831 891 
Q 831 666 1001 516 
Q 1172 366 1500 366 
Q 1825 366 2078 508 
Q 2331 650 2450 897 
Q 2541 1088 2541 1459 
L 2541 1666 
z
" transform="scale(0.015625)"/>
        <path id="ArialMT-79" d="M 397 -1278 
L 334 -750 
Q 519 -800 656 -800 
Q 844 -800 956 -737 
Q 1069 -675 1141 -563 
Q 1194 -478 1313 -144 
Q 1328 -97 1363 -6 
L 103 3319 
L 709 3319 
L 1400 1397 
Q 1534 1031 1641 628 
Q 1738 1016 1872 1384 
L 2581 3319 
L 3144 3319 
L 1881 -56 
Q 1678 -603 1566 -809 
Q 1416 -1088 1222 -1217 
Q 1028 -1347 759 -1347 
Q 597 -1347 397 -1278 
z
" transform="scale(0.015625)"/>
       </defs>
       <use xlink:href="#ArialMT-41"/>
       <use xlink:href="#ArialMT-63" transform="translate(66.699219 0)"/>
       <use xlink:href="#ArialMT-63" transform="translate(116.699219 0)"/>
       <use xlink:href="#ArialMT-75" transform="translate(166.699219 0)"/>
       <use xlink:href="#ArialMT-72" transform="translate(222.314453 0)"/>
       <use xlink:href="#ArialMT-61" transform="translate(255.615234 0)"/>
       <use xlink:href="#ArialMT-63" transform="translate(311.230469 0)"/>
       <use xlink:href="#ArialMT-79" transform="translate(361.230469 0)"/>
      </g>
     </g>
    </g>
    <g id="xtick_2">
     <g id="line2d_2">
      <g>
       <use xlink:href="#me14ae276e7" x="507.810888" y="644.776" style="stroke: #000000; stroke-width: 0.8"/>
      </g>
     </g>
     <g id="text_2">
      <!-- Balanced -->
      <g transform="translate(474.453388 663.2285) scale(0.16 -0.16)">
       <defs>
        <path id="ArialMT-42" d="M 469 0 
L 469 4581 
L 2188 4581 
Q 2713 4581 3030 4442 
Q 3347 4303 3526 4014 
Q 3706 3725 3706 3409 
Q 3706 3116 3547 2856 
Q 3388 2597 3066 2438 
Q 3481 2316 3704 2022 
Q 3928 1728 3928 1328 
Q 3928 1006 3792 729 
Q 3656 453 3456 303 
Q 3256 153 2954 76 
Q 2653 0 2216 0 
L 469 0 
z
M 1075 2656 
L 2066 2656 
Q 2469 2656 2644 2709 
Q 2875 2778 2992 2937 
Q 3109 3097 3109 3338 
Q 3109 3566 3000 3739 
Q 2891 3913 2687 3977 
Q 2484 4041 1991 4041 
L 1075 4041 
L 1075 2656 
z
M 1075 541 
L 2216 541 
Q 2509 541 2628 563 
Q 2838 600 2978 687 
Q 3119 775 3209 942 
Q 3300 1109 3300 1328 
Q 3300 1584 3169 1773 
Q 3038 1963 2805 2039 
Q 2572 2116 2134 2116 
L 1075 2116 
L 1075 541 
z
" transform="scale(0.015625)"/>
        <path id="ArialMT-6c" d="M 409 0 
L 409 4581 
L 972 4581 
L 972 0 
L 409 0 
z
" transform="scale(0.015625)"/>
        <path id="ArialMT-6e" d="M 422 0 
L 422 3319 
L 928 3319 
L 928 2847 
Q 1294 3394 1984 3394 
Q 2284 3394 2536 3286 
Q 2788 3178 2913 3003 
Q 3038 2828 3088 2588 
Q 3119 2431 3119 2041 
L 3119 0 
L 2556 0 
L 2556 2019 
Q 2556 2363 2490 2533 
Q 2425 2703 2258 2804 
Q 2091 2906 1866 2906 
Q 1506 2906 1245 2678 
Q 984 2450 984 1813 
L 984 0 
L 422 0 
z
" transform="scale(0.015625)"/>
        <path id="ArialMT-65" d="M 2694 1069 
L 3275 997 
Q 3138 488 2766 206 
Q 2394 -75 1816 -75 
Q 1088 -75 661 373 
Q 234 822 234 1631 
Q 234 2469 665 2931 
Q 1097 3394 1784 3394 
Q 2450 3394 2872 2941 
Q 3294 2488 3294 1666 
Q 3294 1616 3291 1516 
L 816 1516 
Q 847 969 1125 678 
Q 1403 388 1819 388 
Q 2128 388 2347 550 
Q 2566 713 2694 1069 
z
M 847 1978 
L 2700 1978 
Q 2663 2397 2488 2606 
Q 2219 2931 1791 2931 
Q 1403 2931 1139 2672 
Q 875 2413 847 1978 
z
" transform="scale(0.015625)"/>
        <path id="ArialMT-64" d="M 2575 0 
L 2575 419 
Q 2259 -75 1647 -75 
Q 1250 -75 917 144 
Q 584 363 401 755 
Q 219 1147 219 1656 
Q 219 2153 384 2558 
Q 550 2963 881 3178 
Q 1213 3394 1622 3394 
Q 1922 3394 2156 3267 
Q 2391 3141 2538 2938 
L 2538 4581 
L 3097 4581 
L 3097 0 
L 2575 0 
z
M 797 1656 
Q 797 1019 1065 703 
Q 1334 388 1700 388 
Q 2069 388 2326 689 
Q 2584 991 2584 1609 
Q 2584 2291 2321 2609 
Q 2059 2928 1675 2928 
Q 1300 2928 1048 2622 
Q 797 2316 797 1656 
z
" transform="scale(0.015625)"/>
       </defs>
       <use xlink:href="#ArialMT-42"/>
       <use xlink:href="#ArialMT-61" transform="translate(66.699219 0)"/>
       <use xlink:href="#ArialMT-6c" transform="translate(122.314453 0)"/>
       <use xlink:href="#ArialMT-61" transform="translate(144.53125 0)"/>
       <use xlink:href="#ArialMT-6e" transform="translate(200.146484 0)"/>
       <use xlink:href="#ArialMT-63" transform="translate(255.761719 0)"/>
       <use xlink:href="#ArialMT-65" transform="translate(305.761719 0)"/>
       <use xlink:href="#ArialMT-64" transform="translate(361.376953 0)"/>
      </g>
      <!-- Accuracy -->
      <g transform="translate(474.913388 680.1515) scale(0.16 -0.16)">
       <use xlink:href="#ArialMT-41"/>
       <use xlink:href="#ArialMT-63" transform="translate(66.699219 0)"/>
       <use xlink:href="#ArialMT-63" transform="translate(116.699219 0)"/>
       <use xlink:href="#ArialMT-75" transform="translate(166.699219 0)"/>
       <use xlink:href="#ArialMT-72" transform="translate(222.314453 0)"/>
       <use xlink:href="#ArialMT-61" transform="translate(255.615234 0)"/>
       <use xlink:href="#ArialMT-63" transform="translate(311.230469 0)"/>
       <use xlink:href="#ArialMT-79" transform="translate(361.230469 0)"/>
      </g>
     </g>
    </g>
    <g id="xtick_3">
     <g id="line2d_3">
      <g>
       <use xlink:href="#me14ae276e7" x="768.141296" y="644.776" style="stroke: #000000; stroke-width: 0.8"/>
      </g>
     </g>
     <g id="text_3">
      <!-- ROC-AUC -->
      <g transform="translate(730.808796 663.2285) scale(0.16 -0.16)">
       <defs>
        <path id="ArialMT-52" d="M 503 0 
L 503 4581 
L 2534 4581 
Q 3147 4581 3465 4457 
Q 3784 4334 3975 4021 
Q 4166 3709 4166 3331 
Q 4166 2844 3850 2509 
Q 3534 2175 2875 2084 
Q 3116 1969 3241 1856 
Q 3506 1613 3744 1247 
L 4541 0 
L 3778 0 
L 3172 953 
Q 2906 1366 2734 1584 
Q 2563 1803 2427 1890 
Q 2291 1978 2150 2013 
Q 2047 2034 1813 2034 
L 1109 2034 
L 1109 0 
L 503 0 
z
M 1109 2559 
L 2413 2559 
Q 2828 2559 3062 2645 
Q 3297 2731 3419 2920 
Q 3541 3109 3541 3331 
Q 3541 3656 3305 3865 
Q 3069 4075 2559 4075 
L 1109 4075 
L 1109 2559 
z
" transform="scale(0.015625)"/>
        <path id="ArialMT-4f" d="M 309 2231 
Q 309 3372 921 4017 
Q 1534 4663 2503 4663 
Q 3138 4663 3647 4359 
Q 4156 4056 4423 3514 
Q 4691 2972 4691 2284 
Q 4691 1588 4409 1038 
Q 4128 488 3612 205 
Q 3097 -78 2500 -78 
Q 1853 -78 1343 234 
Q 834 547 571 1087 
Q 309 1628 309 2231 
z
M 934 2222 
Q 934 1394 1379 917 
Q 1825 441 2497 441 
Q 3181 441 3623 922 
Q 4066 1403 4066 2288 
Q 4066 2847 3877 3264 
Q 3688 3681 3323 3911 
Q 2959 4141 2506 4141 
Q 1863 4141 1398 3698 
Q 934 3256 934 2222 
z
" transform="scale(0.015625)"/>
        <path id="ArialMT-43" d="M 3763 1606 
L 4369 1453 
Q 4178 706 3683 314 
Q 3188 -78 2472 -78 
Q 1731 -78 1267 223 
Q 803 525 561 1097 
Q 319 1669 319 2325 
Q 319 3041 592 3573 
Q 866 4106 1370 4382 
Q 1875 4659 2481 4659 
Q 3169 4659 3637 4309 
Q 4106 3959 4291 3325 
L 3694 3184 
Q 3534 3684 3231 3912 
Q 2928 4141 2469 4141 
Q 1941 4141 1586 3887 
Q 1231 3634 1087 3207 
Q 944 2781 944 2328 
Q 944 1744 1114 1308 
Q 1284 872 1643 656 
Q 2003 441 2422 441 
Q 2931 441 3284 734 
Q 3638 1028 3763 1606 
z
" transform="scale(0.015625)"/>
        <path id="ArialMT-2d" d="M 203 1375 
L 203 1941 
L 1931 1941 
L 1931 1375 
L 203 1375 
z
" transform="scale(0.015625)"/>
        <path id="ArialMT-55" d="M 3500 4581 
L 4106 4581 
L 4106 1934 
Q 4106 1244 3950 837 
Q 3794 431 3386 176 
Q 2978 -78 2316 -78 
Q 1672 -78 1262 144 
Q 853 366 678 786 
Q 503 1206 503 1934 
L 503 4581 
L 1109 4581 
L 1109 1938 
Q 1109 1341 1220 1058 
Q 1331 775 1601 622 
Q 1872 469 2263 469 
Q 2931 469 3215 772 
Q 3500 1075 3500 1938 
L 3500 4581 
z
" transform="scale(0.015625)"/>
       </defs>
       <use xlink:href="#ArialMT-52"/>
       <use xlink:href="#ArialMT-4f" transform="translate(72.216797 0)"/>
       <use xlink:href="#ArialMT-43" transform="translate(150 0)"/>
       <use xlink:href="#ArialMT-2d" transform="translate(222.216797 0)"/>
       <use xlink:href="#ArialMT-41" transform="translate(255.517578 0)"/>
       <use xlink:href="#ArialMT-55" transform="translate(322.216797 0)"/>
       <use xlink:href="#ArialMT-43" transform="translate(394.433594 0)"/>
      </g>
     </g>
    </g>
    <g id="xtick_4">
     <g id="line2d_4">
      <g>
       <use xlink:href="#me14ae276e7" x="1028.471704" y="644.776" style="stroke: #000000; stroke-width: 0.8"/>
      </g>
     </g>
     <g id="text_4">
      <!-- PR-AUC -->
      <g transform="translate(997.802954 663.2285) scale(0.16 -0.16)">
       <defs>
        <path id="ArialMT-50" d="M 494 0 
L 494 4581 
L 2222 4581 
Q 2678 4581 2919 4538 
Q 3256 4481 3484 4323 
Q 3713 4166 3852 3881 
Q 3991 3597 3991 3256 
Q 3991 2672 3619 2267 
Q 3247 1863 2275 1863 
L 1100 1863 
L 1100 0 
L 494 0 
z
M 1100 2403 
L 2284 2403 
Q 2872 2403 3119 2622 
Q 3366 2841 3366 3238 
Q 3366 3525 3220 3729 
Q 3075 3934 2838 4000 
Q 2684 4041 2272 4041 
L 1100 4041 
L 1100 2403 
z
" transform="scale(0.015625)"/>
       </defs>
       <use xlink:href="#ArialMT-50"/>
       <use xlink:href="#ArialMT-52" transform="translate(66.699219 0)"/>
       <use xlink:href="#ArialMT-2d" transform="translate(138.916016 0)"/>
       <use xlink:href="#ArialMT-41" transform="translate(172.216797 0)"/>
       <use xlink:href="#ArialMT-55" transform="translate(238.916016 0)"/>
       <use xlink:href="#ArialMT-43" transform="translate(311.132812 0)"/>
      </g>
     </g>
    </g>
    <g id="xtick_5">
     <g id="line2d_5">
      <g>
       <use xlink:href="#me14ae276e7" x="1288.802112" y="644.776" style="stroke: #000000; stroke-width: 0.8"/>
      </g>
     </g>
     <g id="text_5">
      <!-- F1-Score -->
      <g transform="translate(1255.905862 663.2285) scale(0.16 -0.16)">
       <defs>
        <path id="ArialMT-46" d="M 525 0 
L 525 4581 
L 3616 4581 
L 3616 4041 
L 1131 4041 
L 1131 2622 
L 3281 2622 
L 3281 2081 
L 1131 2081 
L 1131 0 
L 525 0 
z
" transform="scale(0.015625)"/>
        <path id="ArialMT-31" d="M 2384 0 
L 1822 0 
L 1822 3584 
Q 1619 3391 1289 3197 
Q 959 3003 697 2906 
L 697 3450 
Q 1169 3672 1522 3987 
Q 1875 4303 2022 4600 
L 2384 4600 
L 2384 0 
z
" transform="scale(0.015625)"/>
        <path id="ArialMT-53" d="M 288 1472 
L 859 1522 
Q 900 1178 1048 958 
Q 1197 738 1509 602 
Q 1822 466 2213 466 
Q 2559 466 2825 569 
Q 3091 672 3220 851 
Q 3350 1031 3350 1244 
Q 3350 1459 3225 1620 
Q 3100 1781 2813 1891 
Q 2628 1963 1997 2114 
Q 1366 2266 1113 2400 
Q 784 2572 623 2826 
Q 463 3081 463 3397 
Q 463 3744 659 4045 
Q 856 4347 1234 4503 
Q 1613 4659 2075 4659 
Q 2584 4659 2973 4495 
Q 3363 4331 3572 4012 
Q 3781 3694 3797 3291 
L 3216 3247 
Q 3169 3681 2898 3903 
Q 2628 4125 2100 4125 
Q 1550 4125 1298 3923 
Q 1047 3722 1047 3438 
Q 1047 3191 1225 3031 
Q 1400 2872 2139 2705 
Q 2878 2538 3153 2413 
Q 3553 2228 3743 1945 
Q 3934 1663 3934 1294 
Q 3934 928 3725 604 
Q 3516 281 3123 101 
Q 2731 -78 2241 -78 
Q 1619 -78 1198 103 
Q 778 284 539 648 
Q 300 1013 288 1472 
z
" transform="scale(0.015625)"/>
        <path id="ArialMT-6f" d="M 213 1659 
Q 213 2581 725 3025 
Q 1153 3394 1769 3394 
Q 2453 3394 2887 2945 
Q 3322 2497 3322 1706 
Q 3322 1066 3130 698 
Q 2938 331 2570 128 
Q 2203 -75 1769 -75 
Q 1072 -75 642 372 
Q 213 819 213 1659 
z
M 791 1659 
Q 791 1022 1069 705 
Q 1347 388 1769 388 
Q 2188 388 2466 706 
Q 2744 1025 2744 1678 
Q 2744 2294 2464 2611 
Q 2184 2928 1769 2928 
Q 1347 2928 1069 2612 
Q 791 2297 791 1659 
z
" transform="scale(0.015625)"/>
       </defs>
       <use xlink:href="#ArialMT-46"/>
       <use xlink:href="#ArialMT-31" transform="translate(61.083984 0)"/>
       <use xlink:href="#ArialMT-2d" transform="translate(116.699219 0)"/>
       <use xlink:href="#ArialMT-53" transform="translate(150 0)"/>
       <use xlink:href="#ArialMT-63" transform="translate(216.699219 0)"/>
       <use xlink:href="#ArialMT-6f" transform="translate(266.699219 0)"/>
       <use xlink:href="#ArialMT-72" transform="translate(322.314453 0)"/>
       <use xlink:href="#ArialMT-65" transform="translate(355.615234 0)"/>
      </g>
     </g>
    </g>
    <g id="xtick_6">
     <g id="line2d_6">
      <g>
       <use xlink:href="#me14ae276e7" x="1549.13252" y="644.776" style="stroke: #000000; stroke-width: 0.8"/>
      </g>
     </g>
     <g id="text_6">
      <!-- MCC -->
      <g transform="translate(1530.91377 663.2285) scale(0.16 -0.16)">
       <defs>
        <path id="ArialMT-4d" d="M 475 0 
L 475 4581 
L 1388 4581 
L 2472 1338 
Q 2622 884 2691 659 
Q 2769 909 2934 1394 
L 4031 4581 
L 4847 4581 
L 4847 0 
L 4263 0 
L 4263 3834 
L 2931 0 
L 2384 0 
L 1059 3900 
L 1059 0 
L 475 0 
z
" transform="scale(0.015625)"/>
       </defs>
       <use xlink:href="#ArialMT-4d"/>
       <use xlink:href="#ArialMT-43" transform="translate(83.300781 0)"/>
       <use xlink:href="#ArialMT-43" transform="translate(155.517578 0)"/>
      </g>
     </g>
    </g>
    <g id="text_7">
     <!-- Metrics -->
     <g transform="translate(863.294 701.834625) scale(0.2 -0.2)">
      <defs>
       <path id="Arial-BoldMT-4d" d="M 453 0 
L 453 4581 
L 1838 4581 
L 2669 1456 
L 3491 4581 
L 4878 4581 
L 4878 0 
L 4019 0 
L 4019 3606 
L 3109 0 
L 2219 0 
L 1313 3606 
L 1313 0 
L 453 0 
z
" transform="scale(0.015625)"/>
       <path id="Arial-BoldMT-65" d="M 2381 1056 
L 3256 909 
Q 3088 428 2723 176 
Q 2359 -75 1813 -75 
Q 947 -75 531 491 
Q 203 944 203 1634 
Q 203 2459 634 2926 
Q 1066 3394 1725 3394 
Q 2466 3394 2894 2905 
Q 3322 2416 3303 1406 
L 1103 1406 
Q 1113 1016 1316 798 
Q 1519 581 1822 581 
Q 2028 581 2168 693 
Q 2309 806 2381 1056 
z
M 2431 1944 
Q 2422 2325 2234 2523 
Q 2047 2722 1778 2722 
Q 1491 2722 1303 2513 
Q 1116 2303 1119 1944 
L 2431 1944 
z
" transform="scale(0.015625)"/>
       <path id="Arial-BoldMT-74" d="M 1981 3319 
L 1981 2619 
L 1381 2619 
L 1381 1281 
Q 1381 875 1398 808 
Q 1416 741 1477 697 
Q 1538 653 1625 653 
Q 1747 653 1978 738 
L 2053 56 
Q 1747 -75 1359 -75 
Q 1122 -75 931 4 
Q 741 84 652 211 
Q 563 338 528 553 
Q 500 706 500 1172 
L 500 2619 
L 97 2619 
L 97 3319 
L 500 3319 
L 500 3978 
L 1381 4491 
L 1381 3319 
L 1981 3319 
z
" transform="scale(0.015625)"/>
       <path id="Arial-BoldMT-72" d="M 1300 0 
L 422 0 
L 422 3319 
L 1238 3319 
L 1238 2847 
Q 1447 3181 1614 3287 
Q 1781 3394 1994 3394 
Q 2294 3394 2572 3228 
L 2300 2463 
Q 2078 2606 1888 2606 
Q 1703 2606 1575 2504 
Q 1447 2403 1373 2137 
Q 1300 1872 1300 1025 
L 1300 0 
z
" transform="scale(0.015625)"/>
       <path id="Arial-BoldMT-69" d="M 459 3769 
L 459 4581 
L 1338 4581 
L 1338 3769 
L 459 3769 
z
M 459 0 
L 459 3319 
L 1338 3319 
L 1338 0 
L 459 0 
z
" transform="scale(0.015625)"/>
       <path id="Arial-BoldMT-63" d="M 3353 2338 
L 2488 2181 
Q 2444 2441 2289 2572 
Q 2134 2703 1888 2703 
Q 1559 2703 1364 2476 
Q 1169 2250 1169 1719 
Q 1169 1128 1367 884 
Q 1566 641 1900 641 
Q 2150 641 2309 783 
Q 2469 925 2534 1272 
L 3397 1125 
Q 3263 531 2881 228 
Q 2500 -75 1859 -75 
Q 1131 -75 698 384 
Q 266 844 266 1656 
Q 266 2478 700 2936 
Q 1134 3394 1875 3394 
Q 2481 3394 2839 3133 
Q 3197 2872 3353 2338 
z
" transform="scale(0.015625)"/>
       <path id="Arial-BoldMT-73" d="M 150 947 
L 1031 1081 
Q 1088 825 1259 692 
Q 1431 559 1741 559 
Q 2081 559 2253 684 
Q 2369 772 2369 919 
Q 2369 1019 2306 1084 
Q 2241 1147 2013 1200 
Q 950 1434 666 1628 
Q 272 1897 272 2375 
Q 272 2806 612 3100 
Q 953 3394 1669 3394 
Q 2350 3394 2681 3172 
Q 3013 2950 3138 2516 
L 2309 2363 
Q 2256 2556 2107 2659 
Q 1959 2763 1684 2763 
Q 1338 2763 1188 2666 
Q 1088 2597 1088 2488 
Q 1088 2394 1175 2328 
Q 1294 2241 1995 2081 
Q 2697 1922 2975 1691 
Q 3250 1456 3250 1038 
Q 3250 581 2869 253 
Q 2488 -75 1741 -75 
Q 1063 -75 667 200 
Q 272 475 150 947 
z
" transform="scale(0.015625)"/>
      </defs>
      <use xlink:href="#Arial-BoldMT-4d"/>
      <use xlink:href="#Arial-BoldMT-65" transform="translate(83.300781 0)"/>
      <use xlink:href="#Arial-BoldMT-74" transform="translate(138.916016 0)"/>
      <use xlink:href="#Arial-BoldMT-72" transform="translate(172.216797 0)"/>
      <use xlink:href="#Arial-BoldMT-69" transform="translate(211.132812 0)"/>
      <use xlink:href="#Arial-BoldMT-63" transform="translate(238.916016 0)"/>
      <use xlink:href="#Arial-BoldMT-73" transform="translate(294.53125 0)"/>
     </g>
    </g>
   </g>
   <g id="matplotlib.axis_2">
    <g id="ytick_1">
     <g id="line2d_7">
      <defs>
       <path id="m96b33017ef" d="M 0 0 
L -3.5 0 
" style="stroke: #000000; stroke-width: 0.8"/>
      </defs>
      <g>
       <use xlink:href="#m96b33017ef" x="64.7025" y="644.776" style="stroke: #000000; stroke-width: 0.8"/>
      </g>
     </g>
     <g id="text_8">
      <!-- 0.0 -->
      <g transform="translate(35.4625 650.50225) scale(0.16 -0.16)">
       <defs>
        <path id="ArialMT-30" d="M 266 2259 
Q 266 3072 433 3567 
Q 600 4063 929 4331 
Q 1259 4600 1759 4600 
Q 2128 4600 2406 4451 
Q 2684 4303 2865 4023 
Q 3047 3744 3150 3342 
Q 3253 2941 3253 2259 
Q 3253 1453 3087 958 
Q 2922 463 2592 192 
Q 2263 -78 1759 -78 
Q 1097 -78 719 397 
Q 266 969 266 2259 
z
M 844 2259 
Q 844 1131 1108 757 
Q 1372 384 1759 384 
Q 2147 384 2411 759 
Q 2675 1134 2675 2259 
Q 2675 3391 2411 3762 
Q 2147 4134 1753 4134 
Q 1366 4134 1134 3806 
Q 844 3388 844 2259 
z
" transform="scale(0.015625)"/>
        <path id="ArialMT-2e" d="M 581 0 
L 581 641 
L 1222 641 
L 1222 0 
L 581 0 
z
" transform="scale(0.015625)"/>
       </defs>
       <use xlink:href="#ArialMT-30"/>
       <use xlink:href="#ArialMT-2e" transform="translate(55.615234 0)"/>
       <use xlink:href="#ArialMT-30" transform="translate(83.398438 0)"/>
      </g>
     </g>
    </g>
    <g id="ytick_2">
     <g id="line2d_8">
      <g>
       <use xlink:href="#m96b33017ef" x="64.7025" y="520.40747" style="stroke: #000000; stroke-width: 0.8"/>
      </g>
     </g>
     <g id="text_9">
      <!-- 0.2 -->
      <g transform="translate(35.4625 526.13372) scale(0.16 -0.16)">
       <defs>
        <path id="ArialMT-32" d="M 3222 541 
L 3222 0 
L 194 0 
Q 188 203 259 391 
Q 375 700 629 1000 
Q 884 1300 1366 1694 
Q 2113 2306 2375 2664 
Q 2638 3022 2638 3341 
Q 2638 3675 2398 3904 
Q 2159 4134 1775 4134 
Q 1369 4134 1125 3890 
Q 881 3647 878 3216 
L 300 3275 
Q 359 3922 746 4261 
Q 1134 4600 1788 4600 
Q 2447 4600 2831 4234 
Q 3216 3869 3216 3328 
Q 3216 3053 3103 2787 
Q 2991 2522 2730 2228 
Q 2469 1934 1863 1422 
Q 1356 997 1212 845 
Q 1069 694 975 541 
L 3222 541 
z
" transform="scale(0.015625)"/>
       </defs>
       <use xlink:href="#ArialMT-30"/>
       <use xlink:href="#ArialMT-2e" transform="translate(55.615234 0)"/>
       <use xlink:href="#ArialMT-32" transform="translate(83.398438 0)"/>
      </g>
     </g>
    </g>
    <g id="ytick_3">
     <g id="line2d_9">
      <g>
       <use xlink:href="#m96b33017ef" x="64.7025" y="396.03894" style="stroke: #000000; stroke-width: 0.8"/>
      </g>
     </g>
     <g id="text_10">
      <!-- 0.4 -->
      <g transform="translate(35.4625 401.76519) scale(0.16 -0.16)">
       <defs>
        <path id="ArialMT-34" d="M 2069 0 
L 2069 1097 
L 81 1097 
L 81 1613 
L 2172 4581 
L 2631 4581 
L 2631 1613 
L 3250 1613 
L 3250 1097 
L 2631 1097 
L 2631 0 
L 2069 0 
z
M 2069 1613 
L 2069 3678 
L 634 1613 
L 2069 1613 
z
" transform="scale(0.015625)"/>
       </defs>
       <use xlink:href="#ArialMT-30"/>
       <use xlink:href="#ArialMT-2e" transform="translate(55.615234 0)"/>
       <use xlink:href="#ArialMT-34" transform="translate(83.398438 0)"/>
      </g>
     </g>
    </g>
    <g id="ytick_4">
     <g id="line2d_10">
      <g>
       <use xlink:href="#m96b33017ef" x="64.7025" y="271.67041" style="stroke: #000000; stroke-width: 0.8"/>
      </g>
     </g>
     <g id="text_11">
      <!-- 0.6 -->
      <g transform="translate(35.4625 277.39666) scale(0.16 -0.16)">
       <defs>
        <path id="ArialMT-36" d="M 3184 3459 
L 2625 3416 
Q 2550 3747 2413 3897 
Q 2184 4138 1850 4138 
Q 1581 4138 1378 3988 
Q 1113 3794 959 3422 
Q 806 3050 800 2363 
Q 1003 2672 1297 2822 
Q 1591 2972 1913 2972 
Q 2475 2972 2870 2558 
Q 3266 2144 3266 1488 
Q 3266 1056 3080 686 
Q 2894 316 2569 119 
Q 2244 -78 1831 -78 
Q 1128 -78 684 439 
Q 241 956 241 2144 
Q 241 3472 731 4075 
Q 1159 4600 1884 4600 
Q 2425 4600 2770 4297 
Q 3116 3994 3184 3459 
z
M 888 1484 
Q 888 1194 1011 928 
Q 1134 663 1356 523 
Q 1578 384 1822 384 
Q 2178 384 2434 671 
Q 2691 959 2691 1453 
Q 2691 1928 2437 2201 
Q 2184 2475 1800 2475 
Q 1419 2475 1153 2201 
Q 888 1928 888 1484 
z
" transform="scale(0.015625)"/>
       </defs>
       <use xlink:href="#ArialMT-30"/>
       <use xlink:href="#ArialMT-2e" transform="translate(55.615234 0)"/>
       <use xlink:href="#ArialMT-36" transform="translate(83.398438 0)"/>
      </g>
     </g>
    </g>
    <g id="ytick_5">
     <g id="line2d_11">
      <g>
       <use xlink:href="#m96b33017ef" x="64.7025" y="147.30188" style="stroke: #000000; stroke-width: 0.8"/>
      </g>
     </g>
     <g id="text_12">
      <!-- 0.8 -->
      <g transform="translate(35.4625 153.02813) scale(0.16 -0.16)">
       <defs>
        <path id="ArialMT-38" d="M 1131 2484 
Q 781 2613 612 2850 
Q 444 3088 444 3419 
Q 444 3919 803 4259 
Q 1163 4600 1759 4600 
Q 2359 4600 2725 4251 
Q 3091 3903 3091 3403 
Q 3091 3084 2923 2848 
Q 2756 2613 2416 2484 
Q 2838 2347 3058 2040 
Q 3278 1734 3278 1309 
Q 3278 722 2862 322 
Q 2447 -78 1769 -78 
Q 1091 -78 675 323 
Q 259 725 259 1325 
Q 259 1772 486 2073 
Q 713 2375 1131 2484 
z
M 1019 3438 
Q 1019 3113 1228 2906 
Q 1438 2700 1772 2700 
Q 2097 2700 2305 2904 
Q 2513 3109 2513 3406 
Q 2513 3716 2298 3927 
Q 2084 4138 1766 4138 
Q 1444 4138 1231 3931 
Q 1019 3725 1019 3438 
z
M 838 1322 
Q 838 1081 952 856 
Q 1066 631 1291 507 
Q 1516 384 1775 384 
Q 2178 384 2440 643 
Q 2703 903 2703 1303 
Q 2703 1709 2433 1975 
Q 2163 2241 1756 2241 
Q 1359 2241 1098 1978 
Q 838 1716 838 1322 
z
" transform="scale(0.015625)"/>
       </defs>
       <use xlink:href="#ArialMT-30"/>
       <use xlink:href="#ArialMT-2e" transform="translate(55.615234 0)"/>
       <use xlink:href="#ArialMT-38" transform="translate(83.398438 0)"/>
      </g>
     </g>
    </g>
    <g id="ytick_6">
     <g id="line2d_12">
      <g>
       <use xlink:href="#m96b33017ef" x="64.7025" y="22.933351" style="stroke: #000000; stroke-width: 0.8"/>
      </g>
     </g>
     <g id="text_13">
      <!-- 1.0 -->
      <g transform="translate(35.4625 28.659601) scale(0.16 -0.16)">
       <use xlink:href="#ArialMT-31"/>
       <use xlink:href="#ArialMT-2e" transform="translate(55.615234 0)"/>
       <use xlink:href="#ArialMT-30" transform="translate(83.398438 0)"/>
      </g>
     </g>
    </g>
    <g id="text_14">
     <!-- Score -->
     <g transform="translate(21.515625 353.780187) rotate(-90) scale(0.2 -0.2)">
      <defs>
       <path id="Arial-BoldMT-53" d="M 231 1491 
L 1131 1578 
Q 1213 1125 1461 912 
Q 1709 700 2131 700 
Q 2578 700 2804 889 
Q 3031 1078 3031 1331 
Q 3031 1494 2936 1608 
Q 2841 1722 2603 1806 
Q 2441 1863 1863 2006 
Q 1119 2191 819 2459 
Q 397 2838 397 3381 
Q 397 3731 595 4036 
Q 794 4341 1167 4500 
Q 1541 4659 2069 4659 
Q 2931 4659 3367 4281 
Q 3803 3903 3825 3272 
L 2900 3231 
Q 2841 3584 2645 3739 
Q 2450 3894 2059 3894 
Q 1656 3894 1428 3728 
Q 1281 3622 1281 3444 
Q 1281 3281 1419 3166 
Q 1594 3019 2269 2859 
Q 2944 2700 3267 2529 
Q 3591 2359 3773 2064 
Q 3956 1769 3956 1334 
Q 3956 941 3737 597 
Q 3519 253 3119 86 
Q 2719 -81 2122 -81 
Q 1253 -81 787 320 
Q 322 722 231 1491 
z
" transform="scale(0.015625)"/>
       <path id="Arial-BoldMT-6f" d="M 256 1706 
Q 256 2144 472 2553 
Q 688 2963 1083 3178 
Q 1478 3394 1966 3394 
Q 2719 3394 3200 2905 
Q 3681 2416 3681 1669 
Q 3681 916 3195 420 
Q 2709 -75 1972 -75 
Q 1516 -75 1102 131 
Q 688 338 472 736 
Q 256 1134 256 1706 
z
M 1156 1659 
Q 1156 1166 1390 903 
Q 1625 641 1969 641 
Q 2313 641 2545 903 
Q 2778 1166 2778 1666 
Q 2778 2153 2545 2415 
Q 2313 2678 1969 2678 
Q 1625 2678 1390 2415 
Q 1156 2153 1156 1659 
z
" transform="scale(0.015625)"/>
      </defs>
      <use xlink:href="#Arial-BoldMT-53"/>
      <use xlink:href="#Arial-BoldMT-63" transform="translate(66.699219 0)"/>
      <use xlink:href="#Arial-BoldMT-6f" transform="translate(122.314453 0)"/>
      <use xlink:href="#Arial-BoldMT-72" transform="translate(183.398438 0)"/>
      <use xlink:href="#Arial-BoldMT-65" transform="translate(222.314453 0)"/>
     </g>
    </g>
   </g>
   <g id="patch_63">
    <path d="M 64.7025 644.776 
L 64.7025 7.2 
" style="fill: none; stroke: #000000; stroke-width: 0.8; stroke-linejoin: miter; stroke-linecap: square"/>
   </g>
   <g id="patch_64">
    <path d="M 64.7025 644.776 
L 1731.9105 644.776 
" style="fill: none; stroke: #000000; stroke-width: 0.8; stroke-linejoin: miter; stroke-linecap: square"/>
   </g>
   <g id="text_15">
    <!-- 0.718 -->
    <g transform="translate(153.357697 189.240658) rotate(-90) scale(0.12 -0.12)">
     <defs>
      <path id="Arial-BoldMT-30" d="M 1756 4600 
Q 2422 4600 2797 4125 
Q 3244 3563 3244 2259 
Q 3244 959 2794 391 
Q 2422 -78 1756 -78 
Q 1088 -78 678 436 
Q 269 950 269 2269 
Q 269 3563 719 4131 
Q 1091 4600 1756 4600 
z
M 1756 3872 
Q 1597 3872 1472 3770 
Q 1347 3669 1278 3406 
Q 1188 3066 1188 2259 
Q 1188 1453 1269 1151 
Q 1350 850 1473 750 
Q 1597 650 1756 650 
Q 1916 650 2041 751 
Q 2166 853 2234 1116 
Q 2325 1453 2325 2259 
Q 2325 3066 2244 3367 
Q 2163 3669 2039 3770 
Q 1916 3872 1756 3872 
z
" transform="scale(0.015625)"/>
      <path id="Arial-BoldMT-2e" d="M 459 0 
L 459 878 
L 1338 878 
L 1338 0 
L 459 0 
z
" transform="scale(0.015625)"/>
      <path id="Arial-BoldMT-37" d="M 272 3703 
L 272 4519 
L 3275 4519 
L 3275 3881 
Q 2903 3516 2518 2831 
Q 2134 2147 1932 1376 
Q 1731 606 1734 0 
L 888 0 
Q 909 950 1279 1937 
Q 1650 2925 2269 3703 
L 272 3703 
z
" transform="scale(0.015625)"/>
      <path id="Arial-BoldMT-31" d="M 2519 0 
L 1641 0 
L 1641 3309 
Q 1159 2859 506 2644 
L 506 3441 
Q 850 3553 1253 3867 
Q 1656 4181 1806 4600 
L 2519 4600 
L 2519 0 
z
" transform="scale(0.015625)"/>
      <path id="Arial-BoldMT-38" d="M 1025 2472 
Q 684 2616 529 2867 
Q 375 3119 375 3419 
Q 375 3931 733 4265 
Q 1091 4600 1750 4600 
Q 2403 4600 2764 4265 
Q 3125 3931 3125 3419 
Q 3125 3100 2959 2851 
Q 2794 2603 2494 2472 
Q 2875 2319 3073 2025 
Q 3272 1731 3272 1347 
Q 3272 713 2867 316 
Q 2463 -81 1791 -81 
Q 1166 -81 750 247 
Q 259 634 259 1309 
Q 259 1681 443 1992 
Q 628 2303 1025 2472 
z
M 1206 3356 
Q 1206 3094 1354 2947 
Q 1503 2800 1750 2800 
Q 2000 2800 2150 2948 
Q 2300 3097 2300 3359 
Q 2300 3606 2151 3754 
Q 2003 3903 1759 3903 
Q 1506 3903 1356 3753 
Q 1206 3603 1206 3356 
z
M 1125 1394 
Q 1125 1031 1311 828 
Q 1497 625 1775 625 
Q 2047 625 2225 820 
Q 2403 1016 2403 1384 
Q 2403 1706 2222 1901 
Q 2041 2097 1763 2097 
Q 1441 2097 1283 1875 
Q 1125 1653 1125 1394 
z
" transform="scale(0.015625)"/>
     </defs>
     <use xlink:href="#Arial-BoldMT-30"/>
     <use xlink:href="#Arial-BoldMT-2e" transform="translate(55.615234 0)"/>
     <use xlink:href="#Arial-BoldMT-37" transform="translate(83.398438 0)"/>
     <use xlink:href="#Arial-BoldMT-31" transform="translate(139.013672 0)"/>
     <use xlink:href="#Arial-BoldMT-38" transform="translate(194.628906 0)"/>
    </g>
   </g>
   <g id="text_16">
    <!-- 0.705 -->
    <g transform="translate(413.688105 197.331948) rotate(-90) scale(0.12 -0.12)">
     <defs>
      <path id="Arial-BoldMT-35" d="M 284 1178 
L 1159 1269 
Q 1197 972 1381 798 
Q 1566 625 1806 625 
Q 2081 625 2272 848 
Q 2463 1072 2463 1522 
Q 2463 1944 2273 2155 
Q 2084 2366 1781 2366 
Q 1403 2366 1103 2031 
L 391 2134 
L 841 4519 
L 3163 4519 
L 3163 3697 
L 1506 3697 
L 1369 2919 
Q 1663 3066 1969 3066 
Q 2553 3066 2959 2641 
Q 3366 2216 3366 1538 
Q 3366 972 3038 528 
Q 2591 -78 1797 -78 
Q 1163 -78 763 262 
Q 363 603 284 1178 
z
" transform="scale(0.015625)"/>
     </defs>
     <use xlink:href="#Arial-BoldMT-30"/>
     <use xlink:href="#Arial-BoldMT-2e" transform="translate(55.615234 0)"/>
     <use xlink:href="#Arial-BoldMT-37" transform="translate(83.398438 0)"/>
     <use xlink:href="#Arial-BoldMT-30" transform="translate(139.013672 0)"/>
     <use xlink:href="#Arial-BoldMT-35" transform="translate(194.628906 0)"/>
    </g>
   </g>
   <g id="text_17">
    <!-- 0.870 -->
    <g transform="translate(674.018513 94.516172) rotate(-90) scale(0.12 -0.12)">
     <use xlink:href="#Arial-BoldMT-30"/>
     <use xlink:href="#Arial-BoldMT-2e" transform="translate(55.615234 0)"/>
     <use xlink:href="#Arial-BoldMT-38" transform="translate(83.398438 0)"/>
     <use xlink:href="#Arial-BoldMT-37" transform="translate(139.013672 0)"/>
     <use xlink:href="#Arial-BoldMT-30" transform="translate(194.628906 0)"/>
    </g>
   </g>
   <g id="text_18">
    <!-- 0.755 -->
    <g transform="translate(934.348922 165.882295) rotate(-90) scale(0.12 -0.12)">
     <use xlink:href="#Arial-BoldMT-30"/>
     <use xlink:href="#Arial-BoldMT-2e" transform="translate(55.615234 0)"/>
     <use xlink:href="#Arial-BoldMT-37" transform="translate(83.398438 0)"/>
     <use xlink:href="#Arial-BoldMT-35" transform="translate(139.013672 0)"/>
     <use xlink:href="#Arial-BoldMT-35" transform="translate(194.628906 0)"/>
    </g>
   </g>
   <g id="text_19">
    <!-- 0.712 -->
    <g transform="translate(1194.67933 192.95681) rotate(-90) scale(0.12 -0.12)">
     <defs>
      <path id="Arial-BoldMT-32" d="M 3238 816 
L 3238 0 
L 159 0 
Q 209 463 459 877 
Q 709 1291 1447 1975 
Q 2041 2528 2175 2725 
Q 2356 2997 2356 3263 
Q 2356 3556 2198 3714 
Q 2041 3872 1763 3872 
Q 1488 3872 1325 3706 
Q 1163 3541 1138 3156 
L 263 3244 
Q 341 3969 753 4284 
Q 1166 4600 1784 4600 
Q 2463 4600 2850 4234 
Q 3238 3869 3238 3325 
Q 3238 3016 3127 2736 
Q 3016 2456 2775 2150 
Q 2616 1947 2200 1565 
Q 1784 1184 1673 1059 
Q 1563 934 1494 816 
L 3238 816 
z
" transform="scale(0.015625)"/>
     </defs>
     <use xlink:href="#Arial-BoldMT-30"/>
     <use xlink:href="#Arial-BoldMT-2e" transform="translate(55.615234 0)"/>
     <use xlink:href="#Arial-BoldMT-37" transform="translate(83.398438 0)"/>
     <use xlink:href="#Arial-BoldMT-31" transform="translate(139.013672 0)"/>
     <use xlink:href="#Arial-BoldMT-32" transform="translate(194.628906 0)"/>
    </g>
   </g>
   <g id="text_20">
    <!-- 0.605 -->
    <g transform="translate(1455.009738 259.36905) rotate(-90) scale(0.12 -0.12)">
     <defs>
      <path id="Arial-BoldMT-36" d="M 3247 3459 
L 2397 3366 
Q 2366 3628 2234 3753 
Q 2103 3878 1894 3878 
Q 1616 3878 1423 3628 
Q 1231 3378 1181 2588 
Q 1509 2975 1997 2975 
Q 2547 2975 2939 2556 
Q 3331 2138 3331 1475 
Q 3331 772 2918 347 
Q 2506 -78 1859 -78 
Q 1166 -78 719 461 
Q 272 1000 272 2228 
Q 272 3488 737 4044 
Q 1203 4600 1947 4600 
Q 2469 4600 2811 4308 
Q 3153 4016 3247 3459 
z
M 1256 1544 
Q 1256 1116 1453 883 
Q 1650 650 1903 650 
Q 2147 650 2309 840 
Q 2472 1031 2472 1466 
Q 2472 1913 2297 2120 
Q 2122 2328 1859 2328 
Q 1606 2328 1431 2129 
Q 1256 1931 1256 1544 
z
" transform="scale(0.015625)"/>
     </defs>
     <use xlink:href="#Arial-BoldMT-30"/>
     <use xlink:href="#Arial-BoldMT-2e" transform="translate(55.615234 0)"/>
     <use xlink:href="#Arial-BoldMT-36" transform="translate(83.398438 0)"/>
     <use xlink:href="#Arial-BoldMT-30" transform="translate(139.013672 0)"/>
     <use xlink:href="#Arial-BoldMT-35" transform="translate(194.628906 0)"/>
    </g>
   </g>
   <g id="text_21">
    <!-- 0.664 -->
    <g transform="translate(174.965121 222.468891) rotate(-90) scale(0.12 -0.12)">
     <defs>
      <path id="Arial-BoldMT-34" d="M 1994 0 
L 1994 922 
L 119 922 
L 119 1691 
L 2106 4600 
L 2844 4600 
L 2844 1694 
L 3413 1694 
L 3413 922 
L 2844 922 
L 2844 0 
L 1994 0 
z
M 1994 1694 
L 1994 3259 
L 941 1694 
L 1994 1694 
z
" transform="scale(0.015625)"/>
     </defs>
     <use xlink:href="#Arial-BoldMT-30"/>
     <use xlink:href="#Arial-BoldMT-2e" transform="translate(55.615234 0)"/>
     <use xlink:href="#Arial-BoldMT-36" transform="translate(83.398438 0)"/>
     <use xlink:href="#Arial-BoldMT-36" transform="translate(139.013672 0)"/>
     <use xlink:href="#Arial-BoldMT-34" transform="translate(194.628906 0)"/>
    </g>
   </g>
   <g id="text_22">
    <!-- 0.672 -->
    <g transform="translate(435.295529 217.82902) rotate(-90) scale(0.12 -0.12)">
     <use xlink:href="#Arial-BoldMT-30"/>
     <use xlink:href="#Arial-BoldMT-2e" transform="translate(55.615234 0)"/>
     <use xlink:href="#Arial-BoldMT-36" transform="translate(83.398438 0)"/>
     <use xlink:href="#Arial-BoldMT-37" transform="translate(139.013672 0)"/>
     <use xlink:href="#Arial-BoldMT-32" transform="translate(194.628906 0)"/>
    </g>
   </g>
   <g id="text_23">
    <!-- 0.876 -->
    <g transform="translate(695.625937 90.812454) rotate(-90) scale(0.12 -0.12)">
     <use xlink:href="#Arial-BoldMT-30"/>
     <use xlink:href="#Arial-BoldMT-2e" transform="translate(55.615234 0)"/>
     <use xlink:href="#Arial-BoldMT-38" transform="translate(83.398438 0)"/>
     <use xlink:href="#Arial-BoldMT-37" transform="translate(139.013672 0)"/>
     <use xlink:href="#Arial-BoldMT-36" transform="translate(194.628906 0)"/>
    </g>
   </g>
   <g id="text_24">
    <!-- 0.751 -->
    <g transform="translate(955.956346 168.509987) rotate(-90) scale(0.12 -0.12)">
     <use xlink:href="#Arial-BoldMT-30"/>
     <use xlink:href="#Arial-BoldMT-2e" transform="translate(55.615234 0)"/>
     <use xlink:href="#Arial-BoldMT-37" transform="translate(83.398438 0)"/>
     <use xlink:href="#Arial-BoldMT-35" transform="translate(139.013672 0)"/>
     <use xlink:href="#Arial-BoldMT-31" transform="translate(194.628906 0)"/>
    </g>
   </g>
   <g id="text_25">
    <!-- 0.660 -->
    <g transform="translate(1216.286754 225.075138) rotate(-90) scale(0.12 -0.12)">
     <use xlink:href="#Arial-BoldMT-30"/>
     <use xlink:href="#Arial-BoldMT-2e" transform="translate(55.615234 0)"/>
     <use xlink:href="#Arial-BoldMT-36" transform="translate(83.398438 0)"/>
     <use xlink:href="#Arial-BoldMT-36" transform="translate(139.013672 0)"/>
     <use xlink:href="#Arial-BoldMT-30" transform="translate(194.628906 0)"/>
    </g>
   </g>
   <g id="text_26">
    <!-- 0.540 -->
    <g transform="translate(1476.617162 299.653312) rotate(-90) scale(0.12 -0.12)">
     <use xlink:href="#Arial-BoldMT-30"/>
     <use xlink:href="#Arial-BoldMT-2e" transform="translate(55.615234 0)"/>
     <use xlink:href="#Arial-BoldMT-35" transform="translate(83.398438 0)"/>
     <use xlink:href="#Arial-BoldMT-34" transform="translate(139.013672 0)"/>
     <use xlink:href="#Arial-BoldMT-30" transform="translate(194.628906 0)"/>
    </g>
   </g>
   <g id="text_27">
    <!-- 0.573 -->
    <g transform="translate(196.572545 279.431576) rotate(-90) scale(0.12 -0.12)">
     <defs>
      <path id="Arial-BoldMT-33" d="M 241 1216 
L 1091 1319 
Q 1131 994 1309 822 
Q 1488 650 1741 650 
Q 2013 650 2198 856 
Q 2384 1063 2384 1413 
Q 2384 1744 2206 1937 
Q 2028 2131 1772 2131 
Q 1603 2131 1369 2066 
L 1466 2781 
Q 1822 2772 2009 2936 
Q 2197 3100 2197 3372 
Q 2197 3603 2059 3740 
Q 1922 3878 1694 3878 
Q 1469 3878 1309 3722 
Q 1150 3566 1116 3266 
L 306 3403 
Q 391 3819 561 4067 
Q 731 4316 1036 4458 
Q 1341 4600 1719 4600 
Q 2366 4600 2756 4188 
Q 3078 3850 3078 3425 
Q 3078 2822 2419 2463 
Q 2813 2378 3048 2084 
Q 3284 1791 3284 1375 
Q 3284 772 2843 347 
Q 2403 -78 1747 -78 
Q 1125 -78 715 280 
Q 306 638 241 1216 
z
" transform="scale(0.015625)"/>
     </defs>
     <use xlink:href="#Arial-BoldMT-30"/>
     <use xlink:href="#Arial-BoldMT-2e" transform="translate(55.615234 0)"/>
     <use xlink:href="#Arial-BoldMT-35" transform="translate(83.398438 0)"/>
     <use xlink:href="#Arial-BoldMT-37" transform="translate(139.013672 0)"/>
     <use xlink:href="#Arial-BoldMT-33" transform="translate(194.628906 0)"/>
    </g>
   </g>
   <g id="text_28">
    <!-- 0.571 -->
    <g transform="translate(456.902953 280.497967) rotate(-90) scale(0.12 -0.12)">
     <use xlink:href="#Arial-BoldMT-30"/>
     <use xlink:href="#Arial-BoldMT-2e" transform="translate(55.615234 0)"/>
     <use xlink:href="#Arial-BoldMT-35" transform="translate(83.398438 0)"/>
     <use xlink:href="#Arial-BoldMT-37" transform="translate(139.013672 0)"/>
     <use xlink:href="#Arial-BoldMT-31" transform="translate(194.628906 0)"/>
    </g>
   </g>
   <g id="text_29">
    <!-- 0.777 -->
    <g transform="translate(717.233361 152.548899) rotate(-90) scale(0.12 -0.12)">
     <use xlink:href="#Arial-BoldMT-30"/>
     <use xlink:href="#Arial-BoldMT-2e" transform="translate(55.615234 0)"/>
     <use xlink:href="#Arial-BoldMT-37" transform="translate(83.398438 0)"/>
     <use xlink:href="#Arial-BoldMT-37" transform="translate(139.013672 0)"/>
     <use xlink:href="#Arial-BoldMT-37" transform="translate(194.628906 0)"/>
    </g>
   </g>
   <g id="text_30">
    <!-- 0.553 -->
    <g transform="translate(977.563769 291.877112) rotate(-90) scale(0.12 -0.12)">
     <use xlink:href="#Arial-BoldMT-30"/>
     <use xlink:href="#Arial-BoldMT-2e" transform="translate(55.615234 0)"/>
     <use xlink:href="#Arial-BoldMT-35" transform="translate(83.398438 0)"/>
     <use xlink:href="#Arial-BoldMT-35" transform="translate(139.013672 0)"/>
     <use xlink:href="#Arial-BoldMT-33" transform="translate(194.628906 0)"/>
    </g>
   </g>
   <g id="text_31">
    <!-- 0.559 -->
    <g transform="translate(1237.894178 288.135108) rotate(-90) scale(0.12 -0.12)">
     <defs>
      <path id="Arial-BoldMT-39" d="M 291 1059 
L 1141 1153 
Q 1172 894 1303 769 
Q 1434 644 1650 644 
Q 1922 644 2112 894 
Q 2303 1144 2356 1931 
Q 2025 1547 1528 1547 
Q 988 1547 595 1964 
Q 203 2381 203 3050 
Q 203 3747 617 4173 
Q 1031 4600 1672 4600 
Q 2369 4600 2816 4061 
Q 3263 3522 3263 2288 
Q 3263 1031 2797 475 
Q 2331 -81 1584 -81 
Q 1047 -81 715 205 
Q 384 491 291 1059 
z
M 2278 2978 
Q 2278 3403 2083 3637 
Q 1888 3872 1631 3872 
Q 1388 3872 1227 3680 
Q 1066 3488 1066 3050 
Q 1066 2606 1241 2398 
Q 1416 2191 1678 2191 
Q 1931 2191 2104 2391 
Q 2278 2591 2278 2978 
z
" transform="scale(0.015625)"/>
     </defs>
     <use xlink:href="#Arial-BoldMT-30"/>
     <use xlink:href="#Arial-BoldMT-2e" transform="translate(55.615234 0)"/>
     <use xlink:href="#Arial-BoldMT-35" transform="translate(83.398438 0)"/>
     <use xlink:href="#Arial-BoldMT-35" transform="translate(139.013672 0)"/>
     <use xlink:href="#Arial-BoldMT-39" transform="translate(194.628906 0)"/>
    </g>
   </g>
   <g id="text_32">
    <!-- 0.418 -->
    <g transform="translate(1498.224586 375.601301) rotate(-90) scale(0.12 -0.12)">
     <use xlink:href="#Arial-BoldMT-30"/>
     <use xlink:href="#Arial-BoldMT-2e" transform="translate(55.615234 0)"/>
     <use xlink:href="#Arial-BoldMT-34" transform="translate(83.398438 0)"/>
     <use xlink:href="#Arial-BoldMT-31" transform="translate(139.013672 0)"/>
     <use xlink:href="#Arial-BoldMT-38" transform="translate(194.628906 0)"/>
    </g>
   </g>
   <g id="text_33">
    <!-- 0.626 -->
    <g transform="translate(218.179969 246.203343) rotate(-90) scale(0.12 -0.12)">
     <use xlink:href="#Arial-BoldMT-30"/>
     <use xlink:href="#Arial-BoldMT-2e" transform="translate(55.615234 0)"/>
     <use xlink:href="#Arial-BoldMT-36" transform="translate(83.398438 0)"/>
     <use xlink:href="#Arial-BoldMT-32" transform="translate(139.013672 0)"/>
     <use xlink:href="#Arial-BoldMT-36" transform="translate(194.628906 0)"/>
    </g>
   </g>
   <g id="text_34">
    <!-- 0.590 -->
    <g transform="translate(478.510377 268.720644) rotate(-90) scale(0.12 -0.12)">
     <use xlink:href="#Arial-BoldMT-30"/>
     <use xlink:href="#Arial-BoldMT-2e" transform="translate(55.615234 0)"/>
     <use xlink:href="#Arial-BoldMT-35" transform="translate(83.398438 0)"/>
     <use xlink:href="#Arial-BoldMT-39" transform="translate(139.013672 0)"/>
     <use xlink:href="#Arial-BoldMT-30" transform="translate(194.628906 0)"/>
    </g>
   </g>
   <g id="text_35">
    <!-- 0.808 -->
    <g transform="translate(738.840785 133.137048) rotate(-90) scale(0.12 -0.12)">
     <use xlink:href="#Arial-BoldMT-30"/>
     <use xlink:href="#Arial-BoldMT-2e" transform="translate(55.615234 0)"/>
     <use xlink:href="#Arial-BoldMT-38" transform="translate(83.398438 0)"/>
     <use xlink:href="#Arial-BoldMT-30" transform="translate(139.013672 0)"/>
     <use xlink:href="#Arial-BoldMT-38" transform="translate(194.628906 0)"/>
    </g>
   </g>
   <g id="text_36">
    <!-- 0.625 -->
    <g transform="translate(999.171193 247.066274) rotate(-90) scale(0.12 -0.12)">
     <use xlink:href="#Arial-BoldMT-30"/>
     <use xlink:href="#Arial-BoldMT-2e" transform="translate(55.615234 0)"/>
     <use xlink:href="#Arial-BoldMT-36" transform="translate(83.398438 0)"/>
     <use xlink:href="#Arial-BoldMT-32" transform="translate(139.013672 0)"/>
     <use xlink:href="#Arial-BoldMT-35" transform="translate(194.628906 0)"/>
    </g>
   </g>
   <g id="text_37">
    <!-- 0.615 -->
    <g transform="translate(1259.501601 253.303239) rotate(-90) scale(0.12 -0.12)">
     <use xlink:href="#Arial-BoldMT-30"/>
     <use xlink:href="#Arial-BoldMT-2e" transform="translate(55.615234 0)"/>
     <use xlink:href="#Arial-BoldMT-36" transform="translate(83.398438 0)"/>
     <use xlink:href="#Arial-BoldMT-31" transform="translate(139.013672 0)"/>
     <use xlink:href="#Arial-BoldMT-35" transform="translate(194.628906 0)"/>
    </g>
   </g>
   <g id="text_38">
    <!-- 0.480 -->
    <g transform="translate(1519.83201 337.099381) rotate(-90) scale(0.12 -0.12)">
     <use xlink:href="#Arial-BoldMT-30"/>
     <use xlink:href="#Arial-BoldMT-2e" transform="translate(55.615234 0)"/>
     <use xlink:href="#Arial-BoldMT-34" transform="translate(83.398438 0)"/>
     <use xlink:href="#Arial-BoldMT-38" transform="translate(139.013672 0)"/>
     <use xlink:href="#Arial-BoldMT-30" transform="translate(194.628906 0)"/>
    </g>
   </g>
   <g id="text_39">
    <!-- 0.756 -->
    <g transform="translate(239.787393 165.506205) rotate(-90) scale(0.12 -0.12)">
     <use xlink:href="#Arial-BoldMT-30"/>
     <use xlink:href="#Arial-BoldMT-2e" transform="translate(55.615234 0)"/>
     <use xlink:href="#Arial-BoldMT-37" transform="translate(83.398438 0)"/>
     <use xlink:href="#Arial-BoldMT-35" transform="translate(139.013672 0)"/>
     <use xlink:href="#Arial-BoldMT-36" transform="translate(194.628906 0)"/>
    </g>
   </g>
   <g id="text_40">
    <!-- 0.736 -->
    <g transform="translate(500.117801 177.559635) rotate(-90) scale(0.12 -0.12)">
     <use xlink:href="#Arial-BoldMT-30"/>
     <use xlink:href="#Arial-BoldMT-2e" transform="translate(55.615234 0)"/>
     <use xlink:href="#Arial-BoldMT-37" transform="translate(83.398438 0)"/>
     <use xlink:href="#Arial-BoldMT-33" transform="translate(139.013672 0)"/>
     <use xlink:href="#Arial-BoldMT-36" transform="translate(194.628906 0)"/>
    </g>
   </g>
   <g id="text_41">
    <!-- 0.900 -->
    <g transform="translate(760.448209 75.841257) rotate(-90) scale(0.12 -0.12)">
     <use xlink:href="#Arial-BoldMT-30"/>
     <use xlink:href="#Arial-BoldMT-2e" transform="translate(55.615234 0)"/>
     <use xlink:href="#Arial-BoldMT-39" transform="translate(83.398438 0)"/>
     <use xlink:href="#Arial-BoldMT-30" transform="translate(139.013672 0)"/>
     <use xlink:href="#Arial-BoldMT-30" transform="translate(194.628906 0)"/>
    </g>
   </g>
   <g id="text_42">
    <!-- 0.785 -->
    <g transform="translate(1020.778617 147.58843) rotate(-90) scale(0.12 -0.12)">
     <use xlink:href="#Arial-BoldMT-30"/>
     <use xlink:href="#Arial-BoldMT-2e" transform="translate(55.615234 0)"/>
     <use xlink:href="#Arial-BoldMT-37" transform="translate(83.398438 0)"/>
     <use xlink:href="#Arial-BoldMT-38" transform="translate(139.013672 0)"/>
     <use xlink:href="#Arial-BoldMT-35" transform="translate(194.628906 0)"/>
    </g>
   </g>
   <g id="text_43">
    <!-- 0.747 -->
    <g transform="translate(1281.109025 170.693977) rotate(-90) scale(0.12 -0.12)">
     <use xlink:href="#Arial-BoldMT-30"/>
     <use xlink:href="#Arial-BoldMT-2e" transform="translate(55.615234 0)"/>
     <use xlink:href="#Arial-BoldMT-37" transform="translate(83.398438 0)"/>
     <use xlink:href="#Arial-BoldMT-34" transform="translate(139.013672 0)"/>
     <use xlink:href="#Arial-BoldMT-37" transform="translate(194.628906 0)"/>
    </g>
   </g>
   <g id="text_44">
    <!-- 0.659 -->
    <g transform="translate(1541.439433 225.741724) rotate(-90) scale(0.12 -0.12)">
     <use xlink:href="#Arial-BoldMT-30"/>
     <use xlink:href="#Arial-BoldMT-2e" transform="translate(55.615234 0)"/>
     <use xlink:href="#Arial-BoldMT-36" transform="translate(83.398438 0)"/>
     <use xlink:href="#Arial-BoldMT-35" transform="translate(139.013672 0)"/>
     <use xlink:href="#Arial-BoldMT-39" transform="translate(194.628906 0)"/>
    </g>
   </g>
   <g id="text_45">
    <!-- 0.611 -->
    <g transform="translate(261.394817 255.697124) rotate(-90) scale(0.12 -0.12)">
     <use xlink:href="#Arial-BoldMT-30"/>
     <use xlink:href="#Arial-BoldMT-2e" transform="translate(55.615234 0)"/>
     <use xlink:href="#Arial-BoldMT-36" transform="translate(83.398438 0)"/>
     <use xlink:href="#Arial-BoldMT-31" transform="translate(139.013672 0)"/>
     <use xlink:href="#Arial-BoldMT-31" transform="translate(189.128906 0)"/>
    </g>
   </g>
   <g id="text_46">
    <!-- 0.564 -->
    <g transform="translate(521.725225 284.937112) rotate(-90) scale(0.12 -0.12)">
     <use xlink:href="#Arial-BoldMT-30"/>
     <use xlink:href="#Arial-BoldMT-2e" transform="translate(55.615234 0)"/>
     <use xlink:href="#Arial-BoldMT-35" transform="translate(83.398438 0)"/>
     <use xlink:href="#Arial-BoldMT-36" transform="translate(139.013672 0)"/>
     <use xlink:href="#Arial-BoldMT-34" transform="translate(194.628906 0)"/>
    </g>
   </g>
   <g id="text_47">
    <!-- 0.825 -->
    <g transform="translate(782.055633 122.451254) rotate(-90) scale(0.12 -0.12)">
     <use xlink:href="#Arial-BoldMT-30"/>
     <use xlink:href="#Arial-BoldMT-2e" transform="translate(55.615234 0)"/>
     <use xlink:href="#Arial-BoldMT-38" transform="translate(83.398438 0)"/>
     <use xlink:href="#Arial-BoldMT-32" transform="translate(139.013672 0)"/>
     <use xlink:href="#Arial-BoldMT-35" transform="translate(194.628906 0)"/>
    </g>
   </g>
   <g id="text_48">
    <!-- 0.639 -->
    <g transform="translate(1042.386041 237.862111) rotate(-90) scale(0.12 -0.12)">
     <use xlink:href="#Arial-BoldMT-30"/>
     <use xlink:href="#Arial-BoldMT-2e" transform="translate(55.615234 0)"/>
     <use xlink:href="#Arial-BoldMT-36" transform="translate(83.398438 0)"/>
     <use xlink:href="#Arial-BoldMT-33" transform="translate(139.013672 0)"/>
     <use xlink:href="#Arial-BoldMT-39" transform="translate(194.628906 0)"/>
    </g>
   </g>
   <g id="text_49">
    <!-- 0.581 -->
    <g transform="translate(1302.716449 274.375718) rotate(-90) scale(0.12 -0.12)">
     <use xlink:href="#Arial-BoldMT-30"/>
     <use xlink:href="#Arial-BoldMT-2e" transform="translate(55.615234 0)"/>
     <use xlink:href="#Arial-BoldMT-35" transform="translate(83.398438 0)"/>
     <use xlink:href="#Arial-BoldMT-38" transform="translate(139.013672 0)"/>
     <use xlink:href="#Arial-BoldMT-31" transform="translate(194.628906 0)"/>
    </g>
   </g>
   <g id="text_50">
    <!-- 0.449 -->
    <g transform="translate(1563.046857 356.022985) rotate(-90) scale(0.12 -0.12)">
     <use xlink:href="#Arial-BoldMT-30"/>
     <use xlink:href="#Arial-BoldMT-2e" transform="translate(55.615234 0)"/>
     <use xlink:href="#Arial-BoldMT-34" transform="translate(83.398438 0)"/>
     <use xlink:href="#Arial-BoldMT-34" transform="translate(139.013672 0)"/>
     <use xlink:href="#Arial-BoldMT-39" transform="translate(194.628906 0)"/>
    </g>
   </g>
   <g id="text_51">
    <!-- 0.519 -->
    <g transform="translate(283.00224 312.659809) rotate(-90) scale(0.12 -0.12)">
     <use xlink:href="#Arial-BoldMT-30"/>
     <use xlink:href="#Arial-BoldMT-2e" transform="translate(55.615234 0)"/>
     <use xlink:href="#Arial-BoldMT-35" transform="translate(83.398438 0)"/>
     <use xlink:href="#Arial-BoldMT-31" transform="translate(139.013672 0)"/>
     <use xlink:href="#Arial-BoldMT-39" transform="translate(194.628906 0)"/>
    </g>
   </g>
   <g id="text_52">
    <!-- 0.500 -->
    <g transform="translate(543.332649 324.527036) rotate(-90) scale(0.12 -0.12)">
     <use xlink:href="#Arial-BoldMT-30"/>
     <use xlink:href="#Arial-BoldMT-2e" transform="translate(55.615234 0)"/>
     <use xlink:href="#Arial-BoldMT-35" transform="translate(83.398438 0)"/>
     <use xlink:href="#Arial-BoldMT-30" transform="translate(139.013672 0)"/>
     <use xlink:href="#Arial-BoldMT-30" transform="translate(194.628906 0)"/>
    </g>
   </g>
   <g id="text_53">
    <!-- 0.706 -->
    <g transform="translate(803.663057 196.237327) rotate(-90) scale(0.12 -0.12)">
     <use xlink:href="#Arial-BoldMT-30"/>
     <use xlink:href="#Arial-BoldMT-2e" transform="translate(55.615234 0)"/>
     <use xlink:href="#Arial-BoldMT-37" transform="translate(83.398438 0)"/>
     <use xlink:href="#Arial-BoldMT-30" transform="translate(139.013672 0)"/>
     <use xlink:href="#Arial-BoldMT-36" transform="translate(194.628906 0)"/>
    </g>
   </g>
   <g id="text_54">
    <!-- 0.624 -->
    <g transform="translate(1063.993465 247.323271) rotate(-90) scale(0.12 -0.12)">
     <use xlink:href="#Arial-BoldMT-30"/>
     <use xlink:href="#Arial-BoldMT-2e" transform="translate(55.615234 0)"/>
     <use xlink:href="#Arial-BoldMT-36" transform="translate(83.398438 0)"/>
     <use xlink:href="#Arial-BoldMT-32" transform="translate(139.013672 0)"/>
     <use xlink:href="#Arial-BoldMT-34" transform="translate(194.628906 0)"/>
    </g>
   </g>
   <g id="text_55">
    <!-- 0.434 -->
    <g transform="translate(1324.323873 365.520015) rotate(-90) scale(0.12 -0.12)">
     <use xlink:href="#Arial-BoldMT-30"/>
     <use xlink:href="#Arial-BoldMT-2e" transform="translate(55.615234 0)"/>
     <use xlink:href="#Arial-BoldMT-34" transform="translate(83.398438 0)"/>
     <use xlink:href="#Arial-BoldMT-33" transform="translate(139.013672 0)"/>
     <use xlink:href="#Arial-BoldMT-34" transform="translate(194.628906 0)"/>
    </g>
   </g>
   <g id="text_56">
    <!-- 0.249 -->
    <g transform="translate(1584.654281 480.391515) rotate(-90) scale(0.12 -0.12)">
     <use xlink:href="#Arial-BoldMT-30"/>
     <use xlink:href="#Arial-BoldMT-2e" transform="translate(55.615234 0)"/>
     <use xlink:href="#Arial-BoldMT-32" transform="translate(83.398438 0)"/>
     <use xlink:href="#Arial-BoldMT-34" transform="translate(139.013672 0)"/>
     <use xlink:href="#Arial-BoldMT-39" transform="translate(194.628906 0)"/>
    </g>
   </g>
   <g id="text_57">
    <!-- 0.611 -->
    <g transform="translate(304.609664 255.697124) rotate(-90) scale(0.12 -0.12)">
     <use xlink:href="#Arial-BoldMT-30"/>
     <use xlink:href="#Arial-BoldMT-2e" transform="translate(55.615234 0)"/>
     <use xlink:href="#Arial-BoldMT-36" transform="translate(83.398438 0)"/>
     <use xlink:href="#Arial-BoldMT-31" transform="translate(139.013672 0)"/>
     <use xlink:href="#Arial-BoldMT-31" transform="translate(189.128906 0)"/>
    </g>
   </g>
   <g id="text_58">
    <!-- 0.556 -->
    <g transform="translate(564.940072 289.512149) rotate(-90) scale(0.12 -0.12)">
     <use xlink:href="#Arial-BoldMT-30"/>
     <use xlink:href="#Arial-BoldMT-2e" transform="translate(55.615234 0)"/>
     <use xlink:href="#Arial-BoldMT-35" transform="translate(83.398438 0)"/>
     <use xlink:href="#Arial-BoldMT-35" transform="translate(139.013672 0)"/>
     <use xlink:href="#Arial-BoldMT-36" transform="translate(194.628906 0)"/>
    </g>
   </g>
   <g id="text_59">
    <!-- 0.853 -->
    <g transform="translate(825.270481 104.843208) rotate(-90) scale(0.12 -0.12)">
     <use xlink:href="#Arial-BoldMT-30"/>
     <use xlink:href="#Arial-BoldMT-2e" transform="translate(55.615234 0)"/>
     <use xlink:href="#Arial-BoldMT-38" transform="translate(83.398438 0)"/>
     <use xlink:href="#Arial-BoldMT-35" transform="translate(139.013672 0)"/>
     <use xlink:href="#Arial-BoldMT-33" transform="translate(194.628906 0)"/>
    </g>
   </g>
   <g id="text_60">
    <!-- 0.685 -->
    <g transform="translate(1085.600889 209.755715) rotate(-90) scale(0.12 -0.12)">
     <use xlink:href="#Arial-BoldMT-30"/>
     <use xlink:href="#Arial-BoldMT-2e" transform="translate(55.615234 0)"/>
     <use xlink:href="#Arial-BoldMT-36" transform="translate(83.398438 0)"/>
     <use xlink:href="#Arial-BoldMT-38" transform="translate(139.013672 0)"/>
     <use xlink:href="#Arial-BoldMT-35" transform="translate(194.628906 0)"/>
    </g>
   </g>
   <g id="text_61">
    <!-- 0.585 -->
    <g transform="translate(1345.931297 271.958519) rotate(-90) scale(0.12 -0.12)">
     <use xlink:href="#Arial-BoldMT-30"/>
     <use xlink:href="#Arial-BoldMT-2e" transform="translate(55.615234 0)"/>
     <use xlink:href="#Arial-BoldMT-35" transform="translate(83.398438 0)"/>
     <use xlink:href="#Arial-BoldMT-38" transform="translate(139.013672 0)"/>
     <use xlink:href="#Arial-BoldMT-35" transform="translate(194.628906 0)"/>
    </g>
   </g>
   <g id="text_62">
    <!-- 0.450 -->
    <g transform="translate(1606.261705 355.75466) rotate(-90) scale(0.12 -0.12)">
     <use xlink:href="#Arial-BoldMT-30"/>
     <use xlink:href="#Arial-BoldMT-2e" transform="translate(55.615234 0)"/>
     <use xlink:href="#Arial-BoldMT-34" transform="translate(83.398438 0)"/>
     <use xlink:href="#Arial-BoldMT-35" transform="translate(139.013672 0)"/>
     <use xlink:href="#Arial-BoldMT-30" transform="translate(194.628906 0)"/>
    </g>
   </g>
   <g id="text_63">
    <!-- 0.366 -->
    <g transform="translate(326.217088 407.597618) rotate(-90) scale(0.12 -0.12)">
     <use xlink:href="#Arial-BoldMT-30"/>
     <use xlink:href="#Arial-BoldMT-2e" transform="translate(55.615234 0)"/>
     <use xlink:href="#Arial-BoldMT-33" transform="translate(83.398438 0)"/>
     <use xlink:href="#Arial-BoldMT-36" transform="translate(139.013672 0)"/>
     <use xlink:href="#Arial-BoldMT-36" transform="translate(194.628906 0)"/>
    </g>
   </g>
   <g id="text_64">
    <!-- 0.250 -->
    <g transform="translate(586.547496 479.987698) rotate(-90) scale(0.12 -0.12)">
     <use xlink:href="#Arial-BoldMT-30"/>
     <use xlink:href="#Arial-BoldMT-2e" transform="translate(55.615234 0)"/>
     <use xlink:href="#Arial-BoldMT-32" transform="translate(83.398438 0)"/>
     <use xlink:href="#Arial-BoldMT-35" transform="translate(139.013672 0)"/>
     <use xlink:href="#Arial-BoldMT-30" transform="translate(194.628906 0)"/>
    </g>
   </g>
   <g id="text_65">
    <!-- 0.524 -->
    <g transform="translate(846.877904 309.482002) rotate(-90) scale(0.12 -0.12)">
     <use xlink:href="#Arial-BoldMT-30"/>
     <use xlink:href="#Arial-BoldMT-2e" transform="translate(55.615234 0)"/>
     <use xlink:href="#Arial-BoldMT-35" transform="translate(83.398438 0)"/>
     <use xlink:href="#Arial-BoldMT-32" transform="translate(139.013672 0)"/>
     <use xlink:href="#Arial-BoldMT-34" transform="translate(194.628906 0)"/>
    </g>
   </g>
   <g id="text_66">
    <!-- 0.272 -->
    <g transform="translate(1107.208313 466.616857) rotate(-90) scale(0.12 -0.12)">
     <use xlink:href="#Arial-BoldMT-30"/>
     <use xlink:href="#Arial-BoldMT-2e" transform="translate(55.615234 0)"/>
     <use xlink:href="#Arial-BoldMT-32" transform="translate(83.398438 0)"/>
     <use xlink:href="#Arial-BoldMT-37" transform="translate(139.013672 0)"/>
     <use xlink:href="#Arial-BoldMT-32" transform="translate(194.628906 0)"/>
    </g>
   </g>
   <g id="text_67">
    <!-- 0.134 -->
    <g transform="translate(1367.538721 552.072809) rotate(-90) scale(0.12 -0.12)">
     <use xlink:href="#Arial-BoldMT-30"/>
     <use xlink:href="#Arial-BoldMT-2e" transform="translate(55.615234 0)"/>
     <use xlink:href="#Arial-BoldMT-31" transform="translate(83.398438 0)"/>
     <use xlink:href="#Arial-BoldMT-33" transform="translate(139.013672 0)"/>
     <use xlink:href="#Arial-BoldMT-34" transform="translate(194.628906 0)"/>
    </g>
   </g>
   <g id="text_68">
    <!-- 0.000 -->
    <g transform="translate(1627.869129 635.44836) rotate(-90) scale(0.12 -0.12)">
     <use xlink:href="#Arial-BoldMT-30"/>
     <use xlink:href="#Arial-BoldMT-2e" transform="translate(55.615234 0)"/>
     <use xlink:href="#Arial-BoldMT-30" transform="translate(83.398438 0)"/>
     <use xlink:href="#Arial-BoldMT-30" transform="translate(139.013672 0)"/>
     <use xlink:href="#Arial-BoldMT-30" transform="translate(194.628906 0)"/>
    </g>
   </g>
   <g id="text_69">
    <!-- 0.873 -->
    <g transform="translate(347.824512 92.519753) rotate(-90) scale(0.12 -0.12)">
     <use xlink:href="#Arial-BoldMT-30"/>
     <use xlink:href="#Arial-BoldMT-2e" transform="translate(55.615234 0)"/>
     <use xlink:href="#Arial-BoldMT-38" transform="translate(83.398438 0)"/>
     <use xlink:href="#Arial-BoldMT-37" transform="translate(139.013672 0)"/>
     <use xlink:href="#Arial-BoldMT-33" transform="translate(194.628906 0)"/>
    </g>
   </g>
   <g id="text_70">
    <!-- 0.857 -->
    <g transform="translate(608.15492 102.487903) rotate(-90) scale(0.12 -0.12)">
     <use xlink:href="#Arial-BoldMT-30"/>
     <use xlink:href="#Arial-BoldMT-2e" transform="translate(55.615234 0)"/>
     <use xlink:href="#Arial-BoldMT-38" transform="translate(83.398438 0)"/>
     <use xlink:href="#Arial-BoldMT-35" transform="translate(139.013672 0)"/>
     <use xlink:href="#Arial-BoldMT-37" transform="translate(194.628906 0)"/>
    </g>
   </g>
   <g id="text_71">
    <!-- 0.945 -->
    <g transform="translate(868.485328 47.619772) rotate(-90) scale(0.12 -0.12)">
     <use xlink:href="#Arial-BoldMT-30"/>
     <use xlink:href="#Arial-BoldMT-2e" transform="translate(55.615234 0)"/>
     <use xlink:href="#Arial-BoldMT-39" transform="translate(83.398438 0)"/>
     <use xlink:href="#Arial-BoldMT-34" transform="translate(139.013672 0)"/>
     <use xlink:href="#Arial-BoldMT-35" transform="translate(194.628906 0)"/>
    </g>
   </g>
   <g id="text_72">
    <!-- 0.901 -->
    <g transform="translate(1128.815737 75.438473) rotate(-90) scale(0.12 -0.12)">
     <use xlink:href="#Arial-BoldMT-30"/>
     <use xlink:href="#Arial-BoldMT-2e" transform="translate(55.615234 0)"/>
     <use xlink:href="#Arial-BoldMT-39" transform="translate(83.398438 0)"/>
     <use xlink:href="#Arial-BoldMT-30" transform="translate(139.013672 0)"/>
     <use xlink:href="#Arial-BoldMT-31" transform="translate(194.628906 0)"/>
    </g>
   </g>
   <g id="text_73">
    <!-- 0.857 -->
    <g transform="translate(1389.146145 102.487903) rotate(-90) scale(0.12 -0.12)">
     <use xlink:href="#Arial-BoldMT-30"/>
     <use xlink:href="#Arial-BoldMT-2e" transform="translate(55.615234 0)"/>
     <use xlink:href="#Arial-BoldMT-38" transform="translate(83.398438 0)"/>
     <use xlink:href="#Arial-BoldMT-35" transform="translate(139.013672 0)"/>
     <use xlink:href="#Arial-BoldMT-37" transform="translate(194.628906 0)"/>
    </g>
   </g>
   <g id="text_74">
    <!-- 0.825 -->
    <g transform="translate(1649.476553 122.57876) rotate(-90) scale(0.12 -0.12)">
     <use xlink:href="#Arial-BoldMT-30"/>
     <use xlink:href="#Arial-BoldMT-2e" transform="translate(55.615234 0)"/>
     <use xlink:href="#Arial-BoldMT-38" transform="translate(83.398438 0)"/>
     <use xlink:href="#Arial-BoldMT-32" transform="translate(139.013672 0)"/>
     <use xlink:href="#Arial-BoldMT-35" transform="translate(194.628906 0)"/>
    </g>
   </g>
   <g id="legend_1">
    <g id="patch_65">
     <path d="M 1777.85466 240.07175 
L 1805.85466 240.07175 
L 1805.85466 230.27175 
L 1777.85466 230.27175 
z
" style="fill: #ff6b6b; opacity: 0.9"/>
    </g>
    <g id="text_75">
     <!-- GBM -->
     <g transform="translate(1817.05466 240.07175) scale(0.14 -0.14)">
      <defs>
       <path id="ArialMT-47" d="M 2638 1797 
L 2638 2334 
L 4578 2338 
L 4578 638 
Q 4131 281 3656 101 
Q 3181 -78 2681 -78 
Q 2006 -78 1454 211 
Q 903 500 622 1047 
Q 341 1594 341 2269 
Q 341 2938 620 3517 
Q 900 4097 1425 4378 
Q 1950 4659 2634 4659 
Q 3131 4659 3532 4498 
Q 3934 4338 4162 4050 
Q 4391 3763 4509 3300 
L 3963 3150 
Q 3859 3500 3706 3700 
Q 3553 3900 3268 4020 
Q 2984 4141 2638 4141 
Q 2222 4141 1919 4014 
Q 1616 3888 1430 3681 
Q 1244 3475 1141 3228 
Q 966 2803 966 2306 
Q 966 1694 1177 1281 
Q 1388 869 1791 669 
Q 2194 469 2647 469 
Q 3041 469 3416 620 
Q 3791 772 3984 944 
L 3984 1797 
L 2638 1797 
z
" transform="scale(0.015625)"/>
      </defs>
      <use xlink:href="#ArialMT-47"/>
      <use xlink:href="#ArialMT-42" transform="translate(77.783203 0)"/>
      <use xlink:href="#ArialMT-4d" transform="translate(144.482422 0)"/>
     </g>
    </g>
    <g id="patch_66">
     <path d="M 1777.85466 259.875187 
L 1805.85466 259.875187 
L 1805.85466 250.075187 
L 1777.85466 250.075187 
z
" style="fill: #ffa07a; opacity: 0.9"/>
    </g>
    <g id="text_76">
     <!-- KNN -->
     <g transform="translate(1817.05466 259.875187) scale(0.14 -0.14)">
      <defs>
       <path id="ArialMT-4b" d="M 469 0 
L 469 4581 
L 1075 4581 
L 1075 2309 
L 3350 4581 
L 4172 4581 
L 2250 2725 
L 4256 0 
L 3456 0 
L 1825 2319 
L 1075 1588 
L 1075 0 
L 469 0 
z
" transform="scale(0.015625)"/>
       <path id="ArialMT-4e" d="M 488 0 
L 488 4581 
L 1109 4581 
L 3516 984 
L 3516 4581 
L 4097 4581 
L 4097 0 
L 3475 0 
L 1069 3600 
L 1069 0 
L 488 0 
z
" transform="scale(0.015625)"/>
      </defs>
      <use xlink:href="#ArialMT-4b"/>
      <use xlink:href="#ArialMT-4e" transform="translate(66.699219 0)"/>
      <use xlink:href="#ArialMT-4e" transform="translate(138.916016 0)"/>
     </g>
    </g>
    <g id="patch_67">
     <path d="M 1777.85466 279.678625 
L 1805.85466 279.678625 
L 1805.85466 269.878625 
L 1777.85466 269.878625 
z
" style="fill: #4ecdc4; opacity: 0.9"/>
    </g>
    <g id="text_77">
     <!-- LogisticRegression -->
     <g transform="translate(1817.05466 279.678625) scale(0.14 -0.14)">
      <defs>
       <path id="ArialMT-4c" d="M 469 0 
L 469 4581 
L 1075 4581 
L 1075 541 
L 3331 541 
L 3331 0 
L 469 0 
z
" transform="scale(0.015625)"/>
       <path id="ArialMT-67" d="M 319 -275 
L 866 -356 
Q 900 -609 1056 -725 
Q 1266 -881 1628 -881 
Q 2019 -881 2231 -725 
Q 2444 -569 2519 -288 
Q 2563 -116 2559 434 
Q 2191 0 1641 0 
Q 956 0 581 494 
Q 206 988 206 1678 
Q 206 2153 378 2554 
Q 550 2956 876 3175 
Q 1203 3394 1644 3394 
Q 2231 3394 2613 2919 
L 2613 3319 
L 3131 3319 
L 3131 450 
Q 3131 -325 2973 -648 
Q 2816 -972 2473 -1159 
Q 2131 -1347 1631 -1347 
Q 1038 -1347 672 -1080 
Q 306 -813 319 -275 
z
M 784 1719 
Q 784 1066 1043 766 
Q 1303 466 1694 466 
Q 2081 466 2343 764 
Q 2606 1063 2606 1700 
Q 2606 2309 2336 2618 
Q 2066 2928 1684 2928 
Q 1309 2928 1046 2623 
Q 784 2319 784 1719 
z
" transform="scale(0.015625)"/>
       <path id="ArialMT-69" d="M 425 3934 
L 425 4581 
L 988 4581 
L 988 3934 
L 425 3934 
z
M 425 0 
L 425 3319 
L 988 3319 
L 988 0 
L 425 0 
z
" transform="scale(0.015625)"/>
       <path id="ArialMT-73" d="M 197 991 
L 753 1078 
Q 800 744 1014 566 
Q 1228 388 1613 388 
Q 2000 388 2187 545 
Q 2375 703 2375 916 
Q 2375 1106 2209 1216 
Q 2094 1291 1634 1406 
Q 1016 1563 777 1677 
Q 538 1791 414 1992 
Q 291 2194 291 2438 
Q 291 2659 392 2848 
Q 494 3038 669 3163 
Q 800 3259 1026 3326 
Q 1253 3394 1513 3394 
Q 1903 3394 2198 3281 
Q 2494 3169 2634 2976 
Q 2775 2784 2828 2463 
L 2278 2388 
Q 2241 2644 2061 2787 
Q 1881 2931 1553 2931 
Q 1166 2931 1000 2803 
Q 834 2675 834 2503 
Q 834 2394 903 2306 
Q 972 2216 1119 2156 
Q 1203 2125 1616 2013 
Q 2213 1853 2448 1751 
Q 2684 1650 2818 1456 
Q 2953 1263 2953 975 
Q 2953 694 2789 445 
Q 2625 197 2315 61 
Q 2006 -75 1616 -75 
Q 969 -75 630 194 
Q 291 463 197 991 
z
" transform="scale(0.015625)"/>
       <path id="ArialMT-74" d="M 1650 503 
L 1731 6 
Q 1494 -44 1306 -44 
Q 1000 -44 831 53 
Q 663 150 594 308 
Q 525 466 525 972 
L 525 2881 
L 113 2881 
L 113 3319 
L 525 3319 
L 525 4141 
L 1084 4478 
L 1084 3319 
L 1650 3319 
L 1650 2881 
L 1084 2881 
L 1084 941 
Q 1084 700 1114 631 
Q 1144 563 1211 522 
Q 1278 481 1403 481 
Q 1497 481 1650 503 
z
" transform="scale(0.015625)"/>
      </defs>
      <use xlink:href="#ArialMT-4c"/>
      <use xlink:href="#ArialMT-6f" transform="translate(55.615234 0)"/>
      <use xlink:href="#ArialMT-67" transform="translate(111.230469 0)"/>
      <use xlink:href="#ArialMT-69" transform="translate(166.845703 0)"/>
      <use xlink:href="#ArialMT-73" transform="translate(189.0625 0)"/>
      <use xlink:href="#ArialMT-74" transform="translate(239.0625 0)"/>
      <use xlink:href="#ArialMT-69" transform="translate(266.845703 0)"/>
      <use xlink:href="#ArialMT-63" transform="translate(289.0625 0)"/>
      <use xlink:href="#ArialMT-52" transform="translate(339.0625 0)"/>
      <use xlink:href="#ArialMT-65" transform="translate(411.279297 0)"/>
      <use xlink:href="#ArialMT-67" transform="translate(466.894531 0)"/>
      <use xlink:href="#ArialMT-72" transform="translate(522.509766 0)"/>
      <use xlink:href="#ArialMT-65" transform="translate(555.810547 0)"/>
      <use xlink:href="#ArialMT-73" transform="translate(611.425781 0)"/>
      <use xlink:href="#ArialMT-73" transform="translate(661.425781 0)"/>
      <use xlink:href="#ArialMT-69" transform="translate(711.425781 0)"/>
      <use xlink:href="#ArialMT-6f" transform="translate(733.642578 0)"/>
      <use xlink:href="#ArialMT-6e" transform="translate(789.257812 0)"/>
     </g>
    </g>
    <g id="patch_68">
     <path d="M 1777.85466 299.646125 
L 1805.85466 299.646125 
L 1805.85466 289.846125 
L 1777.85466 289.846125 
z
" style="fill: #45b7d1; opacity: 0.9"/>
    </g>
    <g id="text_78">
     <!-- MLP -->
     <g transform="translate(1817.05466 299.646125) scale(0.14 -0.14)">
      <use xlink:href="#ArialMT-4d"/>
      <use xlink:href="#ArialMT-4c" transform="translate(83.300781 0)"/>
      <use xlink:href="#ArialMT-50" transform="translate(138.916016 0)"/>
     </g>
    </g>
    <g id="patch_69">
     <path d="M 1777.85466 319.449562 
L 1805.85466 319.449562 
L 1805.85466 309.649562 
L 1777.85466 309.649562 
z
" style="fill: #9b59b6; opacity: 0.9"/>
    </g>
    <g id="text_79">
     <!-- RandomForest -->
     <g transform="translate(1817.05466 319.449562) scale(0.14 -0.14)">
      <defs>
       <path id="ArialMT-6d" d="M 422 0 
L 422 3319 
L 925 3319 
L 925 2853 
Q 1081 3097 1340 3245 
Q 1600 3394 1931 3394 
Q 2300 3394 2536 3241 
Q 2772 3088 2869 2813 
Q 3263 3394 3894 3394 
Q 4388 3394 4653 3120 
Q 4919 2847 4919 2278 
L 4919 0 
L 4359 0 
L 4359 2091 
Q 4359 2428 4304 2576 
Q 4250 2725 4106 2815 
Q 3963 2906 3769 2906 
Q 3419 2906 3187 2673 
Q 2956 2441 2956 1928 
L 2956 0 
L 2394 0 
L 2394 2156 
Q 2394 2531 2256 2718 
Q 2119 2906 1806 2906 
Q 1569 2906 1367 2781 
Q 1166 2656 1075 2415 
Q 984 2175 984 1722 
L 984 0 
L 422 0 
z
" transform="scale(0.015625)"/>
      </defs>
      <use xlink:href="#ArialMT-52"/>
      <use xlink:href="#ArialMT-61" transform="translate(72.216797 0)"/>
      <use xlink:href="#ArialMT-6e" transform="translate(127.832031 0)"/>
      <use xlink:href="#ArialMT-64" transform="translate(183.447266 0)"/>
      <use xlink:href="#ArialMT-6f" transform="translate(239.0625 0)"/>
      <use xlink:href="#ArialMT-6d" transform="translate(294.677734 0)"/>
      <use xlink:href="#ArialMT-46" transform="translate(377.978516 0)"/>
      <use xlink:href="#ArialMT-6f" transform="translate(439.0625 0)"/>
      <use xlink:href="#ArialMT-72" transform="translate(494.677734 0)"/>
      <use xlink:href="#ArialMT-65" transform="translate(527.978516 0)"/>
      <use xlink:href="#ArialMT-73" transform="translate(583.59375 0)"/>
      <use xlink:href="#ArialMT-74" transform="translate(633.59375 0)"/>
     </g>
    </g>
    <g id="patch_70">
     <path d="M 1777.85466 339.423625 
L 1805.85466 339.423625 
L 1805.85466 329.623625 
L 1777.85466 329.623625 
z
" style="fill: #f39c12; opacity: 0.9"/>
    </g>
    <g id="text_80">
     <!-- SimpleCNN -->
     <g transform="translate(1817.05466 339.423625) scale(0.14 -0.14)">
      <defs>
       <path id="ArialMT-70" d="M 422 -1272 
L 422 3319 
L 934 3319 
L 934 2888 
Q 1116 3141 1344 3267 
Q 1572 3394 1897 3394 
Q 2322 3394 2647 3175 
Q 2972 2956 3137 2557 
Q 3303 2159 3303 1684 
Q 3303 1175 3120 767 
Q 2938 359 2589 142 
Q 2241 -75 1856 -75 
Q 1575 -75 1351 44 
Q 1128 163 984 344 
L 984 -1272 
L 422 -1272 
z
M 931 1641 
Q 931 1000 1190 694 
Q 1450 388 1819 388 
Q 2194 388 2461 705 
Q 2728 1022 2728 1688 
Q 2728 2322 2467 2637 
Q 2206 2953 1844 2953 
Q 1484 2953 1207 2617 
Q 931 2281 931 1641 
z
" transform="scale(0.015625)"/>
      </defs>
      <use xlink:href="#ArialMT-53"/>
      <use xlink:href="#ArialMT-69" transform="translate(66.699219 0)"/>
      <use xlink:href="#ArialMT-6d" transform="translate(88.916016 0)"/>
      <use xlink:href="#ArialMT-70" transform="translate(172.216797 0)"/>
      <use xlink:href="#ArialMT-6c" transform="translate(227.832031 0)"/>
      <use xlink:href="#ArialMT-65" transform="translate(250.048828 0)"/>
      <use xlink:href="#ArialMT-43" transform="translate(305.664062 0)"/>
      <use xlink:href="#ArialMT-4e" transform="translate(377.880859 0)"/>
      <use xlink:href="#ArialMT-4e" transform="translate(450.097656 0)"/>
     </g>
    </g>
    <g id="patch_71">
     <path d="M 1777.85466 359.397687 
L 1805.85466 359.397687 
L 1805.85466 349.597687 
L 1777.85466 349.597687 
z
" style="fill: #e74c3c; opacity: 0.9"/>
    </g>
    <g id="text_81">
     <!-- SimpleLSTM -->
     <g transform="translate(1817.05466 359.397687) scale(0.14 -0.14)">
      <defs>
       <path id="ArialMT-54" d="M 1659 0 
L 1659 4041 
L 150 4041 
L 150 4581 
L 3781 4581 
L 3781 4041 
L 2266 4041 
L 2266 0 
L 1659 0 
z
" transform="scale(0.015625)"/>
      </defs>
      <use xlink:href="#ArialMT-53"/>
      <use xlink:href="#ArialMT-69" transform="translate(66.699219 0)"/>
      <use xlink:href="#ArialMT-6d" transform="translate(88.916016 0)"/>
      <use xlink:href="#ArialMT-70" transform="translate(172.216797 0)"/>
      <use xlink:href="#ArialMT-6c" transform="translate(227.832031 0)"/>
      <use xlink:href="#ArialMT-65" transform="translate(250.048828 0)"/>
      <use xlink:href="#ArialMT-4c" transform="translate(305.664062 0)"/>
      <use xlink:href="#ArialMT-53" transform="translate(361.279297 0)"/>
      <use xlink:href="#ArialMT-54" transform="translate(427.978516 0)"/>
      <use xlink:href="#ArialMT-4d" transform="translate(489.0625 0)"/>
     </g>
    </g>
    <g id="patch_72">
     <path d="M 1777.85466 379.201125 
L 1805.85466 379.201125 
L 1805.85466 369.401125 
L 1777.85466 369.401125 
z
" style="fill: #3498db; opacity: 0.9"/>
    </g>
    <g id="text_82">
     <!-- SVM -->
     <g transform="translate(1817.05466 379.201125) scale(0.14 -0.14)">
      <defs>
       <path id="ArialMT-56" d="M 1803 0 
L 28 4581 
L 684 4581 
L 1875 1253 
Q 2019 853 2116 503 
Q 2222 878 2363 1253 
L 3600 4581 
L 4219 4581 
L 2425 0 
L 1803 0 
z
" transform="scale(0.015625)"/>
      </defs>
      <use xlink:href="#ArialMT-53"/>
      <use xlink:href="#ArialMT-56" transform="translate(66.699219 0)"/>
      <use xlink:href="#ArialMT-4d" transform="translate(133.398438 0)"/>
     </g>
    </g>
    <g id="patch_73">
     <path d="M 1777.85466 399.004562 
L 1805.85466 399.004562 
L 1805.85466 389.204562 
L 1777.85466 389.204562 
z
" style="fill: #8e44ad; opacity: 0.9"/>
    </g>
    <g id="text_83">
     <!-- Transformer -->
     <g transform="translate(1817.05466 399.004562) scale(0.14 -0.14)">
      <defs>
       <path id="ArialMT-66" d="M 556 0 
L 556 2881 
L 59 2881 
L 59 3319 
L 556 3319 
L 556 3672 
Q 556 4006 616 4169 
Q 697 4388 901 4523 
Q 1106 4659 1475 4659 
Q 1713 4659 2000 4603 
L 1916 4113 
Q 1741 4144 1584 4144 
Q 1328 4144 1222 4034 
Q 1116 3925 1116 3625 
L 1116 3319 
L 1763 3319 
L 1763 2881 
L 1116 2881 
L 1116 0 
L 556 0 
z
" transform="scale(0.015625)"/>
      </defs>
      <use xlink:href="#ArialMT-54"/>
      <use xlink:href="#ArialMT-72" transform="translate(57.333984 0)"/>
      <use xlink:href="#ArialMT-61" transform="translate(90.634766 0)"/>
      <use xlink:href="#ArialMT-6e" transform="translate(146.25 0)"/>
      <use xlink:href="#ArialMT-73" transform="translate(201.865234 0)"/>
      <use xlink:href="#ArialMT-66" transform="translate(251.865234 0)"/>
      <use xlink:href="#ArialMT-6f" transform="translate(279.648438 0)"/>
      <use xlink:href="#ArialMT-72" transform="translate(335.263672 0)"/>
      <use xlink:href="#ArialMT-6d" transform="translate(368.564453 0)"/>
      <use xlink:href="#ArialMT-65" transform="translate(451.865234 0)"/>
      <use xlink:href="#ArialMT-72" transform="translate(507.480469 0)"/>
     </g>
    </g>
    <g id="patch_74">
     <path d="M 1777.85466 418.978625 
L 1805.85466 418.978625 
L 1805.85466 409.178625 
L 1777.85466 409.178625 
z
" style="fill: #ff0000; opacity: 0.9"/>
    </g>
    <g id="text_84">
     <!-- MMACE (k=12) -->
     <g transform="translate(1817.05466 418.978625) scale(0.14 -0.14)">
      <defs>
       <path id="ArialMT-45" d="M 506 0 
L 506 4581 
L 3819 4581 
L 3819 4041 
L 1113 4041 
L 1113 2638 
L 3647 2638 
L 3647 2100 
L 1113 2100 
L 1113 541 
L 3925 541 
L 3925 0 
L 506 0 
z
" transform="scale(0.015625)"/>
       <path id="ArialMT-20" transform="scale(0.015625)"/>
       <path id="ArialMT-28" d="M 1497 -1347 
Q 1031 -759 709 28 
Q 388 816 388 1659 
Q 388 2403 628 3084 
Q 909 3875 1497 4659 
L 1900 4659 
Q 1522 4009 1400 3731 
Q 1209 3300 1100 2831 
Q 966 2247 966 1656 
Q 966 153 1900 -1347 
L 1497 -1347 
z
" transform="scale(0.015625)"/>
       <path id="ArialMT-6b" d="M 425 0 
L 425 4581 
L 988 4581 
L 988 1969 
L 2319 3319 
L 3047 3319 
L 1778 2088 
L 3175 0 
L 2481 0 
L 1384 1697 
L 988 1316 
L 988 0 
L 425 0 
z
" transform="scale(0.015625)"/>
       <path id="ArialMT-3d" d="M 3381 2694 
L 356 2694 
L 356 3219 
L 3381 3219 
L 3381 2694 
z
M 3381 1303 
L 356 1303 
L 356 1828 
L 3381 1828 
L 3381 1303 
z
" transform="scale(0.015625)"/>
       <path id="ArialMT-29" d="M 791 -1347 
L 388 -1347 
Q 1322 153 1322 1656 
Q 1322 2244 1188 2822 
Q 1081 3291 891 3722 
Q 769 4003 388 4659 
L 791 4659 
Q 1378 3875 1659 3084 
Q 1900 2403 1900 1659 
Q 1900 816 1576 28 
Q 1253 -759 791 -1347 
z
" transform="scale(0.015625)"/>
      </defs>
      <use xlink:href="#ArialMT-4d"/>
      <use xlink:href="#ArialMT-4d" transform="translate(83.300781 0)"/>
      <use xlink:href="#ArialMT-41" transform="translate(166.601562 0)"/>
      <use xlink:href="#ArialMT-43" transform="translate(233.300781 0)"/>
      <use xlink:href="#ArialMT-45" transform="translate(305.517578 0)"/>
      <use xlink:href="#ArialMT-20" transform="translate(372.216797 0)"/>
      <use xlink:href="#ArialMT-28" transform="translate(400 0)"/>
      <use xlink:href="#ArialMT-6b" transform="translate(433.300781 0)"/>
      <use xlink:href="#ArialMT-3d" transform="translate(483.300781 0)"/>
      <use xlink:href="#ArialMT-31" transform="translate(541.699219 0)"/>
      <use xlink:href="#ArialMT-32" transform="translate(597.314453 0)"/>
      <use xlink:href="#ArialMT-29" transform="translate(652.929688 0)"/>
     </g>
    </g>
   </g>
  </g>
 </g>
 <defs>
  <clipPath id="pc5fb1e1e73">
   <rect x="64.7025" y="7.2" width="1667.208" height="637.576"/>
  </clipPath>
 </defs>
</svg>
