<?xml version="1.0" encoding="utf-8" standalone="no"?>
<!DOCTYPE svg PUBLIC "-//W3C//DTD SVG 1.1//EN"
  "http://www.w3.org/Graphics/SVG/1.1/DTD/svg11.dtd">
<svg xmlns:xlink="http://www.w3.org/1999/xlink" width="501.5171pt" height="426.96pt" viewBox="0 0 501.5171 426.96" xmlns="http://www.w3.org/2000/svg" version="1.1">
 <metadata>
  <rdf:RDF xmlns:dc="http://purl.org/dc/elements/1.1/" xmlns:cc="http://creativecommons.org/ns#" xmlns:rdf="http://www.w3.org/1999/02/22-rdf-syntax-ns#">
   <cc:Work>
    <dc:type rdf:resource="http://purl.org/dc/dcmitype/StillImage"/>
    <dc:date>2026-01-04T23:32:27.800495</dc:date>
    <dc:format>image/svg+xml</dc:format>
    <dc:creator>
     <cc:Agent>
      <dc:title>Matplotlib v3.10.6, https://matplotlib.org/</dc:title>
     </cc:Agent>
    </dc:creator>
   </cc:Work>
  </rdf:RDF>
 </metadata>
 <defs>
  <style type="text/css">*{stroke-linejoin: round; stroke-linecap: butt}</style>
 </defs>
 <g id="figure_1">
  <g id="patch_1">
   <path d="M 0 426.96 
L 501.5171 426.96 
L 501.5171 0 
L 0 0 
z
" style="fill: #ffffff"/>
  </g>
  <g id="axes_1">
   <g id="patch_2">
    <path d="M 367.1565 254.55925 
C 367.1565 232.865286 362.883262 211.382269 354.581342 191.33966 
C 346.279421 171.297051 334.110269 153.084628 318.770321 137.744679 
C 303.430372 122.404731 285.217949 110.235579 265.17534 101.933658 
C 245.132731 93.631738 223.649714 89.3585 201.95575 89.3585 
C 180.261786 89.3585 158.778769 93.631738 138.73616 101.933658 
C 118.693551 110.235579 100.481128 122.404731 85.141179 137.744679 
C 69.801231 153.084628 57.632079 171.297051 49.330158 191.33966 
C 41.028238 211.382269 36.755 232.865286 36.755 254.55925 
C 36.755 276.253214 41.028238 297.736231 49.330158 317.77884 
C 57.632079 337.821449 69.801231 356.033872 85.141179 371.373821 
C 100.481128 386.713769 118.693551 398.882921 138.73616 407.184842 
C 158.778769 415.486762 180.261786 419.76 201.95575 419.76 
C 223.649714 419.76 245.132731 415.486762 265.17534 407.184842 
C 285.217949 398.882921 303.430372 386.713769 318.770321 371.373821 
C 334.110269 356.033872 346.279421 337.821449 354.581342 317.77884 
C 362.883262 297.736231 367.1565 276.253214 367.1565 254.55925 
M 201.95575 254.55925 
C 201.95575 254.55925 201.95575 254.55925 201.95575 254.55925 
C 201.95575 254.55925 201.95575 254.55925 201.95575 254.55925 
C 201.95575 254.55925 201.95575 254.55925 201.95575 254.55925 
C 201.95575 254.55925 201.95575 254.55925 201.95575 254.55925 
C 201.95575 254.55925 201.95575 254.55925 201.95575 254.55925 
C 201.95575 254.55925 201.95575 254.55925 201.95575 254.55925 
C 201.95575 254.55925 201.95575 254.55925 201.95575 254.55925 
C 201.95575 254.55925 201.95575 254.55925 201.95575 254.55925 
C 201.95575 254.55925 201.95575 254.55925 201.95575 254.55925 
C 201.95575 254.55925 201.95575 254.55925 201.95575 254.55925 
C 201.95575 254.55925 201.95575 254.55925 201.95575 254.55925 
C 201.95575 254.55925 201.95575 254.55925 201.95575 254.55925 
C 201.95575 254.55925 201.95575 254.55925 201.95575 254.55925 
C 201.95575 254.55925 201.95575 254.55925 201.95575 254.55925 
C 201.95575 254.55925 201.95575 254.55925 201.95575 254.55925 
C 201.95575 254.55925 201.95575 254.55925 201.95575 254.55925 
z
" style="fill: #ffffff"/>
   </g>
   <g id="patch_3">
    <path d="M 301.753523 254.55925 
L 247.675058 175.371086 
L 138.915144 145.369717 
L 110.186733 254.55925 
L 155.68302 334.705969 
L 261.601481 357.868686 
z
" clip-path="url(#pf759527d07)" style="fill: #ff6b6b; opacity: 0.1; stroke: #ff6b6b; stroke-linejoin: miter"/>
   </g>
   <g id="patch_4">
    <path d="M 346.192525 254.55925 
L 272.752531 131.935628 
L 123.873616 119.317026 
L 53.175955 254.55925 
L 130.283405 378.699394 
L 277.320332 385.094535 
z
" clip-path="url(#pf759527d07)" style="fill: #4ecdc4; opacity: 0.1; stroke: #4ecdc4; stroke-linejoin: miter"/>
   </g>
   <g id="matplotlib.axis_1">
    <g id="xtick_1">
     <g id="line2d_1">
      <path d="M 201.95575 254.55925 
L 367.1565 254.55925 
" clip-path="url(#pf759527d07)" style="fill: none; stroke: #b0b0b0; stroke-width: 0.8; stroke-linecap: square"/>
     </g>
     <g id="text_1">
      <!-- Accuracy -->
      <g transform="translate(363.145875 252.244375) scale(0.08 -0.08)">
       <defs>
        <path id="Arial-BoldMT-41" d="M 4597 0 
L 3591 0 
L 3191 1041 
L 1359 1041 
L 981 0 
L 0 0 
L 1784 4581 
L 2763 4581 
L 4597 0 
z
M 2894 1813 
L 2263 3513 
L 1644 1813 
L 2894 1813 
z
" transform="scale(0.015625)"/>
        <path id="Arial-BoldMT-63" d="M 3353 2338 
L 2488 2181 
Q 2444 2441 2289 2572 
Q 2134 2703 1888 2703 
Q 1559 2703 1364 2476 
Q 1169 2250 1169 1719 
Q 1169 1128 1367 884 
Q 1566 641 1900 641 
Q 2150 641 2309 783 
Q 2469 925 2534 1272 
L 3397 1125 
Q 3263 531 2881 228 
Q 2500 -75 1859 -75 
Q 1131 -75 698 384 
Q 266 844 266 1656 
Q 266 2478 700 2936 
Q 1134 3394 1875 3394 
Q 2481 3394 2839 3133 
Q 3197 2872 3353 2338 
z
" transform="scale(0.015625)"/>
        <path id="Arial-BoldMT-75" d="M 2644 0 
L 2644 497 
Q 2463 231 2167 78 
Q 1872 -75 1544 -75 
Q 1209 -75 943 72 
Q 678 219 559 484 
Q 441 750 441 1219 
L 441 3319 
L 1319 3319 
L 1319 1794 
Q 1319 1094 1367 936 
Q 1416 778 1544 686 
Q 1672 594 1869 594 
Q 2094 594 2272 717 
Q 2450 841 2515 1023 
Q 2581 1206 2581 1919 
L 2581 3319 
L 3459 3319 
L 3459 0 
L 2644 0 
z
" transform="scale(0.015625)"/>
        <path id="Arial-BoldMT-72" d="M 1300 0 
L 422 0 
L 422 3319 
L 1238 3319 
L 1238 2847 
Q 1447 3181 1614 3287 
Q 1781 3394 1994 3394 
Q 2294 3394 2572 3228 
L 2300 2463 
Q 2078 2606 1888 2606 
Q 1703 2606 1575 2504 
Q 1447 2403 1373 2137 
Q 1300 1872 1300 1025 
L 1300 0 
z
" transform="scale(0.015625)"/>
        <path id="Arial-BoldMT-61" d="M 1116 2306 
L 319 2450 
Q 453 2931 781 3162 
Q 1109 3394 1756 3394 
Q 2344 3394 2631 3255 
Q 2919 3116 3036 2902 
Q 3153 2688 3153 2116 
L 3144 1091 
Q 3144 653 3186 445 
Q 3228 238 3344 0 
L 2475 0 
Q 2441 88 2391 259 
Q 2369 338 2359 363 
Q 2134 144 1878 34 
Q 1622 -75 1331 -75 
Q 819 -75 523 203 
Q 228 481 228 906 
Q 228 1188 362 1408 
Q 497 1628 739 1745 
Q 981 1863 1438 1950 
Q 2053 2066 2291 2166 
L 2291 2253 
Q 2291 2506 2166 2614 
Q 2041 2722 1694 2722 
Q 1459 2722 1328 2630 
Q 1197 2538 1116 2306 
z
M 2291 1594 
Q 2122 1538 1756 1459 
Q 1391 1381 1278 1306 
Q 1106 1184 1106 997 
Q 1106 813 1243 678 
Q 1381 544 1594 544 
Q 1831 544 2047 700 
Q 2206 819 2256 991 
Q 2291 1103 2291 1419 
L 2291 1594 
z
" transform="scale(0.015625)"/>
        <path id="Arial-BoldMT-79" d="M 44 3319 
L 978 3319 
L 1772 963 
L 2547 3319 
L 3456 3319 
L 2284 125 
L 2075 -453 
Q 1959 -744 1854 -897 
Q 1750 -1050 1614 -1145 
Q 1478 -1241 1279 -1294 
Q 1081 -1347 831 -1347 
Q 578 -1347 334 -1294 
L 256 -606 
Q 463 -647 628 -647 
Q 934 -647 1081 -467 
Q 1228 -288 1306 -9 
L 44 3319 
z
" transform="scale(0.015625)"/>
       </defs>
       <use xlink:href="#Arial-BoldMT-41"/>
       <use xlink:href="#Arial-BoldMT-63" transform="translate(72.216797 0)"/>
       <use xlink:href="#Arial-BoldMT-63" transform="translate(127.832031 0)"/>
       <use xlink:href="#Arial-BoldMT-75" transform="translate(183.447266 0)"/>
       <use xlink:href="#Arial-BoldMT-72" transform="translate(244.53125 0)"/>
       <use xlink:href="#Arial-BoldMT-61" transform="translate(283.447266 0)"/>
       <use xlink:href="#Arial-BoldMT-63" transform="translate(339.0625 0)"/>
       <use xlink:href="#Arial-BoldMT-79" transform="translate(394.677734 0)"/>
      </g>
      <!-- (0-1) -->
      <g transform="translate(372.712125 260.916625) scale(0.08 -0.08)">
       <defs>
        <path id="Arial-BoldMT-28" d="M 1916 -1347 
L 1313 -1347 
Q 834 -625 584 153 
Q 334 931 334 1659 
Q 334 2563 644 3369 
Q 913 4069 1325 4659 
L 1925 4659 
Q 1497 3713 1336 3048 
Q 1175 2384 1175 1641 
Q 1175 1128 1270 590 
Q 1366 53 1531 -431 
Q 1641 -750 1916 -1347 
z
" transform="scale(0.015625)"/>
        <path id="Arial-BoldMT-30" d="M 1756 4600 
Q 2422 4600 2797 4125 
Q 3244 3563 3244 2259 
Q 3244 959 2794 391 
Q 2422 -78 1756 -78 
Q 1088 -78 678 436 
Q 269 950 269 2269 
Q 269 3563 719 4131 
Q 1091 4600 1756 4600 
z
M 1756 3872 
Q 1597 3872 1472 3770 
Q 1347 3669 1278 3406 
Q 1188 3066 1188 2259 
Q 1188 1453 1269 1151 
Q 1350 850 1473 750 
Q 1597 650 1756 650 
Q 1916 650 2041 751 
Q 2166 853 2234 1116 
Q 2325 1453 2325 2259 
Q 2325 3066 2244 3367 
Q 2163 3669 2039 3770 
Q 1916 3872 1756 3872 
z
" transform="scale(0.015625)"/>
        <path id="Arial-BoldMT-2d" d="M 359 1222 
L 359 2100 
L 2084 2100 
L 2084 1222 
L 359 1222 
z
" transform="scale(0.015625)"/>
        <path id="Arial-BoldMT-31" d="M 2519 0 
L 1641 0 
L 1641 3309 
Q 1159 2859 506 2644 
L 506 3441 
Q 850 3553 1253 3867 
Q 1656 4181 1806 4600 
L 2519 4600 
L 2519 0 
z
" transform="scale(0.015625)"/>
        <path id="Arial-BoldMT-29" d="M 216 -1347 
Q 475 -791 581 -494 
Q 688 -197 778 190 
Q 869 578 912 926 
Q 956 1275 956 1641 
Q 956 2384 797 3048 
Q 638 3713 209 4659 
L 806 4659 
Q 1278 3988 1539 3234 
Q 1800 2481 1800 1706 
Q 1800 1053 1594 306 
Q 1359 -531 822 -1347 
L 216 -1347 
z
" transform="scale(0.015625)"/>
       </defs>
       <use xlink:href="#Arial-BoldMT-28"/>
       <use xlink:href="#Arial-BoldMT-30" transform="translate(33.300781 0)"/>
       <use xlink:href="#Arial-BoldMT-2d" transform="translate(88.916016 0)"/>
       <use xlink:href="#Arial-BoldMT-31" transform="translate(122.216797 0)"/>
       <use xlink:href="#Arial-BoldMT-29" transform="translate(177.832031 0)"/>
      </g>
     </g>
    </g>
    <g id="xtick_2">
     <g id="line2d_2">
      <path d="M 201.95575 254.55925 
L 284.556125 111.491204 
" clip-path="url(#pf759527d07)" style="fill: none; stroke: #b0b0b0; stroke-width: 0.8; stroke-linecap: square"/>
     </g>
     <g id="text_2">
      <!-- Balanced -->
      <g transform="translate(273.772375 92.826848) scale(0.08 -0.08)">
       <defs>
        <path id="Arial-BoldMT-42" d="M 469 4581 
L 2300 4581 
Q 2844 4581 3111 4536 
Q 3378 4491 3589 4347 
Q 3800 4203 3940 3964 
Q 4081 3725 4081 3428 
Q 4081 3106 3907 2837 
Q 3734 2569 3438 2434 
Q 3856 2313 4081 2019 
Q 4306 1725 4306 1328 
Q 4306 1016 4161 720 
Q 4016 425 3764 248 
Q 3513 72 3144 31 
Q 2913 6 2028 0 
L 469 0 
L 469 4581 
z
M 1394 3819 
L 1394 2759 
L 2000 2759 
Q 2541 2759 2672 2775 
Q 2909 2803 3045 2939 
Q 3181 3075 3181 3297 
Q 3181 3509 3064 3642 
Q 2947 3775 2716 3803 
Q 2578 3819 1925 3819 
L 1394 3819 
z
M 1394 1997 
L 1394 772 
L 2250 772 
Q 2750 772 2884 800 
Q 3091 838 3220 983 
Q 3350 1128 3350 1372 
Q 3350 1578 3250 1722 
Q 3150 1866 2961 1931 
Q 2772 1997 2141 1997 
L 1394 1997 
z
" transform="scale(0.015625)"/>
        <path id="Arial-BoldMT-6c" d="M 459 0 
L 459 4581 
L 1338 4581 
L 1338 0 
L 459 0 
z
" transform="scale(0.015625)"/>
        <path id="Arial-BoldMT-6e" d="M 3478 0 
L 2600 0 
L 2600 1694 
Q 2600 2231 2544 2389 
Q 2488 2547 2361 2634 
Q 2234 2722 2056 2722 
Q 1828 2722 1647 2597 
Q 1466 2472 1398 2265 
Q 1331 2059 1331 1503 
L 1331 0 
L 453 0 
L 453 3319 
L 1269 3319 
L 1269 2831 
Q 1703 3394 2363 3394 
Q 2653 3394 2893 3289 
Q 3134 3184 3257 3021 
Q 3381 2859 3429 2653 
Q 3478 2447 3478 2063 
L 3478 0 
z
" transform="scale(0.015625)"/>
        <path id="Arial-BoldMT-65" d="M 2381 1056 
L 3256 909 
Q 3088 428 2723 176 
Q 2359 -75 1813 -75 
Q 947 -75 531 491 
Q 203 944 203 1634 
Q 203 2459 634 2926 
Q 1066 3394 1725 3394 
Q 2466 3394 2894 2905 
Q 3322 2416 3303 1406 
L 1103 1406 
Q 1113 1016 1316 798 
Q 1519 581 1822 581 
Q 2028 581 2168 693 
Q 2309 806 2381 1056 
z
M 2431 1944 
Q 2422 2325 2234 2523 
Q 2047 2722 1778 2722 
Q 1491 2722 1303 2513 
Q 1116 2303 1119 1944 
L 2431 1944 
z
" transform="scale(0.015625)"/>
        <path id="Arial-BoldMT-64" d="M 3503 0 
L 2688 0 
L 2688 488 
Q 2484 203 2207 64 
Q 1931 -75 1650 -75 
Q 1078 -75 670 386 
Q 263 847 263 1672 
Q 263 2516 659 2955 
Q 1056 3394 1663 3394 
Q 2219 3394 2625 2931 
L 2625 4581 
L 3503 4581 
L 3503 0 
z
M 1159 1731 
Q 1159 1200 1306 963 
Q 1519 619 1900 619 
Q 2203 619 2415 876 
Q 2628 1134 2628 1647 
Q 2628 2219 2422 2470 
Q 2216 2722 1894 2722 
Q 1581 2722 1370 2473 
Q 1159 2225 1159 1731 
z
" transform="scale(0.015625)"/>
       </defs>
       <use xlink:href="#Arial-BoldMT-42"/>
       <use xlink:href="#Arial-BoldMT-61" transform="translate(72.216797 0)"/>
       <use xlink:href="#Arial-BoldMT-6c" transform="translate(127.832031 0)"/>
       <use xlink:href="#Arial-BoldMT-61" transform="translate(155.615234 0)"/>
       <use xlink:href="#Arial-BoldMT-6e" transform="translate(211.230469 0)"/>
       <use xlink:href="#Arial-BoldMT-63" transform="translate(272.314453 0)"/>
       <use xlink:href="#Arial-BoldMT-65" transform="translate(327.929688 0)"/>
       <use xlink:href="#Arial-BoldMT-64" transform="translate(383.544922 0)"/>
      </g>
      <!-- Accuracy -->
      <g transform="translate(273.5455 101.277098) scale(0.08 -0.08)">
       <use xlink:href="#Arial-BoldMT-41"/>
       <use xlink:href="#Arial-BoldMT-63" transform="translate(72.216797 0)"/>
       <use xlink:href="#Arial-BoldMT-63" transform="translate(127.832031 0)"/>
       <use xlink:href="#Arial-BoldMT-75" transform="translate(183.447266 0)"/>
       <use xlink:href="#Arial-BoldMT-72" transform="translate(244.53125 0)"/>
       <use xlink:href="#Arial-BoldMT-61" transform="translate(283.447266 0)"/>
       <use xlink:href="#Arial-BoldMT-63" transform="translate(339.0625 0)"/>
       <use xlink:href="#Arial-BoldMT-79" transform="translate(394.677734 0)"/>
      </g>
      <!-- (0-1) -->
      <g transform="translate(283.11175 109.949348) scale(0.08 -0.08)">
       <use xlink:href="#Arial-BoldMT-28"/>
       <use xlink:href="#Arial-BoldMT-30" transform="translate(33.300781 0)"/>
       <use xlink:href="#Arial-BoldMT-2d" transform="translate(88.916016 0)"/>
       <use xlink:href="#Arial-BoldMT-31" transform="translate(122.216797 0)"/>
       <use xlink:href="#Arial-BoldMT-29" transform="translate(177.832031 0)"/>
      </g>
     </g>
    </g>
    <g id="xtick_3">
     <g id="line2d_3">
      <path d="M 201.95575 254.55925 
L 119.355375 111.491204 
" clip-path="url(#pf759527d07)" style="fill: none; stroke: #b0b0b0; stroke-width: 0.8; stroke-linecap: square"/>
     </g>
     <g id="text_3">
      <!-- ROC-AUC -->
      <g transform="translate(93.4685 97.104473) scale(0.08 -0.08)">
       <defs>
        <path id="Arial-BoldMT-52" d="M 469 0 
L 469 4581 
L 2416 4581 
Q 3150 4581 3483 4457 
Q 3816 4334 4016 4018 
Q 4216 3703 4216 3297 
Q 4216 2781 3912 2445 
Q 3609 2109 3006 2022 
Q 3306 1847 3501 1637 
Q 3697 1428 4028 894 
L 4588 0 
L 3481 0 
L 2813 997 
Q 2456 1531 2325 1670 
Q 2194 1809 2047 1861 
Q 1900 1913 1581 1913 
L 1394 1913 
L 1394 0 
L 469 0 
z
M 1394 2644 
L 2078 2644 
Q 2744 2644 2909 2700 
Q 3075 2756 3169 2893 
Q 3263 3031 3263 3238 
Q 3263 3469 3139 3611 
Q 3016 3753 2791 3791 
Q 2678 3806 2116 3806 
L 1394 3806 
L 1394 2644 
z
" transform="scale(0.015625)"/>
        <path id="Arial-BoldMT-4f" d="M 278 2263 
Q 278 2963 488 3438 
Q 644 3788 914 4066 
Q 1184 4344 1506 4478 
Q 1934 4659 2494 4659 
Q 3506 4659 4114 4031 
Q 4722 3403 4722 2284 
Q 4722 1175 4119 548 
Q 3516 -78 2506 -78 
Q 1484 -78 881 545 
Q 278 1169 278 2263 
z
M 1231 2294 
Q 1231 1516 1590 1114 
Q 1950 713 2503 713 
Q 3056 713 3411 1111 
Q 3766 1509 3766 2306 
Q 3766 3094 3420 3481 
Q 3075 3869 2503 3869 
Q 1931 3869 1581 3476 
Q 1231 3084 1231 2294 
z
" transform="scale(0.015625)"/>
        <path id="Arial-BoldMT-43" d="M 3397 1684 
L 4294 1400 
Q 4088 650 3608 286 
Q 3128 -78 2391 -78 
Q 1478 -78 890 545 
Q 303 1169 303 2250 
Q 303 3394 893 4026 
Q 1484 4659 2447 4659 
Q 3288 4659 3813 4163 
Q 4125 3869 4281 3319 
L 3366 3100 
Q 3284 3456 3026 3662 
Q 2769 3869 2400 3869 
Q 1891 3869 1573 3503 
Q 1256 3138 1256 2319 
Q 1256 1450 1568 1081 
Q 1881 713 2381 713 
Q 2750 713 3015 947 
Q 3281 1181 3397 1684 
z
" transform="scale(0.015625)"/>
        <path id="Arial-BoldMT-55" d="M 459 4581 
L 1384 4581 
L 1384 2100 
Q 1384 1509 1419 1334 
Q 1478 1053 1701 883 
Q 1925 713 2313 713 
Q 2706 713 2906 873 
Q 3106 1034 3147 1268 
Q 3188 1503 3188 2047 
L 3188 4581 
L 4113 4581 
L 4113 2175 
Q 4113 1350 4038 1009 
Q 3963 669 3761 434 
Q 3559 200 3221 61 
Q 2884 -78 2341 -78 
Q 1684 -78 1345 73 
Q 1006 225 809 467 
Q 613 709 550 975 
Q 459 1369 459 2138 
L 459 4581 
z
" transform="scale(0.015625)"/>
       </defs>
       <use xlink:href="#Arial-BoldMT-52"/>
       <use xlink:href="#Arial-BoldMT-4f" transform="translate(72.216797 0)"/>
       <use xlink:href="#Arial-BoldMT-43" transform="translate(150 0)"/>
       <use xlink:href="#Arial-BoldMT-2d" transform="translate(222.216797 0)"/>
       <use xlink:href="#Arial-BoldMT-41" transform="translate(255.517578 0)"/>
       <use xlink:href="#Arial-BoldMT-55" transform="translate(327.734375 0)"/>
       <use xlink:href="#Arial-BoldMT-43" transform="translate(399.951172 0)"/>
      </g>
      <!-- (0-1) -->
      <g transform="translate(103.911 105.671723) scale(0.08 -0.08)">
       <use xlink:href="#Arial-BoldMT-28"/>
       <use xlink:href="#Arial-BoldMT-30" transform="translate(33.300781 0)"/>
       <use xlink:href="#Arial-BoldMT-2d" transform="translate(88.916016 0)"/>
       <use xlink:href="#Arial-BoldMT-31" transform="translate(122.216797 0)"/>
       <use xlink:href="#Arial-BoldMT-29" transform="translate(177.832031 0)"/>
      </g>
     </g>
    </g>
    <g id="xtick_4">
     <g id="line2d_4">
      <path d="M 201.95575 254.55925 
L 36.755 254.55925 
" clip-path="url(#pf759527d07)" style="fill: none; stroke: #b0b0b0; stroke-width: 0.8; stroke-linecap: square"/>
     </g>
     <g id="text_4">
      <!-- PR-AUC -->
      <g transform="translate(7.2 252.296875) scale(0.08 -0.08)">
       <defs>
        <path id="Arial-BoldMT-50" d="M 466 0 
L 466 4581 
L 1950 4581 
Q 2794 4581 3050 4513 
Q 3444 4409 3709 4064 
Q 3975 3719 3975 3172 
Q 3975 2750 3822 2462 
Q 3669 2175 3433 2011 
Q 3197 1847 2953 1794 
Q 2622 1728 1994 1728 
L 1391 1728 
L 1391 0 
L 466 0 
z
M 1391 3806 
L 1391 2506 
L 1897 2506 
Q 2444 2506 2628 2578 
Q 2813 2650 2917 2803 
Q 3022 2956 3022 3159 
Q 3022 3409 2875 3571 
Q 2728 3734 2503 3775 
Q 2338 3806 1838 3806 
L 1391 3806 
z
" transform="scale(0.015625)"/>
       </defs>
       <use xlink:href="#Arial-BoldMT-50"/>
       <use xlink:href="#Arial-BoldMT-52" transform="translate(66.699219 0)"/>
       <use xlink:href="#Arial-BoldMT-2d" transform="translate(138.916016 0)"/>
       <use xlink:href="#Arial-BoldMT-41" transform="translate(172.216797 0)"/>
       <use xlink:href="#Arial-BoldMT-55" transform="translate(244.433594 0)"/>
       <use xlink:href="#Arial-BoldMT-43" transform="translate(316.650391 0)"/>
      </g>
      <!-- (0-1) -->
      <g transform="translate(14.310625 260.864125) scale(0.08 -0.08)">
       <use xlink:href="#Arial-BoldMT-28"/>
       <use xlink:href="#Arial-BoldMT-30" transform="translate(33.300781 0)"/>
       <use xlink:href="#Arial-BoldMT-2d" transform="translate(88.916016 0)"/>
       <use xlink:href="#Arial-BoldMT-31" transform="translate(122.216797 0)"/>
       <use xlink:href="#Arial-BoldMT-29" transform="translate(177.832031 0)"/>
      </g>
     </g>
    </g>
    <g id="xtick_5">
     <g id="line2d_5">
      <path d="M 201.95575 254.55925 
L 119.355375 397.627296 
" clip-path="url(#pf759527d07)" style="fill: none; stroke: #b0b0b0; stroke-width: 0.8; stroke-linecap: square"/>
     </g>
     <g id="text_5">
      <!-- F1-Score -->
      <g transform="translate(95.239125 407.489277) scale(0.08 -0.08)">
       <defs>
        <path id="Arial-BoldMT-46" d="M 472 0 
L 472 4581 
L 3613 4581 
L 3613 3806 
L 1397 3806 
L 1397 2722 
L 3309 2722 
L 3309 1947 
L 1397 1947 
L 1397 0 
L 472 0 
z
" transform="scale(0.015625)"/>
        <path id="Arial-BoldMT-53" d="M 231 1491 
L 1131 1578 
Q 1213 1125 1461 912 
Q 1709 700 2131 700 
Q 2578 700 2804 889 
Q 3031 1078 3031 1331 
Q 3031 1494 2936 1608 
Q 2841 1722 2603 1806 
Q 2441 1863 1863 2006 
Q 1119 2191 819 2459 
Q 397 2838 397 3381 
Q 397 3731 595 4036 
Q 794 4341 1167 4500 
Q 1541 4659 2069 4659 
Q 2931 4659 3367 4281 
Q 3803 3903 3825 3272 
L 2900 3231 
Q 2841 3584 2645 3739 
Q 2450 3894 2059 3894 
Q 1656 3894 1428 3728 
Q 1281 3622 1281 3444 
Q 1281 3281 1419 3166 
Q 1594 3019 2269 2859 
Q 2944 2700 3267 2529 
Q 3591 2359 3773 2064 
Q 3956 1769 3956 1334 
Q 3956 941 3737 597 
Q 3519 253 3119 86 
Q 2719 -81 2122 -81 
Q 1253 -81 787 320 
Q 322 722 231 1491 
z
" transform="scale(0.015625)"/>
        <path id="Arial-BoldMT-6f" d="M 256 1706 
Q 256 2144 472 2553 
Q 688 2963 1083 3178 
Q 1478 3394 1966 3394 
Q 2719 3394 3200 2905 
Q 3681 2416 3681 1669 
Q 3681 916 3195 420 
Q 2709 -75 1972 -75 
Q 1516 -75 1102 131 
Q 688 338 472 736 
Q 256 1134 256 1706 
z
M 1156 1659 
Q 1156 1166 1390 903 
Q 1625 641 1969 641 
Q 2313 641 2545 903 
Q 2778 1166 2778 1666 
Q 2778 2153 2545 2415 
Q 2313 2678 1969 2678 
Q 1625 2678 1390 2415 
Q 1156 2153 1156 1659 
z
" transform="scale(0.015625)"/>
       </defs>
       <use xlink:href="#Arial-BoldMT-46"/>
       <use xlink:href="#Arial-BoldMT-31" transform="translate(61.083984 0)"/>
       <use xlink:href="#Arial-BoldMT-2d" transform="translate(116.699219 0)"/>
       <use xlink:href="#Arial-BoldMT-53" transform="translate(150 0)"/>
       <use xlink:href="#Arial-BoldMT-63" transform="translate(216.699219 0)"/>
       <use xlink:href="#Arial-BoldMT-6f" transform="translate(272.314453 0)"/>
       <use xlink:href="#Arial-BoldMT-72" transform="translate(333.398438 0)"/>
       <use xlink:href="#Arial-BoldMT-65" transform="translate(372.314453 0)"/>
      </g>
      <!-- (0-1) -->
      <g transform="translate(103.911 416.056527) scale(0.08 -0.08)">
       <use xlink:href="#Arial-BoldMT-28"/>
       <use xlink:href="#Arial-BoldMT-30" transform="translate(33.300781 0)"/>
       <use xlink:href="#Arial-BoldMT-2d" transform="translate(88.916016 0)"/>
       <use xlink:href="#Arial-BoldMT-31" transform="translate(122.216797 0)"/>
       <use xlink:href="#Arial-BoldMT-29" transform="translate(177.832031 0)"/>
      </g>
     </g>
    </g>
    <g id="xtick_6">
     <g id="line2d_6">
      <path d="M 201.95575 254.55925 
L 284.556125 397.627296 
" clip-path="url(#pf759527d07)" style="fill: none; stroke: #b0b0b0; stroke-width: 0.8; stroke-linecap: square"/>
     </g>
     <g id="text_6">
      <!-- MCC -->
      <g transform="translate(282.44675 407.489277) scale(0.08 -0.08)">
       <defs>
        <path id="Arial-BoldMT-4d" d="M 453 0 
L 453 4581 
L 1838 4581 
L 2669 1456 
L 3491 4581 
L 4878 4581 
L 4878 0 
L 4019 0 
L 4019 3606 
L 3109 0 
L 2219 0 
L 1313 3606 
L 1313 0 
L 453 0 
z
" transform="scale(0.015625)"/>
       </defs>
       <use xlink:href="#Arial-BoldMT-4d"/>
       <use xlink:href="#Arial-BoldMT-43" transform="translate(83.300781 0)"/>
       <use xlink:href="#Arial-BoldMT-43" transform="translate(155.517578 0)"/>
      </g>
      <!-- (Mapped) -->
      <g transform="translate(273.782375 416.056527) scale(0.08 -0.08)">
       <defs>
        <path id="Arial-BoldMT-70" d="M 434 3319 
L 1253 3319 
L 1253 2831 
Q 1413 3081 1684 3237 
Q 1956 3394 2288 3394 
Q 2866 3394 3269 2941 
Q 3672 2488 3672 1678 
Q 3672 847 3265 386 
Q 2859 -75 2281 -75 
Q 2006 -75 1782 34 
Q 1559 144 1313 409 
L 1313 -1263 
L 434 -1263 
L 434 3319 
z
M 1303 1716 
Q 1303 1156 1525 889 
Q 1747 622 2066 622 
Q 2372 622 2575 867 
Q 2778 1113 2778 1672 
Q 2778 2194 2568 2447 
Q 2359 2700 2050 2700 
Q 1728 2700 1515 2451 
Q 1303 2203 1303 1716 
z
" transform="scale(0.015625)"/>
       </defs>
       <use xlink:href="#Arial-BoldMT-28"/>
       <use xlink:href="#Arial-BoldMT-4d" transform="translate(33.300781 0)"/>
       <use xlink:href="#Arial-BoldMT-61" transform="translate(116.601562 0)"/>
       <use xlink:href="#Arial-BoldMT-70" transform="translate(172.216797 0)"/>
       <use xlink:href="#Arial-BoldMT-70" transform="translate(233.300781 0)"/>
       <use xlink:href="#Arial-BoldMT-65" transform="translate(294.384766 0)"/>
       <use xlink:href="#Arial-BoldMT-64" transform="translate(350 0)"/>
       <use xlink:href="#Arial-BoldMT-29" transform="translate(411.083984 0)"/>
      </g>
     </g>
    </g>
   </g>
   <g id="matplotlib.axis_2">
    <g id="ytick_1">
     <g id="line2d_7">
      <path d="M 201.95575 254.55925 
C 201.95575 254.55925 201.95575 254.55925 201.95575 254.55925 
C 201.95575 254.55925 201.95575 254.55925 201.95575 254.55925 
C 201.95575 254.55925 201.95575 254.55925 201.95575 254.55925 
C 201.95575 254.55925 201.95575 254.55925 201.95575 254.55925 
C 201.95575 254.55925 201.95575 254.55925 201.95575 254.55925 
C 201.95575 254.55925 201.95575 254.55925 201.95575 254.55925 
C 201.95575 254.55925 201.95575 254.55925 201.95575 254.55925 
C 201.95575 254.55925 201.95575 254.55925 201.95575 254.55925 
C 201.95575 254.55925 201.95575 254.55925 201.95575 254.55925 
C 201.95575 254.55925 201.95575 254.55925 201.95575 254.55925 
C 201.95575 254.55925 201.95575 254.55925 201.95575 254.55925 
C 201.95575 254.55925 201.95575 254.55925 201.95575 254.55925 
C 201.95575 254.55925 201.95575 254.55925 201.95575 254.55925 
C 201.95575 254.55925 201.95575 254.55925 201.95575 254.55925 
C 201.95575 254.55925 201.95575 254.55925 201.95575 254.55925 
C 201.95575 254.55925 201.95575 254.55925 201.95575 254.55925 
" clip-path="url(#pf759527d07)" style="fill: none; stroke: #b0b0b0; stroke-width: 0.8; stroke-linecap: square"/>
     </g>
     <g id="text_7">
      <!-- 0.0 -->
      <g transform="translate(201.95575 253.36675) scale(0.06 -0.06)">
       <defs>
        <path id="ArialMT-30" d="M 266 2259 
Q 266 3072 433 3567 
Q 600 4063 929 4331 
Q 1259 4600 1759 4600 
Q 2128 4600 2406 4451 
Q 2684 4303 2865 4023 
Q 3047 3744 3150 3342 
Q 3253 2941 3253 2259 
Q 3253 1453 3087 958 
Q 2922 463 2592 192 
Q 2263 -78 1759 -78 
Q 1097 -78 719 397 
Q 266 969 266 2259 
z
M 844 2259 
Q 844 1131 1108 757 
Q 1372 384 1759 384 
Q 2147 384 2411 759 
Q 2675 1134 2675 2259 
Q 2675 3391 2411 3762 
Q 2147 4134 1753 4134 
Q 1366 4134 1134 3806 
Q 844 3388 844 2259 
z
" transform="scale(0.015625)"/>
        <path id="ArialMT-2e" d="M 581 0 
L 581 641 
L 1222 641 
L 1222 0 
L 581 0 
z
" transform="scale(0.015625)"/>
       </defs>
       <use xlink:href="#ArialMT-30"/>
       <use xlink:href="#ArialMT-2e" transform="translate(55.615234 0)"/>
       <use xlink:href="#ArialMT-30" transform="translate(83.398438 0)"/>
      </g>
     </g>
    </g>
    <g id="ytick_2">
     <g id="line2d_8">
      <path d="M 234.9959 254.55925 
C 234.9959 250.220457 234.141252 245.923854 232.480868 241.915332 
C 230.820484 237.90681 228.386654 234.264326 225.318664 231.196336 
C 222.250674 228.128346 218.60819 225.694516 214.599668 224.034132 
C 210.591146 222.373748 206.294543 221.5191 201.95575 221.5191 
C 197.616957 221.5191 193.320354 222.373748 189.311832 224.034132 
C 185.30331 225.694516 181.660826 228.128346 178.592836 231.196336 
C 175.524846 234.264326 173.091016 237.90681 171.430632 241.915332 
C 169.770248 245.923854 168.9156 250.220457 168.9156 254.55925 
C 168.9156 258.898043 169.770248 263.194646 171.430632 267.203168 
C 173.091016 271.21169 175.524846 274.854174 178.592836 277.922164 
C 181.660826 280.990154 185.30331 283.423984 189.311832 285.084368 
C 193.320354 286.744752 197.616957 287.5994 201.95575 287.5994 
C 206.294543 287.5994 210.591146 286.744752 214.599668 285.084368 
C 218.60819 283.423984 222.250674 280.990154 225.318664 277.922164 
C 228.386654 274.854174 230.820484 271.21169 232.480868 267.203168 
C 234.141252 263.194646 234.9959 258.898043 234.9959 254.55925 
" clip-path="url(#pf759527d07)" style="fill: none; stroke: #b0b0b0; stroke-width: 0.8; stroke-linecap: square"/>
     </g>
     <g id="text_8">
      <!-- 0.2 -->
      <g transform="translate(232.480868 240.722832) scale(0.06 -0.06)">
       <defs>
        <path id="ArialMT-32" d="M 3222 541 
L 3222 0 
L 194 0 
Q 188 203 259 391 
Q 375 700 629 1000 
Q 884 1300 1366 1694 
Q 2113 2306 2375 2664 
Q 2638 3022 2638 3341 
Q 2638 3675 2398 3904 
Q 2159 4134 1775 4134 
Q 1369 4134 1125 3890 
Q 881 3647 878 3216 
L 300 3275 
Q 359 3922 746 4261 
Q 1134 4600 1788 4600 
Q 2447 4600 2831 4234 
Q 3216 3869 3216 3328 
Q 3216 3053 3103 2787 
Q 2991 2522 2730 2228 
Q 2469 1934 1863 1422 
Q 1356 997 1212 845 
Q 1069 694 975 541 
L 3222 541 
z
" transform="scale(0.015625)"/>
       </defs>
       <use xlink:href="#ArialMT-30"/>
       <use xlink:href="#ArialMT-2e" transform="translate(55.615234 0)"/>
       <use xlink:href="#ArialMT-32" transform="translate(83.398438 0)"/>
      </g>
     </g>
    </g>
    <g id="ytick_3">
     <g id="line2d_9">
      <path d="M 268.03605 254.55925 
C 268.03605 245.881665 266.326755 237.288458 263.005987 229.271414 
C 259.685218 221.25437 254.817558 213.969401 248.681578 207.833422 
C 242.545599 201.697442 235.26063 196.829782 227.243586 193.509013 
C 219.226542 190.188245 210.633335 188.47895 201.95575 188.47895 
C 193.278165 188.47895 184.684958 190.188245 176.667914 193.509013 
C 168.65087 196.829782 161.365901 201.697442 155.229922 207.833422 
C 149.093942 213.969401 144.226282 221.25437 140.905513 229.271414 
C 137.584745 237.288458 135.87545 245.881665 135.87545 254.55925 
C 135.87545 263.236835 137.584745 271.830042 140.905513 279.847086 
C 144.226282 287.86413 149.093942 295.149099 155.229922 301.285078 
C 161.365901 307.421058 168.65087 312.288718 176.667914 315.609487 
C 184.684958 318.930255 193.278165 320.63955 201.95575 320.63955 
C 210.633335 320.63955 219.226542 318.930255 227.243586 315.609487 
C 235.26063 312.288718 242.545599 307.421058 248.681578 301.285078 
C 254.817558 295.149099 259.685218 287.86413 263.005987 279.847086 
C 266.326755 271.830042 268.03605 263.236835 268.03605 254.55925 
" clip-path="url(#pf759527d07)" style="fill: none; stroke: #b0b0b0; stroke-width: 0.8; stroke-linecap: square"/>
     </g>
     <g id="text_9">
      <!-- 0.4 -->
      <g transform="translate(263.005987 228.078914) scale(0.06 -0.06)">
       <defs>
        <path id="ArialMT-34" d="M 2069 0 
L 2069 1097 
L 81 1097 
L 81 1613 
L 2172 4581 
L 2631 4581 
L 2631 1613 
L 3250 1613 
L 3250 1097 
L 2631 1097 
L 2631 0 
L 2069 0 
z
M 2069 1613 
L 2069 3678 
L 634 1613 
L 2069 1613 
z
" transform="scale(0.015625)"/>
       </defs>
       <use xlink:href="#ArialMT-30"/>
       <use xlink:href="#ArialMT-2e" transform="translate(55.615234 0)"/>
       <use xlink:href="#ArialMT-34" transform="translate(83.398438 0)"/>
      </g>
     </g>
    </g>
    <g id="ytick_4">
     <g id="line2d_10">
      <path d="M 301.0762 254.55925 
C 301.0762 241.542872 298.512257 228.653061 293.531105 216.627496 
C 288.549953 204.601931 281.248462 193.674477 272.044492 184.470508 
C 262.840523 175.266538 251.913069 167.965047 239.887504 162.983895 
C 227.861939 158.002743 214.972128 155.4388 201.95575 155.4388 
C 188.939372 155.4388 176.049561 158.002743 164.023996 162.983895 
C 151.998431 167.965047 141.070977 175.266538 131.867008 184.470508 
C 122.663038 193.674477 115.361547 204.601931 110.380395 216.627496 
C 105.399243 228.653061 102.8353 241.542872 102.8353 254.55925 
C 102.8353 267.575628 105.399243 280.465439 110.380395 292.491004 
C 115.361547 304.516569 122.663038 315.444023 131.867008 324.647992 
C 141.070977 333.851962 151.998431 341.153453 164.023996 346.134605 
C 176.049561 351.115757 188.939372 353.6797 201.95575 353.6797 
C 214.972128 353.6797 227.861939 351.115757 239.887504 346.134605 
C 251.913069 341.153453 262.840523 333.851962 272.044492 324.647992 
C 281.248462 315.444023 288.549953 304.516569 293.531105 292.491004 
C 298.512257 280.465439 301.0762 267.575628 301.0762 254.55925 
" clip-path="url(#pf759527d07)" style="fill: none; stroke: #b0b0b0; stroke-width: 0.8; stroke-linecap: square"/>
     </g>
     <g id="text_10">
      <!-- 0.6 -->
      <g transform="translate(293.531105 215.434996) scale(0.06 -0.06)">
       <defs>
        <path id="ArialMT-36" d="M 3184 3459 
L 2625 3416 
Q 2550 3747 2413 3897 
Q 2184 4138 1850 4138 
Q 1581 4138 1378 3988 
Q 1113 3794 959 3422 
Q 806 3050 800 2363 
Q 1003 2672 1297 2822 
Q 1591 2972 1913 2972 
Q 2475 2972 2870 2558 
Q 3266 2144 3266 1488 
Q 3266 1056 3080 686 
Q 2894 316 2569 119 
Q 2244 -78 1831 -78 
Q 1128 -78 684 439 
Q 241 956 241 2144 
Q 241 3472 731 4075 
Q 1159 4600 1884 4600 
Q 2425 4600 2770 4297 
Q 3116 3994 3184 3459 
z
M 888 1484 
Q 888 1194 1011 928 
Q 1134 663 1356 523 
Q 1578 384 1822 384 
Q 2178 384 2434 671 
Q 2691 959 2691 1453 
Q 2691 1928 2437 2201 
Q 2184 2475 1800 2475 
Q 1419 2475 1153 2201 
Q 888 1928 888 1484 
z
" transform="scale(0.015625)"/>
       </defs>
       <use xlink:href="#ArialMT-30"/>
       <use xlink:href="#ArialMT-2e" transform="translate(55.615234 0)"/>
       <use xlink:href="#ArialMT-36" transform="translate(83.398438 0)"/>
      </g>
     </g>
    </g>
    <g id="ytick_5">
     <g id="line2d_11">
      <path d="M 334.11635 254.55925 
C 334.11635 237.204079 330.69776 220.017665 324.056223 203.983578 
C 317.414687 187.949491 307.679366 173.379553 295.407406 161.107594 
C 283.135447 148.835634 268.565509 139.100313 252.531422 132.458777 
C 236.497335 125.81724 219.310921 122.39865 201.95575 122.39865 
C 184.600579 122.39865 167.414165 125.81724 151.380078 132.458777 
C 135.345991 139.100313 120.776053 148.835634 108.504094 161.107594 
C 96.232134 173.379553 86.496813 187.949491 79.855277 203.983578 
C 73.21374 220.017665 69.79515 237.204079 69.79515 254.55925 
C 69.79515 271.914421 73.21374 289.100835 79.855277 305.134922 
C 86.496813 321.169009 96.232134 335.738947 108.504094 348.010906 
C 120.776053 360.282866 135.345991 370.018187 151.380078 376.659723 
C 167.414165 383.30126 184.600579 386.71985 201.95575 386.71985 
C 219.310921 386.71985 236.497335 383.30126 252.531422 376.659723 
C 268.565509 370.018187 283.135447 360.282866 295.407406 348.010906 
C 307.679366 335.738947 317.414687 321.169009 324.056223 305.134922 
C 330.69776 289.100835 334.11635 271.914421 334.11635 254.55925 
" clip-path="url(#pf759527d07)" style="fill: none; stroke: #b0b0b0; stroke-width: 0.8; stroke-linecap: square"/>
     </g>
     <g id="text_11">
      <!-- 0.8 -->
      <g transform="translate(324.056223 202.791078) scale(0.06 -0.06)">
       <defs>
        <path id="ArialMT-38" d="M 1131 2484 
Q 781 2613 612 2850 
Q 444 3088 444 3419 
Q 444 3919 803 4259 
Q 1163 4600 1759 4600 
Q 2359 4600 2725 4251 
Q 3091 3903 3091 3403 
Q 3091 3084 2923 2848 
Q 2756 2613 2416 2484 
Q 2838 2347 3058 2040 
Q 3278 1734 3278 1309 
Q 3278 722 2862 322 
Q 2447 -78 1769 -78 
Q 1091 -78 675 323 
Q 259 725 259 1325 
Q 259 1772 486 2073 
Q 713 2375 1131 2484 
z
M 1019 3438 
Q 1019 3113 1228 2906 
Q 1438 2700 1772 2700 
Q 2097 2700 2305 2904 
Q 2513 3109 2513 3406 
Q 2513 3716 2298 3927 
Q 2084 4138 1766 4138 
Q 1444 4138 1231 3931 
Q 1019 3725 1019 3438 
z
M 838 1322 
Q 838 1081 952 856 
Q 1066 631 1291 507 
Q 1516 384 1775 384 
Q 2178 384 2440 643 
Q 2703 903 2703 1303 
Q 2703 1709 2433 1975 
Q 2163 2241 1756 2241 
Q 1359 2241 1098 1978 
Q 838 1716 838 1322 
z
" transform="scale(0.015625)"/>
       </defs>
       <use xlink:href="#ArialMT-30"/>
       <use xlink:href="#ArialMT-2e" transform="translate(55.615234 0)"/>
       <use xlink:href="#ArialMT-38" transform="translate(83.398438 0)"/>
      </g>
     </g>
    </g>
    <g id="ytick_6">
     <g id="line2d_12">
      <path d="M 367.1565 254.55925 
C 367.1565 232.865286 362.883262 211.382269 354.581342 191.33966 
C 346.279421 171.297051 334.110269 153.084628 318.770321 137.744679 
C 303.430372 122.404731 285.217949 110.235579 265.17534 101.933658 
C 245.132731 93.631738 223.649714 89.3585 201.95575 89.3585 
C 180.261786 89.3585 158.778769 93.631738 138.73616 101.933658 
C 118.693551 110.235579 100.481128 122.404731 85.141179 137.744679 
C 69.801231 153.084628 57.632079 171.297051 49.330158 191.33966 
C 41.028238 211.382269 36.755 232.865286 36.755 254.55925 
C 36.755 276.253214 41.028238 297.736231 49.330158 317.77884 
C 57.632079 337.821449 69.801231 356.033872 85.141179 371.373821 
C 100.481128 386.713769 118.693551 398.882921 138.73616 407.184842 
C 158.778769 415.486762 180.261786 419.76 201.95575 419.76 
C 223.649714 419.76 245.132731 415.486762 265.17534 407.184842 
C 285.217949 398.882921 303.430372 386.713769 318.770321 371.373821 
C 334.110269 356.033872 346.279421 337.821449 354.581342 317.77884 
C 362.883262 297.736231 367.1565 276.253214 367.1565 254.55925 
" clip-path="url(#pf759527d07)" style="fill: none; stroke: #b0b0b0; stroke-width: 0.8; stroke-linecap: square"/>
     </g>
     <g id="text_12">
      <!-- 1.0 -->
      <g transform="translate(354.581342 190.14716) scale(0.06 -0.06)">
       <defs>
        <path id="ArialMT-31" d="M 2384 0 
L 1822 0 
L 1822 3584 
Q 1619 3391 1289 3197 
Q 959 3003 697 2906 
L 697 3450 
Q 1169 3672 1522 3987 
Q 1875 4303 2022 4600 
L 2384 4600 
L 2384 0 
z
" transform="scale(0.015625)"/>
       </defs>
       <use xlink:href="#ArialMT-31"/>
       <use xlink:href="#ArialMT-2e" transform="translate(55.615234 0)"/>
       <use xlink:href="#ArialMT-30" transform="translate(83.398438 0)"/>
      </g>
     </g>
    </g>
   </g>
   <g id="line2d_13">
    <path d="M 301.753523 254.55925 
L 247.675058 175.371086 
L 138.915144 145.369717 
L 110.186733 254.55925 
L 155.68302 334.705969 
L 261.601481 357.868686 
L 301.753523 254.55925 
" clip-path="url(#pf759527d07)" style="fill: none; stroke: #ff6b6b; stroke-opacity: 0.8; stroke-width: 3; stroke-linecap: square"/>
    <defs>
     <path id="m4674e95da4" d="M 0 4 
C 1.060812 4 2.078319 3.578535 2.828427 2.828427 
C 3.578535 2.078319 4 1.060812 4 0 
C 4 -1.060812 3.578535 -2.078319 2.828427 -2.828427 
C 2.078319 -3.578535 1.060812 -4 0 -4 
C -1.060812 -4 -2.078319 -3.578535 -2.828427 -2.828427 
C -3.578535 -2.078319 -4 -1.060812 -4 0 
C -4 1.060812 -3.578535 2.078319 -2.828427 2.828427 
C -2.078319 3.578535 -1.060812 4 0 4 
z
" style="stroke: #ff6b6b; stroke-opacity: 0.8"/>
    </defs>
    <g clip-path="url(#pf759527d07)">
     <use xlink:href="#m4674e95da4" x="301.753523" y="254.55925" style="fill: #ff6b6b; fill-opacity: 0.8; stroke: #ff6b6b; stroke-opacity: 0.8"/>
     <use xlink:href="#m4674e95da4" x="247.675058" y="175.371086" style="fill: #ff6b6b; fill-opacity: 0.8; stroke: #ff6b6b; stroke-opacity: 0.8"/>
     <use xlink:href="#m4674e95da4" x="138.915144" y="145.369717" style="fill: #ff6b6b; fill-opacity: 0.8; stroke: #ff6b6b; stroke-opacity: 0.8"/>
     <use xlink:href="#m4674e95da4" x="110.186733" y="254.55925" style="fill: #ff6b6b; fill-opacity: 0.8; stroke: #ff6b6b; stroke-opacity: 0.8"/>
     <use xlink:href="#m4674e95da4" x="155.68302" y="334.705969" style="fill: #ff6b6b; fill-opacity: 0.8; stroke: #ff6b6b; stroke-opacity: 0.8"/>
     <use xlink:href="#m4674e95da4" x="261.601481" y="357.868686" style="fill: #ff6b6b; fill-opacity: 0.8; stroke: #ff6b6b; stroke-opacity: 0.8"/>
     <use xlink:href="#m4674e95da4" x="301.753523" y="254.55925" style="fill: #ff6b6b; fill-opacity: 0.8; stroke: #ff6b6b; stroke-opacity: 0.8"/>
    </g>
   </g>
   <g id="line2d_14">
    <path d="M 346.192525 254.55925 
L 272.752531 131.935628 
L 123.873616 119.317026 
L 53.175955 254.55925 
L 130.283405 378.699394 
L 277.320332 385.094535 
L 346.192525 254.55925 
" clip-path="url(#pf759527d07)" style="fill: none; stroke: #4ecdc4; stroke-opacity: 0.8; stroke-width: 3; stroke-linecap: square"/>
    <defs>
     <path id="m4b468bfe23" d="M 0 4 
C 1.060812 4 2.078319 3.578535 2.828427 2.828427 
C 3.578535 2.078319 4 1.060812 4 0 
C 4 -1.060812 3.578535 -2.078319 2.828427 -2.828427 
C 2.078319 -3.578535 1.060812 -4 0 -4 
C -1.060812 -4 -2.078319 -3.578535 -2.828427 -2.828427 
C -3.578535 -2.078319 -4 -1.060812 -4 0 
C -4 1.060812 -3.578535 2.078319 -2.828427 2.828427 
C -2.078319 3.578535 -1.060812 4 0 4 
z
" style="stroke: #4ecdc4; stroke-opacity: 0.8"/>
    </defs>
    <g clip-path="url(#pf759527d07)">
     <use xlink:href="#m4b468bfe23" x="346.192525" y="254.55925" style="fill: #4ecdc4; fill-opacity: 0.8; stroke: #4ecdc4; stroke-opacity: 0.8"/>
     <use xlink:href="#m4b468bfe23" x="272.752531" y="131.935628" style="fill: #4ecdc4; fill-opacity: 0.8; stroke: #4ecdc4; stroke-opacity: 0.8"/>
     <use xlink:href="#m4b468bfe23" x="123.873616" y="119.317026" style="fill: #4ecdc4; fill-opacity: 0.8; stroke: #4ecdc4; stroke-opacity: 0.8"/>
     <use xlink:href="#m4b468bfe23" x="53.175955" y="254.55925" style="fill: #4ecdc4; fill-opacity: 0.8; stroke: #4ecdc4; stroke-opacity: 0.8"/>
     <use xlink:href="#m4b468bfe23" x="130.283405" y="378.699394" style="fill: #4ecdc4; fill-opacity: 0.8; stroke: #4ecdc4; stroke-opacity: 0.8"/>
     <use xlink:href="#m4b468bfe23" x="277.320332" y="385.094535" style="fill: #4ecdc4; fill-opacity: 0.8; stroke: #4ecdc4; stroke-opacity: 0.8"/>
     <use xlink:href="#m4b468bfe23" x="346.192525" y="254.55925" style="fill: #4ecdc4; fill-opacity: 0.8; stroke: #4ecdc4; stroke-opacity: 0.8"/>
    </g>
   </g>
   <g id="patch_5">
    <path d="M 367.1565 254.55925 
C 367.1565 232.865286 362.883262 211.382269 354.581342 191.33966 
C 346.279421 171.297051 334.110269 153.084628 318.770321 137.744679 
C 303.430372 122.404731 285.217949 110.235579 265.17534 101.933658 
C 245.132731 93.631738 223.649714 89.3585 201.95575 89.3585 
C 180.261786 89.3585 158.778769 93.631738 138.73616 101.933658 
C 118.693551 110.235579 100.481128 122.404731 85.141179 137.744679 
C 69.801231 153.084628 57.632079 171.297051 49.330158 191.33966 
C 41.028238 211.382269 36.755 232.865286 36.755 254.55925 
C 36.755 276.253214 41.028238 297.736231 49.330158 317.77884 
C 57.632079 337.821449 69.801231 356.033872 85.141179 371.373821 
C 100.481128 386.713769 118.693551 398.882921 138.73616 407.184842 
C 158.778769 415.486762 180.261786 419.76 201.95575 419.76 
C 223.649714 419.76 245.132731 415.486762 265.17534 407.184842 
C 285.217949 398.882921 303.430372 386.713769 318.770321 371.373821 
C 334.110269 356.033872 346.279421 337.821449 354.581342 317.77884 
C 362.883262 297.736231 367.1565 276.253214 367.1565 254.55925 
" style="fill: none; stroke: #000000; stroke-width: 0.8; stroke-linejoin: miter; stroke-linecap: square"/>
   </g>
   <g id="text_13">
    <!-- Classifier Performance Comparison -->
    <g transform="translate(99.924813 56.507625) scale(0.12 -0.12)">
     <defs>
      <path id="Arial-BoldMT-73" d="M 150 947 
L 1031 1081 
Q 1088 825 1259 692 
Q 1431 559 1741 559 
Q 2081 559 2253 684 
Q 2369 772 2369 919 
Q 2369 1019 2306 1084 
Q 2241 1147 2013 1200 
Q 950 1434 666 1628 
Q 272 1897 272 2375 
Q 272 2806 612 3100 
Q 953 3394 1669 3394 
Q 2350 3394 2681 3172 
Q 3013 2950 3138 2516 
L 2309 2363 
Q 2256 2556 2107 2659 
Q 1959 2763 1684 2763 
Q 1338 2763 1188 2666 
Q 1088 2597 1088 2488 
Q 1088 2394 1175 2328 
Q 1294 2241 1995 2081 
Q 2697 1922 2975 1691 
Q 3250 1456 3250 1038 
Q 3250 581 2869 253 
Q 2488 -75 1741 -75 
Q 1063 -75 667 200 
Q 272 475 150 947 
z
" transform="scale(0.015625)"/>
      <path id="Arial-BoldMT-69" d="M 459 3769 
L 459 4581 
L 1338 4581 
L 1338 3769 
L 459 3769 
z
M 459 0 
L 459 3319 
L 1338 3319 
L 1338 0 
L 459 0 
z
" transform="scale(0.015625)"/>
      <path id="Arial-BoldMT-66" d="M 75 3319 
L 563 3319 
L 563 3569 
Q 563 3988 652 4194 
Q 741 4400 980 4529 
Q 1219 4659 1584 4659 
Q 1959 4659 2319 4547 
L 2200 3934 
Q 1991 3984 1797 3984 
Q 1606 3984 1523 3895 
Q 1441 3806 1441 3553 
L 1441 3319 
L 2097 3319 
L 2097 2628 
L 1441 2628 
L 1441 0 
L 563 0 
L 563 2628 
L 75 2628 
L 75 3319 
z
" transform="scale(0.015625)"/>
      <path id="Arial-BoldMT-20" transform="scale(0.015625)"/>
      <path id="Arial-BoldMT-6d" d="M 394 3319 
L 1203 3319 
L 1203 2866 
Q 1638 3394 2238 3394 
Q 2556 3394 2790 3262 
Q 3025 3131 3175 2866 
Q 3394 3131 3647 3262 
Q 3900 3394 4188 3394 
Q 4553 3394 4806 3245 
Q 5059 3097 5184 2809 
Q 5275 2597 5275 2122 
L 5275 0 
L 4397 0 
L 4397 1897 
Q 4397 2391 4306 2534 
Q 4184 2722 3931 2722 
Q 3747 2722 3584 2609 
Q 3422 2497 3350 2280 
Q 3278 2063 3278 1594 
L 3278 0 
L 2400 0 
L 2400 1819 
Q 2400 2303 2353 2443 
Q 2306 2584 2207 2653 
Q 2109 2722 1941 2722 
Q 1738 2722 1575 2612 
Q 1413 2503 1342 2297 
Q 1272 2091 1272 1613 
L 1272 0 
L 394 0 
L 394 3319 
z
" transform="scale(0.015625)"/>
     </defs>
     <use xlink:href="#Arial-BoldMT-43"/>
     <use xlink:href="#Arial-BoldMT-6c" transform="translate(72.216797 0)"/>
     <use xlink:href="#Arial-BoldMT-61" transform="translate(100 0)"/>
     <use xlink:href="#Arial-BoldMT-73" transform="translate(155.615234 0)"/>
     <use xlink:href="#Arial-BoldMT-73" transform="translate(211.230469 0)"/>
     <use xlink:href="#Arial-BoldMT-69" transform="translate(266.845703 0)"/>
     <use xlink:href="#Arial-BoldMT-66" transform="translate(294.628906 0)"/>
     <use xlink:href="#Arial-BoldMT-69" transform="translate(327.929688 0)"/>
     <use xlink:href="#Arial-BoldMT-65" transform="translate(355.712891 0)"/>
     <use xlink:href="#Arial-BoldMT-72" transform="translate(411.328125 0)"/>
     <use xlink:href="#Arial-BoldMT-20" transform="translate(450.244141 0)"/>
     <use xlink:href="#Arial-BoldMT-50" transform="translate(478.027344 0)"/>
     <use xlink:href="#Arial-BoldMT-65" transform="translate(544.726562 0)"/>
     <use xlink:href="#Arial-BoldMT-72" transform="translate(600.341797 0)"/>
     <use xlink:href="#Arial-BoldMT-66" transform="translate(639.257812 0)"/>
     <use xlink:href="#Arial-BoldMT-6f" transform="translate(672.558594 0)"/>
     <use xlink:href="#Arial-BoldMT-72" transform="translate(733.642578 0)"/>
     <use xlink:href="#Arial-BoldMT-6d" transform="translate(772.558594 0)"/>
     <use xlink:href="#Arial-BoldMT-61" transform="translate(861.474609 0)"/>
     <use xlink:href="#Arial-BoldMT-6e" transform="translate(917.089844 0)"/>
     <use xlink:href="#Arial-BoldMT-63" transform="translate(978.173828 0)"/>
     <use xlink:href="#Arial-BoldMT-65" transform="translate(1033.789062 0)"/>
     <use xlink:href="#Arial-BoldMT-20" transform="translate(1089.404297 0)"/>
     <use xlink:href="#Arial-BoldMT-43" transform="translate(1117.1875 0)"/>
     <use xlink:href="#Arial-BoldMT-6f" transform="translate(1189.404297 0)"/>
     <use xlink:href="#Arial-BoldMT-6d" transform="translate(1250.488281 0)"/>
     <use xlink:href="#Arial-BoldMT-70" transform="translate(1339.404297 0)"/>
     <use xlink:href="#Arial-BoldMT-61" transform="translate(1400.488281 0)"/>
     <use xlink:href="#Arial-BoldMT-72" transform="translate(1456.103516 0)"/>
     <use xlink:href="#Arial-BoldMT-69" transform="translate(1495.019531 0)"/>
     <use xlink:href="#Arial-BoldMT-73" transform="translate(1522.802734 0)"/>
     <use xlink:href="#Arial-BoldMT-6f" transform="translate(1578.417969 0)"/>
     <use xlink:href="#Arial-BoldMT-6e" transform="translate(1639.501953 0)"/>
    </g>
    <!-- (Actual Experiment Results) -->
    <g transform="translate(121.942 69.3585) scale(0.12 -0.12)">
     <defs>
      <path id="Arial-BoldMT-74" d="M 1981 3319 
L 1981 2619 
L 1381 2619 
L 1381 1281 
Q 1381 875 1398 808 
Q 1416 741 1477 697 
Q 1538 653 1625 653 
Q 1747 653 1978 738 
L 2053 56 
Q 1747 -75 1359 -75 
Q 1122 -75 931 4 
Q 741 84 652 211 
Q 563 338 528 553 
Q 500 706 500 1172 
L 500 2619 
L 97 2619 
L 97 3319 
L 500 3319 
L 500 3978 
L 1381 4491 
L 1381 3319 
L 1981 3319 
z
" transform="scale(0.015625)"/>
      <path id="Arial-BoldMT-45" d="M 466 0 
L 466 4581 
L 3863 4581 
L 3863 3806 
L 1391 3806 
L 1391 2791 
L 3691 2791 
L 3691 2019 
L 1391 2019 
L 1391 772 
L 3950 772 
L 3950 0 
L 466 0 
z
" transform="scale(0.015625)"/>
      <path id="Arial-BoldMT-78" d="M 38 0 
L 1234 1709 
L 88 3319 
L 1159 3319 
L 1747 2406 
L 2366 3319 
L 3397 3319 
L 2272 1747 
L 3500 0 
L 2422 0 
L 1747 1028 
L 1066 0 
L 38 0 
z
" transform="scale(0.015625)"/>
     </defs>
     <use xlink:href="#Arial-BoldMT-28"/>
     <use xlink:href="#Arial-BoldMT-41" transform="translate(33.300781 0)"/>
     <use xlink:href="#Arial-BoldMT-63" transform="translate(105.517578 0)"/>
     <use xlink:href="#Arial-BoldMT-74" transform="translate(161.132812 0)"/>
     <use xlink:href="#Arial-BoldMT-75" transform="translate(194.433594 0)"/>
     <use xlink:href="#Arial-BoldMT-61" transform="translate(255.517578 0)"/>
     <use xlink:href="#Arial-BoldMT-6c" transform="translate(311.132812 0)"/>
     <use xlink:href="#Arial-BoldMT-20" transform="translate(338.916016 0)"/>
     <use xlink:href="#Arial-BoldMT-45" transform="translate(366.699219 0)"/>
     <use xlink:href="#Arial-BoldMT-78" transform="translate(433.398438 0)"/>
     <use xlink:href="#Arial-BoldMT-70" transform="translate(489.013672 0)"/>
     <use xlink:href="#Arial-BoldMT-65" transform="translate(550.097656 0)"/>
     <use xlink:href="#Arial-BoldMT-72" transform="translate(605.712891 0)"/>
     <use xlink:href="#Arial-BoldMT-69" transform="translate(644.628906 0)"/>
     <use xlink:href="#Arial-BoldMT-6d" transform="translate(672.412109 0)"/>
     <use xlink:href="#Arial-BoldMT-65" transform="translate(761.328125 0)"/>
     <use xlink:href="#Arial-BoldMT-6e" transform="translate(816.943359 0)"/>
     <use xlink:href="#Arial-BoldMT-74" transform="translate(878.027344 0)"/>
     <use xlink:href="#Arial-BoldMT-20" transform="translate(911.328125 0)"/>
     <use xlink:href="#Arial-BoldMT-52" transform="translate(939.111328 0)"/>
     <use xlink:href="#Arial-BoldMT-65" transform="translate(1011.328125 0)"/>
     <use xlink:href="#Arial-BoldMT-73" transform="translate(1066.943359 0)"/>
     <use xlink:href="#Arial-BoldMT-75" transform="translate(1122.558594 0)"/>
     <use xlink:href="#Arial-BoldMT-6c" transform="translate(1183.642578 0)"/>
     <use xlink:href="#Arial-BoldMT-74" transform="translate(1211.425781 0)"/>
     <use xlink:href="#Arial-BoldMT-73" transform="translate(1244.726562 0)"/>
     <use xlink:href="#Arial-BoldMT-29" transform="translate(1300.341797 0)"/>
    </g>
   </g>
   <g id="legend_1">
    <g id="line2d_15">
     <path d="M 346.156162 102.016313 
L 356.156162 102.016313 
L 366.156162 102.016313 
" style="fill: none; stroke: #ff6b6b; stroke-opacity: 0.8; stroke-width: 3; stroke-linecap: square"/>
     <g>
      <use xlink:href="#m4674e95da4" x="356.156162" y="102.016313" style="fill: #ff6b6b; fill-opacity: 0.8; stroke: #ff6b6b; stroke-opacity: 0.8"/>
     </g>
    </g>
    <g id="text_14">
     <!-- Traditional -->
     <g transform="translate(374.156162 105.516313) scale(0.1 -0.1)">
      <defs>
       <path id="ArialMT-54" d="M 1659 0 
L 1659 4041 
L 150 4041 
L 150 4581 
L 3781 4581 
L 3781 4041 
L 2266 4041 
L 2266 0 
L 1659 0 
z
" transform="scale(0.015625)"/>
       <path id="ArialMT-72" d="M 416 0 
L 416 3319 
L 922 3319 
L 922 2816 
Q 1116 3169 1280 3281 
Q 1444 3394 1641 3394 
Q 1925 3394 2219 3213 
L 2025 2691 
Q 1819 2813 1613 2813 
Q 1428 2813 1281 2702 
Q 1134 2591 1072 2394 
Q 978 2094 978 1738 
L 978 0 
L 416 0 
z
" transform="scale(0.015625)"/>
       <path id="ArialMT-61" d="M 2588 409 
Q 2275 144 1986 34 
Q 1697 -75 1366 -75 
Q 819 -75 525 192 
Q 231 459 231 875 
Q 231 1119 342 1320 
Q 453 1522 633 1644 
Q 813 1766 1038 1828 
Q 1203 1872 1538 1913 
Q 2219 1994 2541 2106 
Q 2544 2222 2544 2253 
Q 2544 2597 2384 2738 
Q 2169 2928 1744 2928 
Q 1347 2928 1158 2789 
Q 969 2650 878 2297 
L 328 2372 
Q 403 2725 575 2942 
Q 747 3159 1072 3276 
Q 1397 3394 1825 3394 
Q 2250 3394 2515 3294 
Q 2781 3194 2906 3042 
Q 3031 2891 3081 2659 
Q 3109 2516 3109 2141 
L 3109 1391 
Q 3109 606 3145 398 
Q 3181 191 3288 0 
L 2700 0 
Q 2613 175 2588 409 
z
M 2541 1666 
Q 2234 1541 1622 1453 
Q 1275 1403 1131 1340 
Q 988 1278 909 1158 
Q 831 1038 831 891 
Q 831 666 1001 516 
Q 1172 366 1500 366 
Q 1825 366 2078 508 
Q 2331 650 2450 897 
Q 2541 1088 2541 1459 
L 2541 1666 
z
" transform="scale(0.015625)"/>
       <path id="ArialMT-64" d="M 2575 0 
L 2575 419 
Q 2259 -75 1647 -75 
Q 1250 -75 917 144 
Q 584 363 401 755 
Q 219 1147 219 1656 
Q 219 2153 384 2558 
Q 550 2963 881 3178 
Q 1213 3394 1622 3394 
Q 1922 3394 2156 3267 
Q 2391 3141 2538 2938 
L 2538 4581 
L 3097 4581 
L 3097 0 
L 2575 0 
z
M 797 1656 
Q 797 1019 1065 703 
Q 1334 388 1700 388 
Q 2069 388 2326 689 
Q 2584 991 2584 1609 
Q 2584 2291 2321 2609 
Q 2059 2928 1675 2928 
Q 1300 2928 1048 2622 
Q 797 2316 797 1656 
z
" transform="scale(0.015625)"/>
       <path id="ArialMT-69" d="M 425 3934 
L 425 4581 
L 988 4581 
L 988 3934 
L 425 3934 
z
M 425 0 
L 425 3319 
L 988 3319 
L 988 0 
L 425 0 
z
" transform="scale(0.015625)"/>
       <path id="ArialMT-74" d="M 1650 503 
L 1731 6 
Q 1494 -44 1306 -44 
Q 1000 -44 831 53 
Q 663 150 594 308 
Q 525 466 525 972 
L 525 2881 
L 113 2881 
L 113 3319 
L 525 3319 
L 525 4141 
L 1084 4478 
L 1084 3319 
L 1650 3319 
L 1650 2881 
L 1084 2881 
L 1084 941 
Q 1084 700 1114 631 
Q 1144 563 1211 522 
Q 1278 481 1403 481 
Q 1497 481 1650 503 
z
" transform="scale(0.015625)"/>
       <path id="ArialMT-6f" d="M 213 1659 
Q 213 2581 725 3025 
Q 1153 3394 1769 3394 
Q 2453 3394 2887 2945 
Q 3322 2497 3322 1706 
Q 3322 1066 3130 698 
Q 2938 331 2570 128 
Q 2203 -75 1769 -75 
Q 1072 -75 642 372 
Q 213 819 213 1659 
z
M 791 1659 
Q 791 1022 1069 705 
Q 1347 388 1769 388 
Q 2188 388 2466 706 
Q 2744 1025 2744 1678 
Q 2744 2294 2464 2611 
Q 2184 2928 1769 2928 
Q 1347 2928 1069 2612 
Q 791 2297 791 1659 
z
" transform="scale(0.015625)"/>
       <path id="ArialMT-6e" d="M 422 0 
L 422 3319 
L 928 3319 
L 928 2847 
Q 1294 3394 1984 3394 
Q 2284 3394 2536 3286 
Q 2788 3178 2913 3003 
Q 3038 2828 3088 2588 
Q 3119 2431 3119 2041 
L 3119 0 
L 2556 0 
L 2556 2019 
Q 2556 2363 2490 2533 
Q 2425 2703 2258 2804 
Q 2091 2906 1866 2906 
Q 1506 2906 1245 2678 
Q 984 2450 984 1813 
L 984 0 
L 422 0 
z
" transform="scale(0.015625)"/>
       <path id="ArialMT-6c" d="M 409 0 
L 409 4581 
L 972 4581 
L 972 0 
L 409 0 
z
" transform="scale(0.015625)"/>
      </defs>
      <use xlink:href="#ArialMT-54"/>
      <use xlink:href="#ArialMT-72" transform="translate(57.333984 0)"/>
      <use xlink:href="#ArialMT-61" transform="translate(90.634766 0)"/>
      <use xlink:href="#ArialMT-64" transform="translate(146.25 0)"/>
      <use xlink:href="#ArialMT-69" transform="translate(201.865234 0)"/>
      <use xlink:href="#ArialMT-74" transform="translate(224.082031 0)"/>
      <use xlink:href="#ArialMT-69" transform="translate(251.865234 0)"/>
      <use xlink:href="#ArialMT-6f" transform="translate(274.082031 0)"/>
      <use xlink:href="#ArialMT-6e" transform="translate(329.697266 0)"/>
      <use xlink:href="#ArialMT-61" transform="translate(385.3125 0)"/>
      <use xlink:href="#ArialMT-6c" transform="translate(440.927734 0)"/>
     </g>
    </g>
    <g id="line2d_16">
     <path d="M 346.156162 116.161625 
L 356.156162 116.161625 
L 366.156162 116.161625 
" style="fill: none; stroke: #4ecdc4; stroke-opacity: 0.8; stroke-width: 3; stroke-linecap: square"/>
     <g>
      <use xlink:href="#m4b468bfe23" x="356.156162" y="116.161625" style="fill: #4ecdc4; fill-opacity: 0.8; stroke: #4ecdc4; stroke-opacity: 0.8"/>
     </g>
    </g>
    <g id="text_15">
     <!-- Probability Reconstruction -->
     <g transform="translate(374.156162 119.661625) scale(0.1 -0.1)">
      <defs>
       <path id="ArialMT-50" d="M 494 0 
L 494 4581 
L 2222 4581 
Q 2678 4581 2919 4538 
Q 3256 4481 3484 4323 
Q 3713 4166 3852 3881 
Q 3991 3597 3991 3256 
Q 3991 2672 3619 2267 
Q 3247 1863 2275 1863 
L 1100 1863 
L 1100 0 
L 494 0 
z
M 1100 2403 
L 2284 2403 
Q 2872 2403 3119 2622 
Q 3366 2841 3366 3238 
Q 3366 3525 3220 3729 
Q 3075 3934 2838 4000 
Q 2684 4041 2272 4041 
L 1100 4041 
L 1100 2403 
z
" transform="scale(0.015625)"/>
       <path id="ArialMT-62" d="M 941 0 
L 419 0 
L 419 4581 
L 981 4581 
L 981 2947 
Q 1338 3394 1891 3394 
Q 2197 3394 2470 3270 
Q 2744 3147 2920 2923 
Q 3097 2700 3197 2384 
Q 3297 2069 3297 1709 
Q 3297 856 2875 390 
Q 2453 -75 1863 -75 
Q 1275 -75 941 416 
L 941 0 
z
M 934 1684 
Q 934 1088 1097 822 
Q 1363 388 1816 388 
Q 2184 388 2453 708 
Q 2722 1028 2722 1663 
Q 2722 2313 2464 2622 
Q 2206 2931 1841 2931 
Q 1472 2931 1203 2611 
Q 934 2291 934 1684 
z
" transform="scale(0.015625)"/>
       <path id="ArialMT-79" d="M 397 -1278 
L 334 -750 
Q 519 -800 656 -800 
Q 844 -800 956 -737 
Q 1069 -675 1141 -563 
Q 1194 -478 1313 -144 
Q 1328 -97 1363 -6 
L 103 3319 
L 709 3319 
L 1400 1397 
Q 1534 1031 1641 628 
Q 1738 1016 1872 1384 
L 2581 3319 
L 3144 3319 
L 1881 -56 
Q 1678 -603 1566 -809 
Q 1416 -1088 1222 -1217 
Q 1028 -1347 759 -1347 
Q 597 -1347 397 -1278 
z
" transform="scale(0.015625)"/>
       <path id="ArialMT-20" transform="scale(0.015625)"/>
       <path id="ArialMT-52" d="M 503 0 
L 503 4581 
L 2534 4581 
Q 3147 4581 3465 4457 
Q 3784 4334 3975 4021 
Q 4166 3709 4166 3331 
Q 4166 2844 3850 2509 
Q 3534 2175 2875 2084 
Q 3116 1969 3241 1856 
Q 3506 1613 3744 1247 
L 4541 0 
L 3778 0 
L 3172 953 
Q 2906 1366 2734 1584 
Q 2563 1803 2427 1890 
Q 2291 1978 2150 2013 
Q 2047 2034 1813 2034 
L 1109 2034 
L 1109 0 
L 503 0 
z
M 1109 2559 
L 2413 2559 
Q 2828 2559 3062 2645 
Q 3297 2731 3419 2920 
Q 3541 3109 3541 3331 
Q 3541 3656 3305 3865 
Q 3069 4075 2559 4075 
L 1109 4075 
L 1109 2559 
z
" transform="scale(0.015625)"/>
       <path id="ArialMT-65" d="M 2694 1069 
L 3275 997 
Q 3138 488 2766 206 
Q 2394 -75 1816 -75 
Q 1088 -75 661 373 
Q 234 822 234 1631 
Q 234 2469 665 2931 
Q 1097 3394 1784 3394 
Q 2450 3394 2872 2941 
Q 3294 2488 3294 1666 
Q 3294 1616 3291 1516 
L 816 1516 
Q 847 969 1125 678 
Q 1403 388 1819 388 
Q 2128 388 2347 550 
Q 2566 713 2694 1069 
z
M 847 1978 
L 2700 1978 
Q 2663 2397 2488 2606 
Q 2219 2931 1791 2931 
Q 1403 2931 1139 2672 
Q 875 2413 847 1978 
z
" transform="scale(0.015625)"/>
       <path id="ArialMT-63" d="M 2588 1216 
L 3141 1144 
Q 3050 572 2676 248 
Q 2303 -75 1759 -75 
Q 1078 -75 664 370 
Q 250 816 250 1647 
Q 250 2184 428 2587 
Q 606 2991 970 3192 
Q 1334 3394 1763 3394 
Q 2303 3394 2647 3120 
Q 2991 2847 3088 2344 
L 2541 2259 
Q 2463 2594 2264 2762 
Q 2066 2931 1784 2931 
Q 1359 2931 1093 2626 
Q 828 2322 828 1663 
Q 828 994 1084 691 
Q 1341 388 1753 388 
Q 2084 388 2306 591 
Q 2528 794 2588 1216 
z
" transform="scale(0.015625)"/>
       <path id="ArialMT-73" d="M 197 991 
L 753 1078 
Q 800 744 1014 566 
Q 1228 388 1613 388 
Q 2000 388 2187 545 
Q 2375 703 2375 916 
Q 2375 1106 2209 1216 
Q 2094 1291 1634 1406 
Q 1016 1563 777 1677 
Q 538 1791 414 1992 
Q 291 2194 291 2438 
Q 291 2659 392 2848 
Q 494 3038 669 3163 
Q 800 3259 1026 3326 
Q 1253 3394 1513 3394 
Q 1903 3394 2198 3281 
Q 2494 3169 2634 2976 
Q 2775 2784 2828 2463 
L 2278 2388 
Q 2241 2644 2061 2787 
Q 1881 2931 1553 2931 
Q 1166 2931 1000 2803 
Q 834 2675 834 2503 
Q 834 2394 903 2306 
Q 972 2216 1119 2156 
Q 1203 2125 1616 2013 
Q 2213 1853 2448 1751 
Q 2684 1650 2818 1456 
Q 2953 1263 2953 975 
Q 2953 694 2789 445 
Q 2625 197 2315 61 
Q 2006 -75 1616 -75 
Q 969 -75 630 194 
Q 291 463 197 991 
z
" transform="scale(0.015625)"/>
       <path id="ArialMT-75" d="M 2597 0 
L 2597 488 
Q 2209 -75 1544 -75 
Q 1250 -75 995 37 
Q 741 150 617 320 
Q 494 491 444 738 
Q 409 903 409 1263 
L 409 3319 
L 972 3319 
L 972 1478 
Q 972 1038 1006 884 
Q 1059 663 1231 536 
Q 1403 409 1656 409 
Q 1909 409 2131 539 
Q 2353 669 2445 892 
Q 2538 1116 2538 1541 
L 2538 3319 
L 3100 3319 
L 3100 0 
L 2597 0 
z
" transform="scale(0.015625)"/>
      </defs>
      <use xlink:href="#ArialMT-50"/>
      <use xlink:href="#ArialMT-72" transform="translate(66.699219 0)"/>
      <use xlink:href="#ArialMT-6f" transform="translate(100 0)"/>
      <use xlink:href="#ArialMT-62" transform="translate(155.615234 0)"/>
      <use xlink:href="#ArialMT-61" transform="translate(211.230469 0)"/>
      <use xlink:href="#ArialMT-62" transform="translate(266.845703 0)"/>
      <use xlink:href="#ArialMT-69" transform="translate(322.460938 0)"/>
      <use xlink:href="#ArialMT-6c" transform="translate(344.677734 0)"/>
      <use xlink:href="#ArialMT-69" transform="translate(366.894531 0)"/>
      <use xlink:href="#ArialMT-74" transform="translate(389.111328 0)"/>
      <use xlink:href="#ArialMT-79" transform="translate(416.894531 0)"/>
      <use xlink:href="#ArialMT-20" transform="translate(466.894531 0)"/>
      <use xlink:href="#ArialMT-52" transform="translate(494.677734 0)"/>
      <use xlink:href="#ArialMT-65" transform="translate(566.894531 0)"/>
      <use xlink:href="#ArialMT-63" transform="translate(622.509766 0)"/>
      <use xlink:href="#ArialMT-6f" transform="translate(672.509766 0)"/>
      <use xlink:href="#ArialMT-6e" transform="translate(728.125 0)"/>
      <use xlink:href="#ArialMT-73" transform="translate(783.740234 0)"/>
      <use xlink:href="#ArialMT-74" transform="translate(833.740234 0)"/>
      <use xlink:href="#ArialMT-72" transform="translate(861.523438 0)"/>
      <use xlink:href="#ArialMT-75" transform="translate(894.824219 0)"/>
      <use xlink:href="#ArialMT-63" transform="translate(950.439453 0)"/>
      <use xlink:href="#ArialMT-74" transform="translate(1000.439453 0)"/>
      <use xlink:href="#ArialMT-69" transform="translate(1028.222656 0)"/>
      <use xlink:href="#ArialMT-6f" transform="translate(1050.439453 0)"/>
      <use xlink:href="#ArialMT-6e" transform="translate(1106.054688 0)"/>
     </g>
    </g>
   </g>
  </g>
  <g id="text_16">
   <!-- Traditional Multi-Classifier vs Probability Reconstruction -->
   <g transform="translate(13.32325 17.391562) scale(0.14 -0.14)">
    <defs>
     <path id="Arial-BoldMT-54" d="M 1497 0 
L 1497 3806 
L 138 3806 
L 138 4581 
L 3778 4581 
L 3778 3806 
L 2422 3806 
L 2422 0 
L 1497 0 
z
" transform="scale(0.015625)"/>
     <path id="Arial-BoldMT-76" d="M 1372 0 
L 34 3319 
L 956 3319 
L 1581 1625 
L 1763 1059 
Q 1834 1275 1853 1344 
Q 1897 1484 1947 1625 
L 2578 3319 
L 3481 3319 
L 2163 0 
L 1372 0 
z
" transform="scale(0.015625)"/>
     <path id="Arial-BoldMT-62" d="M 422 0 
L 422 4581 
L 1300 4581 
L 1300 2931 
Q 1706 3394 2263 3394 
Q 2869 3394 3266 2955 
Q 3663 2516 3663 1694 
Q 3663 844 3258 384 
Q 2853 -75 2275 -75 
Q 1991 -75 1714 67 
Q 1438 209 1238 488 
L 1238 0 
L 422 0 
z
M 1294 1731 
Q 1294 1216 1456 969 
Q 1684 619 2063 619 
Q 2353 619 2558 867 
Q 2763 1116 2763 1650 
Q 2763 2219 2556 2470 
Q 2350 2722 2028 2722 
Q 1713 2722 1503 2476 
Q 1294 2231 1294 1731 
z
" transform="scale(0.015625)"/>
    </defs>
    <use xlink:href="#Arial-BoldMT-54"/>
    <use xlink:href="#Arial-BoldMT-72" transform="translate(55.583984 0)"/>
    <use xlink:href="#Arial-BoldMT-61" transform="translate(94.5 0)"/>
    <use xlink:href="#Arial-BoldMT-64" transform="translate(150.115234 0)"/>
    <use xlink:href="#Arial-BoldMT-69" transform="translate(211.199219 0)"/>
    <use xlink:href="#Arial-BoldMT-74" transform="translate(238.982422 0)"/>
    <use xlink:href="#Arial-BoldMT-69" transform="translate(272.283203 0)"/>
    <use xlink:href="#Arial-BoldMT-6f" transform="translate(300.066406 0)"/>
    <use xlink:href="#Arial-BoldMT-6e" transform="translate(361.150391 0)"/>
    <use xlink:href="#Arial-BoldMT-61" transform="translate(422.234375 0)"/>
    <use xlink:href="#Arial-BoldMT-6c" transform="translate(477.849609 0)"/>
    <use xlink:href="#Arial-BoldMT-20" transform="translate(505.632812 0)"/>
    <use xlink:href="#Arial-BoldMT-4d" transform="translate(533.416016 0)"/>
    <use xlink:href="#Arial-BoldMT-75" transform="translate(616.716797 0)"/>
    <use xlink:href="#Arial-BoldMT-6c" transform="translate(677.800781 0)"/>
    <use xlink:href="#Arial-BoldMT-74" transform="translate(705.583984 0)"/>
    <use xlink:href="#Arial-BoldMT-69" transform="translate(738.884766 0)"/>
    <use xlink:href="#Arial-BoldMT-2d" transform="translate(766.667969 0)"/>
    <use xlink:href="#Arial-BoldMT-43" transform="translate(799.96875 0)"/>
    <use xlink:href="#Arial-BoldMT-6c" transform="translate(872.185547 0)"/>
    <use xlink:href="#Arial-BoldMT-61" transform="translate(899.96875 0)"/>
    <use xlink:href="#Arial-BoldMT-73" transform="translate(955.583984 0)"/>
    <use xlink:href="#Arial-BoldMT-73" transform="translate(1011.199219 0)"/>
    <use xlink:href="#Arial-BoldMT-69" transform="translate(1066.814453 0)"/>
    <use xlink:href="#Arial-BoldMT-66" transform="translate(1094.597656 0)"/>
    <use xlink:href="#Arial-BoldMT-69" transform="translate(1127.898438 0)"/>
    <use xlink:href="#Arial-BoldMT-65" transform="translate(1155.681641 0)"/>
    <use xlink:href="#Arial-BoldMT-72" transform="translate(1211.296875 0)"/>
    <use xlink:href="#Arial-BoldMT-20" transform="translate(1250.212891 0)"/>
    <use xlink:href="#Arial-BoldMT-76" transform="translate(1277.996094 0)"/>
    <use xlink:href="#Arial-BoldMT-73" transform="translate(1333.611328 0)"/>
    <use xlink:href="#Arial-BoldMT-20" transform="translate(1389.226562 0)"/>
    <use xlink:href="#Arial-BoldMT-50" transform="translate(1417.009766 0)"/>
    <use xlink:href="#Arial-BoldMT-72" transform="translate(1483.708984 0)"/>
    <use xlink:href="#Arial-BoldMT-6f" transform="translate(1522.625 0)"/>
    <use xlink:href="#Arial-BoldMT-62" transform="translate(1583.708984 0)"/>
    <use xlink:href="#Arial-BoldMT-61" transform="translate(1644.792969 0)"/>
    <use xlink:href="#Arial-BoldMT-62" transform="translate(1700.408203 0)"/>
    <use xlink:href="#Arial-BoldMT-69" transform="translate(1761.492188 0)"/>
    <use xlink:href="#Arial-BoldMT-6c" transform="translate(1789.275391 0)"/>
    <use xlink:href="#Arial-BoldMT-69" transform="translate(1817.058594 0)"/>
    <use xlink:href="#Arial-BoldMT-74" transform="translate(1844.841797 0)"/>
    <use xlink:href="#Arial-BoldMT-79" transform="translate(1878.142578 0)"/>
    <use xlink:href="#Arial-BoldMT-20" transform="translate(1933.757812 0)"/>
    <use xlink:href="#Arial-BoldMT-52" transform="translate(1961.541016 0)"/>
    <use xlink:href="#Arial-BoldMT-65" transform="translate(2033.757812 0)"/>
    <use xlink:href="#Arial-BoldMT-63" transform="translate(2089.373047 0)"/>
    <use xlink:href="#Arial-BoldMT-6f" transform="translate(2144.988281 0)"/>
    <use xlink:href="#Arial-BoldMT-6e" transform="translate(2206.072266 0)"/>
    <use xlink:href="#Arial-BoldMT-73" transform="translate(2267.15625 0)"/>
    <use xlink:href="#Arial-BoldMT-74" transform="translate(2322.771484 0)"/>
    <use xlink:href="#Arial-BoldMT-72" transform="translate(2356.072266 0)"/>
    <use xlink:href="#Arial-BoldMT-75" transform="translate(2394.988281 0)"/>
    <use xlink:href="#Arial-BoldMT-63" transform="translate(2456.072266 0)"/>
    <use xlink:href="#Arial-BoldMT-74" transform="translate(2511.6875 0)"/>
    <use xlink:href="#Arial-BoldMT-69" transform="translate(2544.988281 0)"/>
    <use xlink:href="#Arial-BoldMT-6f" transform="translate(2572.771484 0)"/>
    <use xlink:href="#Arial-BoldMT-6e" transform="translate(2633.855469 0)"/>
   </g>
   <!-- Performance Comparison (Actual Experiment Results) -->
   <g transform="translate(21.085594 32.568) scale(0.14 -0.14)">
    <use xlink:href="#Arial-BoldMT-50"/>
    <use xlink:href="#Arial-BoldMT-65" transform="translate(66.699219 0)"/>
    <use xlink:href="#Arial-BoldMT-72" transform="translate(122.314453 0)"/>
    <use xlink:href="#Arial-BoldMT-66" transform="translate(161.230469 0)"/>
    <use xlink:href="#Arial-BoldMT-6f" transform="translate(194.53125 0)"/>
    <use xlink:href="#Arial-BoldMT-72" transform="translate(255.615234 0)"/>
    <use xlink:href="#Arial-BoldMT-6d" transform="translate(294.53125 0)"/>
    <use xlink:href="#Arial-BoldMT-61" transform="translate(383.447266 0)"/>
    <use xlink:href="#Arial-BoldMT-6e" transform="translate(439.0625 0)"/>
    <use xlink:href="#Arial-BoldMT-63" transform="translate(500.146484 0)"/>
    <use xlink:href="#Arial-BoldMT-65" transform="translate(555.761719 0)"/>
    <use xlink:href="#Arial-BoldMT-20" transform="translate(611.376953 0)"/>
    <use xlink:href="#Arial-BoldMT-43" transform="translate(639.160156 0)"/>
    <use xlink:href="#Arial-BoldMT-6f" transform="translate(711.376953 0)"/>
    <use xlink:href="#Arial-BoldMT-6d" transform="translate(772.460938 0)"/>
    <use xlink:href="#Arial-BoldMT-70" transform="translate(861.376953 0)"/>
    <use xlink:href="#Arial-BoldMT-61" transform="translate(922.460938 0)"/>
    <use xlink:href="#Arial-BoldMT-72" transform="translate(978.076172 0)"/>
    <use xlink:href="#Arial-BoldMT-69" transform="translate(1016.992188 0)"/>
    <use xlink:href="#Arial-BoldMT-73" transform="translate(1044.775391 0)"/>
    <use xlink:href="#Arial-BoldMT-6f" transform="translate(1100.390625 0)"/>
    <use xlink:href="#Arial-BoldMT-6e" transform="translate(1161.474609 0)"/>
    <use xlink:href="#Arial-BoldMT-20" transform="translate(1222.558594 0)"/>
    <use xlink:href="#Arial-BoldMT-28" transform="translate(1250.341797 0)"/>
    <use xlink:href="#Arial-BoldMT-41" transform="translate(1283.642578 0)"/>
    <use xlink:href="#Arial-BoldMT-63" transform="translate(1355.859375 0)"/>
    <use xlink:href="#Arial-BoldMT-74" transform="translate(1411.474609 0)"/>
    <use xlink:href="#Arial-BoldMT-75" transform="translate(1444.775391 0)"/>
    <use xlink:href="#Arial-BoldMT-61" transform="translate(1505.859375 0)"/>
    <use xlink:href="#Arial-BoldMT-6c" transform="translate(1561.474609 0)"/>
    <use xlink:href="#Arial-BoldMT-20" transform="translate(1589.257812 0)"/>
    <use xlink:href="#Arial-BoldMT-45" transform="translate(1617.041016 0)"/>
    <use xlink:href="#Arial-BoldMT-78" transform="translate(1683.740234 0)"/>
    <use xlink:href="#Arial-BoldMT-70" transform="translate(1739.355469 0)"/>
    <use xlink:href="#Arial-BoldMT-65" transform="translate(1800.439453 0)"/>
    <use xlink:href="#Arial-BoldMT-72" transform="translate(1856.054688 0)"/>
    <use xlink:href="#Arial-BoldMT-69" transform="translate(1894.970703 0)"/>
    <use xlink:href="#Arial-BoldMT-6d" transform="translate(1922.753906 0)"/>
    <use xlink:href="#Arial-BoldMT-65" transform="translate(2011.669922 0)"/>
    <use xlink:href="#Arial-BoldMT-6e" transform="translate(2067.285156 0)"/>
    <use xlink:href="#Arial-BoldMT-74" transform="translate(2128.369141 0)"/>
    <use xlink:href="#Arial-BoldMT-20" transform="translate(2161.669922 0)"/>
    <use xlink:href="#Arial-BoldMT-52" transform="translate(2189.453125 0)"/>
    <use xlink:href="#Arial-BoldMT-65" transform="translate(2261.669922 0)"/>
    <use xlink:href="#Arial-BoldMT-73" transform="translate(2317.285156 0)"/>
    <use xlink:href="#Arial-BoldMT-75" transform="translate(2372.900391 0)"/>
    <use xlink:href="#Arial-BoldMT-6c" transform="translate(2433.984375 0)"/>
    <use xlink:href="#Arial-BoldMT-74" transform="translate(2461.767578 0)"/>
    <use xlink:href="#Arial-BoldMT-73" transform="translate(2495.068359 0)"/>
    <use xlink:href="#Arial-BoldMT-29" transform="translate(2550.683594 0)"/>
   </g>
  </g>
 </g>
 <defs>
  <clipPath id="pf759527d07">
   <path d="M 367.1565 254.55925 
C 367.1565 232.865286 362.883262 211.382269 354.581342 191.33966 
C 346.279421 171.297051 334.110269 153.084628 318.770321 137.744679 
C 303.430372 122.404731 285.217949 110.235579 265.17534 101.933658 
C 245.132731 93.631738 223.649714 89.3585 201.95575 89.3585 
C 180.261786 89.3585 158.778769 93.631738 138.73616 101.933658 
C 118.693551 110.235579 100.481128 122.404731 85.141179 137.744679 
C 69.801231 153.084628 57.632079 171.297051 49.330158 191.33966 
C 41.028238 211.382269 36.755 232.865286 36.755 254.55925 
C 36.755 276.253214 41.028238 297.736231 49.330158 317.77884 
C 57.632079 337.821449 69.801231 356.033872 85.141179 371.373821 
C 100.481128 386.713769 118.693551 398.882921 138.73616 407.184842 
C 158.778769 415.486762 180.261786 419.76 201.95575 419.76 
C 223.649714 419.76 245.132731 415.486762 265.17534 407.184842 
C 285.217949 398.882921 303.430372 386.713769 318.770321 371.373821 
C 334.110269 356.033872 346.279421 337.821449 354.581342 317.77884 
C 362.883262 297.736231 367.1565 276.253214 367.1565 254.55925 
M 201.95575 254.55925 
C 201.95575 254.55925 201.95575 254.55925 201.95575 254.55925 
C 201.95575 254.55925 201.95575 254.55925 201.95575 254.55925 
C 201.95575 254.55925 201.95575 254.55925 201.95575 254.55925 
C 201.95575 254.55925 201.95575 254.55925 201.95575 254.55925 
C 201.95575 254.55925 201.95575 254.55925 201.95575 254.55925 
C 201.95575 254.55925 201.95575 254.55925 201.95575 254.55925 
C 201.95575 254.55925 201.95575 254.55925 201.95575 254.55925 
C 201.95575 254.55925 201.95575 254.55925 201.95575 254.55925 
C 201.95575 254.55925 201.95575 254.55925 201.95575 254.55925 
C 201.95575 254.55925 201.95575 254.55925 201.95575 254.55925 
C 201.95575 254.55925 201.95575 254.55925 201.95575 254.55925 
C 201.95575 254.55925 201.95575 254.55925 201.95575 254.55925 
C 201.95575 254.55925 201.95575 254.55925 201.95575 254.55925 
C 201.95575 254.55925 201.95575 254.55925 201.95575 254.55925 
C 201.95575 254.55925 201.95575 254.55925 201.95575 254.55925 
C 201.95575 254.55925 201.95575 254.55925 201.95575 254.55925 
z
"/>
  </clipPath>
 </defs>
</svg>
