<?xml version="1.0" encoding="utf-8" standalone="no"?>
<!DOCTYPE svg PUBLIC "-//W3C//DTD SVG 1.1//EN"
  "http://www.w3.org/Graphics/SVG/1.1/DTD/svg11.dtd">
<svg xmlns:xlink="http://www.w3.org/1999/xlink" width="702.61425pt" height="567.698625pt" viewBox="0 0 702.61425 567.698625" xmlns="http://www.w3.org/2000/svg" version="1.1">
 <metadata>
  <rdf:RDF xmlns:dc="http://purl.org/dc/elements/1.1/" xmlns:cc="http://creativecommons.org/ns#" xmlns:rdf="http://www.w3.org/1999/02/22-rdf-syntax-ns#">
   <cc:Work>
    <dc:type rdf:resource="http://purl.org/dc/dcmitype/StillImage"/>
    <dc:date>2026-01-05T00:04:58.354441</dc:date>
    <dc:format>image/svg+xml</dc:format>
    <dc:creator>
     <cc:Agent>
      <dc:title>Matplotlib v3.10.6, https://matplotlib.org/</dc:title>
     </cc:Agent>
    </dc:creator>
   </cc:Work>
  </rdf:RDF>
 </metadata>
 <defs>
  <style type="text/css">*{stroke-linejoin: round; stroke-linecap: butt}</style>
 </defs>
 <g id="figure_1">
  <g id="patch_1">
   <path d="M 0 567.698625 
L 702.61425 567.698625 
L 702.61425 0 
L 0 0 
z
" style="fill: #ffffff"/>
  </g>
  <g id="axes_1">
   <g id="patch_2">
    <path d="M 548.92875 306.356125 
C 548.92875 272.982438 542.354861 239.933267 529.583304 209.100001 
C 516.811747 178.266734 498.090896 150.249 474.492135 126.65024 
C 450.893375 103.051479 422.875641 84.330628 392.042374 71.559071 
C 361.209108 58.787514 328.159937 52.213625 294.78625 52.213625 
C 261.412563 52.213625 228.363392 58.787514 197.530126 71.559071 
C 166.696859 84.330628 138.679125 103.051479 115.080365 126.65024 
C 91.481604 150.249 72.760753 178.266734 59.989196 209.100001 
C 47.217639 239.933267 40.64375 272.982438 40.64375 306.356125 
C 40.64375 339.729812 47.217639 372.778983 59.989196 403.612249 
C 72.760753 434.445516 91.481604 462.46325 115.080365 486.06201 
C 138.679125 509.660771 166.696859 528.381622 197.530126 541.153179 
C 228.363392 553.924736 261.412563 560.498625 294.78625 560.498625 
C 328.159937 560.498625 361.209108 553.924736 392.042374 541.153179 
C 422.875641 528.381622 450.893375 509.660771 474.492135 486.06201 
C 498.090896 462.46325 516.811747 434.445516 529.583304 403.612249 
C 542.354861 372.778983 548.92875 339.729812 548.92875 306.356125 
M 294.78625 306.356125 
C 294.78625 306.356125 294.78625 306.356125 294.78625 306.356125 
C 294.78625 306.356125 294.78625 306.356125 294.78625 306.356125 
C 294.78625 306.356125 294.78625 306.356125 294.78625 306.356125 
C 294.78625 306.356125 294.78625 306.356125 294.78625 306.356125 
C 294.78625 306.356125 294.78625 306.356125 294.78625 306.356125 
C 294.78625 306.356125 294.78625 306.356125 294.78625 306.356125 
C 294.78625 306.356125 294.78625 306.356125 294.78625 306.356125 
C 294.78625 306.356125 294.78625 306.356125 294.78625 306.356125 
C 294.78625 306.356125 294.78625 306.356125 294.78625 306.356125 
C 294.78625 306.356125 294.78625 306.356125 294.78625 306.356125 
C 294.78625 306.356125 294.78625 306.356125 294.78625 306.356125 
C 294.78625 306.356125 294.78625 306.356125 294.78625 306.356125 
C 294.78625 306.356125 294.78625 306.356125 294.78625 306.356125 
C 294.78625 306.356125 294.78625 306.356125 294.78625 306.356125 
C 294.78625 306.356125 294.78625 306.356125 294.78625 306.356125 
C 294.78625 306.356125 294.78625 306.356125 294.78625 306.356125 
z
" style="fill: #ffffff"/>
   </g>
   <g id="patch_3">
    <path d="M 456.039666 306.356125 
L 374.091417 168.995546 
L 187.677893 120.839009 
L 119.732896 306.356125 
L 219.356756 437.003841 
L 390.14687 471.525563 
z
" clip-path="url(#p169bbf2099)" style="fill: #ff6b6b; opacity: 0.1; stroke: #ff6b6b; stroke-linejoin: miter"/>
   </g>
   <g id="patch_4">
    <path d="M 488.290349 306.356125 
L 396.201815 130.699214 
L 175.428225 99.621961 
L 69.514338 306.356125 
L 198.428121 473.2533 
L 403.089076 493.942123 
z
" clip-path="url(#p169bbf2099)" style="fill: #ffa07a; opacity: 0.1; stroke: #ffa07a; stroke-linejoin: miter"/>
   </g>
   <g id="patch_5">
    <path d="M 511.518974 306.356125 
L 401.500686 121.5213 
L 171.69233 93.151202 
L 57.340912 306.356125 
L 193.3961 481.969017 
L 408.934354 504.06644 
z
" clip-path="url(#p169bbf2099)" style="fill: #4ecdc4; opacity: 0.1; stroke: #4ecdc4; stroke-linejoin: miter"/>
   </g>
   <g id="patch_6">
    <path d="M 507.656008 306.356125 
L 397.764791 127.99206 
L 175.93651 100.502337 
L 76.782813 306.356125 
L 196.966802 475.784379 
L 407.473034 501.535361 
z
" clip-path="url(#p169bbf2099)" style="fill: #45b7d1; opacity: 0.1; stroke: #45b7d1; stroke-linejoin: miter"/>
   </g>
   <g id="patch_7">
    <path d="M 516.678067 306.356125 
L 403.699018 117.713677 
L 174.665797 98.301398 
L 65.905514 306.356125 
L 191.439202 485.358462 
L 410.726058 507.169764 
z
" clip-path="url(#p169bbf2099)" style="fill: #96ceb4; opacity: 0.1; stroke: #96ceb4; stroke-linejoin: miter"/>
   </g>
   <g id="patch_8">
    <path d="M 510.222847 306.356125 
L 401.386322 121.719385 
L 173.128235 95.638262 
L 60.873493 306.356125 
L 193.510464 481.770932 
L 408.37524 503.098028 
z
" clip-path="url(#p169bbf2099)" style="fill: #9b59b6; opacity: 0.1; stroke: #9b59b6; stroke-linejoin: miter"/>
   </g>
   <g id="matplotlib.axis_1">
    <g id="xtick_1">
     <g id="line2d_1">
      <path d="M 294.78625 306.356125 
L 548.92875 306.356125 
" clip-path="url(#p169bbf2099)" style="fill: none; stroke: #b0b0b0; stroke-width: 0.8; stroke-linecap: square"/>
     </g>
     <g id="text_1">
      <!-- Accuracy -->
      <g transform="translate(540.415469 303.462531) scale(0.1 -0.1)">
       <defs>
        <path id="Arial-BoldMT-41" d="M 4597 0 
L 3591 0 
L 3191 1041 
L 1359 1041 
L 981 0 
L 0 0 
L 1784 4581 
L 2763 4581 
L 4597 0 
z
M 2894 1813 
L 2263 3513 
L 1644 1813 
L 2894 1813 
z
" transform="scale(0.015625)"/>
        <path id="Arial-BoldMT-63" d="M 3353 2338 
L 2488 2181 
Q 2444 2441 2289 2572 
Q 2134 2703 1888 2703 
Q 1559 2703 1364 2476 
Q 1169 2250 1169 1719 
Q 1169 1128 1367 884 
Q 1566 641 1900 641 
Q 2150 641 2309 783 
Q 2469 925 2534 1272 
L 3397 1125 
Q 3263 531 2881 228 
Q 2500 -75 1859 -75 
Q 1131 -75 698 384 
Q 266 844 266 1656 
Q 266 2478 700 2936 
Q 1134 3394 1875 3394 
Q 2481 3394 2839 3133 
Q 3197 2872 3353 2338 
z
" transform="scale(0.015625)"/>
        <path id="Arial-BoldMT-75" d="M 2644 0 
L 2644 497 
Q 2463 231 2167 78 
Q 1872 -75 1544 -75 
Q 1209 -75 943 72 
Q 678 219 559 484 
Q 441 750 441 1219 
L 441 3319 
L 1319 3319 
L 1319 1794 
Q 1319 1094 1367 936 
Q 1416 778 1544 686 
Q 1672 594 1869 594 
Q 2094 594 2272 717 
Q 2450 841 2515 1023 
Q 2581 1206 2581 1919 
L 2581 3319 
L 3459 3319 
L 3459 0 
L 2644 0 
z
" transform="scale(0.015625)"/>
        <path id="Arial-BoldMT-72" d="M 1300 0 
L 422 0 
L 422 3319 
L 1238 3319 
L 1238 2847 
Q 1447 3181 1614 3287 
Q 1781 3394 1994 3394 
Q 2294 3394 2572 3228 
L 2300 2463 
Q 2078 2606 1888 2606 
Q 1703 2606 1575 2504 
Q 1447 2403 1373 2137 
Q 1300 1872 1300 1025 
L 1300 0 
z
" transform="scale(0.015625)"/>
        <path id="Arial-BoldMT-61" d="M 1116 2306 
L 319 2450 
Q 453 2931 781 3162 
Q 1109 3394 1756 3394 
Q 2344 3394 2631 3255 
Q 2919 3116 3036 2902 
Q 3153 2688 3153 2116 
L 3144 1091 
Q 3144 653 3186 445 
Q 3228 238 3344 0 
L 2475 0 
Q 2441 88 2391 259 
Q 2369 338 2359 363 
Q 2134 144 1878 34 
Q 1622 -75 1331 -75 
Q 819 -75 523 203 
Q 228 481 228 906 
Q 228 1188 362 1408 
Q 497 1628 739 1745 
Q 981 1863 1438 1950 
Q 2053 2066 2291 2166 
L 2291 2253 
Q 2291 2506 2166 2614 
Q 2041 2722 1694 2722 
Q 1459 2722 1328 2630 
Q 1197 2538 1116 2306 
z
M 2291 1594 
Q 2122 1538 1756 1459 
Q 1391 1381 1278 1306 
Q 1106 1184 1106 997 
Q 1106 813 1243 678 
Q 1381 544 1594 544 
Q 1831 544 2047 700 
Q 2206 819 2256 991 
Q 2291 1103 2291 1419 
L 2291 1594 
z
" transform="scale(0.015625)"/>
        <path id="Arial-BoldMT-79" d="M 44 3319 
L 978 3319 
L 1772 963 
L 2547 3319 
L 3456 3319 
L 2284 125 
L 2075 -453 
Q 1959 -744 1854 -897 
Q 1750 -1050 1614 -1145 
Q 1478 -1241 1279 -1294 
Q 1081 -1347 831 -1347 
Q 578 -1347 334 -1294 
L 256 -606 
Q 463 -647 628 -647 
Q 934 -647 1081 -467 
Q 1228 -288 1306 -9 
L 44 3319 
z
" transform="scale(0.015625)"/>
       </defs>
       <use xlink:href="#Arial-BoldMT-41"/>
       <use xlink:href="#Arial-BoldMT-63" transform="translate(72.216797 0)"/>
       <use xlink:href="#Arial-BoldMT-63" transform="translate(127.832031 0)"/>
       <use xlink:href="#Arial-BoldMT-75" transform="translate(183.447266 0)"/>
       <use xlink:href="#Arial-BoldMT-72" transform="translate(244.53125 0)"/>
       <use xlink:href="#Arial-BoldMT-61" transform="translate(283.447266 0)"/>
       <use xlink:href="#Arial-BoldMT-63" transform="translate(339.0625 0)"/>
       <use xlink:href="#Arial-BoldMT-79" transform="translate(394.677734 0)"/>
      </g>
      <!-- (0-1) -->
      <g transform="translate(552.373281 314.302844) scale(0.1 -0.1)">
       <defs>
        <path id="Arial-BoldMT-28" d="M 1916 -1347 
L 1313 -1347 
Q 834 -625 584 153 
Q 334 931 334 1659 
Q 334 2563 644 3369 
Q 913 4069 1325 4659 
L 1925 4659 
Q 1497 3713 1336 3048 
Q 1175 2384 1175 1641 
Q 1175 1128 1270 590 
Q 1366 53 1531 -431 
Q 1641 -750 1916 -1347 
z
" transform="scale(0.015625)"/>
        <path id="Arial-BoldMT-30" d="M 1756 4600 
Q 2422 4600 2797 4125 
Q 3244 3563 3244 2259 
Q 3244 959 2794 391 
Q 2422 -78 1756 -78 
Q 1088 -78 678 436 
Q 269 950 269 2269 
Q 269 3563 719 4131 
Q 1091 4600 1756 4600 
z
M 1756 3872 
Q 1597 3872 1472 3770 
Q 1347 3669 1278 3406 
Q 1188 3066 1188 2259 
Q 1188 1453 1269 1151 
Q 1350 850 1473 750 
Q 1597 650 1756 650 
Q 1916 650 2041 751 
Q 2166 853 2234 1116 
Q 2325 1453 2325 2259 
Q 2325 3066 2244 3367 
Q 2163 3669 2039 3770 
Q 1916 3872 1756 3872 
z
" transform="scale(0.015625)"/>
        <path id="Arial-BoldMT-2d" d="M 359 1222 
L 359 2100 
L 2084 2100 
L 2084 1222 
L 359 1222 
z
" transform="scale(0.015625)"/>
        <path id="Arial-BoldMT-31" d="M 2519 0 
L 1641 0 
L 1641 3309 
Q 1159 2859 506 2644 
L 506 3441 
Q 850 3553 1253 3867 
Q 1656 4181 1806 4600 
L 2519 4600 
L 2519 0 
z
" transform="scale(0.015625)"/>
        <path id="Arial-BoldMT-29" d="M 216 -1347 
Q 475 -791 581 -494 
Q 688 -197 778 190 
Q 869 578 912 926 
Q 956 1275 956 1641 
Q 956 2384 797 3048 
Q 638 3713 209 4659 
L 806 4659 
Q 1278 3988 1539 3234 
Q 1800 2481 1800 1706 
Q 1800 1053 1594 306 
Q 1359 -531 822 -1347 
L 216 -1347 
z
" transform="scale(0.015625)"/>
       </defs>
       <use xlink:href="#Arial-BoldMT-28"/>
       <use xlink:href="#Arial-BoldMT-30" transform="translate(33.300781 0)"/>
       <use xlink:href="#Arial-BoldMT-2d" transform="translate(88.916016 0)"/>
       <use xlink:href="#Arial-BoldMT-31" transform="translate(122.216797 0)"/>
       <use xlink:href="#Arial-BoldMT-29" transform="translate(177.832031 0)"/>
      </g>
     </g>
    </g>
    <g id="xtick_2">
     <g id="line2d_2">
      <path d="M 294.78625 306.356125 
L 421.8575 86.262264 
" clip-path="url(#p169bbf2099)" style="fill: none; stroke: #b0b0b0; stroke-width: 0.8; stroke-linecap: square"/>
     </g>
     <g id="text_2">
      <!-- Balanced -->
      <g transform="translate(406.627812 65.962908) scale(0.1 -0.1)">
       <defs>
        <path id="Arial-BoldMT-42" d="M 469 4581 
L 2300 4581 
Q 2844 4581 3111 4536 
Q 3378 4491 3589 4347 
Q 3800 4203 3940 3964 
Q 4081 3725 4081 3428 
Q 4081 3106 3907 2837 
Q 3734 2569 3438 2434 
Q 3856 2313 4081 2019 
Q 4306 1725 4306 1328 
Q 4306 1016 4161 720 
Q 4016 425 3764 248 
Q 3513 72 3144 31 
Q 2913 6 2028 0 
L 469 0 
L 469 4581 
z
M 1394 3819 
L 1394 2759 
L 2000 2759 
Q 2541 2759 2672 2775 
Q 2909 2803 3045 2939 
Q 3181 3075 3181 3297 
Q 3181 3509 3064 3642 
Q 2947 3775 2716 3803 
Q 2578 3819 1925 3819 
L 1394 3819 
z
M 1394 1997 
L 1394 772 
L 2250 772 
Q 2750 772 2884 800 
Q 3091 838 3220 983 
Q 3350 1128 3350 1372 
Q 3350 1578 3250 1722 
Q 3150 1866 2961 1931 
Q 2772 1997 2141 1997 
L 1394 1997 
z
" transform="scale(0.015625)"/>
        <path id="Arial-BoldMT-6c" d="M 459 0 
L 459 4581 
L 1338 4581 
L 1338 0 
L 459 0 
z
" transform="scale(0.015625)"/>
        <path id="Arial-BoldMT-6e" d="M 3478 0 
L 2600 0 
L 2600 1694 
Q 2600 2231 2544 2389 
Q 2488 2547 2361 2634 
Q 2234 2722 2056 2722 
Q 1828 2722 1647 2597 
Q 1466 2472 1398 2265 
Q 1331 2059 1331 1503 
L 1331 0 
L 453 0 
L 453 3319 
L 1269 3319 
L 1269 2831 
Q 1703 3394 2363 3394 
Q 2653 3394 2893 3289 
Q 3134 3184 3257 3021 
Q 3381 2859 3429 2653 
Q 3478 2447 3478 2063 
L 3478 0 
z
" transform="scale(0.015625)"/>
        <path id="Arial-BoldMT-65" d="M 2381 1056 
L 3256 909 
Q 3088 428 2723 176 
Q 2359 -75 1813 -75 
Q 947 -75 531 491 
Q 203 944 203 1634 
Q 203 2459 634 2926 
Q 1066 3394 1725 3394 
Q 2466 3394 2894 2905 
Q 3322 2416 3303 1406 
L 1103 1406 
Q 1113 1016 1316 798 
Q 1519 581 1822 581 
Q 2028 581 2168 693 
Q 2309 806 2381 1056 
z
M 2431 1944 
Q 2422 2325 2234 2523 
Q 2047 2722 1778 2722 
Q 1491 2722 1303 2513 
Q 1116 2303 1119 1944 
L 2431 1944 
z
" transform="scale(0.015625)"/>
        <path id="Arial-BoldMT-64" d="M 3503 0 
L 2688 0 
L 2688 488 
Q 2484 203 2207 64 
Q 1931 -75 1650 -75 
Q 1078 -75 670 386 
Q 263 847 263 1672 
Q 263 2516 659 2955 
Q 1056 3394 1663 3394 
Q 2219 3394 2625 2931 
L 2625 4581 
L 3503 4581 
L 3503 0 
z
M 1159 1731 
Q 1159 1200 1306 963 
Q 1519 619 1900 619 
Q 2203 619 2415 876 
Q 2628 1134 2628 1647 
Q 2628 2219 2422 2470 
Q 2216 2722 1894 2722 
Q 1581 2722 1370 2473 
Q 1159 2225 1159 1731 
z
" transform="scale(0.015625)"/>
       </defs>
       <use xlink:href="#Arial-BoldMT-42"/>
       <use xlink:href="#Arial-BoldMT-61" transform="translate(72.216797 0)"/>
       <use xlink:href="#Arial-BoldMT-6c" transform="translate(127.832031 0)"/>
       <use xlink:href="#Arial-BoldMT-61" transform="translate(155.615234 0)"/>
       <use xlink:href="#Arial-BoldMT-6e" transform="translate(211.230469 0)"/>
       <use xlink:href="#Arial-BoldMT-63" transform="translate(272.314453 0)"/>
       <use xlink:href="#Arial-BoldMT-65" transform="translate(327.929688 0)"/>
       <use xlink:href="#Arial-BoldMT-64" transform="translate(383.544922 0)"/>
      </g>
      <!-- Accuracy -->
      <g transform="translate(406.344219 76.525721) scale(0.1 -0.1)">
       <use xlink:href="#Arial-BoldMT-41"/>
       <use xlink:href="#Arial-BoldMT-63" transform="translate(72.216797 0)"/>
       <use xlink:href="#Arial-BoldMT-63" transform="translate(127.832031 0)"/>
       <use xlink:href="#Arial-BoldMT-75" transform="translate(183.447266 0)"/>
       <use xlink:href="#Arial-BoldMT-72" transform="translate(244.53125 0)"/>
       <use xlink:href="#Arial-BoldMT-61" transform="translate(283.447266 0)"/>
       <use xlink:href="#Arial-BoldMT-63" transform="translate(339.0625 0)"/>
       <use xlink:href="#Arial-BoldMT-79" transform="translate(394.677734 0)"/>
      </g>
      <!-- (0-1) -->
      <g transform="translate(418.302031 87.366033) scale(0.1 -0.1)">
       <use xlink:href="#Arial-BoldMT-28"/>
       <use xlink:href="#Arial-BoldMT-30" transform="translate(33.300781 0)"/>
       <use xlink:href="#Arial-BoldMT-2d" transform="translate(88.916016 0)"/>
       <use xlink:href="#Arial-BoldMT-31" transform="translate(122.216797 0)"/>
       <use xlink:href="#Arial-BoldMT-29" transform="translate(177.832031 0)"/>
      </g>
     </g>
    </g>
    <g id="xtick_3">
     <g id="line2d_3">
      <path d="M 294.78625 306.356125 
L 167.715 86.262264 
" clip-path="url(#p169bbf2099)" style="fill: none; stroke: #b0b0b0; stroke-width: 0.8; stroke-linecap: square"/>
     </g>
     <g id="text_3">
      <!-- ROC-AUC -->
      <g transform="translate(137.106406 71.309939) scale(0.1 -0.1)">
       <defs>
        <path id="Arial-BoldMT-52" d="M 469 0 
L 469 4581 
L 2416 4581 
Q 3150 4581 3483 4457 
Q 3816 4334 4016 4018 
Q 4216 3703 4216 3297 
Q 4216 2781 3912 2445 
Q 3609 2109 3006 2022 
Q 3306 1847 3501 1637 
Q 3697 1428 4028 894 
L 4588 0 
L 3481 0 
L 2813 997 
Q 2456 1531 2325 1670 
Q 2194 1809 2047 1861 
Q 1900 1913 1581 1913 
L 1394 1913 
L 1394 0 
L 469 0 
z
M 1394 2644 
L 2078 2644 
Q 2744 2644 2909 2700 
Q 3075 2756 3169 2893 
Q 3263 3031 3263 3238 
Q 3263 3469 3139 3611 
Q 3016 3753 2791 3791 
Q 2678 3806 2116 3806 
L 1394 3806 
L 1394 2644 
z
" transform="scale(0.015625)"/>
        <path id="Arial-BoldMT-4f" d="M 278 2263 
Q 278 2963 488 3438 
Q 644 3788 914 4066 
Q 1184 4344 1506 4478 
Q 1934 4659 2494 4659 
Q 3506 4659 4114 4031 
Q 4722 3403 4722 2284 
Q 4722 1175 4119 548 
Q 3516 -78 2506 -78 
Q 1484 -78 881 545 
Q 278 1169 278 2263 
z
M 1231 2294 
Q 1231 1516 1590 1114 
Q 1950 713 2503 713 
Q 3056 713 3411 1111 
Q 3766 1509 3766 2306 
Q 3766 3094 3420 3481 
Q 3075 3869 2503 3869 
Q 1931 3869 1581 3476 
Q 1231 3084 1231 2294 
z
" transform="scale(0.015625)"/>
        <path id="Arial-BoldMT-43" d="M 3397 1684 
L 4294 1400 
Q 4088 650 3608 286 
Q 3128 -78 2391 -78 
Q 1478 -78 890 545 
Q 303 1169 303 2250 
Q 303 3394 893 4026 
Q 1484 4659 2447 4659 
Q 3288 4659 3813 4163 
Q 4125 3869 4281 3319 
L 3366 3100 
Q 3284 3456 3026 3662 
Q 2769 3869 2400 3869 
Q 1891 3869 1573 3503 
Q 1256 3138 1256 2319 
Q 1256 1450 1568 1081 
Q 1881 713 2381 713 
Q 2750 713 3015 947 
Q 3281 1181 3397 1684 
z
" transform="scale(0.015625)"/>
        <path id="Arial-BoldMT-55" d="M 459 4581 
L 1384 4581 
L 1384 2100 
Q 1384 1509 1419 1334 
Q 1478 1053 1701 883 
Q 1925 713 2313 713 
Q 2706 713 2906 873 
Q 3106 1034 3147 1268 
Q 3188 1503 3188 2047 
L 3188 4581 
L 4113 4581 
L 4113 2175 
Q 4113 1350 4038 1009 
Q 3963 669 3761 434 
Q 3559 200 3221 61 
Q 2884 -78 2341 -78 
Q 1684 -78 1345 73 
Q 1006 225 809 467 
Q 613 709 550 975 
Q 459 1369 459 2138 
L 459 4581 
z
" transform="scale(0.015625)"/>
       </defs>
       <use xlink:href="#Arial-BoldMT-52"/>
       <use xlink:href="#Arial-BoldMT-4f" transform="translate(72.216797 0)"/>
       <use xlink:href="#Arial-BoldMT-43" transform="translate(150 0)"/>
       <use xlink:href="#Arial-BoldMT-2d" transform="translate(222.216797 0)"/>
       <use xlink:href="#Arial-BoldMT-41" transform="translate(255.517578 0)"/>
       <use xlink:href="#Arial-BoldMT-55" transform="translate(327.734375 0)"/>
       <use xlink:href="#Arial-BoldMT-43" transform="translate(399.951172 0)"/>
      </g>
      <!-- (0-1) -->
      <g transform="translate(150.159531 82.019002) scale(0.1 -0.1)">
       <use xlink:href="#Arial-BoldMT-28"/>
       <use xlink:href="#Arial-BoldMT-30" transform="translate(33.300781 0)"/>
       <use xlink:href="#Arial-BoldMT-2d" transform="translate(88.916016 0)"/>
       <use xlink:href="#Arial-BoldMT-31" transform="translate(122.216797 0)"/>
       <use xlink:href="#Arial-BoldMT-29" transform="translate(177.832031 0)"/>
      </g>
     </g>
    </g>
    <g id="xtick_4">
     <g id="line2d_4">
      <path d="M 294.78625 306.356125 
L 40.64375 306.356125 
" clip-path="url(#p169bbf2099)" style="fill: none; stroke: #b0b0b0; stroke-width: 0.8; stroke-linecap: square"/>
     </g>
     <g id="text_4">
      <!-- PR-AUC -->
      <g transform="translate(7.2 303.528156) scale(0.1 -0.1)">
       <defs>
        <path id="Arial-BoldMT-50" d="M 466 0 
L 466 4581 
L 1950 4581 
Q 2794 4581 3050 4513 
Q 3444 4409 3709 4064 
Q 3975 3719 3975 3172 
Q 3975 2750 3822 2462 
Q 3669 2175 3433 2011 
Q 3197 1847 2953 1794 
Q 2622 1728 1994 1728 
L 1391 1728 
L 1391 0 
L 466 0 
z
M 1391 3806 
L 1391 2506 
L 1897 2506 
Q 2444 2506 2628 2578 
Q 2813 2650 2917 2803 
Q 3022 2956 3022 3159 
Q 3022 3409 2875 3571 
Q 2728 3734 2503 3775 
Q 2338 3806 1838 3806 
L 1391 3806 
z
" transform="scale(0.015625)"/>
       </defs>
       <use xlink:href="#Arial-BoldMT-50"/>
       <use xlink:href="#Arial-BoldMT-52" transform="translate(66.699219 0)"/>
       <use xlink:href="#Arial-BoldMT-2d" transform="translate(138.916016 0)"/>
       <use xlink:href="#Arial-BoldMT-41" transform="translate(172.216797 0)"/>
       <use xlink:href="#Arial-BoldMT-55" transform="translate(244.433594 0)"/>
       <use xlink:href="#Arial-BoldMT-43" transform="translate(316.650391 0)"/>
      </g>
      <!-- (0-1) -->
      <g transform="translate(16.088281 314.237219) scale(0.1 -0.1)">
       <use xlink:href="#Arial-BoldMT-28"/>
       <use xlink:href="#Arial-BoldMT-30" transform="translate(33.300781 0)"/>
       <use xlink:href="#Arial-BoldMT-2d" transform="translate(88.916016 0)"/>
       <use xlink:href="#Arial-BoldMT-31" transform="translate(122.216797 0)"/>
       <use xlink:href="#Arial-BoldMT-29" transform="translate(177.832031 0)"/>
      </g>
     </g>
    </g>
    <g id="xtick_5">
     <g id="line2d_5">
      <path d="M 294.78625 306.356125 
L 167.715 526.449986 
" clip-path="url(#p169bbf2099)" style="fill: none; stroke: #b0b0b0; stroke-width: 0.8; stroke-linecap: square"/>
     </g>
     <g id="text_5">
      <!-- F1-Score -->
      <g transform="translate(139.319687 535.746373) scale(0.1 -0.1)">
       <defs>
        <path id="Arial-BoldMT-46" d="M 472 0 
L 472 4581 
L 3613 4581 
L 3613 3806 
L 1397 3806 
L 1397 2722 
L 3309 2722 
L 3309 1947 
L 1397 1947 
L 1397 0 
L 472 0 
z
" transform="scale(0.015625)"/>
        <path id="Arial-BoldMT-53" d="M 231 1491 
L 1131 1578 
Q 1213 1125 1461 912 
Q 1709 700 2131 700 
Q 2578 700 2804 889 
Q 3031 1078 3031 1331 
Q 3031 1494 2936 1608 
Q 2841 1722 2603 1806 
Q 2441 1863 1863 2006 
Q 1119 2191 819 2459 
Q 397 2838 397 3381 
Q 397 3731 595 4036 
Q 794 4341 1167 4500 
Q 1541 4659 2069 4659 
Q 2931 4659 3367 4281 
Q 3803 3903 3825 3272 
L 2900 3231 
Q 2841 3584 2645 3739 
Q 2450 3894 2059 3894 
Q 1656 3894 1428 3728 
Q 1281 3622 1281 3444 
Q 1281 3281 1419 3166 
Q 1594 3019 2269 2859 
Q 2944 2700 3267 2529 
Q 3591 2359 3773 2064 
Q 3956 1769 3956 1334 
Q 3956 941 3737 597 
Q 3519 253 3119 86 
Q 2719 -81 2122 -81 
Q 1253 -81 787 320 
Q 322 722 231 1491 
z
" transform="scale(0.015625)"/>
        <path id="Arial-BoldMT-6f" d="M 256 1706 
Q 256 2144 472 2553 
Q 688 2963 1083 3178 
Q 1478 3394 1966 3394 
Q 2719 3394 3200 2905 
Q 3681 2416 3681 1669 
Q 3681 916 3195 420 
Q 2709 -75 1972 -75 
Q 1516 -75 1102 131 
Q 688 338 472 736 
Q 256 1134 256 1706 
z
M 1156 1659 
Q 1156 1166 1390 903 
Q 1625 641 1969 641 
Q 2313 641 2545 903 
Q 2778 1166 2778 1666 
Q 2778 2153 2545 2415 
Q 2313 2678 1969 2678 
Q 1625 2678 1390 2415 
Q 1156 2153 1156 1659 
z
" transform="scale(0.015625)"/>
       </defs>
       <use xlink:href="#Arial-BoldMT-46"/>
       <use xlink:href="#Arial-BoldMT-31" transform="translate(61.083984 0)"/>
       <use xlink:href="#Arial-BoldMT-2d" transform="translate(116.699219 0)"/>
       <use xlink:href="#Arial-BoldMT-53" transform="translate(150 0)"/>
       <use xlink:href="#Arial-BoldMT-63" transform="translate(216.699219 0)"/>
       <use xlink:href="#Arial-BoldMT-6f" transform="translate(272.314453 0)"/>
       <use xlink:href="#Arial-BoldMT-72" transform="translate(333.398438 0)"/>
       <use xlink:href="#Arial-BoldMT-65" transform="translate(372.314453 0)"/>
      </g>
      <!-- (0-1) -->
      <g transform="translate(150.159531 546.455436) scale(0.1 -0.1)">
       <use xlink:href="#Arial-BoldMT-28"/>
       <use xlink:href="#Arial-BoldMT-30" transform="translate(33.300781 0)"/>
       <use xlink:href="#Arial-BoldMT-2d" transform="translate(88.916016 0)"/>
       <use xlink:href="#Arial-BoldMT-31" transform="translate(122.216797 0)"/>
       <use xlink:href="#Arial-BoldMT-29" transform="translate(177.832031 0)"/>
      </g>
     </g>
    </g>
    <g id="xtick_6">
     <g id="line2d_6">
      <path d="M 294.78625 306.356125 
L 421.8575 526.449986 
" clip-path="url(#p169bbf2099)" style="fill: none; stroke: #b0b0b0; stroke-width: 0.8; stroke-linecap: square"/>
     </g>
     <g id="text_6">
      <!-- MCC -->
      <g transform="translate(417.470781 535.746373) scale(0.1 -0.1)">
       <defs>
        <path id="Arial-BoldMT-4d" d="M 453 0 
L 453 4581 
L 1838 4581 
L 2669 1456 
L 3491 4581 
L 4878 4581 
L 4878 0 
L 4019 0 
L 4019 3606 
L 3109 0 
L 2219 0 
L 1313 3606 
L 1313 0 
L 453 0 
z
" transform="scale(0.015625)"/>
       </defs>
       <use xlink:href="#Arial-BoldMT-4d"/>
       <use xlink:href="#Arial-BoldMT-43" transform="translate(83.300781 0)"/>
       <use xlink:href="#Arial-BoldMT-43" transform="translate(155.517578 0)"/>
      </g>
      <!-- (Mapped) -->
      <g transform="translate(406.640312 546.455436) scale(0.1 -0.1)">
       <defs>
        <path id="Arial-BoldMT-70" d="M 434 3319 
L 1253 3319 
L 1253 2831 
Q 1413 3081 1684 3237 
Q 1956 3394 2288 3394 
Q 2866 3394 3269 2941 
Q 3672 2488 3672 1678 
Q 3672 847 3265 386 
Q 2859 -75 2281 -75 
Q 2006 -75 1782 34 
Q 1559 144 1313 409 
L 1313 -1263 
L 434 -1263 
L 434 3319 
z
M 1303 1716 
Q 1303 1156 1525 889 
Q 1747 622 2066 622 
Q 2372 622 2575 867 
Q 2778 1113 2778 1672 
Q 2778 2194 2568 2447 
Q 2359 2700 2050 2700 
Q 1728 2700 1515 2451 
Q 1303 2203 1303 1716 
z
" transform="scale(0.015625)"/>
       </defs>
       <use xlink:href="#Arial-BoldMT-28"/>
       <use xlink:href="#Arial-BoldMT-4d" transform="translate(33.300781 0)"/>
       <use xlink:href="#Arial-BoldMT-61" transform="translate(116.601562 0)"/>
       <use xlink:href="#Arial-BoldMT-70" transform="translate(172.216797 0)"/>
       <use xlink:href="#Arial-BoldMT-70" transform="translate(233.300781 0)"/>
       <use xlink:href="#Arial-BoldMT-65" transform="translate(294.384766 0)"/>
       <use xlink:href="#Arial-BoldMT-64" transform="translate(350 0)"/>
       <use xlink:href="#Arial-BoldMT-29" transform="translate(411.083984 0)"/>
      </g>
     </g>
    </g>
   </g>
   <g id="matplotlib.axis_2">
    <g id="ytick_1">
     <g id="line2d_7">
      <path d="M 294.78625 306.356125 
C 294.78625 306.356125 294.78625 306.356125 294.78625 306.356125 
C 294.78625 306.356125 294.78625 306.356125 294.78625 306.356125 
C 294.78625 306.356125 294.78625 306.356125 294.78625 306.356125 
C 294.78625 306.356125 294.78625 306.356125 294.78625 306.356125 
C 294.78625 306.356125 294.78625 306.356125 294.78625 306.356125 
C 294.78625 306.356125 294.78625 306.356125 294.78625 306.356125 
C 294.78625 306.356125 294.78625 306.356125 294.78625 306.356125 
C 294.78625 306.356125 294.78625 306.356125 294.78625 306.356125 
C 294.78625 306.356125 294.78625 306.356125 294.78625 306.356125 
C 294.78625 306.356125 294.78625 306.356125 294.78625 306.356125 
C 294.78625 306.356125 294.78625 306.356125 294.78625 306.356125 
C 294.78625 306.356125 294.78625 306.356125 294.78625 306.356125 
C 294.78625 306.356125 294.78625 306.356125 294.78625 306.356125 
C 294.78625 306.356125 294.78625 306.356125 294.78625 306.356125 
C 294.78625 306.356125 294.78625 306.356125 294.78625 306.356125 
C 294.78625 306.356125 294.78625 306.356125 294.78625 306.356125 
" clip-path="url(#p169bbf2099)" style="fill: none; stroke: #b0b0b0; stroke-width: 0.8; stroke-linecap: square"/>
     </g>
     <g id="text_7">
      <!-- 0.0 -->
      <g transform="translate(294.78625 304.766125) scale(0.08 -0.08)">
       <defs>
        <path id="ArialMT-30" d="M 266 2259 
Q 266 3072 433 3567 
Q 600 4063 929 4331 
Q 1259 4600 1759 4600 
Q 2128 4600 2406 4451 
Q 2684 4303 2865 4023 
Q 3047 3744 3150 3342 
Q 3253 2941 3253 2259 
Q 3253 1453 3087 958 
Q 2922 463 2592 192 
Q 2263 -78 1759 -78 
Q 1097 -78 719 397 
Q 266 969 266 2259 
z
M 844 2259 
Q 844 1131 1108 757 
Q 1372 384 1759 384 
Q 2147 384 2411 759 
Q 2675 1134 2675 2259 
Q 2675 3391 2411 3762 
Q 2147 4134 1753 4134 
Q 1366 4134 1134 3806 
Q 844 3388 844 2259 
z
" transform="scale(0.015625)"/>
        <path id="ArialMT-2e" d="M 581 0 
L 581 641 
L 1222 641 
L 1222 0 
L 581 0 
z
" transform="scale(0.015625)"/>
       </defs>
       <use xlink:href="#ArialMT-30"/>
       <use xlink:href="#ArialMT-2e" transform="translate(55.615234 0)"/>
       <use xlink:href="#ArialMT-30" transform="translate(83.398438 0)"/>
      </g>
     </g>
    </g>
    <g id="ytick_2">
     <g id="line2d_8">
      <path d="M 345.61475 306.356125 
C 345.61475 299.681388 344.299972 293.071553 341.745661 286.9049 
C 339.191349 280.738247 335.447179 275.1347 330.727427 270.414948 
C 326.007675 265.695196 320.404128 261.951026 314.237475 259.396714 
C 308.070822 256.842403 301.460987 255.527625 294.78625 255.527625 
C 288.111513 255.527625 281.501678 256.842403 275.335025 259.396714 
C 269.168372 261.951026 263.564825 265.695196 258.845073 270.414948 
C 254.125321 275.1347 250.381151 280.738247 247.826839 286.9049 
C 245.272528 293.071553 243.95775 299.681388 243.95775 306.356125 
C 243.95775 313.030862 245.272528 319.640697 247.826839 325.80735 
C 250.381151 331.974003 254.125321 337.57755 258.845073 342.297302 
C 263.564825 347.017054 269.168372 350.761224 275.335025 353.315536 
C 281.501678 355.869847 288.111513 357.184625 294.78625 357.184625 
C 301.460987 357.184625 308.070822 355.869847 314.237475 353.315536 
C 320.404128 350.761224 326.007675 347.017054 330.727427 342.297302 
C 335.447179 337.57755 339.191349 331.974003 341.745661 325.80735 
C 344.299972 319.640697 345.61475 313.030862 345.61475 306.356125 
" clip-path="url(#p169bbf2099)" style="fill: none; stroke: #b0b0b0; stroke-width: 0.8; stroke-linecap: square"/>
     </g>
     <g id="text_8">
      <!-- 0.2 -->
      <g transform="translate(345.61475 304.766125) scale(0.08 -0.08)">
       <defs>
        <path id="ArialMT-32" d="M 3222 541 
L 3222 0 
L 194 0 
Q 188 203 259 391 
Q 375 700 629 1000 
Q 884 1300 1366 1694 
Q 2113 2306 2375 2664 
Q 2638 3022 2638 3341 
Q 2638 3675 2398 3904 
Q 2159 4134 1775 4134 
Q 1369 4134 1125 3890 
Q 881 3647 878 3216 
L 300 3275 
Q 359 3922 746 4261 
Q 1134 4600 1788 4600 
Q 2447 4600 2831 4234 
Q 3216 3869 3216 3328 
Q 3216 3053 3103 2787 
Q 2991 2522 2730 2228 
Q 2469 1934 1863 1422 
Q 1356 997 1212 845 
Q 1069 694 975 541 
L 3222 541 
z
" transform="scale(0.015625)"/>
       </defs>
       <use xlink:href="#ArialMT-30"/>
       <use xlink:href="#ArialMT-2e" transform="translate(55.615234 0)"/>
       <use xlink:href="#ArialMT-32" transform="translate(83.398438 0)"/>
      </g>
     </g>
    </g>
    <g id="ytick_3">
     <g id="line2d_9">
      <path d="M 396.44325 306.356125 
C 396.44325 293.00665 393.813695 279.786982 388.705072 267.453675 
C 383.596449 255.120369 376.108108 243.913275 366.668604 234.473771 
C 357.2291 225.034267 346.022006 217.545926 333.6887 212.437303 
C 321.355393 207.32868 308.135725 204.699125 294.78625 204.699125 
C 281.436775 204.699125 268.217107 207.32868 255.8838 212.437303 
C 243.550494 217.545926 232.3434 225.034267 222.903896 234.473771 
C 213.464392 243.913275 205.976051 255.120369 200.867428 267.453675 
C 195.758805 279.786982 193.12925 293.00665 193.12925 306.356125 
C 193.12925 319.7056 195.758805 332.925268 200.867428 345.258575 
C 205.976051 357.591881 213.464392 368.798975 222.903896 378.238479 
C 232.3434 387.677983 243.550494 395.166324 255.8838 400.274947 
C 268.217107 405.38357 281.436775 408.013125 294.78625 408.013125 
C 308.135725 408.013125 321.355393 405.38357 333.6887 400.274947 
C 346.022006 395.166324 357.2291 387.677983 366.668604 378.238479 
C 376.108108 368.798975 383.596449 357.591881 388.705072 345.258575 
C 393.813695 332.925268 396.44325 319.7056 396.44325 306.356125 
" clip-path="url(#p169bbf2099)" style="fill: none; stroke: #b0b0b0; stroke-width: 0.8; stroke-linecap: square"/>
     </g>
     <g id="text_9">
      <!-- 0.4 -->
      <g transform="translate(396.44325 304.766125) scale(0.08 -0.08)">
       <defs>
        <path id="ArialMT-34" d="M 2069 0 
L 2069 1097 
L 81 1097 
L 81 1613 
L 2172 4581 
L 2631 4581 
L 2631 1613 
L 3250 1613 
L 3250 1097 
L 2631 1097 
L 2631 0 
L 2069 0 
z
M 2069 1613 
L 2069 3678 
L 634 1613 
L 2069 1613 
z
" transform="scale(0.015625)"/>
       </defs>
       <use xlink:href="#ArialMT-30"/>
       <use xlink:href="#ArialMT-2e" transform="translate(55.615234 0)"/>
       <use xlink:href="#ArialMT-34" transform="translate(83.398438 0)"/>
      </g>
     </g>
    </g>
    <g id="ytick_4">
     <g id="line2d_10">
      <path d="M 447.27175 306.356125 
C 447.27175 286.331913 443.327417 266.50241 435.664482 248.00245 
C 428.001548 229.50249 416.769037 212.69185 402.609781 198.532594 
C 388.450525 184.373338 371.639885 173.140827 353.139925 165.477893 
C 334.639965 157.814958 314.810462 153.870625 294.78625 153.870625 
C 274.762038 153.870625 254.932535 157.814958 236.432575 165.477893 
C 217.932615 173.140827 201.121975 184.373338 186.962719 198.532594 
C 172.803463 212.69185 161.570952 229.50249 153.908018 248.00245 
C 146.245083 266.50241 142.30075 286.331913 142.30075 306.356125 
C 142.30075 326.380337 146.245083 346.20984 153.908018 364.7098 
C 161.570952 383.20976 172.803463 400.0204 186.962719 414.179656 
C 201.121975 428.338912 217.932615 439.571423 236.432575 447.234357 
C 254.932535 454.897292 274.762038 458.841625 294.78625 458.841625 
C 314.810462 458.841625 334.639965 454.897292 353.139925 447.234357 
C 371.639885 439.571423 388.450525 428.338912 402.609781 414.179656 
C 416.769037 400.0204 428.001548 383.20976 435.664482 364.7098 
C 443.327417 346.20984 447.27175 326.380337 447.27175 306.356125 
" clip-path="url(#p169bbf2099)" style="fill: none; stroke: #b0b0b0; stroke-width: 0.8; stroke-linecap: square"/>
     </g>
     <g id="text_10">
      <!-- 0.6 -->
      <g transform="translate(447.27175 304.766125) scale(0.08 -0.08)">
       <defs>
        <path id="ArialMT-36" d="M 3184 3459 
L 2625 3416 
Q 2550 3747 2413 3897 
Q 2184 4138 1850 4138 
Q 1581 4138 1378 3988 
Q 1113 3794 959 3422 
Q 806 3050 800 2363 
Q 1003 2672 1297 2822 
Q 1591 2972 1913 2972 
Q 2475 2972 2870 2558 
Q 3266 2144 3266 1488 
Q 3266 1056 3080 686 
Q 2894 316 2569 119 
Q 2244 -78 1831 -78 
Q 1128 -78 684 439 
Q 241 956 241 2144 
Q 241 3472 731 4075 
Q 1159 4600 1884 4600 
Q 2425 4600 2770 4297 
Q 3116 3994 3184 3459 
z
M 888 1484 
Q 888 1194 1011 928 
Q 1134 663 1356 523 
Q 1578 384 1822 384 
Q 2178 384 2434 671 
Q 2691 959 2691 1453 
Q 2691 1928 2437 2201 
Q 2184 2475 1800 2475 
Q 1419 2475 1153 2201 
Q 888 1928 888 1484 
z
" transform="scale(0.015625)"/>
       </defs>
       <use xlink:href="#ArialMT-30"/>
       <use xlink:href="#ArialMT-2e" transform="translate(55.615234 0)"/>
       <use xlink:href="#ArialMT-36" transform="translate(83.398438 0)"/>
      </g>
     </g>
    </g>
    <g id="ytick_5">
     <g id="line2d_11">
      <path d="M 498.10025 306.356125 
C 498.10025 279.657175 492.841139 253.217839 482.623893 228.551226 
C 472.406648 203.884612 457.429967 181.470425 438.550958 162.591417 
C 419.67195 143.712408 397.257763 128.735727 372.591149 118.518482 
C 347.924536 108.301236 321.4852 103.042125 294.78625 103.042125 
C 268.0873 103.042125 241.647964 108.301236 216.981351 118.518482 
C 192.314737 128.735727 169.90055 143.712408 151.021542 162.591417 
C 132.142533 181.470425 117.165852 203.884612 106.948607 228.551226 
C 96.731361 253.217839 91.47225 279.657175 91.47225 306.356125 
C 91.47225 333.055075 96.731361 359.494411 106.948607 384.161024 
C 117.165852 408.827638 132.142533 431.241825 151.021542 450.120833 
C 169.90055 468.999842 192.314737 483.976523 216.981351 494.193768 
C 241.647964 504.411014 268.0873 509.670125 294.78625 509.670125 
C 321.4852 509.670125 347.924536 504.411014 372.591149 494.193768 
C 397.257763 483.976523 419.67195 468.999842 438.550958 450.120833 
C 457.429967 431.241825 472.406648 408.827638 482.623893 384.161024 
C 492.841139 359.494411 498.10025 333.055075 498.10025 306.356125 
" clip-path="url(#p169bbf2099)" style="fill: none; stroke: #b0b0b0; stroke-width: 0.8; stroke-linecap: square"/>
     </g>
     <g id="text_11">
      <!-- 0.8 -->
      <g transform="translate(498.10025 304.766125) scale(0.08 -0.08)">
       <defs>
        <path id="ArialMT-38" d="M 1131 2484 
Q 781 2613 612 2850 
Q 444 3088 444 3419 
Q 444 3919 803 4259 
Q 1163 4600 1759 4600 
Q 2359 4600 2725 4251 
Q 3091 3903 3091 3403 
Q 3091 3084 2923 2848 
Q 2756 2613 2416 2484 
Q 2838 2347 3058 2040 
Q 3278 1734 3278 1309 
Q 3278 722 2862 322 
Q 2447 -78 1769 -78 
Q 1091 -78 675 323 
Q 259 725 259 1325 
Q 259 1772 486 2073 
Q 713 2375 1131 2484 
z
M 1019 3438 
Q 1019 3113 1228 2906 
Q 1438 2700 1772 2700 
Q 2097 2700 2305 2904 
Q 2513 3109 2513 3406 
Q 2513 3716 2298 3927 
Q 2084 4138 1766 4138 
Q 1444 4138 1231 3931 
Q 1019 3725 1019 3438 
z
M 838 1322 
Q 838 1081 952 856 
Q 1066 631 1291 507 
Q 1516 384 1775 384 
Q 2178 384 2440 643 
Q 2703 903 2703 1303 
Q 2703 1709 2433 1975 
Q 2163 2241 1756 2241 
Q 1359 2241 1098 1978 
Q 838 1716 838 1322 
z
" transform="scale(0.015625)"/>
       </defs>
       <use xlink:href="#ArialMT-30"/>
       <use xlink:href="#ArialMT-2e" transform="translate(55.615234 0)"/>
       <use xlink:href="#ArialMT-38" transform="translate(83.398438 0)"/>
      </g>
     </g>
    </g>
    <g id="ytick_6">
     <g id="line2d_12">
      <path d="M 548.92875 306.356125 
C 548.92875 272.982438 542.354861 239.933267 529.583304 209.100001 
C 516.811747 178.266734 498.090896 150.249 474.492135 126.65024 
C 450.893375 103.051479 422.875641 84.330628 392.042374 71.559071 
C 361.209108 58.787514 328.159937 52.213625 294.78625 52.213625 
C 261.412563 52.213625 228.363392 58.787514 197.530126 71.559071 
C 166.696859 84.330628 138.679125 103.051479 115.080365 126.65024 
C 91.481604 150.249 72.760753 178.266734 59.989196 209.100001 
C 47.217639 239.933267 40.64375 272.982438 40.64375 306.356125 
C 40.64375 339.729812 47.217639 372.778983 59.989196 403.612249 
C 72.760753 434.445516 91.481604 462.46325 115.080365 486.06201 
C 138.679125 509.660771 166.696859 528.381622 197.530126 541.153179 
C 228.363392 553.924736 261.412563 560.498625 294.78625 560.498625 
C 328.159937 560.498625 361.209108 553.924736 392.042374 541.153179 
C 422.875641 528.381622 450.893375 509.660771 474.492135 486.06201 
C 498.090896 462.46325 516.811747 434.445516 529.583304 403.612249 
C 542.354861 372.778983 548.92875 339.729812 548.92875 306.356125 
" clip-path="url(#p169bbf2099)" style="fill: none; stroke: #b0b0b0; stroke-width: 0.8; stroke-linecap: square"/>
     </g>
     <g id="text_12">
      <!-- 1.0 -->
      <g transform="translate(548.92875 304.766125) scale(0.08 -0.08)">
       <defs>
        <path id="ArialMT-31" d="M 2384 0 
L 1822 0 
L 1822 3584 
Q 1619 3391 1289 3197 
Q 959 3003 697 2906 
L 697 3450 
Q 1169 3672 1522 3987 
Q 1875 4303 2022 4600 
L 2384 4600 
L 2384 0 
z
" transform="scale(0.015625)"/>
       </defs>
       <use xlink:href="#ArialMT-31"/>
       <use xlink:href="#ArialMT-2e" transform="translate(55.615234 0)"/>
       <use xlink:href="#ArialMT-30" transform="translate(83.398438 0)"/>
      </g>
     </g>
    </g>
   </g>
   <g id="line2d_13">
    <path d="M 456.039666 306.356125 
L 374.091417 168.995546 
L 187.677893 120.839009 
L 119.732896 306.356125 
L 219.356756 437.003841 
L 390.14687 471.525563 
L 456.039666 306.356125 
" clip-path="url(#p169bbf2099)" style="fill: none; stroke: #ff6b6b; stroke-opacity: 0.8; stroke-width: 3; stroke-linecap: square"/>
    <defs>
     <path id="m9352888954" d="M 0 4 
C 1.060812 4 2.078319 3.578535 2.828427 2.828427 
C 3.578535 2.078319 4 1.060812 4 0 
C 4 -1.060812 3.578535 -2.078319 2.828427 -2.828427 
C 2.078319 -3.578535 1.060812 -4 0 -4 
C -1.060812 -4 -2.078319 -3.578535 -2.828427 -2.828427 
C -3.578535 -2.078319 -4 -1.060812 -4 0 
C -4 1.060812 -3.578535 2.078319 -2.828427 2.828427 
C -2.078319 3.578535 -1.060812 4 0 4 
z
" style="stroke: #ff6b6b; stroke-opacity: 0.8"/>
    </defs>
    <g clip-path="url(#p169bbf2099)">
     <use xlink:href="#m9352888954" x="456.039666" y="306.356125" style="fill: #ff6b6b; fill-opacity: 0.8; stroke: #ff6b6b; stroke-opacity: 0.8"/>
     <use xlink:href="#m9352888954" x="374.091417" y="168.995546" style="fill: #ff6b6b; fill-opacity: 0.8; stroke: #ff6b6b; stroke-opacity: 0.8"/>
     <use xlink:href="#m9352888954" x="187.677893" y="120.839009" style="fill: #ff6b6b; fill-opacity: 0.8; stroke: #ff6b6b; stroke-opacity: 0.8"/>
     <use xlink:href="#m9352888954" x="119.732896" y="306.356125" style="fill: #ff6b6b; fill-opacity: 0.8; stroke: #ff6b6b; stroke-opacity: 0.8"/>
     <use xlink:href="#m9352888954" x="219.356756" y="437.003841" style="fill: #ff6b6b; fill-opacity: 0.8; stroke: #ff6b6b; stroke-opacity: 0.8"/>
     <use xlink:href="#m9352888954" x="390.14687" y="471.525563" style="fill: #ff6b6b; fill-opacity: 0.8; stroke: #ff6b6b; stroke-opacity: 0.8"/>
     <use xlink:href="#m9352888954" x="456.039666" y="306.356125" style="fill: #ff6b6b; fill-opacity: 0.8; stroke: #ff6b6b; stroke-opacity: 0.8"/>
    </g>
   </g>
   <g id="line2d_14">
    <path d="M 488.290349 306.356125 
L 396.201815 130.699214 
L 175.428225 99.621961 
L 69.514338 306.356125 
L 198.428121 473.2533 
L 403.089076 493.942123 
L 488.290349 306.356125 
" clip-path="url(#p169bbf2099)" style="fill: none; stroke: #ffa07a; stroke-opacity: 0.8; stroke-width: 3; stroke-linecap: square"/>
    <defs>
     <path id="m0bddd01f67" d="M 0 4 
C 1.060812 4 2.078319 3.578535 2.828427 2.828427 
C 3.578535 2.078319 4 1.060812 4 0 
C 4 -1.060812 3.578535 -2.078319 2.828427 -2.828427 
C 2.078319 -3.578535 1.060812 -4 0 -4 
C -1.060812 -4 -2.078319 -3.578535 -2.828427 -2.828427 
C -3.578535 -2.078319 -4 -1.060812 -4 0 
C -4 1.060812 -3.578535 2.078319 -2.828427 2.828427 
C -2.078319 3.578535 -1.060812 4 0 4 
z
" style="stroke: #ffa07a; stroke-opacity: 0.8"/>
    </defs>
    <g clip-path="url(#p169bbf2099)">
     <use xlink:href="#m0bddd01f67" x="488.290349" y="306.356125" style="fill: #ffa07a; fill-opacity: 0.8; stroke: #ffa07a; stroke-opacity: 0.8"/>
     <use xlink:href="#m0bddd01f67" x="396.201815" y="130.699214" style="fill: #ffa07a; fill-opacity: 0.8; stroke: #ffa07a; stroke-opacity: 0.8"/>
     <use xlink:href="#m0bddd01f67" x="175.428225" y="99.621961" style="fill: #ffa07a; fill-opacity: 0.8; stroke: #ffa07a; stroke-opacity: 0.8"/>
     <use xlink:href="#m0bddd01f67" x="69.514338" y="306.356125" style="fill: #ffa07a; fill-opacity: 0.8; stroke: #ffa07a; stroke-opacity: 0.8"/>
     <use xlink:href="#m0bddd01f67" x="198.428121" y="473.2533" style="fill: #ffa07a; fill-opacity: 0.8; stroke: #ffa07a; stroke-opacity: 0.8"/>
     <use xlink:href="#m0bddd01f67" x="403.089076" y="493.942123" style="fill: #ffa07a; fill-opacity: 0.8; stroke: #ffa07a; stroke-opacity: 0.8"/>
     <use xlink:href="#m0bddd01f67" x="488.290349" y="306.356125" style="fill: #ffa07a; fill-opacity: 0.8; stroke: #ffa07a; stroke-opacity: 0.8"/>
    </g>
   </g>
   <g id="line2d_15">
    <path d="M 511.518974 306.356125 
L 401.500686 121.5213 
L 171.69233 93.151202 
L 57.340912 306.356125 
L 193.3961 481.969017 
L 408.934354 504.06644 
L 511.518974 306.356125 
" clip-path="url(#p169bbf2099)" style="fill: none; stroke: #4ecdc4; stroke-opacity: 0.8; stroke-width: 3; stroke-linecap: square"/>
    <defs>
     <path id="mcff8b20684" d="M 0 4 
C 1.060812 4 2.078319 3.578535 2.828427 2.828427 
C 3.578535 2.078319 4 1.060812 4 0 
C 4 -1.060812 3.578535 -2.078319 2.828427 -2.828427 
C 2.078319 -3.578535 1.060812 -4 0 -4 
C -1.060812 -4 -2.078319 -3.578535 -2.828427 -2.828427 
C -3.578535 -2.078319 -4 -1.060812 -4 0 
C -4 1.060812 -3.578535 2.078319 -2.828427 2.828427 
C -2.078319 3.578535 -1.060812 4 0 4 
z
" style="stroke: #4ecdc4; stroke-opacity: 0.8"/>
    </defs>
    <g clip-path="url(#p169bbf2099)">
     <use xlink:href="#mcff8b20684" x="511.518974" y="306.356125" style="fill: #4ecdc4; fill-opacity: 0.8; stroke: #4ecdc4; stroke-opacity: 0.8"/>
     <use xlink:href="#mcff8b20684" x="401.500686" y="121.5213" style="fill: #4ecdc4; fill-opacity: 0.8; stroke: #4ecdc4; stroke-opacity: 0.8"/>
     <use xlink:href="#mcff8b20684" x="171.69233" y="93.151202" style="fill: #4ecdc4; fill-opacity: 0.8; stroke: #4ecdc4; stroke-opacity: 0.8"/>
     <use xlink:href="#mcff8b20684" x="57.340912" y="306.356125" style="fill: #4ecdc4; fill-opacity: 0.8; stroke: #4ecdc4; stroke-opacity: 0.8"/>
     <use xlink:href="#mcff8b20684" x="193.3961" y="481.969017" style="fill: #4ecdc4; fill-opacity: 0.8; stroke: #4ecdc4; stroke-opacity: 0.8"/>
     <use xlink:href="#mcff8b20684" x="408.934354" y="504.06644" style="fill: #4ecdc4; fill-opacity: 0.8; stroke: #4ecdc4; stroke-opacity: 0.8"/>
     <use xlink:href="#mcff8b20684" x="511.518974" y="306.356125" style="fill: #4ecdc4; fill-opacity: 0.8; stroke: #4ecdc4; stroke-opacity: 0.8"/>
    </g>
   </g>
   <g id="line2d_16">
    <path d="M 507.656008 306.356125 
L 397.764791 127.99206 
L 175.93651 100.502337 
L 76.782813 306.356125 
L 196.966802 475.784379 
L 407.473034 501.535361 
L 507.656008 306.356125 
" clip-path="url(#p169bbf2099)" style="fill: none; stroke: #45b7d1; stroke-opacity: 0.8; stroke-width: 3; stroke-linecap: square"/>
    <defs>
     <path id="m6ff35da00e" d="M 0 4 
C 1.060812 4 2.078319 3.578535 2.828427 2.828427 
C 3.578535 2.078319 4 1.060812 4 0 
C 4 -1.060812 3.578535 -2.078319 2.828427 -2.828427 
C 2.078319 -3.578535 1.060812 -4 0 -4 
C -1.060812 -4 -2.078319 -3.578535 -2.828427 -2.828427 
C -3.578535 -2.078319 -4 -1.060812 -4 0 
C -4 1.060812 -3.578535 2.078319 -2.828427 2.828427 
C -2.078319 3.578535 -1.060812 4 0 4 
z
" style="stroke: #45b7d1; stroke-opacity: 0.8"/>
    </defs>
    <g clip-path="url(#p169bbf2099)">
     <use xlink:href="#m6ff35da00e" x="507.656008" y="306.356125" style="fill: #45b7d1; fill-opacity: 0.8; stroke: #45b7d1; stroke-opacity: 0.8"/>
     <use xlink:href="#m6ff35da00e" x="397.764791" y="127.99206" style="fill: #45b7d1; fill-opacity: 0.8; stroke: #45b7d1; stroke-opacity: 0.8"/>
     <use xlink:href="#m6ff35da00e" x="175.93651" y="100.502337" style="fill: #45b7d1; fill-opacity: 0.8; stroke: #45b7d1; stroke-opacity: 0.8"/>
     <use xlink:href="#m6ff35da00e" x="76.782813" y="306.356125" style="fill: #45b7d1; fill-opacity: 0.8; stroke: #45b7d1; stroke-opacity: 0.8"/>
     <use xlink:href="#m6ff35da00e" x="196.966802" y="475.784379" style="fill: #45b7d1; fill-opacity: 0.8; stroke: #45b7d1; stroke-opacity: 0.8"/>
     <use xlink:href="#m6ff35da00e" x="407.473034" y="501.535361" style="fill: #45b7d1; fill-opacity: 0.8; stroke: #45b7d1; stroke-opacity: 0.8"/>
     <use xlink:href="#m6ff35da00e" x="507.656008" y="306.356125" style="fill: #45b7d1; fill-opacity: 0.8; stroke: #45b7d1; stroke-opacity: 0.8"/>
    </g>
   </g>
   <g id="line2d_17">
    <path d="M 516.678067 306.356125 
L 403.699018 117.713677 
L 174.665797 98.301398 
L 65.905514 306.356125 
L 191.439202 485.358462 
L 410.726058 507.169764 
L 516.678067 306.356125 
" clip-path="url(#p169bbf2099)" style="fill: none; stroke: #96ceb4; stroke-opacity: 0.8; stroke-width: 3; stroke-linecap: square"/>
    <defs>
     <path id="mb42dab1aea" d="M 0 4 
C 1.060812 4 2.078319 3.578535 2.828427 2.828427 
C 3.578535 2.078319 4 1.060812 4 0 
C 4 -1.060812 3.578535 -2.078319 2.828427 -2.828427 
C 2.078319 -3.578535 1.060812 -4 0 -4 
C -1.060812 -4 -2.078319 -3.578535 -2.828427 -2.828427 
C -3.578535 -2.078319 -4 -1.060812 -4 0 
C -4 1.060812 -3.578535 2.078319 -2.828427 2.828427 
C -2.078319 3.578535 -1.060812 4 0 4 
z
" style="stroke: #96ceb4; stroke-opacity: 0.8"/>
    </defs>
    <g clip-path="url(#p169bbf2099)">
     <use xlink:href="#mb42dab1aea" x="516.678067" y="306.356125" style="fill: #96ceb4; fill-opacity: 0.8; stroke: #96ceb4; stroke-opacity: 0.8"/>
     <use xlink:href="#mb42dab1aea" x="403.699018" y="117.713677" style="fill: #96ceb4; fill-opacity: 0.8; stroke: #96ceb4; stroke-opacity: 0.8"/>
     <use xlink:href="#mb42dab1aea" x="174.665797" y="98.301398" style="fill: #96ceb4; fill-opacity: 0.8; stroke: #96ceb4; stroke-opacity: 0.8"/>
     <use xlink:href="#mb42dab1aea" x="65.905514" y="306.356125" style="fill: #96ceb4; fill-opacity: 0.8; stroke: #96ceb4; stroke-opacity: 0.8"/>
     <use xlink:href="#mb42dab1aea" x="191.439202" y="485.358462" style="fill: #96ceb4; fill-opacity: 0.8; stroke: #96ceb4; stroke-opacity: 0.8"/>
     <use xlink:href="#mb42dab1aea" x="410.726058" y="507.169764" style="fill: #96ceb4; fill-opacity: 0.8; stroke: #96ceb4; stroke-opacity: 0.8"/>
     <use xlink:href="#mb42dab1aea" x="516.678067" y="306.356125" style="fill: #96ceb4; fill-opacity: 0.8; stroke: #96ceb4; stroke-opacity: 0.8"/>
    </g>
   </g>
   <g id="line2d_18">
    <path d="M 510.222847 306.356125 
L 401.386322 121.719385 
L 173.128235 95.638262 
L 60.873493 306.356125 
L 193.510464 481.770932 
L 408.37524 503.098028 
L 510.222847 306.356125 
" clip-path="url(#p169bbf2099)" style="fill: none; stroke: #9b59b6; stroke-opacity: 0.8; stroke-width: 3; stroke-linecap: square"/>
    <defs>
     <path id="m1216b19d80" d="M 0 4 
C 1.060812 4 2.078319 3.578535 2.828427 2.828427 
C 3.578535 2.078319 4 1.060812 4 0 
C 4 -1.060812 3.578535 -2.078319 2.828427 -2.828427 
C 2.078319 -3.578535 1.060812 -4 0 -4 
C -1.060812 -4 -2.078319 -3.578535 -2.828427 -2.828427 
C -3.578535 -2.078319 -4 -1.060812 -4 0 
C -4 1.060812 -3.578535 2.078319 -2.828427 2.828427 
C -2.078319 3.578535 -1.060812 4 0 4 
z
" style="stroke: #9b59b6; stroke-opacity: 0.8"/>
    </defs>
    <g clip-path="url(#p169bbf2099)">
     <use xlink:href="#m1216b19d80" x="510.222847" y="306.356125" style="fill: #9b59b6; fill-opacity: 0.8; stroke: #9b59b6; stroke-opacity: 0.8"/>
     <use xlink:href="#m1216b19d80" x="401.386322" y="121.719385" style="fill: #9b59b6; fill-opacity: 0.8; stroke: #9b59b6; stroke-opacity: 0.8"/>
     <use xlink:href="#m1216b19d80" x="173.128235" y="95.638262" style="fill: #9b59b6; fill-opacity: 0.8; stroke: #9b59b6; stroke-opacity: 0.8"/>
     <use xlink:href="#m1216b19d80" x="60.873493" y="306.356125" style="fill: #9b59b6; fill-opacity: 0.8; stroke: #9b59b6; stroke-opacity: 0.8"/>
     <use xlink:href="#m1216b19d80" x="193.510464" y="481.770932" style="fill: #9b59b6; fill-opacity: 0.8; stroke: #9b59b6; stroke-opacity: 0.8"/>
     <use xlink:href="#m1216b19d80" x="408.37524" y="503.098028" style="fill: #9b59b6; fill-opacity: 0.8; stroke: #9b59b6; stroke-opacity: 0.8"/>
     <use xlink:href="#m1216b19d80" x="510.222847" y="306.356125" style="fill: #9b59b6; fill-opacity: 0.8; stroke: #9b59b6; stroke-opacity: 0.8"/>
    </g>
   </g>
   <g id="patch_9">
    <path d="M 548.92875 306.356125 
C 548.92875 272.982438 542.354861 239.933267 529.583304 209.100001 
C 516.811747 178.266734 498.090896 150.249 474.492135 126.65024 
C 450.893375 103.051479 422.875641 84.330628 392.042374 71.559071 
C 361.209108 58.787514 328.159937 52.213625 294.78625 52.213625 
C 261.412563 52.213625 228.363392 58.787514 197.530126 71.559071 
C 166.696859 84.330628 138.679125 103.051479 115.080365 126.65024 
C 91.481604 150.249 72.760753 178.266734 59.989196 209.100001 
C 47.217639 239.933267 40.64375 272.982438 40.64375 306.356125 
C 40.64375 339.729812 47.217639 372.778983 59.989196 403.612249 
C 72.760753 434.445516 91.481604 462.46325 115.080365 486.06201 
C 138.679125 509.660771 166.696859 528.381622 197.530126 541.153179 
C 228.363392 553.924736 261.412563 560.498625 294.78625 560.498625 
C 328.159937 560.498625 361.209108 553.924736 392.042374 541.153179 
C 422.875641 528.381622 450.893375 509.660771 474.492135 486.06201 
C 498.090896 462.46325 516.811747 434.445516 529.583304 403.612249 
C 542.354861 372.778983 548.92875 339.729812 548.92875 306.356125 
" style="fill: none; stroke: #000000; stroke-width: 0.8; stroke-linejoin: miter; stroke-linecap: square"/>
   </g>
   <g id="text_13">
    <!-- Modal Count vs Performance Metrics -->
    <g transform="translate(171.486719 17.220937) scale(0.14 -0.14)">
     <defs>
      <path id="Arial-BoldMT-20" transform="scale(0.015625)"/>
      <path id="Arial-BoldMT-74" d="M 1981 3319 
L 1981 2619 
L 1381 2619 
L 1381 1281 
Q 1381 875 1398 808 
Q 1416 741 1477 697 
Q 1538 653 1625 653 
Q 1747 653 1978 738 
L 2053 56 
Q 1747 -75 1359 -75 
Q 1122 -75 931 4 
Q 741 84 652 211 
Q 563 338 528 553 
Q 500 706 500 1172 
L 500 2619 
L 97 2619 
L 97 3319 
L 500 3319 
L 500 3978 
L 1381 4491 
L 1381 3319 
L 1981 3319 
z
" transform="scale(0.015625)"/>
      <path id="Arial-BoldMT-76" d="M 1372 0 
L 34 3319 
L 956 3319 
L 1581 1625 
L 1763 1059 
Q 1834 1275 1853 1344 
Q 1897 1484 1947 1625 
L 2578 3319 
L 3481 3319 
L 2163 0 
L 1372 0 
z
" transform="scale(0.015625)"/>
      <path id="Arial-BoldMT-73" d="M 150 947 
L 1031 1081 
Q 1088 825 1259 692 
Q 1431 559 1741 559 
Q 2081 559 2253 684 
Q 2369 772 2369 919 
Q 2369 1019 2306 1084 
Q 2241 1147 2013 1200 
Q 950 1434 666 1628 
Q 272 1897 272 2375 
Q 272 2806 612 3100 
Q 953 3394 1669 3394 
Q 2350 3394 2681 3172 
Q 3013 2950 3138 2516 
L 2309 2363 
Q 2256 2556 2107 2659 
Q 1959 2763 1684 2763 
Q 1338 2763 1188 2666 
Q 1088 2597 1088 2488 
Q 1088 2394 1175 2328 
Q 1294 2241 1995 2081 
Q 2697 1922 2975 1691 
Q 3250 1456 3250 1038 
Q 3250 581 2869 253 
Q 2488 -75 1741 -75 
Q 1063 -75 667 200 
Q 272 475 150 947 
z
" transform="scale(0.015625)"/>
      <path id="Arial-BoldMT-66" d="M 75 3319 
L 563 3319 
L 563 3569 
Q 563 3988 652 4194 
Q 741 4400 980 4529 
Q 1219 4659 1584 4659 
Q 1959 4659 2319 4547 
L 2200 3934 
Q 1991 3984 1797 3984 
Q 1606 3984 1523 3895 
Q 1441 3806 1441 3553 
L 1441 3319 
L 2097 3319 
L 2097 2628 
L 1441 2628 
L 1441 0 
L 563 0 
L 563 2628 
L 75 2628 
L 75 3319 
z
" transform="scale(0.015625)"/>
      <path id="Arial-BoldMT-6d" d="M 394 3319 
L 1203 3319 
L 1203 2866 
Q 1638 3394 2238 3394 
Q 2556 3394 2790 3262 
Q 3025 3131 3175 2866 
Q 3394 3131 3647 3262 
Q 3900 3394 4188 3394 
Q 4553 3394 4806 3245 
Q 5059 3097 5184 2809 
Q 5275 2597 5275 2122 
L 5275 0 
L 4397 0 
L 4397 1897 
Q 4397 2391 4306 2534 
Q 4184 2722 3931 2722 
Q 3747 2722 3584 2609 
Q 3422 2497 3350 2280 
Q 3278 2063 3278 1594 
L 3278 0 
L 2400 0 
L 2400 1819 
Q 2400 2303 2353 2443 
Q 2306 2584 2207 2653 
Q 2109 2722 1941 2722 
Q 1738 2722 1575 2612 
Q 1413 2503 1342 2297 
Q 1272 2091 1272 1613 
L 1272 0 
L 394 0 
L 394 3319 
z
" transform="scale(0.015625)"/>
      <path id="Arial-BoldMT-69" d="M 459 3769 
L 459 4581 
L 1338 4581 
L 1338 3769 
L 459 3769 
z
M 459 0 
L 459 3319 
L 1338 3319 
L 1338 0 
L 459 0 
z
" transform="scale(0.015625)"/>
     </defs>
     <use xlink:href="#Arial-BoldMT-4d"/>
     <use xlink:href="#Arial-BoldMT-6f" transform="translate(83.300781 0)"/>
     <use xlink:href="#Arial-BoldMT-64" transform="translate(144.384766 0)"/>
     <use xlink:href="#Arial-BoldMT-61" transform="translate(205.46875 0)"/>
     <use xlink:href="#Arial-BoldMT-6c" transform="translate(261.083984 0)"/>
     <use xlink:href="#Arial-BoldMT-20" transform="translate(288.867188 0)"/>
     <use xlink:href="#Arial-BoldMT-43" transform="translate(316.650391 0)"/>
     <use xlink:href="#Arial-BoldMT-6f" transform="translate(388.867188 0)"/>
     <use xlink:href="#Arial-BoldMT-75" transform="translate(449.951172 0)"/>
     <use xlink:href="#Arial-BoldMT-6e" transform="translate(511.035156 0)"/>
     <use xlink:href="#Arial-BoldMT-74" transform="translate(572.119141 0)"/>
     <use xlink:href="#Arial-BoldMT-20" transform="translate(605.419922 0)"/>
     <use xlink:href="#Arial-BoldMT-76" transform="translate(633.203125 0)"/>
     <use xlink:href="#Arial-BoldMT-73" transform="translate(688.818359 0)"/>
     <use xlink:href="#Arial-BoldMT-20" transform="translate(744.433594 0)"/>
     <use xlink:href="#Arial-BoldMT-50" transform="translate(772.216797 0)"/>
     <use xlink:href="#Arial-BoldMT-65" transform="translate(838.916016 0)"/>
     <use xlink:href="#Arial-BoldMT-72" transform="translate(894.53125 0)"/>
     <use xlink:href="#Arial-BoldMT-66" transform="translate(933.447266 0)"/>
     <use xlink:href="#Arial-BoldMT-6f" transform="translate(966.748047 0)"/>
     <use xlink:href="#Arial-BoldMT-72" transform="translate(1027.832031 0)"/>
     <use xlink:href="#Arial-BoldMT-6d" transform="translate(1066.748047 0)"/>
     <use xlink:href="#Arial-BoldMT-61" transform="translate(1155.664062 0)"/>
     <use xlink:href="#Arial-BoldMT-6e" transform="translate(1211.279297 0)"/>
     <use xlink:href="#Arial-BoldMT-63" transform="translate(1272.363281 0)"/>
     <use xlink:href="#Arial-BoldMT-65" transform="translate(1327.978516 0)"/>
     <use xlink:href="#Arial-BoldMT-20" transform="translate(1383.59375 0)"/>
     <use xlink:href="#Arial-BoldMT-4d" transform="translate(1411.376953 0)"/>
     <use xlink:href="#Arial-BoldMT-65" transform="translate(1494.677734 0)"/>
     <use xlink:href="#Arial-BoldMT-74" transform="translate(1550.292969 0)"/>
     <use xlink:href="#Arial-BoldMT-72" transform="translate(1583.59375 0)"/>
     <use xlink:href="#Arial-BoldMT-69" transform="translate(1622.509766 0)"/>
     <use xlink:href="#Arial-BoldMT-63" transform="translate(1650.292969 0)"/>
     <use xlink:href="#Arial-BoldMT-73" transform="translate(1705.908203 0)"/>
    </g>
    <!-- (Probability Reconstruction) -->
    <g transform="translate(200.675625 32.213625) scale(0.14 -0.14)">
     <defs>
      <path id="Arial-BoldMT-62" d="M 422 0 
L 422 4581 
L 1300 4581 
L 1300 2931 
Q 1706 3394 2263 3394 
Q 2869 3394 3266 2955 
Q 3663 2516 3663 1694 
Q 3663 844 3258 384 
Q 2853 -75 2275 -75 
Q 1991 -75 1714 67 
Q 1438 209 1238 488 
L 1238 0 
L 422 0 
z
M 1294 1731 
Q 1294 1216 1456 969 
Q 1684 619 2063 619 
Q 2353 619 2558 867 
Q 2763 1116 2763 1650 
Q 2763 2219 2556 2470 
Q 2350 2722 2028 2722 
Q 1713 2722 1503 2476 
Q 1294 2231 1294 1731 
z
" transform="scale(0.015625)"/>
     </defs>
     <use xlink:href="#Arial-BoldMT-28"/>
     <use xlink:href="#Arial-BoldMT-50" transform="translate(33.300781 0)"/>
     <use xlink:href="#Arial-BoldMT-72" transform="translate(100 0)"/>
     <use xlink:href="#Arial-BoldMT-6f" transform="translate(138.916016 0)"/>
     <use xlink:href="#Arial-BoldMT-62" transform="translate(200 0)"/>
     <use xlink:href="#Arial-BoldMT-61" transform="translate(261.083984 0)"/>
     <use xlink:href="#Arial-BoldMT-62" transform="translate(316.699219 0)"/>
     <use xlink:href="#Arial-BoldMT-69" transform="translate(377.783203 0)"/>
     <use xlink:href="#Arial-BoldMT-6c" transform="translate(405.566406 0)"/>
     <use xlink:href="#Arial-BoldMT-69" transform="translate(433.349609 0)"/>
     <use xlink:href="#Arial-BoldMT-74" transform="translate(461.132812 0)"/>
     <use xlink:href="#Arial-BoldMT-79" transform="translate(494.433594 0)"/>
     <use xlink:href="#Arial-BoldMT-20" transform="translate(550.048828 0)"/>
     <use xlink:href="#Arial-BoldMT-52" transform="translate(577.832031 0)"/>
     <use xlink:href="#Arial-BoldMT-65" transform="translate(650.048828 0)"/>
     <use xlink:href="#Arial-BoldMT-63" transform="translate(705.664062 0)"/>
     <use xlink:href="#Arial-BoldMT-6f" transform="translate(761.279297 0)"/>
     <use xlink:href="#Arial-BoldMT-6e" transform="translate(822.363281 0)"/>
     <use xlink:href="#Arial-BoldMT-73" transform="translate(883.447266 0)"/>
     <use xlink:href="#Arial-BoldMT-74" transform="translate(939.0625 0)"/>
     <use xlink:href="#Arial-BoldMT-72" transform="translate(972.363281 0)"/>
     <use xlink:href="#Arial-BoldMT-75" transform="translate(1011.279297 0)"/>
     <use xlink:href="#Arial-BoldMT-63" transform="translate(1072.363281 0)"/>
     <use xlink:href="#Arial-BoldMT-74" transform="translate(1127.978516 0)"/>
     <use xlink:href="#Arial-BoldMT-69" transform="translate(1161.279297 0)"/>
     <use xlink:href="#Arial-BoldMT-6f" transform="translate(1189.0625 0)"/>
     <use xlink:href="#Arial-BoldMT-6e" transform="translate(1250.146484 0)"/>
     <use xlink:href="#Arial-BoldMT-29" transform="translate(1311.230469 0)"/>
    </g>
   </g>
   <g id="legend_1">
    <g id="line2d_19">
     <path d="M 630.65925 67.403 
L 642.65925 67.403 
L 654.65925 67.403 
" style="fill: none; stroke: #ff6b6b; stroke-opacity: 0.8; stroke-width: 3; stroke-linecap: square"/>
     <g>
      <use xlink:href="#m9352888954" x="642.65925" y="67.403" style="fill: #ff6b6b; fill-opacity: 0.8; stroke: #ff6b6b; stroke-opacity: 0.8"/>
     </g>
    </g>
    <g id="text_14">
     <!-- k=1 -->
     <g transform="translate(664.25925 71.603) scale(0.12 -0.12)">
      <defs>
       <path id="ArialMT-6b" d="M 425 0 
L 425 4581 
L 988 4581 
L 988 1969 
L 2319 3319 
L 3047 3319 
L 1778 2088 
L 3175 0 
L 2481 0 
L 1384 1697 
L 988 1316 
L 988 0 
L 425 0 
z
" transform="scale(0.015625)"/>
       <path id="ArialMT-3d" d="M 3381 2694 
L 356 2694 
L 356 3219 
L 3381 3219 
L 3381 2694 
z
M 3381 1303 
L 356 1303 
L 356 1828 
L 3381 1828 
L 3381 1303 
z
" transform="scale(0.015625)"/>
      </defs>
      <use xlink:href="#ArialMT-6b"/>
      <use xlink:href="#ArialMT-3d" transform="translate(50 0)"/>
      <use xlink:href="#ArialMT-31" transform="translate(108.398438 0)"/>
     </g>
    </g>
    <g id="line2d_20">
     <path d="M 630.65925 84.377375 
L 642.65925 84.377375 
L 654.65925 84.377375 
" style="fill: none; stroke: #ffa07a; stroke-opacity: 0.8; stroke-width: 3; stroke-linecap: square"/>
     <g>
      <use xlink:href="#m0bddd01f67" x="642.65925" y="84.377375" style="fill: #ffa07a; fill-opacity: 0.8; stroke: #ffa07a; stroke-opacity: 0.8"/>
     </g>
    </g>
    <g id="text_15">
     <!-- k=2 -->
     <g transform="translate(664.25925 88.577375) scale(0.12 -0.12)">
      <use xlink:href="#ArialMT-6b"/>
      <use xlink:href="#ArialMT-3d" transform="translate(50 0)"/>
      <use xlink:href="#ArialMT-32" transform="translate(108.398438 0)"/>
     </g>
    </g>
    <g id="line2d_21">
     <path d="M 630.65925 101.35175 
L 642.65925 101.35175 
L 654.65925 101.35175 
" style="fill: none; stroke: #4ecdc4; stroke-opacity: 0.8; stroke-width: 3; stroke-linecap: square"/>
     <g>
      <use xlink:href="#mcff8b20684" x="642.65925" y="101.35175" style="fill: #4ecdc4; fill-opacity: 0.8; stroke: #4ecdc4; stroke-opacity: 0.8"/>
     </g>
    </g>
    <g id="text_16">
     <!-- k=4 -->
     <g transform="translate(664.25925 105.55175) scale(0.12 -0.12)">
      <use xlink:href="#ArialMT-6b"/>
      <use xlink:href="#ArialMT-3d" transform="translate(50 0)"/>
      <use xlink:href="#ArialMT-34" transform="translate(108.398438 0)"/>
     </g>
    </g>
    <g id="line2d_22">
     <path d="M 630.65925 118.326125 
L 642.65925 118.326125 
L 654.65925 118.326125 
" style="fill: none; stroke: #45b7d1; stroke-opacity: 0.8; stroke-width: 3; stroke-linecap: square"/>
     <g>
      <use xlink:href="#m6ff35da00e" x="642.65925" y="118.326125" style="fill: #45b7d1; fill-opacity: 0.8; stroke: #45b7d1; stroke-opacity: 0.8"/>
     </g>
    </g>
    <g id="text_17">
     <!-- k=8 -->
     <g transform="translate(664.25925 122.526125) scale(0.12 -0.12)">
      <use xlink:href="#ArialMT-6b"/>
      <use xlink:href="#ArialMT-3d" transform="translate(50 0)"/>
      <use xlink:href="#ArialMT-38" transform="translate(108.398438 0)"/>
     </g>
    </g>
    <g id="line2d_23">
     <path d="M 630.65925 135.3005 
L 642.65925 135.3005 
L 654.65925 135.3005 
" style="fill: none; stroke: #96ceb4; stroke-opacity: 0.8; stroke-width: 3; stroke-linecap: square"/>
     <g>
      <use xlink:href="#mb42dab1aea" x="642.65925" y="135.3005" style="fill: #96ceb4; fill-opacity: 0.8; stroke: #96ceb4; stroke-opacity: 0.8"/>
     </g>
    </g>
    <g id="text_18">
     <!-- k=12 -->
     <g transform="translate(664.25925 139.5005) scale(0.12 -0.12)">
      <use xlink:href="#ArialMT-6b"/>
      <use xlink:href="#ArialMT-3d" transform="translate(50 0)"/>
      <use xlink:href="#ArialMT-31" transform="translate(108.398438 0)"/>
      <use xlink:href="#ArialMT-32" transform="translate(164.013672 0)"/>
     </g>
    </g>
    <g id="line2d_24">
     <path d="M 630.65925 152.274875 
L 642.65925 152.274875 
L 654.65925 152.274875 
" style="fill: none; stroke: #9b59b6; stroke-opacity: 0.8; stroke-width: 3; stroke-linecap: square"/>
     <g>
      <use xlink:href="#m1216b19d80" x="642.65925" y="152.274875" style="fill: #9b59b6; fill-opacity: 0.8; stroke: #9b59b6; stroke-opacity: 0.8"/>
     </g>
    </g>
    <g id="text_19">
     <!-- k=16 -->
     <g transform="translate(664.25925 156.474875) scale(0.12 -0.12)">
      <use xlink:href="#ArialMT-6b"/>
      <use xlink:href="#ArialMT-3d" transform="translate(50 0)"/>
      <use xlink:href="#ArialMT-31" transform="translate(108.398438 0)"/>
      <use xlink:href="#ArialMT-36" transform="translate(164.013672 0)"/>
     </g>
    </g>
   </g>
  </g>
 </g>
 <defs>
  <clipPath id="p169bbf2099">
   <path d="M 548.92875 306.356125 
C 548.92875 272.982438 542.354861 239.933267 529.583304 209.100001 
C 516.811747 178.266734 498.090896 150.249 474.492135 126.65024 
C 450.893375 103.051479 422.875641 84.330628 392.042374 71.559071 
C 361.209108 58.787514 328.159937 52.213625 294.78625 52.213625 
C 261.412563 52.213625 228.363392 58.787514 197.530126 71.559071 
C 166.696859 84.330628 138.679125 103.051479 115.080365 126.65024 
C 91.481604 150.249 72.760753 178.266734 59.989196 209.100001 
C 47.217639 239.933267 40.64375 272.982438 40.64375 306.356125 
C 40.64375 339.729812 47.217639 372.778983 59.989196 403.612249 
C 72.760753 434.445516 91.481604 462.46325 115.080365 486.06201 
C 138.679125 509.660771 166.696859 528.381622 197.530126 541.153179 
C 228.363392 553.924736 261.412563 560.498625 294.78625 560.498625 
C 328.159937 560.498625 361.209108 553.924736 392.042374 541.153179 
C 422.875641 528.381622 450.893375 509.660771 474.492135 486.06201 
C 498.090896 462.46325 516.811747 434.445516 529.583304 403.612249 
C 542.354861 372.778983 548.92875 339.729812 548.92875 306.356125 
M 294.78625 306.356125 
C 294.78625 306.356125 294.78625 306.356125 294.78625 306.356125 
C 294.78625 306.356125 294.78625 306.356125 294.78625 306.356125 
C 294.78625 306.356125 294.78625 306.356125 294.78625 306.356125 
C 294.78625 306.356125 294.78625 306.356125 294.78625 306.356125 
C 294.78625 306.356125 294.78625 306.356125 294.78625 306.356125 
C 294.78625 306.356125 294.78625 306.356125 294.78625 306.356125 
C 294.78625 306.356125 294.78625 306.356125 294.78625 306.356125 
C 294.78625 306.356125 294.78625 306.356125 294.78625 306.356125 
C 294.78625 306.356125 294.78625 306.356125 294.78625 306.356125 
C 294.78625 306.356125 294.78625 306.356125 294.78625 306.356125 
C 294.78625 306.356125 294.78625 306.356125 294.78625 306.356125 
C 294.78625 306.356125 294.78625 306.356125 294.78625 306.356125 
C 294.78625 306.356125 294.78625 306.356125 294.78625 306.356125 
C 294.78625 306.356125 294.78625 306.356125 294.78625 306.356125 
C 294.78625 306.356125 294.78625 306.356125 294.78625 306.356125 
C 294.78625 306.356125 294.78625 306.356125 294.78625 306.356125 
z
"/>
  </clipPath>
 </defs>
</svg>
