<?xml version="1.0" encoding="utf-8" standalone="no"?>
<!DOCTYPE svg PUBLIC "-//W3C//DTD SVG 1.1//EN"
  "http://www.w3.org/Graphics/SVG/1.1/DTD/svg11.dtd">
<svg xmlns:xlink="http://www.w3.org/1999/xlink" width="2639.025pt" height="823.896562pt" viewBox="0 0 2639.025 823.896562" xmlns="http://www.w3.org/2000/svg" version="1.1">
 <metadata>
  <rdf:RDF xmlns:dc="http://purl.org/dc/elements/1.1/" xmlns:cc="http://creativecommons.org/ns#" xmlns:rdf="http://www.w3.org/1999/02/22-rdf-syntax-ns#">
   <cc:Work>
    <dc:type rdf:resource="http://purl.org/dc/dcmitype/StillImage"/>
    <dc:date>2026-01-12T23:04:43.868008</dc:date>
    <dc:format>image/svg+xml</dc:format>
    <dc:creator>
     <cc:Agent>
      <dc:title>Matplotlib v3.10.6, https://matplotlib.org/</dc:title>
     </cc:Agent>
    </dc:creator>
   </cc:Work>
  </rdf:RDF>
 </metadata>
 <defs>
  <style type="text/css">*{stroke-linejoin: round; stroke-linecap: butt}</style>
 </defs>
 <g id="figure_1">
  <g id="patch_1">
   <path d="M 0 823.896562 
L 2639.025 823.896562 
L 2639.025 0 
L 0 0 
z
" style="fill: #ffffff"/>
  </g>
  <g id="axes_1">
   <g id="patch_2">
    <path d="M 73.915 767.32 
L 1182.905 767.32 
L 1182.905 99.2 
L 73.915 99.2 
z
" style="fill: #ffffff"/>
   </g>
   <g id="patch_3">
    <path d="M 124.323636 767.32 
L 175.370357 767.32 
L 175.370357 262.550657 
L 124.323636 262.550657 
z
" clip-path="url(#p35e1740181)" style="fill: #440154; opacity: 0.9"/>
   </g>
   <g id="patch_4">
    <path d="M 188.132037 767.32 
L 239.178757 767.32 
L 239.178757 280.795332 
L 188.132037 280.795332 
z
" clip-path="url(#p35e1740181)" style="fill: #481a6c; opacity: 0.9"/>
   </g>
   <g id="patch_5">
    <path d="M 251.940437 767.32 
L 302.987158 767.32 
L 302.987158 311.203124 
L 251.940437 311.203124 
z
" clip-path="url(#p35e1740181)" style="fill: #472f7d; opacity: 0.9"/>
   </g>
   <g id="patch_6">
    <path d="M 315.748838 767.32 
L 366.795558 767.32 
L 366.795558 274.713774 
L 315.748838 274.713774 
z
" clip-path="url(#p35e1740181)" style="fill: #414487; opacity: 0.9"/>
   </g>
   <g id="patch_7">
    <path d="M 379.557238 767.32 
L 430.603959 767.32 
L 430.603959 292.958449 
L 379.557238 292.958449 
z
" clip-path="url(#p35e1740181)" style="fill: #39568c; opacity: 0.9"/>
   </g>
   <g id="patch_8">
    <path d="M 443.365639 767.32 
L 494.412359 767.32 
L 494.412359 195.653515 
L 443.365639 195.653515 
z
" clip-path="url(#p35e1740181)" style="fill: #31688e; opacity: 0.9"/>
   </g>
   <g id="patch_9">
    <path d="M 507.174039 767.32 
L 558.220759 767.32 
L 558.220759 268.632216 
L 507.174039 268.632216 
z
" clip-path="url(#p35e1740181)" style="fill: #2a788e; opacity: 0.9"/>
   </g>
   <g id="patch_10">
    <path d="M 570.98244 767.32 
L 622.02916 767.32 
L 622.02916 329.447799 
L 570.98244 329.447799 
z
" clip-path="url(#p35e1740181)" style="fill: #23888e; opacity: 0.9"/>
   </g>
   <g id="patch_11">
    <path d="M 634.79084 767.32 
L 685.83756 767.32 
L 685.83756 305.121566 
L 634.79084 305.121566 
z
" clip-path="url(#p35e1740181)" style="fill: #1f988b; opacity: 0.9"/>
   </g>
   <g id="patch_12">
    <path d="M 698.599241 767.32 
L 749.645961 767.32 
L 749.645961 329.447799 
L 698.599241 329.447799 
z
" clip-path="url(#p35e1740181)" style="fill: #22a884; opacity: 0.9"/>
   </g>
   <g id="patch_13">
    <path d="M 762.407641 767.32 
L 813.454361 767.32 
L 813.454361 317.284682 
L 762.407641 317.284682 
z
" clip-path="url(#p35e1740181)" style="fill: #35b779; opacity: 0.9"/>
   </g>
   <g id="patch_14">
    <path d="M 826.216041 767.32 
L 877.262762 767.32 
L 877.262762 311.203124 
L 826.216041 311.203124 
z
" clip-path="url(#p35e1740181)" style="fill: #54c568; opacity: 0.9"/>
   </g>
   <g id="patch_15">
    <path d="M 890.024442 767.32 
L 941.071162 767.32 
L 941.071162 195.04536 
L 890.024442 195.04536 
z
" clip-path="url(#p35e1740181)" style="fill: #7ad151; opacity: 0.9"/>
   </g>
   <g id="patch_16">
    <path d="M 953.832842 767.32 
L 1004.879563 767.32 
L 1004.879563 274.713774 
L 953.832842 274.713774 
z
" clip-path="url(#p35e1740181)" style="fill: #a5db36; opacity: 0.9"/>
   </g>
   <g id="patch_17">
    <path d="M 1017.641243 767.32 
L 1068.687963 767.32 
L 1068.687963 274.713774 
L 1017.641243 274.713774 
z
" clip-path="url(#p35e1740181)" style="fill: #d2e21b; opacity: 0.9"/>
   </g>
   <g id="patch_18">
    <path d="M 1081.449643 767.32 
L 1132.496364 767.32 
L 1132.496364 329.447799 
L 1081.449643 329.447799 
z
" clip-path="url(#p35e1740181)" style="fill: #fde725; opacity: 0.9"/>
   </g>
   <g id="matplotlib.axis_1">
    <g id="xtick_1">
     <g id="line2d_1">
      <defs>
       <path id="m2cc142178c" d="M 0 0 
L 0 3.5 
" style="stroke: #000000; stroke-width: 0.8"/>
      </defs>
      <g>
       <use xlink:href="#m2cc142178c" x="149.846997" y="767.32" style="stroke: #000000; stroke-width: 0.8"/>
      </g>
     </g>
     <g id="text_1">
      <!-- M1 -->
      <g transform="translate(137.345434 787.204062) scale(0.18 -0.18)">
       <defs>
        <path id="ArialMT-4d" d="M 475 0 
L 475 4581 
L 1388 4581 
L 2472 1338 
Q 2622 884 2691 659 
Q 2769 909 2934 1394 
L 4031 4581 
L 4847 4581 
L 4847 0 
L 4263 0 
L 4263 3834 
L 2931 0 
L 2384 0 
L 1059 3900 
L 1059 0 
L 475 0 
z
" transform="scale(0.015625)"/>
        <path id="ArialMT-31" d="M 2384 0 
L 1822 0 
L 1822 3584 
Q 1619 3391 1289 3197 
Q 959 3003 697 2906 
L 697 3450 
Q 1169 3672 1522 3987 
Q 1875 4303 2022 4600 
L 2384 4600 
L 2384 0 
z
" transform="scale(0.015625)"/>
       </defs>
       <use xlink:href="#ArialMT-4d"/>
       <use xlink:href="#ArialMT-31" transform="translate(83.300781 0)"/>
      </g>
     </g>
    </g>
    <g id="xtick_2">
     <g id="line2d_2">
      <g>
       <use xlink:href="#m2cc142178c" x="213.655397" y="767.32" style="stroke: #000000; stroke-width: 0.8"/>
      </g>
     </g>
     <g id="text_2">
      <!-- M2 -->
      <g transform="translate(201.153835 787.204062) scale(0.18 -0.18)">
       <defs>
        <path id="ArialMT-32" d="M 3222 541 
L 3222 0 
L 194 0 
Q 188 203 259 391 
Q 375 700 629 1000 
Q 884 1300 1366 1694 
Q 2113 2306 2375 2664 
Q 2638 3022 2638 3341 
Q 2638 3675 2398 3904 
Q 2159 4134 1775 4134 
Q 1369 4134 1125 3890 
Q 881 3647 878 3216 
L 300 3275 
Q 359 3922 746 4261 
Q 1134 4600 1788 4600 
Q 2447 4600 2831 4234 
Q 3216 3869 3216 3328 
Q 3216 3053 3103 2787 
Q 2991 2522 2730 2228 
Q 2469 1934 1863 1422 
Q 1356 997 1212 845 
Q 1069 694 975 541 
L 3222 541 
z
" transform="scale(0.015625)"/>
       </defs>
       <use xlink:href="#ArialMT-4d"/>
       <use xlink:href="#ArialMT-32" transform="translate(83.300781 0)"/>
      </g>
     </g>
    </g>
    <g id="xtick_3">
     <g id="line2d_3">
      <g>
       <use xlink:href="#m2cc142178c" x="277.463797" y="767.32" style="stroke: #000000; stroke-width: 0.8"/>
      </g>
     </g>
     <g id="text_3">
      <!-- M3 -->
      <g transform="translate(264.962235 787.204062) scale(0.18 -0.18)">
       <defs>
        <path id="ArialMT-33" d="M 269 1209 
L 831 1284 
Q 928 806 1161 595 
Q 1394 384 1728 384 
Q 2125 384 2398 659 
Q 2672 934 2672 1341 
Q 2672 1728 2419 1979 
Q 2166 2231 1775 2231 
Q 1616 2231 1378 2169 
L 1441 2663 
Q 1497 2656 1531 2656 
Q 1891 2656 2178 2843 
Q 2466 3031 2466 3422 
Q 2466 3731 2256 3934 
Q 2047 4138 1716 4138 
Q 1388 4138 1169 3931 
Q 950 3725 888 3313 
L 325 3413 
Q 428 3978 793 4289 
Q 1159 4600 1703 4600 
Q 2078 4600 2393 4439 
Q 2709 4278 2876 4000 
Q 3044 3722 3044 3409 
Q 3044 3113 2884 2869 
Q 2725 2625 2413 2481 
Q 2819 2388 3044 2092 
Q 3269 1797 3269 1353 
Q 3269 753 2831 336 
Q 2394 -81 1725 -81 
Q 1122 -81 723 278 
Q 325 638 269 1209 
z
" transform="scale(0.015625)"/>
       </defs>
       <use xlink:href="#ArialMT-4d"/>
       <use xlink:href="#ArialMT-33" transform="translate(83.300781 0)"/>
      </g>
     </g>
    </g>
    <g id="xtick_4">
     <g id="line2d_4">
      <g>
       <use xlink:href="#m2cc142178c" x="341.272198" y="767.32" style="stroke: #000000; stroke-width: 0.8"/>
      </g>
     </g>
     <g id="text_4">
      <!-- M4 -->
      <g transform="translate(328.770635 787.204062) scale(0.18 -0.18)">
       <defs>
        <path id="ArialMT-34" d="M 2069 0 
L 2069 1097 
L 81 1097 
L 81 1613 
L 2172 4581 
L 2631 4581 
L 2631 1613 
L 3250 1613 
L 3250 1097 
L 2631 1097 
L 2631 0 
L 2069 0 
z
M 2069 1613 
L 2069 3678 
L 634 1613 
L 2069 1613 
z
" transform="scale(0.015625)"/>
       </defs>
       <use xlink:href="#ArialMT-4d"/>
       <use xlink:href="#ArialMT-34" transform="translate(83.300781 0)"/>
      </g>
     </g>
    </g>
    <g id="xtick_5">
     <g id="line2d_5">
      <g>
       <use xlink:href="#m2cc142178c" x="405.080598" y="767.32" style="stroke: #000000; stroke-width: 0.8"/>
      </g>
     </g>
     <g id="text_5">
      <!-- M5 -->
      <g transform="translate(392.579036 787.204062) scale(0.18 -0.18)">
       <defs>
        <path id="ArialMT-35" d="M 266 1200 
L 856 1250 
Q 922 819 1161 601 
Q 1400 384 1738 384 
Q 2144 384 2425 690 
Q 2706 997 2706 1503 
Q 2706 1984 2436 2262 
Q 2166 2541 1728 2541 
Q 1456 2541 1237 2417 
Q 1019 2294 894 2097 
L 366 2166 
L 809 4519 
L 3088 4519 
L 3088 3981 
L 1259 3981 
L 1013 2750 
Q 1425 3038 1878 3038 
Q 2478 3038 2890 2622 
Q 3303 2206 3303 1553 
Q 3303 931 2941 478 
Q 2500 -78 1738 -78 
Q 1113 -78 717 272 
Q 322 622 266 1200 
z
" transform="scale(0.015625)"/>
       </defs>
       <use xlink:href="#ArialMT-4d"/>
       <use xlink:href="#ArialMT-35" transform="translate(83.300781 0)"/>
      </g>
     </g>
    </g>
    <g id="xtick_6">
     <g id="line2d_6">
      <g>
       <use xlink:href="#m2cc142178c" x="468.888999" y="767.32" style="stroke: #000000; stroke-width: 0.8"/>
      </g>
     </g>
     <g id="text_6">
      <!-- M6 -->
      <g transform="translate(456.387436 787.204062) scale(0.18 -0.18)">
       <defs>
        <path id="ArialMT-36" d="M 3184 3459 
L 2625 3416 
Q 2550 3747 2413 3897 
Q 2184 4138 1850 4138 
Q 1581 4138 1378 3988 
Q 1113 3794 959 3422 
Q 806 3050 800 2363 
Q 1003 2672 1297 2822 
Q 1591 2972 1913 2972 
Q 2475 2972 2870 2558 
Q 3266 2144 3266 1488 
Q 3266 1056 3080 686 
Q 2894 316 2569 119 
Q 2244 -78 1831 -78 
Q 1128 -78 684 439 
Q 241 956 241 2144 
Q 241 3472 731 4075 
Q 1159 4600 1884 4600 
Q 2425 4600 2770 4297 
Q 3116 3994 3184 3459 
z
M 888 1484 
Q 888 1194 1011 928 
Q 1134 663 1356 523 
Q 1578 384 1822 384 
Q 2178 384 2434 671 
Q 2691 959 2691 1453 
Q 2691 1928 2437 2201 
Q 2184 2475 1800 2475 
Q 1419 2475 1153 2201 
Q 888 1928 888 1484 
z
" transform="scale(0.015625)"/>
       </defs>
       <use xlink:href="#ArialMT-4d"/>
       <use xlink:href="#ArialMT-36" transform="translate(83.300781 0)"/>
      </g>
     </g>
    </g>
    <g id="xtick_7">
     <g id="line2d_7">
      <g>
       <use xlink:href="#m2cc142178c" x="532.697399" y="767.32" style="stroke: #000000; stroke-width: 0.8"/>
      </g>
     </g>
     <g id="text_7">
      <!-- M7 -->
      <g transform="translate(520.195837 787.204062) scale(0.18 -0.18)">
       <defs>
        <path id="ArialMT-37" d="M 303 3981 
L 303 4522 
L 3269 4522 
L 3269 4084 
Q 2831 3619 2401 2847 
Q 1972 2075 1738 1259 
Q 1569 684 1522 0 
L 944 0 
Q 953 541 1156 1306 
Q 1359 2072 1739 2783 
Q 2119 3494 2547 3981 
L 303 3981 
z
" transform="scale(0.015625)"/>
       </defs>
       <use xlink:href="#ArialMT-4d"/>
       <use xlink:href="#ArialMT-37" transform="translate(83.300781 0)"/>
      </g>
     </g>
    </g>
    <g id="xtick_8">
     <g id="line2d_8">
      <g>
       <use xlink:href="#m2cc142178c" x="596.5058" y="767.32" style="stroke: #000000; stroke-width: 0.8"/>
      </g>
     </g>
     <g id="text_8">
      <!-- M8 -->
      <g transform="translate(584.004237 787.204062) scale(0.18 -0.18)">
       <defs>
        <path id="ArialMT-38" d="M 1131 2484 
Q 781 2613 612 2850 
Q 444 3088 444 3419 
Q 444 3919 803 4259 
Q 1163 4600 1759 4600 
Q 2359 4600 2725 4251 
Q 3091 3903 3091 3403 
Q 3091 3084 2923 2848 
Q 2756 2613 2416 2484 
Q 2838 2347 3058 2040 
Q 3278 1734 3278 1309 
Q 3278 722 2862 322 
Q 2447 -78 1769 -78 
Q 1091 -78 675 323 
Q 259 725 259 1325 
Q 259 1772 486 2073 
Q 713 2375 1131 2484 
z
M 1019 3438 
Q 1019 3113 1228 2906 
Q 1438 2700 1772 2700 
Q 2097 2700 2305 2904 
Q 2513 3109 2513 3406 
Q 2513 3716 2298 3927 
Q 2084 4138 1766 4138 
Q 1444 4138 1231 3931 
Q 1019 3725 1019 3438 
z
M 838 1322 
Q 838 1081 952 856 
Q 1066 631 1291 507 
Q 1516 384 1775 384 
Q 2178 384 2440 643 
Q 2703 903 2703 1303 
Q 2703 1709 2433 1975 
Q 2163 2241 1756 2241 
Q 1359 2241 1098 1978 
Q 838 1716 838 1322 
z
" transform="scale(0.015625)"/>
       </defs>
       <use xlink:href="#ArialMT-4d"/>
       <use xlink:href="#ArialMT-38" transform="translate(83.300781 0)"/>
      </g>
     </g>
    </g>
    <g id="xtick_9">
     <g id="line2d_9">
      <g>
       <use xlink:href="#m2cc142178c" x="660.3142" y="767.32" style="stroke: #000000; stroke-width: 0.8"/>
      </g>
     </g>
     <g id="text_9">
      <!-- M9 -->
      <g transform="translate(647.812638 787.204062) scale(0.18 -0.18)">
       <defs>
        <path id="ArialMT-39" d="M 350 1059 
L 891 1109 
Q 959 728 1153 556 
Q 1347 384 1650 384 
Q 1909 384 2104 503 
Q 2300 622 2425 820 
Q 2550 1019 2634 1356 
Q 2719 1694 2719 2044 
Q 2719 2081 2716 2156 
Q 2547 1888 2255 1720 
Q 1963 1553 1622 1553 
Q 1053 1553 659 1965 
Q 266 2378 266 3053 
Q 266 3750 677 4175 
Q 1088 4600 1706 4600 
Q 2153 4600 2523 4359 
Q 2894 4119 3086 3673 
Q 3278 3228 3278 2384 
Q 3278 1506 3087 986 
Q 2897 466 2520 194 
Q 2144 -78 1638 -78 
Q 1100 -78 759 220 
Q 419 519 350 1059 
z
M 2653 3081 
Q 2653 3566 2395 3850 
Q 2138 4134 1775 4134 
Q 1400 4134 1122 3828 
Q 844 3522 844 3034 
Q 844 2597 1108 2323 
Q 1372 2050 1759 2050 
Q 2150 2050 2401 2323 
Q 2653 2597 2653 3081 
z
" transform="scale(0.015625)"/>
       </defs>
       <use xlink:href="#ArialMT-4d"/>
       <use xlink:href="#ArialMT-39" transform="translate(83.300781 0)"/>
      </g>
     </g>
    </g>
    <g id="xtick_10">
     <g id="line2d_10">
      <g>
       <use xlink:href="#m2cc142178c" x="724.122601" y="767.32" style="stroke: #000000; stroke-width: 0.8"/>
      </g>
     </g>
     <g id="text_10">
      <!-- M10 -->
      <g transform="translate(706.616194 787.204062) scale(0.18 -0.18)">
       <defs>
        <path id="ArialMT-30" d="M 266 2259 
Q 266 3072 433 3567 
Q 600 4063 929 4331 
Q 1259 4600 1759 4600 
Q 2128 4600 2406 4451 
Q 2684 4303 2865 4023 
Q 3047 3744 3150 3342 
Q 3253 2941 3253 2259 
Q 3253 1453 3087 958 
Q 2922 463 2592 192 
Q 2263 -78 1759 -78 
Q 1097 -78 719 397 
Q 266 969 266 2259 
z
M 844 2259 
Q 844 1131 1108 757 
Q 1372 384 1759 384 
Q 2147 384 2411 759 
Q 2675 1134 2675 2259 
Q 2675 3391 2411 3762 
Q 2147 4134 1753 4134 
Q 1366 4134 1134 3806 
Q 844 3388 844 2259 
z
" transform="scale(0.015625)"/>
       </defs>
       <use xlink:href="#ArialMT-4d"/>
       <use xlink:href="#ArialMT-31" transform="translate(83.300781 0)"/>
       <use xlink:href="#ArialMT-30" transform="translate(138.916016 0)"/>
      </g>
     </g>
    </g>
    <g id="xtick_11">
     <g id="line2d_11">
      <g>
       <use xlink:href="#m2cc142178c" x="787.931001" y="767.32" style="stroke: #000000; stroke-width: 0.8"/>
      </g>
     </g>
     <g id="text_11">
      <!-- M11 -->
      <g transform="translate(771.088345 787.204062) scale(0.18 -0.18)">
       <use xlink:href="#ArialMT-4d"/>
       <use xlink:href="#ArialMT-31" transform="translate(83.300781 0)"/>
       <use xlink:href="#ArialMT-31" transform="translate(131.541016 0)"/>
      </g>
     </g>
    </g>
    <g id="xtick_12">
     <g id="line2d_12">
      <g>
       <use xlink:href="#m2cc142178c" x="851.739402" y="767.32" style="stroke: #000000; stroke-width: 0.8"/>
      </g>
     </g>
     <g id="text_12">
      <!-- M12 -->
      <g transform="translate(834.232995 787.204062) scale(0.18 -0.18)">
       <use xlink:href="#ArialMT-4d"/>
       <use xlink:href="#ArialMT-31" transform="translate(83.300781 0)"/>
       <use xlink:href="#ArialMT-32" transform="translate(138.916016 0)"/>
      </g>
     </g>
    </g>
    <g id="xtick_13">
     <g id="line2d_13">
      <g>
       <use xlink:href="#m2cc142178c" x="915.547802" y="767.32" style="stroke: #000000; stroke-width: 0.8"/>
      </g>
     </g>
     <g id="text_13">
      <!-- M13 -->
      <g transform="translate(898.041396 787.204062) scale(0.18 -0.18)">
       <use xlink:href="#ArialMT-4d"/>
       <use xlink:href="#ArialMT-31" transform="translate(83.300781 0)"/>
       <use xlink:href="#ArialMT-33" transform="translate(138.916016 0)"/>
      </g>
     </g>
    </g>
    <g id="xtick_14">
     <g id="line2d_14">
      <g>
       <use xlink:href="#m2cc142178c" x="979.356203" y="767.32" style="stroke: #000000; stroke-width: 0.8"/>
      </g>
     </g>
     <g id="text_14">
      <!-- M14 -->
      <g transform="translate(961.849796 787.204062) scale(0.18 -0.18)">
       <use xlink:href="#ArialMT-4d"/>
       <use xlink:href="#ArialMT-31" transform="translate(83.300781 0)"/>
       <use xlink:href="#ArialMT-34" transform="translate(138.916016 0)"/>
      </g>
     </g>
    </g>
    <g id="xtick_15">
     <g id="line2d_15">
      <g>
       <use xlink:href="#m2cc142178c" x="1043.164603" y="767.32" style="stroke: #000000; stroke-width: 0.8"/>
      </g>
     </g>
     <g id="text_15">
      <!-- M15 -->
      <g transform="translate(1025.658197 787.204062) scale(0.18 -0.18)">
       <use xlink:href="#ArialMT-4d"/>
       <use xlink:href="#ArialMT-31" transform="translate(83.300781 0)"/>
       <use xlink:href="#ArialMT-35" transform="translate(138.916016 0)"/>
      </g>
     </g>
    </g>
    <g id="xtick_16">
     <g id="line2d_16">
      <g>
       <use xlink:href="#m2cc142178c" x="1106.973003" y="767.32" style="stroke: #000000; stroke-width: 0.8"/>
      </g>
     </g>
     <g id="text_16">
      <!-- M16 -->
      <g transform="translate(1089.466597 787.204062) scale(0.18 -0.18)">
       <use xlink:href="#ArialMT-4d"/>
       <use xlink:href="#ArialMT-31" transform="translate(83.300781 0)"/>
       <use xlink:href="#ArialMT-36" transform="translate(138.916016 0)"/>
      </g>
     </g>
    </g>
    <g id="text_17">
     <!-- Modal Index -->
     <g transform="translate(559.07625 811.960312) scale(0.24 -0.24)">
      <defs>
       <path id="Arial-BoldMT-4d" d="M 453 0 
L 453 4581 
L 1838 4581 
L 2669 1456 
L 3491 4581 
L 4878 4581 
L 4878 0 
L 4019 0 
L 4019 3606 
L 3109 0 
L 2219 0 
L 1313 3606 
L 1313 0 
L 453 0 
z
" transform="scale(0.015625)"/>
       <path id="Arial-BoldMT-6f" d="M 256 1706 
Q 256 2144 472 2553 
Q 688 2963 1083 3178 
Q 1478 3394 1966 3394 
Q 2719 3394 3200 2905 
Q 3681 2416 3681 1669 
Q 3681 916 3195 420 
Q 2709 -75 1972 -75 
Q 1516 -75 1102 131 
Q 688 338 472 736 
Q 256 1134 256 1706 
z
M 1156 1659 
Q 1156 1166 1390 903 
Q 1625 641 1969 641 
Q 2313 641 2545 903 
Q 2778 1166 2778 1666 
Q 2778 2153 2545 2415 
Q 2313 2678 1969 2678 
Q 1625 2678 1390 2415 
Q 1156 2153 1156 1659 
z
" transform="scale(0.015625)"/>
       <path id="Arial-BoldMT-64" d="M 3503 0 
L 2688 0 
L 2688 488 
Q 2484 203 2207 64 
Q 1931 -75 1650 -75 
Q 1078 -75 670 386 
Q 263 847 263 1672 
Q 263 2516 659 2955 
Q 1056 3394 1663 3394 
Q 2219 3394 2625 2931 
L 2625 4581 
L 3503 4581 
L 3503 0 
z
M 1159 1731 
Q 1159 1200 1306 963 
Q 1519 619 1900 619 
Q 2203 619 2415 876 
Q 2628 1134 2628 1647 
Q 2628 2219 2422 2470 
Q 2216 2722 1894 2722 
Q 1581 2722 1370 2473 
Q 1159 2225 1159 1731 
z
" transform="scale(0.015625)"/>
       <path id="Arial-BoldMT-61" d="M 1116 2306 
L 319 2450 
Q 453 2931 781 3162 
Q 1109 3394 1756 3394 
Q 2344 3394 2631 3255 
Q 2919 3116 3036 2902 
Q 3153 2688 3153 2116 
L 3144 1091 
Q 3144 653 3186 445 
Q 3228 238 3344 0 
L 2475 0 
Q 2441 88 2391 259 
Q 2369 338 2359 363 
Q 2134 144 1878 34 
Q 1622 -75 1331 -75 
Q 819 -75 523 203 
Q 228 481 228 906 
Q 228 1188 362 1408 
Q 497 1628 739 1745 
Q 981 1863 1438 1950 
Q 2053 2066 2291 2166 
L 2291 2253 
Q 2291 2506 2166 2614 
Q 2041 2722 1694 2722 
Q 1459 2722 1328 2630 
Q 1197 2538 1116 2306 
z
M 2291 1594 
Q 2122 1538 1756 1459 
Q 1391 1381 1278 1306 
Q 1106 1184 1106 997 
Q 1106 813 1243 678 
Q 1381 544 1594 544 
Q 1831 544 2047 700 
Q 2206 819 2256 991 
Q 2291 1103 2291 1419 
L 2291 1594 
z
" transform="scale(0.015625)"/>
       <path id="Arial-BoldMT-6c" d="M 459 0 
L 459 4581 
L 1338 4581 
L 1338 0 
L 459 0 
z
" transform="scale(0.015625)"/>
       <path id="Arial-BoldMT-20" transform="scale(0.015625)"/>
       <path id="Arial-BoldMT-49" d="M 438 0 
L 438 4581 
L 1363 4581 
L 1363 0 
L 438 0 
z
" transform="scale(0.015625)"/>
       <path id="Arial-BoldMT-6e" d="M 3478 0 
L 2600 0 
L 2600 1694 
Q 2600 2231 2544 2389 
Q 2488 2547 2361 2634 
Q 2234 2722 2056 2722 
Q 1828 2722 1647 2597 
Q 1466 2472 1398 2265 
Q 1331 2059 1331 1503 
L 1331 0 
L 453 0 
L 453 3319 
L 1269 3319 
L 1269 2831 
Q 1703 3394 2363 3394 
Q 2653 3394 2893 3289 
Q 3134 3184 3257 3021 
Q 3381 2859 3429 2653 
Q 3478 2447 3478 2063 
L 3478 0 
z
" transform="scale(0.015625)"/>
       <path id="Arial-BoldMT-65" d="M 2381 1056 
L 3256 909 
Q 3088 428 2723 176 
Q 2359 -75 1813 -75 
Q 947 -75 531 491 
Q 203 944 203 1634 
Q 203 2459 634 2926 
Q 1066 3394 1725 3394 
Q 2466 3394 2894 2905 
Q 3322 2416 3303 1406 
L 1103 1406 
Q 1113 1016 1316 798 
Q 1519 581 1822 581 
Q 2028 581 2168 693 
Q 2309 806 2381 1056 
z
M 2431 1944 
Q 2422 2325 2234 2523 
Q 2047 2722 1778 2722 
Q 1491 2722 1303 2513 
Q 1116 2303 1119 1944 
L 2431 1944 
z
" transform="scale(0.015625)"/>
       <path id="Arial-BoldMT-78" d="M 38 0 
L 1234 1709 
L 88 3319 
L 1159 3319 
L 1747 2406 
L 2366 3319 
L 3397 3319 
L 2272 1747 
L 3500 0 
L 2422 0 
L 1747 1028 
L 1066 0 
L 38 0 
z
" transform="scale(0.015625)"/>
      </defs>
      <use xlink:href="#Arial-BoldMT-4d"/>
      <use xlink:href="#Arial-BoldMT-6f" transform="translate(83.300781 0)"/>
      <use xlink:href="#Arial-BoldMT-64" transform="translate(144.384766 0)"/>
      <use xlink:href="#Arial-BoldMT-61" transform="translate(205.46875 0)"/>
      <use xlink:href="#Arial-BoldMT-6c" transform="translate(261.083984 0)"/>
      <use xlink:href="#Arial-BoldMT-20" transform="translate(288.867188 0)"/>
      <use xlink:href="#Arial-BoldMT-49" transform="translate(316.650391 0)"/>
      <use xlink:href="#Arial-BoldMT-6e" transform="translate(344.433594 0)"/>
      <use xlink:href="#Arial-BoldMT-64" transform="translate(405.517578 0)"/>
      <use xlink:href="#Arial-BoldMT-65" transform="translate(466.601562 0)"/>
      <use xlink:href="#Arial-BoldMT-78" transform="translate(522.216797 0)"/>
     </g>
    </g>
   </g>
   <g id="matplotlib.axis_2">
    <g id="ytick_1">
     <g id="line2d_17">
      <defs>
       <path id="mca3890261a" d="M 0 0 
L -3.5 0 
" style="stroke: #000000; stroke-width: 0.8"/>
      </defs>
      <g>
       <use xlink:href="#mca3890261a" x="73.915" y="767.32" style="stroke: #000000; stroke-width: 0.8"/>
      </g>
     </g>
     <g id="text_18">
      <!-- 0.0 -->
      <g transform="translate(39.115 774.477812) scale(0.2 -0.2)">
       <defs>
        <path id="ArialMT-2e" d="M 581 0 
L 581 641 
L 1222 641 
L 1222 0 
L 581 0 
z
" transform="scale(0.015625)"/>
       </defs>
       <use xlink:href="#ArialMT-30"/>
       <use xlink:href="#ArialMT-2e" transform="translate(55.615234 0)"/>
       <use xlink:href="#ArialMT-30" transform="translate(83.398438 0)"/>
      </g>
     </g>
    </g>
    <g id="ytick_2">
     <g id="line2d_18">
      <g>
       <use xlink:href="#mca3890261a" x="73.915" y="647.513301" style="stroke: #000000; stroke-width: 0.8"/>
      </g>
     </g>
     <g id="text_19">
      <!-- 0.1 -->
      <g transform="translate(39.115 654.671113) scale(0.2 -0.2)">
       <use xlink:href="#ArialMT-30"/>
       <use xlink:href="#ArialMT-2e" transform="translate(55.615234 0)"/>
       <use xlink:href="#ArialMT-31" transform="translate(83.398438 0)"/>
      </g>
     </g>
    </g>
    <g id="ytick_3">
     <g id="line2d_19">
      <g>
       <use xlink:href="#mca3890261a" x="73.915" y="527.706601" style="stroke: #000000; stroke-width: 0.8"/>
      </g>
     </g>
     <g id="text_20">
      <!-- 0.2 -->
      <g transform="translate(39.115 534.864414) scale(0.2 -0.2)">
       <use xlink:href="#ArialMT-30"/>
       <use xlink:href="#ArialMT-2e" transform="translate(55.615234 0)"/>
       <use xlink:href="#ArialMT-32" transform="translate(83.398438 0)"/>
      </g>
     </g>
    </g>
    <g id="ytick_4">
     <g id="line2d_20">
      <g>
       <use xlink:href="#mca3890261a" x="73.915" y="407.899902" style="stroke: #000000; stroke-width: 0.8"/>
      </g>
     </g>
     <g id="text_21">
      <!-- 0.3 -->
      <g transform="translate(39.115 415.057714) scale(0.2 -0.2)">
       <use xlink:href="#ArialMT-30"/>
       <use xlink:href="#ArialMT-2e" transform="translate(55.615234 0)"/>
       <use xlink:href="#ArialMT-33" transform="translate(83.398438 0)"/>
      </g>
     </g>
    </g>
    <g id="ytick_5">
     <g id="line2d_21">
      <g>
       <use xlink:href="#mca3890261a" x="73.915" y="288.093202" style="stroke: #000000; stroke-width: 0.8"/>
      </g>
     </g>
     <g id="text_22">
      <!-- 0.4 -->
      <g transform="translate(39.115 295.251015) scale(0.2 -0.2)">
       <use xlink:href="#ArialMT-30"/>
       <use xlink:href="#ArialMT-2e" transform="translate(55.615234 0)"/>
       <use xlink:href="#ArialMT-34" transform="translate(83.398438 0)"/>
      </g>
     </g>
    </g>
    <g id="ytick_6">
     <g id="line2d_22">
      <g>
       <use xlink:href="#mca3890261a" x="73.915" y="168.286503" style="stroke: #000000; stroke-width: 0.8"/>
      </g>
     </g>
     <g id="text_23">
      <!-- 0.5 -->
      <g transform="translate(39.115 175.444315) scale(0.2 -0.2)">
       <use xlink:href="#ArialMT-30"/>
       <use xlink:href="#ArialMT-2e" transform="translate(55.615234 0)"/>
       <use xlink:href="#ArialMT-35" transform="translate(83.398438 0)"/>
      </g>
     </g>
    </g>
    <g id="text_24">
     <!-- Score -->
     <g transform="translate(24.37875 466.610625) rotate(-90) scale(0.24 -0.24)">
      <defs>
       <path id="Arial-BoldMT-53" d="M 231 1491 
L 1131 1578 
Q 1213 1125 1461 912 
Q 1709 700 2131 700 
Q 2578 700 2804 889 
Q 3031 1078 3031 1331 
Q 3031 1494 2936 1608 
Q 2841 1722 2603 1806 
Q 2441 1863 1863 2006 
Q 1119 2191 819 2459 
Q 397 2838 397 3381 
Q 397 3731 595 4036 
Q 794 4341 1167 4500 
Q 1541 4659 2069 4659 
Q 2931 4659 3367 4281 
Q 3803 3903 3825 3272 
L 2900 3231 
Q 2841 3584 2645 3739 
Q 2450 3894 2059 3894 
Q 1656 3894 1428 3728 
Q 1281 3622 1281 3444 
Q 1281 3281 1419 3166 
Q 1594 3019 2269 2859 
Q 2944 2700 3267 2529 
Q 3591 2359 3773 2064 
Q 3956 1769 3956 1334 
Q 3956 941 3737 597 
Q 3519 253 3119 86 
Q 2719 -81 2122 -81 
Q 1253 -81 787 320 
Q 322 722 231 1491 
z
" transform="scale(0.015625)"/>
       <path id="Arial-BoldMT-63" d="M 3353 2338 
L 2488 2181 
Q 2444 2441 2289 2572 
Q 2134 2703 1888 2703 
Q 1559 2703 1364 2476 
Q 1169 2250 1169 1719 
Q 1169 1128 1367 884 
Q 1566 641 1900 641 
Q 2150 641 2309 783 
Q 2469 925 2534 1272 
L 3397 1125 
Q 3263 531 2881 228 
Q 2500 -75 1859 -75 
Q 1131 -75 698 384 
Q 266 844 266 1656 
Q 266 2478 700 2936 
Q 1134 3394 1875 3394 
Q 2481 3394 2839 3133 
Q 3197 2872 3353 2338 
z
" transform="scale(0.015625)"/>
       <path id="Arial-BoldMT-72" d="M 1300 0 
L 422 0 
L 422 3319 
L 1238 3319 
L 1238 2847 
Q 1447 3181 1614 3287 
Q 1781 3394 1994 3394 
Q 2294 3394 2572 3228 
L 2300 2463 
Q 2078 2606 1888 2606 
Q 1703 2606 1575 2504 
Q 1447 2403 1373 2137 
Q 1300 1872 1300 1025 
L 1300 0 
z
" transform="scale(0.015625)"/>
      </defs>
      <use xlink:href="#Arial-BoldMT-53"/>
      <use xlink:href="#Arial-BoldMT-63" transform="translate(66.699219 0)"/>
      <use xlink:href="#Arial-BoldMT-6f" transform="translate(122.314453 0)"/>
      <use xlink:href="#Arial-BoldMT-72" transform="translate(183.398438 0)"/>
      <use xlink:href="#Arial-BoldMT-65" transform="translate(222.314453 0)"/>
     </g>
    </g>
   </g>
   <g id="patch_19">
    <path d="M 73.915 767.32 
L 73.915 99.2 
" style="fill: none; stroke: #000000; stroke-width: 0.8; stroke-linejoin: miter; stroke-linecap: square"/>
   </g>
   <g id="patch_20">
    <path d="M 73.915 767.32 
L 1182.905 767.32 
" style="fill: none; stroke: #000000; stroke-width: 0.8; stroke-linejoin: miter; stroke-linecap: square"/>
   </g>
   <g id="text_25">
    <!-- 0.421 -->
    <g transform="translate(132.331684 253.79751) scale(0.14 -0.14)">
     <defs>
      <path id="Arial-BoldMT-30" d="M 1756 4600 
Q 2422 4600 2797 4125 
Q 3244 3563 3244 2259 
Q 3244 959 2794 391 
Q 2422 -78 1756 -78 
Q 1088 -78 678 436 
Q 269 950 269 2269 
Q 269 3563 719 4131 
Q 1091 4600 1756 4600 
z
M 1756 3872 
Q 1597 3872 1472 3770 
Q 1347 3669 1278 3406 
Q 1188 3066 1188 2259 
Q 1188 1453 1269 1151 
Q 1350 850 1473 750 
Q 1597 650 1756 650 
Q 1916 650 2041 751 
Q 2166 853 2234 1116 
Q 2325 1453 2325 2259 
Q 2325 3066 2244 3367 
Q 2163 3669 2039 3770 
Q 1916 3872 1756 3872 
z
" transform="scale(0.015625)"/>
      <path id="Arial-BoldMT-2e" d="M 459 0 
L 459 878 
L 1338 878 
L 1338 0 
L 459 0 
z
" transform="scale(0.015625)"/>
      <path id="Arial-BoldMT-34" d="M 1994 0 
L 1994 922 
L 119 922 
L 119 1691 
L 2106 4600 
L 2844 4600 
L 2844 1694 
L 3413 1694 
L 3413 922 
L 2844 922 
L 2844 0 
L 1994 0 
z
M 1994 1694 
L 1994 3259 
L 941 1694 
L 1994 1694 
z
" transform="scale(0.015625)"/>
      <path id="Arial-BoldMT-32" d="M 3238 816 
L 3238 0 
L 159 0 
Q 209 463 459 877 
Q 709 1291 1447 1975 
Q 2041 2528 2175 2725 
Q 2356 2997 2356 3263 
Q 2356 3556 2198 3714 
Q 2041 3872 1763 3872 
Q 1488 3872 1325 3706 
Q 1163 3541 1138 3156 
L 263 3244 
Q 341 3969 753 4284 
Q 1166 4600 1784 4600 
Q 2463 4600 2850 4234 
Q 3238 3869 3238 3325 
Q 3238 3016 3127 2736 
Q 3016 2456 2775 2150 
Q 2616 1947 2200 1565 
Q 1784 1184 1673 1059 
Q 1563 934 1494 816 
L 3238 816 
z
" transform="scale(0.015625)"/>
      <path id="Arial-BoldMT-31" d="M 2519 0 
L 1641 0 
L 1641 3309 
Q 1159 2859 506 2644 
L 506 3441 
Q 850 3553 1253 3867 
Q 1656 4181 1806 4600 
L 2519 4600 
L 2519 0 
z
" transform="scale(0.015625)"/>
     </defs>
     <use xlink:href="#Arial-BoldMT-30"/>
     <use xlink:href="#Arial-BoldMT-2e" transform="translate(55.615234 0)"/>
     <use xlink:href="#Arial-BoldMT-34" transform="translate(83.398438 0)"/>
     <use xlink:href="#Arial-BoldMT-32" transform="translate(139.013672 0)"/>
     <use xlink:href="#Arial-BoldMT-31" transform="translate(194.628906 0)"/>
    </g>
   </g>
   <g id="text_26">
    <!-- 0.406 -->
    <g transform="translate(196.140085 272.042185) scale(0.14 -0.14)">
     <defs>
      <path id="Arial-BoldMT-36" d="M 3247 3459 
L 2397 3366 
Q 2366 3628 2234 3753 
Q 2103 3878 1894 3878 
Q 1616 3878 1423 3628 
Q 1231 3378 1181 2588 
Q 1509 2975 1997 2975 
Q 2547 2975 2939 2556 
Q 3331 2138 3331 1475 
Q 3331 772 2918 347 
Q 2506 -78 1859 -78 
Q 1166 -78 719 461 
Q 272 1000 272 2228 
Q 272 3488 737 4044 
Q 1203 4600 1947 4600 
Q 2469 4600 2811 4308 
Q 3153 4016 3247 3459 
z
M 1256 1544 
Q 1256 1116 1453 883 
Q 1650 650 1903 650 
Q 2147 650 2309 840 
Q 2472 1031 2472 1466 
Q 2472 1913 2297 2120 
Q 2122 2328 1859 2328 
Q 1606 2328 1431 2129 
Q 1256 1931 1256 1544 
z
" transform="scale(0.015625)"/>
     </defs>
     <use xlink:href="#Arial-BoldMT-30"/>
     <use xlink:href="#Arial-BoldMT-2e" transform="translate(55.615234 0)"/>
     <use xlink:href="#Arial-BoldMT-34" transform="translate(83.398438 0)"/>
     <use xlink:href="#Arial-BoldMT-30" transform="translate(139.013672 0)"/>
     <use xlink:href="#Arial-BoldMT-36" transform="translate(194.628906 0)"/>
    </g>
   </g>
   <g id="text_27">
    <!-- 0.381 -->
    <g transform="translate(259.948485 302.449977) scale(0.14 -0.14)">
     <defs>
      <path id="Arial-BoldMT-33" d="M 241 1216 
L 1091 1319 
Q 1131 994 1309 822 
Q 1488 650 1741 650 
Q 2013 650 2198 856 
Q 2384 1063 2384 1413 
Q 2384 1744 2206 1937 
Q 2028 2131 1772 2131 
Q 1603 2131 1369 2066 
L 1466 2781 
Q 1822 2772 2009 2936 
Q 2197 3100 2197 3372 
Q 2197 3603 2059 3740 
Q 1922 3878 1694 3878 
Q 1469 3878 1309 3722 
Q 1150 3566 1116 3266 
L 306 3403 
Q 391 3819 561 4067 
Q 731 4316 1036 4458 
Q 1341 4600 1719 4600 
Q 2366 4600 2756 4188 
Q 3078 3850 3078 3425 
Q 3078 2822 2419 2463 
Q 2813 2378 3048 2084 
Q 3284 1791 3284 1375 
Q 3284 772 2843 347 
Q 2403 -78 1747 -78 
Q 1125 -78 715 280 
Q 306 638 241 1216 
z
" transform="scale(0.015625)"/>
      <path id="Arial-BoldMT-38" d="M 1025 2472 
Q 684 2616 529 2867 
Q 375 3119 375 3419 
Q 375 3931 733 4265 
Q 1091 4600 1750 4600 
Q 2403 4600 2764 4265 
Q 3125 3931 3125 3419 
Q 3125 3100 2959 2851 
Q 2794 2603 2494 2472 
Q 2875 2319 3073 2025 
Q 3272 1731 3272 1347 
Q 3272 713 2867 316 
Q 2463 -81 1791 -81 
Q 1166 -81 750 247 
Q 259 634 259 1309 
Q 259 1681 443 1992 
Q 628 2303 1025 2472 
z
M 1206 3356 
Q 1206 3094 1354 2947 
Q 1503 2800 1750 2800 
Q 2000 2800 2150 2948 
Q 2300 3097 2300 3359 
Q 2300 3606 2151 3754 
Q 2003 3903 1759 3903 
Q 1506 3903 1356 3753 
Q 1206 3603 1206 3356 
z
M 1125 1394 
Q 1125 1031 1311 828 
Q 1497 625 1775 625 
Q 2047 625 2225 820 
Q 2403 1016 2403 1384 
Q 2403 1706 2222 1901 
Q 2041 2097 1763 2097 
Q 1441 2097 1283 1875 
Q 1125 1653 1125 1394 
z
" transform="scale(0.015625)"/>
     </defs>
     <use xlink:href="#Arial-BoldMT-30"/>
     <use xlink:href="#Arial-BoldMT-2e" transform="translate(55.615234 0)"/>
     <use xlink:href="#Arial-BoldMT-33" transform="translate(83.398438 0)"/>
     <use xlink:href="#Arial-BoldMT-38" transform="translate(139.013672 0)"/>
     <use xlink:href="#Arial-BoldMT-31" transform="translate(194.628906 0)"/>
    </g>
   </g>
   <g id="text_28">
    <!-- 0.411 -->
    <g transform="translate(324.141885 265.960626) scale(0.14 -0.14)">
     <use xlink:href="#Arial-BoldMT-30"/>
     <use xlink:href="#Arial-BoldMT-2e" transform="translate(55.615234 0)"/>
     <use xlink:href="#Arial-BoldMT-34" transform="translate(83.398438 0)"/>
     <use xlink:href="#Arial-BoldMT-31" transform="translate(139.013672 0)"/>
     <use xlink:href="#Arial-BoldMT-31" transform="translate(189.128906 0)"/>
    </g>
   </g>
   <g id="text_29">
    <!-- 0.396 -->
    <g transform="translate(387.565286 284.205301) scale(0.14 -0.14)">
     <defs>
      <path id="Arial-BoldMT-39" d="M 291 1059 
L 1141 1153 
Q 1172 894 1303 769 
Q 1434 644 1650 644 
Q 1922 644 2112 894 
Q 2303 1144 2356 1931 
Q 2025 1547 1528 1547 
Q 988 1547 595 1964 
Q 203 2381 203 3050 
Q 203 3747 617 4173 
Q 1031 4600 1672 4600 
Q 2369 4600 2816 4061 
Q 3263 3522 3263 2288 
Q 3263 1031 2797 475 
Q 2331 -81 1584 -81 
Q 1047 -81 715 205 
Q 384 491 291 1059 
z
M 2278 2978 
Q 2278 3403 2083 3637 
Q 1888 3872 1631 3872 
Q 1388 3872 1227 3680 
Q 1066 3488 1066 3050 
Q 1066 2606 1241 2398 
Q 1416 2191 1678 2191 
Q 1931 2191 2104 2391 
Q 2278 2591 2278 2978 
z
" transform="scale(0.015625)"/>
     </defs>
     <use xlink:href="#Arial-BoldMT-30"/>
     <use xlink:href="#Arial-BoldMT-2e" transform="translate(55.615234 0)"/>
     <use xlink:href="#Arial-BoldMT-33" transform="translate(83.398438 0)"/>
     <use xlink:href="#Arial-BoldMT-39" transform="translate(139.013672 0)"/>
     <use xlink:href="#Arial-BoldMT-36" transform="translate(194.628906 0)"/>
    </g>
   </g>
   <g id="text_30">
    <!-- 0.477 -->
    <g transform="translate(451.373686 186.900368) scale(0.14 -0.14)">
     <defs>
      <path id="Arial-BoldMT-37" d="M 272 3703 
L 272 4519 
L 3275 4519 
L 3275 3881 
Q 2903 3516 2518 2831 
Q 2134 2147 1932 1376 
Q 1731 606 1734 0 
L 888 0 
Q 909 950 1279 1937 
Q 1650 2925 2269 3703 
L 272 3703 
z
" transform="scale(0.015625)"/>
     </defs>
     <use xlink:href="#Arial-BoldMT-30"/>
     <use xlink:href="#Arial-BoldMT-2e" transform="translate(55.615234 0)"/>
     <use xlink:href="#Arial-BoldMT-34" transform="translate(83.398438 0)"/>
     <use xlink:href="#Arial-BoldMT-37" transform="translate(139.013672 0)"/>
     <use xlink:href="#Arial-BoldMT-37" transform="translate(194.628906 0)"/>
    </g>
   </g>
   <g id="text_31">
    <!-- 0.416 -->
    <g transform="translate(515.182087 259.879068) scale(0.14 -0.14)">
     <use xlink:href="#Arial-BoldMT-30"/>
     <use xlink:href="#Arial-BoldMT-2e" transform="translate(55.615234 0)"/>
     <use xlink:href="#Arial-BoldMT-34" transform="translate(83.398438 0)"/>
     <use xlink:href="#Arial-BoldMT-31" transform="translate(139.013672 0)"/>
     <use xlink:href="#Arial-BoldMT-36" transform="translate(194.628906 0)"/>
    </g>
   </g>
   <g id="text_32">
    <!-- 0.365 -->
    <g transform="translate(578.990487 320.694652) scale(0.14 -0.14)">
     <defs>
      <path id="Arial-BoldMT-35" d="M 284 1178 
L 1159 1269 
Q 1197 972 1381 798 
Q 1566 625 1806 625 
Q 2081 625 2272 848 
Q 2463 1072 2463 1522 
Q 2463 1944 2273 2155 
Q 2084 2366 1781 2366 
Q 1403 2366 1103 2031 
L 391 2134 
L 841 4519 
L 3163 4519 
L 3163 3697 
L 1506 3697 
L 1369 2919 
Q 1663 3066 1969 3066 
Q 2553 3066 2959 2641 
Q 3366 2216 3366 1538 
Q 3366 972 3038 528 
Q 2591 -78 1797 -78 
Q 1163 -78 763 262 
Q 363 603 284 1178 
z
" transform="scale(0.015625)"/>
     </defs>
     <use xlink:href="#Arial-BoldMT-30"/>
     <use xlink:href="#Arial-BoldMT-2e" transform="translate(55.615234 0)"/>
     <use xlink:href="#Arial-BoldMT-33" transform="translate(83.398438 0)"/>
     <use xlink:href="#Arial-BoldMT-36" transform="translate(139.013672 0)"/>
     <use xlink:href="#Arial-BoldMT-35" transform="translate(194.628906 0)"/>
    </g>
   </g>
   <g id="text_33">
    <!-- 0.386 -->
    <g transform="translate(642.798888 296.368418) scale(0.14 -0.14)">
     <use xlink:href="#Arial-BoldMT-30"/>
     <use xlink:href="#Arial-BoldMT-2e" transform="translate(55.615234 0)"/>
     <use xlink:href="#Arial-BoldMT-33" transform="translate(83.398438 0)"/>
     <use xlink:href="#Arial-BoldMT-38" transform="translate(139.013672 0)"/>
     <use xlink:href="#Arial-BoldMT-36" transform="translate(194.628906 0)"/>
    </g>
   </g>
   <g id="text_34">
    <!-- 0.365 -->
    <g transform="translate(706.607288 320.694652) scale(0.14 -0.14)">
     <use xlink:href="#Arial-BoldMT-30"/>
     <use xlink:href="#Arial-BoldMT-2e" transform="translate(55.615234 0)"/>
     <use xlink:href="#Arial-BoldMT-33" transform="translate(83.398438 0)"/>
     <use xlink:href="#Arial-BoldMT-36" transform="translate(139.013672 0)"/>
     <use xlink:href="#Arial-BoldMT-35" transform="translate(194.628906 0)"/>
    </g>
   </g>
   <g id="text_35">
    <!-- 0.376 -->
    <g transform="translate(770.415689 308.531535) scale(0.14 -0.14)">
     <use xlink:href="#Arial-BoldMT-30"/>
     <use xlink:href="#Arial-BoldMT-2e" transform="translate(55.615234 0)"/>
     <use xlink:href="#Arial-BoldMT-33" transform="translate(83.398438 0)"/>
     <use xlink:href="#Arial-BoldMT-37" transform="translate(139.013672 0)"/>
     <use xlink:href="#Arial-BoldMT-36" transform="translate(194.628906 0)"/>
    </g>
   </g>
   <g id="text_36">
    <!-- 0.381 -->
    <g transform="translate(834.224089 302.449977) scale(0.14 -0.14)">
     <use xlink:href="#Arial-BoldMT-30"/>
     <use xlink:href="#Arial-BoldMT-2e" transform="translate(55.615234 0)"/>
     <use xlink:href="#Arial-BoldMT-33" transform="translate(83.398438 0)"/>
     <use xlink:href="#Arial-BoldMT-38" transform="translate(139.013672 0)"/>
     <use xlink:href="#Arial-BoldMT-31" transform="translate(194.628906 0)"/>
    </g>
   </g>
   <g id="text_37">
    <!-- 0.478 -->
    <g transform="translate(898.03249 186.292212) scale(0.14 -0.14)">
     <use xlink:href="#Arial-BoldMT-30"/>
     <use xlink:href="#Arial-BoldMT-2e" transform="translate(55.615234 0)"/>
     <use xlink:href="#Arial-BoldMT-34" transform="translate(83.398438 0)"/>
     <use xlink:href="#Arial-BoldMT-37" transform="translate(139.013672 0)"/>
     <use xlink:href="#Arial-BoldMT-38" transform="translate(194.628906 0)"/>
    </g>
   </g>
   <g id="text_38">
    <!-- 0.411 -->
    <g transform="translate(962.22589 265.960626) scale(0.14 -0.14)">
     <use xlink:href="#Arial-BoldMT-30"/>
     <use xlink:href="#Arial-BoldMT-2e" transform="translate(55.615234 0)"/>
     <use xlink:href="#Arial-BoldMT-34" transform="translate(83.398438 0)"/>
     <use xlink:href="#Arial-BoldMT-31" transform="translate(139.013672 0)"/>
     <use xlink:href="#Arial-BoldMT-31" transform="translate(189.128906 0)"/>
    </g>
   </g>
   <g id="text_39">
    <!-- 0.411 -->
    <g transform="translate(1026.03429 265.960626) scale(0.14 -0.14)">
     <use xlink:href="#Arial-BoldMT-30"/>
     <use xlink:href="#Arial-BoldMT-2e" transform="translate(55.615234 0)"/>
     <use xlink:href="#Arial-BoldMT-34" transform="translate(83.398438 0)"/>
     <use xlink:href="#Arial-BoldMT-31" transform="translate(139.013672 0)"/>
     <use xlink:href="#Arial-BoldMT-31" transform="translate(189.128906 0)"/>
    </g>
   </g>
   <g id="text_40">
    <!-- 0.365 -->
    <g transform="translate(1089.457691 320.694652) scale(0.14 -0.14)">
     <use xlink:href="#Arial-BoldMT-30"/>
     <use xlink:href="#Arial-BoldMT-2e" transform="translate(55.615234 0)"/>
     <use xlink:href="#Arial-BoldMT-33" transform="translate(83.398438 0)"/>
     <use xlink:href="#Arial-BoldMT-36" transform="translate(139.013672 0)"/>
     <use xlink:href="#Arial-BoldMT-35" transform="translate(194.628906 0)"/>
    </g>
   </g>
   <g id="text_41">
    <!-- ACC Performance -->
    <g transform="translate(508.598438 79.2) scale(0.28 -0.28)">
     <defs>
      <path id="Arial-BoldMT-41" d="M 4597 0 
L 3591 0 
L 3191 1041 
L 1359 1041 
L 981 0 
L 0 0 
L 1784 4581 
L 2763 4581 
L 4597 0 
z
M 2894 1813 
L 2263 3513 
L 1644 1813 
L 2894 1813 
z
" transform="scale(0.015625)"/>
      <path id="Arial-BoldMT-43" d="M 3397 1684 
L 4294 1400 
Q 4088 650 3608 286 
Q 3128 -78 2391 -78 
Q 1478 -78 890 545 
Q 303 1169 303 2250 
Q 303 3394 893 4026 
Q 1484 4659 2447 4659 
Q 3288 4659 3813 4163 
Q 4125 3869 4281 3319 
L 3366 3100 
Q 3284 3456 3026 3662 
Q 2769 3869 2400 3869 
Q 1891 3869 1573 3503 
Q 1256 3138 1256 2319 
Q 1256 1450 1568 1081 
Q 1881 713 2381 713 
Q 2750 713 3015 947 
Q 3281 1181 3397 1684 
z
" transform="scale(0.015625)"/>
      <path id="Arial-BoldMT-50" d="M 466 0 
L 466 4581 
L 1950 4581 
Q 2794 4581 3050 4513 
Q 3444 4409 3709 4064 
Q 3975 3719 3975 3172 
Q 3975 2750 3822 2462 
Q 3669 2175 3433 2011 
Q 3197 1847 2953 1794 
Q 2622 1728 1994 1728 
L 1391 1728 
L 1391 0 
L 466 0 
z
M 1391 3806 
L 1391 2506 
L 1897 2506 
Q 2444 2506 2628 2578 
Q 2813 2650 2917 2803 
Q 3022 2956 3022 3159 
Q 3022 3409 2875 3571 
Q 2728 3734 2503 3775 
Q 2338 3806 1838 3806 
L 1391 3806 
z
" transform="scale(0.015625)"/>
      <path id="Arial-BoldMT-66" d="M 75 3319 
L 563 3319 
L 563 3569 
Q 563 3988 652 4194 
Q 741 4400 980 4529 
Q 1219 4659 1584 4659 
Q 1959 4659 2319 4547 
L 2200 3934 
Q 1991 3984 1797 3984 
Q 1606 3984 1523 3895 
Q 1441 3806 1441 3553 
L 1441 3319 
L 2097 3319 
L 2097 2628 
L 1441 2628 
L 1441 0 
L 563 0 
L 563 2628 
L 75 2628 
L 75 3319 
z
" transform="scale(0.015625)"/>
      <path id="Arial-BoldMT-6d" d="M 394 3319 
L 1203 3319 
L 1203 2866 
Q 1638 3394 2238 3394 
Q 2556 3394 2790 3262 
Q 3025 3131 3175 2866 
Q 3394 3131 3647 3262 
Q 3900 3394 4188 3394 
Q 4553 3394 4806 3245 
Q 5059 3097 5184 2809 
Q 5275 2597 5275 2122 
L 5275 0 
L 4397 0 
L 4397 1897 
Q 4397 2391 4306 2534 
Q 4184 2722 3931 2722 
Q 3747 2722 3584 2609 
Q 3422 2497 3350 2280 
Q 3278 2063 3278 1594 
L 3278 0 
L 2400 0 
L 2400 1819 
Q 2400 2303 2353 2443 
Q 2306 2584 2207 2653 
Q 2109 2722 1941 2722 
Q 1738 2722 1575 2612 
Q 1413 2503 1342 2297 
Q 1272 2091 1272 1613 
L 1272 0 
L 394 0 
L 394 3319 
z
" transform="scale(0.015625)"/>
     </defs>
     <use xlink:href="#Arial-BoldMT-41"/>
     <use xlink:href="#Arial-BoldMT-43" transform="translate(72.216797 0)"/>
     <use xlink:href="#Arial-BoldMT-43" transform="translate(144.433594 0)"/>
     <use xlink:href="#Arial-BoldMT-20" transform="translate(216.650391 0)"/>
     <use xlink:href="#Arial-BoldMT-50" transform="translate(244.433594 0)"/>
     <use xlink:href="#Arial-BoldMT-65" transform="translate(311.132812 0)"/>
     <use xlink:href="#Arial-BoldMT-72" transform="translate(366.748047 0)"/>
     <use xlink:href="#Arial-BoldMT-66" transform="translate(405.664062 0)"/>
     <use xlink:href="#Arial-BoldMT-6f" transform="translate(438.964844 0)"/>
     <use xlink:href="#Arial-BoldMT-72" transform="translate(500.048828 0)"/>
     <use xlink:href="#Arial-BoldMT-6d" transform="translate(538.964844 0)"/>
     <use xlink:href="#Arial-BoldMT-61" transform="translate(627.880859 0)"/>
     <use xlink:href="#Arial-BoldMT-6e" transform="translate(683.496094 0)"/>
     <use xlink:href="#Arial-BoldMT-63" transform="translate(744.580078 0)"/>
     <use xlink:href="#Arial-BoldMT-65" transform="translate(800.195312 0)"/>
    </g>
   </g>
  </g>
  <g id="axes_2">
   <g id="patch_21">
    <path d="M 1260.835 767.32 
L 2369.825 767.32 
L 2369.825 99.2 
L 1260.835 99.2 
z
" style="fill: #ffffff"/>
   </g>
   <g id="patch_22">
    <path d="M 1311.243636 767.32 
L 1362.290357 767.32 
L 1362.290357 207.841249 
L 1311.243636 207.841249 
z
" clip-path="url(#pa038efb3a5)" style="fill: #440154; opacity: 0.9"/>
   </g>
   <g id="patch_23">
    <path d="M 1375.052037 767.32 
L 1426.098757 767.32 
L 1426.098757 218.095348 
L 1375.052037 218.095348 
z
" clip-path="url(#pa038efb3a5)" style="fill: #481a6c; opacity: 0.9"/>
   </g>
   <g id="patch_24">
    <path d="M 1438.860437 767.32 
L 1489.907158 767.32 
L 1489.907158 248.696191 
L 1438.860437 248.696191 
z
" clip-path="url(#pa038efb3a5)" style="fill: #472f7d; opacity: 0.9"/>
   </g>
   <g id="patch_25">
    <path d="M 1502.668838 767.32 
L 1553.715558 767.32 
L 1553.715558 261.848782 
L 1502.668838 261.848782 
z
" clip-path="url(#pa038efb3a5)" style="fill: #414487; opacity: 0.9"/>
   </g>
   <g id="patch_26">
    <path d="M 1566.477238 767.32 
L 1617.523959 767.32 
L 1617.523959 189.614442 
L 1566.477238 189.614442 
z
" clip-path="url(#pa038efb3a5)" style="fill: #39568c; opacity: 0.9"/>
   </g>
   <g id="patch_27">
    <path d="M 1630.285639 767.32 
L 1681.332359 767.32 
L 1681.332359 205.441007 
L 1630.285639 205.441007 
z
" clip-path="url(#pa038efb3a5)" style="fill: #31688e; opacity: 0.9"/>
   </g>
   <g id="patch_28">
    <path d="M 1694.094039 767.32 
L 1745.140759 767.32 
L 1745.140759 188.803055 
L 1694.094039 188.803055 
z
" clip-path="url(#pa038efb3a5)" style="fill: #2a788e; opacity: 0.9"/>
   </g>
   <g id="patch_29">
    <path d="M 1757.90244 767.32 
L 1808.94916 767.32 
L 1808.94916 301.037554 
L 1757.90244 301.037554 
z
" clip-path="url(#pa038efb3a5)" style="fill: #23888e; opacity: 0.9"/>
   </g>
   <g id="patch_30">
    <path d="M 1821.71084 767.32 
L 1872.75756 767.32 
L 1872.75756 227.10914 
L 1821.71084 227.10914 
z
" clip-path="url(#pa038efb3a5)" style="fill: #1f988b; opacity: 0.9"/>
   </g>
   <g id="patch_31">
    <path d="M 1885.519241 767.32 
L 1936.565961 767.32 
L 1936.565961 277.817075 
L 1885.519241 277.817075 
z
" clip-path="url(#pa038efb3a5)" style="fill: #22a884; opacity: 0.9"/>
   </g>
   <g id="patch_32">
    <path d="M 1949.327641 767.32 
L 2000.374361 767.32 
L 2000.374361 248.996395 
L 1949.327641 248.996395 
z
" clip-path="url(#pa038efb3a5)" style="fill: #35b779; opacity: 0.9"/>
   </g>
   <g id="patch_33">
    <path d="M 2013.136041 767.32 
L 2064.182762 767.32 
L 2064.182762 241.634639 
L 2013.136041 241.634639 
z
" clip-path="url(#pa038efb3a5)" style="fill: #54c568; opacity: 0.9"/>
   </g>
   <g id="patch_34">
    <path d="M 2076.944442 767.32 
L 2127.991162 767.32 
L 2127.991162 165.824679 
L 2076.944442 165.824679 
z
" clip-path="url(#pa038efb3a5)" style="fill: #7ad151; opacity: 0.9"/>
   </g>
   <g id="patch_35">
    <path d="M 2140.752842 767.32 
L 2191.799563 767.32 
L 2191.799563 217.284541 
L 2140.752842 217.284541 
z
" clip-path="url(#pa038efb3a5)" style="fill: #a5db36; opacity: 0.9"/>
   </g>
   <g id="patch_36">
    <path d="M 2204.561243 767.32 
L 2255.607963 767.32 
L 2255.607963 190.785454 
L 2204.561243 190.785454 
z
" clip-path="url(#pa038efb3a5)" style="fill: #d2e21b; opacity: 0.9"/>
   </g>
   <g id="patch_37">
    <path d="M 2268.369643 767.32 
L 2319.416364 767.32 
L 2319.416364 299.181963 
L 2268.369643 299.181963 
z
" clip-path="url(#pa038efb3a5)" style="fill: #fde725; opacity: 0.9"/>
   </g>
   <g id="matplotlib.axis_3">
    <g id="xtick_17">
     <g id="line2d_23">
      <g>
       <use xlink:href="#m2cc142178c" x="1336.766997" y="767.32" style="stroke: #000000; stroke-width: 0.8"/>
      </g>
     </g>
     <g id="text_42">
      <!-- M1 -->
      <g transform="translate(1324.265434 787.204062) scale(0.18 -0.18)">
       <use xlink:href="#ArialMT-4d"/>
       <use xlink:href="#ArialMT-31" transform="translate(83.300781 0)"/>
      </g>
     </g>
    </g>
    <g id="xtick_18">
     <g id="line2d_24">
      <g>
       <use xlink:href="#m2cc142178c" x="1400.575397" y="767.32" style="stroke: #000000; stroke-width: 0.8"/>
      </g>
     </g>
     <g id="text_43">
      <!-- M2 -->
      <g transform="translate(1388.073835 787.204062) scale(0.18 -0.18)">
       <use xlink:href="#ArialMT-4d"/>
       <use xlink:href="#ArialMT-32" transform="translate(83.300781 0)"/>
      </g>
     </g>
    </g>
    <g id="xtick_19">
     <g id="line2d_25">
      <g>
       <use xlink:href="#m2cc142178c" x="1464.383797" y="767.32" style="stroke: #000000; stroke-width: 0.8"/>
      </g>
     </g>
     <g id="text_44">
      <!-- M3 -->
      <g transform="translate(1451.882235 787.204062) scale(0.18 -0.18)">
       <use xlink:href="#ArialMT-4d"/>
       <use xlink:href="#ArialMT-33" transform="translate(83.300781 0)"/>
      </g>
     </g>
    </g>
    <g id="xtick_20">
     <g id="line2d_26">
      <g>
       <use xlink:href="#m2cc142178c" x="1528.192198" y="767.32" style="stroke: #000000; stroke-width: 0.8"/>
      </g>
     </g>
     <g id="text_45">
      <!-- M4 -->
      <g transform="translate(1515.690635 787.204062) scale(0.18 -0.18)">
       <use xlink:href="#ArialMT-4d"/>
       <use xlink:href="#ArialMT-34" transform="translate(83.300781 0)"/>
      </g>
     </g>
    </g>
    <g id="xtick_21">
     <g id="line2d_27">
      <g>
       <use xlink:href="#m2cc142178c" x="1592.000598" y="767.32" style="stroke: #000000; stroke-width: 0.8"/>
      </g>
     </g>
     <g id="text_46">
      <!-- M5 -->
      <g transform="translate(1579.499036 787.204062) scale(0.18 -0.18)">
       <use xlink:href="#ArialMT-4d"/>
       <use xlink:href="#ArialMT-35" transform="translate(83.300781 0)"/>
      </g>
     </g>
    </g>
    <g id="xtick_22">
     <g id="line2d_28">
      <g>
       <use xlink:href="#m2cc142178c" x="1655.808999" y="767.32" style="stroke: #000000; stroke-width: 0.8"/>
      </g>
     </g>
     <g id="text_47">
      <!-- M6 -->
      <g transform="translate(1643.307436 787.204062) scale(0.18 -0.18)">
       <use xlink:href="#ArialMT-4d"/>
       <use xlink:href="#ArialMT-36" transform="translate(83.300781 0)"/>
      </g>
     </g>
    </g>
    <g id="xtick_23">
     <g id="line2d_29">
      <g>
       <use xlink:href="#m2cc142178c" x="1719.617399" y="767.32" style="stroke: #000000; stroke-width: 0.8"/>
      </g>
     </g>
     <g id="text_48">
      <!-- M7 -->
      <g transform="translate(1707.115837 787.204062) scale(0.18 -0.18)">
       <use xlink:href="#ArialMT-4d"/>
       <use xlink:href="#ArialMT-37" transform="translate(83.300781 0)"/>
      </g>
     </g>
    </g>
    <g id="xtick_24">
     <g id="line2d_30">
      <g>
       <use xlink:href="#m2cc142178c" x="1783.4258" y="767.32" style="stroke: #000000; stroke-width: 0.8"/>
      </g>
     </g>
     <g id="text_49">
      <!-- M8 -->
      <g transform="translate(1770.924237 787.204062) scale(0.18 -0.18)">
       <use xlink:href="#ArialMT-4d"/>
       <use xlink:href="#ArialMT-38" transform="translate(83.300781 0)"/>
      </g>
     </g>
    </g>
    <g id="xtick_25">
     <g id="line2d_31">
      <g>
       <use xlink:href="#m2cc142178c" x="1847.2342" y="767.32" style="stroke: #000000; stroke-width: 0.8"/>
      </g>
     </g>
     <g id="text_50">
      <!-- M9 -->
      <g transform="translate(1834.732638 787.204062) scale(0.18 -0.18)">
       <use xlink:href="#ArialMT-4d"/>
       <use xlink:href="#ArialMT-39" transform="translate(83.300781 0)"/>
      </g>
     </g>
    </g>
    <g id="xtick_26">
     <g id="line2d_32">
      <g>
       <use xlink:href="#m2cc142178c" x="1911.042601" y="767.32" style="stroke: #000000; stroke-width: 0.8"/>
      </g>
     </g>
     <g id="text_51">
      <!-- M10 -->
      <g transform="translate(1893.536194 787.204062) scale(0.18 -0.18)">
       <use xlink:href="#ArialMT-4d"/>
       <use xlink:href="#ArialMT-31" transform="translate(83.300781 0)"/>
       <use xlink:href="#ArialMT-30" transform="translate(138.916016 0)"/>
      </g>
     </g>
    </g>
    <g id="xtick_27">
     <g id="line2d_33">
      <g>
       <use xlink:href="#m2cc142178c" x="1974.851001" y="767.32" style="stroke: #000000; stroke-width: 0.8"/>
      </g>
     </g>
     <g id="text_52">
      <!-- M11 -->
      <g transform="translate(1958.008345 787.204062) scale(0.18 -0.18)">
       <use xlink:href="#ArialMT-4d"/>
       <use xlink:href="#ArialMT-31" transform="translate(83.300781 0)"/>
       <use xlink:href="#ArialMT-31" transform="translate(131.541016 0)"/>
      </g>
     </g>
    </g>
    <g id="xtick_28">
     <g id="line2d_34">
      <g>
       <use xlink:href="#m2cc142178c" x="2038.659402" y="767.32" style="stroke: #000000; stroke-width: 0.8"/>
      </g>
     </g>
     <g id="text_53">
      <!-- M12 -->
      <g transform="translate(2021.152995 787.204062) scale(0.18 -0.18)">
       <use xlink:href="#ArialMT-4d"/>
       <use xlink:href="#ArialMT-31" transform="translate(83.300781 0)"/>
       <use xlink:href="#ArialMT-32" transform="translate(138.916016 0)"/>
      </g>
     </g>
    </g>
    <g id="xtick_29">
     <g id="line2d_35">
      <g>
       <use xlink:href="#m2cc142178c" x="2102.467802" y="767.32" style="stroke: #000000; stroke-width: 0.8"/>
      </g>
     </g>
     <g id="text_54">
      <!-- M13 -->
      <g transform="translate(2084.961396 787.204062) scale(0.18 -0.18)">
       <use xlink:href="#ArialMT-4d"/>
       <use xlink:href="#ArialMT-31" transform="translate(83.300781 0)"/>
       <use xlink:href="#ArialMT-33" transform="translate(138.916016 0)"/>
      </g>
     </g>
    </g>
    <g id="xtick_30">
     <g id="line2d_36">
      <g>
       <use xlink:href="#m2cc142178c" x="2166.276203" y="767.32" style="stroke: #000000; stroke-width: 0.8"/>
      </g>
     </g>
     <g id="text_55">
      <!-- M14 -->
      <g transform="translate(2148.769796 787.204062) scale(0.18 -0.18)">
       <use xlink:href="#ArialMT-4d"/>
       <use xlink:href="#ArialMT-31" transform="translate(83.300781 0)"/>
       <use xlink:href="#ArialMT-34" transform="translate(138.916016 0)"/>
      </g>
     </g>
    </g>
    <g id="xtick_31">
     <g id="line2d_37">
      <g>
       <use xlink:href="#m2cc142178c" x="2230.084603" y="767.32" style="stroke: #000000; stroke-width: 0.8"/>
      </g>
     </g>
     <g id="text_56">
      <!-- M15 -->
      <g transform="translate(2212.578197 787.204062) scale(0.18 -0.18)">
       <use xlink:href="#ArialMT-4d"/>
       <use xlink:href="#ArialMT-31" transform="translate(83.300781 0)"/>
       <use xlink:href="#ArialMT-35" transform="translate(138.916016 0)"/>
      </g>
     </g>
    </g>
    <g id="xtick_32">
     <g id="line2d_38">
      <g>
       <use xlink:href="#m2cc142178c" x="2293.893003" y="767.32" style="stroke: #000000; stroke-width: 0.8"/>
      </g>
     </g>
     <g id="text_57">
      <!-- M16 -->
      <g transform="translate(2276.386597 787.204062) scale(0.18 -0.18)">
       <use xlink:href="#ArialMT-4d"/>
       <use xlink:href="#ArialMT-31" transform="translate(83.300781 0)"/>
       <use xlink:href="#ArialMT-36" transform="translate(138.916016 0)"/>
      </g>
     </g>
    </g>
    <g id="text_58">
     <!-- Modal Index -->
     <g transform="translate(1745.99625 811.960312) scale(0.24 -0.24)">
      <use xlink:href="#Arial-BoldMT-4d"/>
      <use xlink:href="#Arial-BoldMT-6f" transform="translate(83.300781 0)"/>
      <use xlink:href="#Arial-BoldMT-64" transform="translate(144.384766 0)"/>
      <use xlink:href="#Arial-BoldMT-61" transform="translate(205.46875 0)"/>
      <use xlink:href="#Arial-BoldMT-6c" transform="translate(261.083984 0)"/>
      <use xlink:href="#Arial-BoldMT-20" transform="translate(288.867188 0)"/>
      <use xlink:href="#Arial-BoldMT-49" transform="translate(316.650391 0)"/>
      <use xlink:href="#Arial-BoldMT-6e" transform="translate(344.433594 0)"/>
      <use xlink:href="#Arial-BoldMT-64" transform="translate(405.517578 0)"/>
      <use xlink:href="#Arial-BoldMT-65" transform="translate(466.601562 0)"/>
      <use xlink:href="#Arial-BoldMT-78" transform="translate(522.216797 0)"/>
     </g>
    </g>
   </g>
   <g id="matplotlib.axis_4">
    <g id="ytick_7">
     <g id="line2d_39">
      <g>
       <use xlink:href="#mca3890261a" x="1260.835" y="767.32" style="stroke: #000000; stroke-width: 0.8"/>
      </g>
     </g>
     <g id="text_59">
      <!-- 0.0 -->
      <g transform="translate(1226.035 774.477812) scale(0.2 -0.2)">
       <use xlink:href="#ArialMT-30"/>
       <use xlink:href="#ArialMT-2e" transform="translate(55.615234 0)"/>
       <use xlink:href="#ArialMT-30" transform="translate(83.398438 0)"/>
      </g>
     </g>
    </g>
    <g id="ytick_8">
     <g id="line2d_40">
      <g>
       <use xlink:href="#mca3890261a" x="1260.835" y="684.039151" style="stroke: #000000; stroke-width: 0.8"/>
      </g>
     </g>
     <g id="text_60">
      <!-- 0.1 -->
      <g transform="translate(1226.035 691.196964) scale(0.2 -0.2)">
       <use xlink:href="#ArialMT-30"/>
       <use xlink:href="#ArialMT-2e" transform="translate(55.615234 0)"/>
       <use xlink:href="#ArialMT-31" transform="translate(83.398438 0)"/>
      </g>
     </g>
    </g>
    <g id="ytick_9">
     <g id="line2d_41">
      <g>
       <use xlink:href="#mca3890261a" x="1260.835" y="600.758302" style="stroke: #000000; stroke-width: 0.8"/>
      </g>
     </g>
     <g id="text_61">
      <!-- 0.2 -->
      <g transform="translate(1226.035 607.916115) scale(0.2 -0.2)">
       <use xlink:href="#ArialMT-30"/>
       <use xlink:href="#ArialMT-2e" transform="translate(55.615234 0)"/>
       <use xlink:href="#ArialMT-32" transform="translate(83.398438 0)"/>
      </g>
     </g>
    </g>
    <g id="ytick_10">
     <g id="line2d_42">
      <g>
       <use xlink:href="#mca3890261a" x="1260.835" y="517.477454" style="stroke: #000000; stroke-width: 0.8"/>
      </g>
     </g>
     <g id="text_62">
      <!-- 0.3 -->
      <g transform="translate(1226.035 524.635266) scale(0.2 -0.2)">
       <use xlink:href="#ArialMT-30"/>
       <use xlink:href="#ArialMT-2e" transform="translate(55.615234 0)"/>
       <use xlink:href="#ArialMT-33" transform="translate(83.398438 0)"/>
      </g>
     </g>
    </g>
    <g id="ytick_11">
     <g id="line2d_43">
      <g>
       <use xlink:href="#mca3890261a" x="1260.835" y="434.196605" style="stroke: #000000; stroke-width: 0.8"/>
      </g>
     </g>
     <g id="text_63">
      <!-- 0.4 -->
      <g transform="translate(1226.035 441.354417) scale(0.2 -0.2)">
       <use xlink:href="#ArialMT-30"/>
       <use xlink:href="#ArialMT-2e" transform="translate(55.615234 0)"/>
       <use xlink:href="#ArialMT-34" transform="translate(83.398438 0)"/>
      </g>
     </g>
    </g>
    <g id="ytick_12">
     <g id="line2d_44">
      <g>
       <use xlink:href="#mca3890261a" x="1260.835" y="350.915756" style="stroke: #000000; stroke-width: 0.8"/>
      </g>
     </g>
     <g id="text_64">
      <!-- 0.5 -->
      <g transform="translate(1226.035 358.073569) scale(0.2 -0.2)">
       <use xlink:href="#ArialMT-30"/>
       <use xlink:href="#ArialMT-2e" transform="translate(55.615234 0)"/>
       <use xlink:href="#ArialMT-35" transform="translate(83.398438 0)"/>
      </g>
     </g>
    </g>
    <g id="ytick_13">
     <g id="line2d_45">
      <g>
       <use xlink:href="#mca3890261a" x="1260.835" y="267.634907" style="stroke: #000000; stroke-width: 0.8"/>
      </g>
     </g>
     <g id="text_65">
      <!-- 0.6 -->
      <g transform="translate(1226.035 274.79272) scale(0.2 -0.2)">
       <use xlink:href="#ArialMT-30"/>
       <use xlink:href="#ArialMT-2e" transform="translate(55.615234 0)"/>
       <use xlink:href="#ArialMT-36" transform="translate(83.398438 0)"/>
      </g>
     </g>
    </g>
    <g id="ytick_14">
     <g id="line2d_46">
      <g>
       <use xlink:href="#mca3890261a" x="1260.835" y="184.354059" style="stroke: #000000; stroke-width: 0.8"/>
      </g>
     </g>
     <g id="text_66">
      <!-- 0.7 -->
      <g transform="translate(1226.035 191.511871) scale(0.2 -0.2)">
       <use xlink:href="#ArialMT-30"/>
       <use xlink:href="#ArialMT-2e" transform="translate(55.615234 0)"/>
       <use xlink:href="#ArialMT-37" transform="translate(83.398438 0)"/>
      </g>
     </g>
    </g>
    <g id="ytick_15">
     <g id="line2d_47">
      <g>
       <use xlink:href="#mca3890261a" x="1260.835" y="101.07321" style="stroke: #000000; stroke-width: 0.8"/>
      </g>
     </g>
     <g id="text_67">
      <!-- 0.8 -->
      <g transform="translate(1226.035 108.231022) scale(0.2 -0.2)">
       <use xlink:href="#ArialMT-30"/>
       <use xlink:href="#ArialMT-2e" transform="translate(55.615234 0)"/>
       <use xlink:href="#ArialMT-38" transform="translate(83.398438 0)"/>
      </g>
     </g>
    </g>
    <g id="text_68">
     <!-- Score -->
     <g transform="translate(1211.29875 466.610625) rotate(-90) scale(0.24 -0.24)">
      <use xlink:href="#Arial-BoldMT-53"/>
      <use xlink:href="#Arial-BoldMT-63" transform="translate(66.699219 0)"/>
      <use xlink:href="#Arial-BoldMT-6f" transform="translate(122.314453 0)"/>
      <use xlink:href="#Arial-BoldMT-72" transform="translate(183.398438 0)"/>
      <use xlink:href="#Arial-BoldMT-65" transform="translate(222.314453 0)"/>
     </g>
    </g>
   </g>
   <g id="patch_38">
    <path d="M 1260.835 767.32 
L 1260.835 99.2 
" style="fill: none; stroke: #000000; stroke-width: 0.8; stroke-linejoin: miter; stroke-linecap: square"/>
   </g>
   <g id="patch_39">
    <path d="M 1260.835 767.32 
L 2369.825 767.32 
" style="fill: none; stroke: #000000; stroke-width: 0.8; stroke-linejoin: miter; stroke-linecap: square"/>
   </g>
   <g id="text_69">
    <!-- 0.672 -->
    <g transform="translate(1319.251684 200.914394) scale(0.14 -0.14)">
     <use xlink:href="#Arial-BoldMT-30"/>
     <use xlink:href="#Arial-BoldMT-2e" transform="translate(55.615234 0)"/>
     <use xlink:href="#Arial-BoldMT-36" transform="translate(83.398438 0)"/>
     <use xlink:href="#Arial-BoldMT-37" transform="translate(139.013672 0)"/>
     <use xlink:href="#Arial-BoldMT-32" transform="translate(194.628906 0)"/>
    </g>
   </g>
   <g id="text_70">
    <!-- 0.659 -->
    <g transform="translate(1383.060085 211.168493) scale(0.14 -0.14)">
     <use xlink:href="#Arial-BoldMT-30"/>
     <use xlink:href="#Arial-BoldMT-2e" transform="translate(55.615234 0)"/>
     <use xlink:href="#Arial-BoldMT-36" transform="translate(83.398438 0)"/>
     <use xlink:href="#Arial-BoldMT-35" transform="translate(139.013672 0)"/>
     <use xlink:href="#Arial-BoldMT-39" transform="translate(194.628906 0)"/>
    </g>
   </g>
   <g id="text_71">
    <!-- 0.623 -->
    <g transform="translate(1446.868485 241.769336) scale(0.14 -0.14)">
     <use xlink:href="#Arial-BoldMT-30"/>
     <use xlink:href="#Arial-BoldMT-2e" transform="translate(55.615234 0)"/>
     <use xlink:href="#Arial-BoldMT-36" transform="translate(83.398438 0)"/>
     <use xlink:href="#Arial-BoldMT-32" transform="translate(139.013672 0)"/>
     <use xlink:href="#Arial-BoldMT-33" transform="translate(194.628906 0)"/>
    </g>
   </g>
   <g id="text_72">
    <!-- 0.607 -->
    <g transform="translate(1510.676885 254.921927) scale(0.14 -0.14)">
     <use xlink:href="#Arial-BoldMT-30"/>
     <use xlink:href="#Arial-BoldMT-2e" transform="translate(55.615234 0)"/>
     <use xlink:href="#Arial-BoldMT-36" transform="translate(83.398438 0)"/>
     <use xlink:href="#Arial-BoldMT-30" transform="translate(139.013672 0)"/>
     <use xlink:href="#Arial-BoldMT-37" transform="translate(194.628906 0)"/>
    </g>
   </g>
   <g id="text_73">
    <!-- 0.694 -->
    <g transform="translate(1574.485286 182.687587) scale(0.14 -0.14)">
     <use xlink:href="#Arial-BoldMT-30"/>
     <use xlink:href="#Arial-BoldMT-2e" transform="translate(55.615234 0)"/>
     <use xlink:href="#Arial-BoldMT-36" transform="translate(83.398438 0)"/>
     <use xlink:href="#Arial-BoldMT-39" transform="translate(139.013672 0)"/>
     <use xlink:href="#Arial-BoldMT-34" transform="translate(194.628906 0)"/>
    </g>
   </g>
   <g id="text_74">
    <!-- 0.675 -->
    <g transform="translate(1638.293686 198.514152) scale(0.14 -0.14)">
     <use xlink:href="#Arial-BoldMT-30"/>
     <use xlink:href="#Arial-BoldMT-2e" transform="translate(55.615234 0)"/>
     <use xlink:href="#Arial-BoldMT-36" transform="translate(83.398438 0)"/>
     <use xlink:href="#Arial-BoldMT-37" transform="translate(139.013672 0)"/>
     <use xlink:href="#Arial-BoldMT-35" transform="translate(194.628906 0)"/>
    </g>
   </g>
   <g id="text_75">
    <!-- 0.695 -->
    <g transform="translate(1702.102087 181.8762) scale(0.14 -0.14)">
     <use xlink:href="#Arial-BoldMT-30"/>
     <use xlink:href="#Arial-BoldMT-2e" transform="translate(55.615234 0)"/>
     <use xlink:href="#Arial-BoldMT-36" transform="translate(83.398438 0)"/>
     <use xlink:href="#Arial-BoldMT-39" transform="translate(139.013672 0)"/>
     <use xlink:href="#Arial-BoldMT-35" transform="translate(194.628906 0)"/>
    </g>
   </g>
   <g id="text_76">
    <!-- 0.560 -->
    <g transform="translate(1765.910487 294.110699) scale(0.14 -0.14)">
     <use xlink:href="#Arial-BoldMT-30"/>
     <use xlink:href="#Arial-BoldMT-2e" transform="translate(55.615234 0)"/>
     <use xlink:href="#Arial-BoldMT-35" transform="translate(83.398438 0)"/>
     <use xlink:href="#Arial-BoldMT-36" transform="translate(139.013672 0)"/>
     <use xlink:href="#Arial-BoldMT-30" transform="translate(194.628906 0)"/>
    </g>
   </g>
   <g id="text_77">
    <!-- 0.649 -->
    <g transform="translate(1829.718888 220.182285) scale(0.14 -0.14)">
     <use xlink:href="#Arial-BoldMT-30"/>
     <use xlink:href="#Arial-BoldMT-2e" transform="translate(55.615234 0)"/>
     <use xlink:href="#Arial-BoldMT-36" transform="translate(83.398438 0)"/>
     <use xlink:href="#Arial-BoldMT-34" transform="translate(139.013672 0)"/>
     <use xlink:href="#Arial-BoldMT-39" transform="translate(194.628906 0)"/>
    </g>
   </g>
   <g id="text_78">
    <!-- 0.588 -->
    <g transform="translate(1893.527288 270.89022) scale(0.14 -0.14)">
     <use xlink:href="#Arial-BoldMT-30"/>
     <use xlink:href="#Arial-BoldMT-2e" transform="translate(55.615234 0)"/>
     <use xlink:href="#Arial-BoldMT-35" transform="translate(83.398438 0)"/>
     <use xlink:href="#Arial-BoldMT-38" transform="translate(139.013672 0)"/>
     <use xlink:href="#Arial-BoldMT-38" transform="translate(194.628906 0)"/>
    </g>
   </g>
   <g id="text_79">
    <!-- 0.622 -->
    <g transform="translate(1957.335689 242.06954) scale(0.14 -0.14)">
     <use xlink:href="#Arial-BoldMT-30"/>
     <use xlink:href="#Arial-BoldMT-2e" transform="translate(55.615234 0)"/>
     <use xlink:href="#Arial-BoldMT-36" transform="translate(83.398438 0)"/>
     <use xlink:href="#Arial-BoldMT-32" transform="translate(139.013672 0)"/>
     <use xlink:href="#Arial-BoldMT-32" transform="translate(194.628906 0)"/>
    </g>
   </g>
   <g id="text_80">
    <!-- 0.631 -->
    <g transform="translate(2021.144089 234.707784) scale(0.14 -0.14)">
     <use xlink:href="#Arial-BoldMT-30"/>
     <use xlink:href="#Arial-BoldMT-2e" transform="translate(55.615234 0)"/>
     <use xlink:href="#Arial-BoldMT-36" transform="translate(83.398438 0)"/>
     <use xlink:href="#Arial-BoldMT-33" transform="translate(139.013672 0)"/>
     <use xlink:href="#Arial-BoldMT-31" transform="translate(194.628906 0)"/>
    </g>
   </g>
   <g id="text_81">
    <!-- 0.722 -->
    <g transform="translate(2084.95249 158.897824) scale(0.14 -0.14)">
     <use xlink:href="#Arial-BoldMT-30"/>
     <use xlink:href="#Arial-BoldMT-2e" transform="translate(55.615234 0)"/>
     <use xlink:href="#Arial-BoldMT-37" transform="translate(83.398438 0)"/>
     <use xlink:href="#Arial-BoldMT-32" transform="translate(139.013672 0)"/>
     <use xlink:href="#Arial-BoldMT-32" transform="translate(194.628906 0)"/>
    </g>
   </g>
   <g id="text_82">
    <!-- 0.660 -->
    <g transform="translate(2148.76089 210.357686) scale(0.14 -0.14)">
     <use xlink:href="#Arial-BoldMT-30"/>
     <use xlink:href="#Arial-BoldMT-2e" transform="translate(55.615234 0)"/>
     <use xlink:href="#Arial-BoldMT-36" transform="translate(83.398438 0)"/>
     <use xlink:href="#Arial-BoldMT-36" transform="translate(139.013672 0)"/>
     <use xlink:href="#Arial-BoldMT-30" transform="translate(194.628906 0)"/>
    </g>
   </g>
   <g id="text_83">
    <!-- 0.692 -->
    <g transform="translate(2212.56929 183.858599) scale(0.14 -0.14)">
     <use xlink:href="#Arial-BoldMT-30"/>
     <use xlink:href="#Arial-BoldMT-2e" transform="translate(55.615234 0)"/>
     <use xlink:href="#Arial-BoldMT-36" transform="translate(83.398438 0)"/>
     <use xlink:href="#Arial-BoldMT-39" transform="translate(139.013672 0)"/>
     <use xlink:href="#Arial-BoldMT-32" transform="translate(194.628906 0)"/>
    </g>
   </g>
   <g id="text_84">
    <!-- 0.562 -->
    <g transform="translate(2276.377691 292.255108) scale(0.14 -0.14)">
     <use xlink:href="#Arial-BoldMT-30"/>
     <use xlink:href="#Arial-BoldMT-2e" transform="translate(55.615234 0)"/>
     <use xlink:href="#Arial-BoldMT-35" transform="translate(83.398438 0)"/>
     <use xlink:href="#Arial-BoldMT-36" transform="translate(139.013672 0)"/>
     <use xlink:href="#Arial-BoldMT-32" transform="translate(194.628906 0)"/>
    </g>
   </g>
   <g id="text_85">
    <!-- ROC-AUC Performance -->
    <g transform="translate(1659.74625 79.2) scale(0.28 -0.28)">
     <defs>
      <path id="Arial-BoldMT-52" d="M 469 0 
L 469 4581 
L 2416 4581 
Q 3150 4581 3483 4457 
Q 3816 4334 4016 4018 
Q 4216 3703 4216 3297 
Q 4216 2781 3912 2445 
Q 3609 2109 3006 2022 
Q 3306 1847 3501 1637 
Q 3697 1428 4028 894 
L 4588 0 
L 3481 0 
L 2813 997 
Q 2456 1531 2325 1670 
Q 2194 1809 2047 1861 
Q 1900 1913 1581 1913 
L 1394 1913 
L 1394 0 
L 469 0 
z
M 1394 2644 
L 2078 2644 
Q 2744 2644 2909 2700 
Q 3075 2756 3169 2893 
Q 3263 3031 3263 3238 
Q 3263 3469 3139 3611 
Q 3016 3753 2791 3791 
Q 2678 3806 2116 3806 
L 1394 3806 
L 1394 2644 
z
" transform="scale(0.015625)"/>
      <path id="Arial-BoldMT-4f" d="M 278 2263 
Q 278 2963 488 3438 
Q 644 3788 914 4066 
Q 1184 4344 1506 4478 
Q 1934 4659 2494 4659 
Q 3506 4659 4114 4031 
Q 4722 3403 4722 2284 
Q 4722 1175 4119 548 
Q 3516 -78 2506 -78 
Q 1484 -78 881 545 
Q 278 1169 278 2263 
z
M 1231 2294 
Q 1231 1516 1590 1114 
Q 1950 713 2503 713 
Q 3056 713 3411 1111 
Q 3766 1509 3766 2306 
Q 3766 3094 3420 3481 
Q 3075 3869 2503 3869 
Q 1931 3869 1581 3476 
Q 1231 3084 1231 2294 
z
" transform="scale(0.015625)"/>
      <path id="Arial-BoldMT-2d" d="M 359 1222 
L 359 2100 
L 2084 2100 
L 2084 1222 
L 359 1222 
z
" transform="scale(0.015625)"/>
      <path id="Arial-BoldMT-55" d="M 459 4581 
L 1384 4581 
L 1384 2100 
Q 1384 1509 1419 1334 
Q 1478 1053 1701 883 
Q 1925 713 2313 713 
Q 2706 713 2906 873 
Q 3106 1034 3147 1268 
Q 3188 1503 3188 2047 
L 3188 4581 
L 4113 4581 
L 4113 2175 
Q 4113 1350 4038 1009 
Q 3963 669 3761 434 
Q 3559 200 3221 61 
Q 2884 -78 2341 -78 
Q 1684 -78 1345 73 
Q 1006 225 809 467 
Q 613 709 550 975 
Q 459 1369 459 2138 
L 459 4581 
z
" transform="scale(0.015625)"/>
     </defs>
     <use xlink:href="#Arial-BoldMT-52"/>
     <use xlink:href="#Arial-BoldMT-4f" transform="translate(72.216797 0)"/>
     <use xlink:href="#Arial-BoldMT-43" transform="translate(150 0)"/>
     <use xlink:href="#Arial-BoldMT-2d" transform="translate(222.216797 0)"/>
     <use xlink:href="#Arial-BoldMT-41" transform="translate(255.517578 0)"/>
     <use xlink:href="#Arial-BoldMT-55" transform="translate(327.734375 0)"/>
     <use xlink:href="#Arial-BoldMT-43" transform="translate(399.951172 0)"/>
     <use xlink:href="#Arial-BoldMT-20" transform="translate(472.167969 0)"/>
     <use xlink:href="#Arial-BoldMT-50" transform="translate(499.951172 0)"/>
     <use xlink:href="#Arial-BoldMT-65" transform="translate(566.650391 0)"/>
     <use xlink:href="#Arial-BoldMT-72" transform="translate(622.265625 0)"/>
     <use xlink:href="#Arial-BoldMT-66" transform="translate(661.181641 0)"/>
     <use xlink:href="#Arial-BoldMT-6f" transform="translate(694.482422 0)"/>
     <use xlink:href="#Arial-BoldMT-72" transform="translate(755.566406 0)"/>
     <use xlink:href="#Arial-BoldMT-6d" transform="translate(794.482422 0)"/>
     <use xlink:href="#Arial-BoldMT-61" transform="translate(883.398438 0)"/>
     <use xlink:href="#Arial-BoldMT-6e" transform="translate(939.013672 0)"/>
     <use xlink:href="#Arial-BoldMT-63" transform="translate(1000.097656 0)"/>
     <use xlink:href="#Arial-BoldMT-65" transform="translate(1055.712891 0)"/>
    </g>
   </g>
  </g>
  <g id="text_86">
   <!-- Modal Importance Analysis (k=1) -->
   <g transform="translate(1043.195 30.495) scale(0.32 -0.32)">
    <defs>
     <path id="Arial-BoldMT-70" d="M 434 3319 
L 1253 3319 
L 1253 2831 
Q 1413 3081 1684 3237 
Q 1956 3394 2288 3394 
Q 2866 3394 3269 2941 
Q 3672 2488 3672 1678 
Q 3672 847 3265 386 
Q 2859 -75 2281 -75 
Q 2006 -75 1782 34 
Q 1559 144 1313 409 
L 1313 -1263 
L 434 -1263 
L 434 3319 
z
M 1303 1716 
Q 1303 1156 1525 889 
Q 1747 622 2066 622 
Q 2372 622 2575 867 
Q 2778 1113 2778 1672 
Q 2778 2194 2568 2447 
Q 2359 2700 2050 2700 
Q 1728 2700 1515 2451 
Q 1303 2203 1303 1716 
z
" transform="scale(0.015625)"/>
     <path id="Arial-BoldMT-74" d="M 1981 3319 
L 1981 2619 
L 1381 2619 
L 1381 1281 
Q 1381 875 1398 808 
Q 1416 741 1477 697 
Q 1538 653 1625 653 
Q 1747 653 1978 738 
L 2053 56 
Q 1747 -75 1359 -75 
Q 1122 -75 931 4 
Q 741 84 652 211 
Q 563 338 528 553 
Q 500 706 500 1172 
L 500 2619 
L 97 2619 
L 97 3319 
L 500 3319 
L 500 3978 
L 1381 4491 
L 1381 3319 
L 1981 3319 
z
" transform="scale(0.015625)"/>
     <path id="Arial-BoldMT-79" d="M 44 3319 
L 978 3319 
L 1772 963 
L 2547 3319 
L 3456 3319 
L 2284 125 
L 2075 -453 
Q 1959 -744 1854 -897 
Q 1750 -1050 1614 -1145 
Q 1478 -1241 1279 -1294 
Q 1081 -1347 831 -1347 
Q 578 -1347 334 -1294 
L 256 -606 
Q 463 -647 628 -647 
Q 934 -647 1081 -467 
Q 1228 -288 1306 -9 
L 44 3319 
z
" transform="scale(0.015625)"/>
     <path id="Arial-BoldMT-73" d="M 150 947 
L 1031 1081 
Q 1088 825 1259 692 
Q 1431 559 1741 559 
Q 2081 559 2253 684 
Q 2369 772 2369 919 
Q 2369 1019 2306 1084 
Q 2241 1147 2013 1200 
Q 950 1434 666 1628 
Q 272 1897 272 2375 
Q 272 2806 612 3100 
Q 953 3394 1669 3394 
Q 2350 3394 2681 3172 
Q 3013 2950 3138 2516 
L 2309 2363 
Q 2256 2556 2107 2659 
Q 1959 2763 1684 2763 
Q 1338 2763 1188 2666 
Q 1088 2597 1088 2488 
Q 1088 2394 1175 2328 
Q 1294 2241 1995 2081 
Q 2697 1922 2975 1691 
Q 3250 1456 3250 1038 
Q 3250 581 2869 253 
Q 2488 -75 1741 -75 
Q 1063 -75 667 200 
Q 272 475 150 947 
z
" transform="scale(0.015625)"/>
     <path id="Arial-BoldMT-69" d="M 459 3769 
L 459 4581 
L 1338 4581 
L 1338 3769 
L 459 3769 
z
M 459 0 
L 459 3319 
L 1338 3319 
L 1338 0 
L 459 0 
z
" transform="scale(0.015625)"/>
     <path id="Arial-BoldMT-28" d="M 1916 -1347 
L 1313 -1347 
Q 834 -625 584 153 
Q 334 931 334 1659 
Q 334 2563 644 3369 
Q 913 4069 1325 4659 
L 1925 4659 
Q 1497 3713 1336 3048 
Q 1175 2384 1175 1641 
Q 1175 1128 1270 590 
Q 1366 53 1531 -431 
Q 1641 -750 1916 -1347 
z
" transform="scale(0.015625)"/>
     <path id="Arial-BoldMT-6b" d="M 428 0 
L 428 4581 
L 1306 4581 
L 1306 2150 
L 2334 3319 
L 3416 3319 
L 2281 2106 
L 3497 0 
L 2550 0 
L 1716 1491 
L 1306 1063 
L 1306 0 
L 428 0 
z
" transform="scale(0.015625)"/>
     <path id="Arial-BoldMT-3d" d="M 266 2550 
L 266 3356 
L 3469 3356 
L 3469 2550 
L 266 2550 
z
M 266 1163 
L 266 1972 
L 3469 1972 
L 3469 1163 
L 266 1163 
z
" transform="scale(0.015625)"/>
     <path id="Arial-BoldMT-29" d="M 216 -1347 
Q 475 -791 581 -494 
Q 688 -197 778 190 
Q 869 578 912 926 
Q 956 1275 956 1641 
Q 956 2384 797 3048 
Q 638 3713 209 4659 
L 806 4659 
Q 1278 3988 1539 3234 
Q 1800 2481 1800 1706 
Q 1800 1053 1594 306 
Q 1359 -531 822 -1347 
L 216 -1347 
z
" transform="scale(0.015625)"/>
    </defs>
    <use xlink:href="#Arial-BoldMT-4d"/>
    <use xlink:href="#Arial-BoldMT-6f" transform="translate(83.300781 0)"/>
    <use xlink:href="#Arial-BoldMT-64" transform="translate(144.384766 0)"/>
    <use xlink:href="#Arial-BoldMT-61" transform="translate(205.46875 0)"/>
    <use xlink:href="#Arial-BoldMT-6c" transform="translate(261.083984 0)"/>
    <use xlink:href="#Arial-BoldMT-20" transform="translate(288.867188 0)"/>
    <use xlink:href="#Arial-BoldMT-49" transform="translate(316.650391 0)"/>
    <use xlink:href="#Arial-BoldMT-6d" transform="translate(344.433594 0)"/>
    <use xlink:href="#Arial-BoldMT-70" transform="translate(433.349609 0)"/>
    <use xlink:href="#Arial-BoldMT-6f" transform="translate(494.433594 0)"/>
    <use xlink:href="#Arial-BoldMT-72" transform="translate(555.517578 0)"/>
    <use xlink:href="#Arial-BoldMT-74" transform="translate(594.433594 0)"/>
    <use xlink:href="#Arial-BoldMT-61" transform="translate(627.734375 0)"/>
    <use xlink:href="#Arial-BoldMT-6e" transform="translate(683.349609 0)"/>
    <use xlink:href="#Arial-BoldMT-63" transform="translate(744.433594 0)"/>
    <use xlink:href="#Arial-BoldMT-65" transform="translate(800.048828 0)"/>
    <use xlink:href="#Arial-BoldMT-20" transform="translate(855.664062 0)"/>
    <use xlink:href="#Arial-BoldMT-41" transform="translate(879.697266 0)"/>
    <use xlink:href="#Arial-BoldMT-6e" transform="translate(951.914062 0)"/>
    <use xlink:href="#Arial-BoldMT-61" transform="translate(1012.998047 0)"/>
    <use xlink:href="#Arial-BoldMT-6c" transform="translate(1068.613281 0)"/>
    <use xlink:href="#Arial-BoldMT-79" transform="translate(1096.396484 0)"/>
    <use xlink:href="#Arial-BoldMT-73" transform="translate(1152.011719 0)"/>
    <use xlink:href="#Arial-BoldMT-69" transform="translate(1207.626953 0)"/>
    <use xlink:href="#Arial-BoldMT-73" transform="translate(1235.410156 0)"/>
    <use xlink:href="#Arial-BoldMT-20" transform="translate(1291.025391 0)"/>
    <use xlink:href="#Arial-BoldMT-28" transform="translate(1318.808594 0)"/>
    <use xlink:href="#Arial-BoldMT-6b" transform="translate(1352.109375 0)"/>
    <use xlink:href="#Arial-BoldMT-3d" transform="translate(1407.724609 0)"/>
    <use xlink:href="#Arial-BoldMT-31" transform="translate(1466.123047 0)"/>
    <use xlink:href="#Arial-BoldMT-29" transform="translate(1521.738281 0)"/>
   </g>
  </g>
  <g id="legend_1">
   <g id="patch_40">
    <path d="M 2450.4775 320.9225 
L 2482.4775 320.9225 
L 2482.4775 309.7225 
L 2450.4775 309.7225 
z
" style="fill: #440154; opacity: 0.9"/>
   </g>
   <g id="text_87">
    <!-- M1 -->
    <g transform="translate(2495.2775 320.9225) scale(0.16 -0.16)">
     <use xlink:href="#ArialMT-4d"/>
     <use xlink:href="#ArialMT-31" transform="translate(83.300781 0)"/>
    </g>
   </g>
   <g id="patch_41">
    <path d="M 2450.4775 343.555 
L 2482.4775 343.555 
L 2482.4775 332.355 
L 2450.4775 332.355 
z
" style="fill: #481a6c; opacity: 0.9"/>
   </g>
   <g id="text_88">
    <!-- M2 -->
    <g transform="translate(2495.2775 343.555) scale(0.16 -0.16)">
     <use xlink:href="#ArialMT-4d"/>
     <use xlink:href="#ArialMT-32" transform="translate(83.300781 0)"/>
    </g>
   </g>
   <g id="patch_42">
    <path d="M 2450.4775 366.1875 
L 2482.4775 366.1875 
L 2482.4775 354.9875 
L 2450.4775 354.9875 
z
" style="fill: #472f7d; opacity: 0.9"/>
   </g>
   <g id="text_89">
    <!-- M3 -->
    <g transform="translate(2495.2775 366.1875) scale(0.16 -0.16)">
     <use xlink:href="#ArialMT-4d"/>
     <use xlink:href="#ArialMT-33" transform="translate(83.300781 0)"/>
    </g>
   </g>
   <g id="patch_43">
    <path d="M 2450.4775 388.82 
L 2482.4775 388.82 
L 2482.4775 377.62 
L 2450.4775 377.62 
z
" style="fill: #414487; opacity: 0.9"/>
   </g>
   <g id="text_90">
    <!-- M4 -->
    <g transform="translate(2495.2775 388.82) scale(0.16 -0.16)">
     <use xlink:href="#ArialMT-4d"/>
     <use xlink:href="#ArialMT-34" transform="translate(83.300781 0)"/>
    </g>
   </g>
   <g id="patch_44">
    <path d="M 2450.4775 411.4525 
L 2482.4775 411.4525 
L 2482.4775 400.2525 
L 2450.4775 400.2525 
z
" style="fill: #39568c; opacity: 0.9"/>
   </g>
   <g id="text_91">
    <!-- M5 -->
    <g transform="translate(2495.2775 411.4525) scale(0.16 -0.16)">
     <use xlink:href="#ArialMT-4d"/>
     <use xlink:href="#ArialMT-35" transform="translate(83.300781 0)"/>
    </g>
   </g>
   <g id="patch_45">
    <path d="M 2450.4775 434.085 
L 2482.4775 434.085 
L 2482.4775 422.885 
L 2450.4775 422.885 
z
" style="fill: #31688e; opacity: 0.9"/>
   </g>
   <g id="text_92">
    <!-- M6 -->
    <g transform="translate(2495.2775 434.085) scale(0.16 -0.16)">
     <use xlink:href="#ArialMT-4d"/>
     <use xlink:href="#ArialMT-36" transform="translate(83.300781 0)"/>
    </g>
   </g>
   <g id="patch_46">
    <path d="M 2450.4775 456.7175 
L 2482.4775 456.7175 
L 2482.4775 445.5175 
L 2450.4775 445.5175 
z
" style="fill: #2a788e; opacity: 0.9"/>
   </g>
   <g id="text_93">
    <!-- M7 -->
    <g transform="translate(2495.2775 456.7175) scale(0.16 -0.16)">
     <use xlink:href="#ArialMT-4d"/>
     <use xlink:href="#ArialMT-37" transform="translate(83.300781 0)"/>
    </g>
   </g>
   <g id="patch_47">
    <path d="M 2450.4775 479.35 
L 2482.4775 479.35 
L 2482.4775 468.15 
L 2450.4775 468.15 
z
" style="fill: #23888e; opacity: 0.9"/>
   </g>
   <g id="text_94">
    <!-- M8 -->
    <g transform="translate(2495.2775 479.35) scale(0.16 -0.16)">
     <use xlink:href="#ArialMT-4d"/>
     <use xlink:href="#ArialMT-38" transform="translate(83.300781 0)"/>
    </g>
   </g>
   <g id="patch_48">
    <path d="M 2549.5025 320.9225 
L 2581.5025 320.9225 
L 2581.5025 309.7225 
L 2549.5025 309.7225 
z
" style="fill: #1f988b; opacity: 0.9"/>
   </g>
   <g id="text_95">
    <!-- M9 -->
    <g transform="translate(2594.3025 320.9225) scale(0.16 -0.16)">
     <use xlink:href="#ArialMT-4d"/>
     <use xlink:href="#ArialMT-39" transform="translate(83.300781 0)"/>
    </g>
   </g>
   <g id="patch_49">
    <path d="M 2549.5025 343.555 
L 2581.5025 343.555 
L 2581.5025 332.355 
L 2549.5025 332.355 
z
" style="fill: #22a884; opacity: 0.9"/>
   </g>
   <g id="text_96">
    <!-- M10 -->
    <g transform="translate(2594.3025 343.555) scale(0.16 -0.16)">
     <use xlink:href="#ArialMT-4d"/>
     <use xlink:href="#ArialMT-31" transform="translate(83.300781 0)"/>
     <use xlink:href="#ArialMT-30" transform="translate(138.916016 0)"/>
    </g>
   </g>
   <g id="patch_50">
    <path d="M 2549.5025 366.1875 
L 2581.5025 366.1875 
L 2581.5025 354.9875 
L 2549.5025 354.9875 
z
" style="fill: #35b779; opacity: 0.9"/>
   </g>
   <g id="text_97">
    <!-- M11 -->
    <g transform="translate(2594.3025 366.1875) scale(0.16 -0.16)">
     <use xlink:href="#ArialMT-4d"/>
     <use xlink:href="#ArialMT-31" transform="translate(83.300781 0)"/>
     <use xlink:href="#ArialMT-31" transform="translate(131.541016 0)"/>
    </g>
   </g>
   <g id="patch_51">
    <path d="M 2549.5025 388.82 
L 2581.5025 388.82 
L 2581.5025 377.62 
L 2549.5025 377.62 
z
" style="fill: #54c568; opacity: 0.9"/>
   </g>
   <g id="text_98">
    <!-- M12 -->
    <g transform="translate(2594.3025 388.82) scale(0.16 -0.16)">
     <use xlink:href="#ArialMT-4d"/>
     <use xlink:href="#ArialMT-31" transform="translate(83.300781 0)"/>
     <use xlink:href="#ArialMT-32" transform="translate(138.916016 0)"/>
    </g>
   </g>
   <g id="patch_52">
    <path d="M 2549.5025 411.4525 
L 2581.5025 411.4525 
L 2581.5025 400.2525 
L 2549.5025 400.2525 
z
" style="fill: #7ad151; opacity: 0.9"/>
   </g>
   <g id="text_99">
    <!-- M13 -->
    <g transform="translate(2594.3025 411.4525) scale(0.16 -0.16)">
     <use xlink:href="#ArialMT-4d"/>
     <use xlink:href="#ArialMT-31" transform="translate(83.300781 0)"/>
     <use xlink:href="#ArialMT-33" transform="translate(138.916016 0)"/>
    </g>
   </g>
   <g id="patch_53">
    <path d="M 2549.5025 434.085 
L 2581.5025 434.085 
L 2581.5025 422.885 
L 2549.5025 422.885 
z
" style="fill: #a5db36; opacity: 0.9"/>
   </g>
   <g id="text_100">
    <!-- M14 -->
    <g transform="translate(2594.3025 434.085) scale(0.16 -0.16)">
     <use xlink:href="#ArialMT-4d"/>
     <use xlink:href="#ArialMT-31" transform="translate(83.300781 0)"/>
     <use xlink:href="#ArialMT-34" transform="translate(138.916016 0)"/>
    </g>
   </g>
   <g id="patch_54">
    <path d="M 2549.5025 456.7175 
L 2581.5025 456.7175 
L 2581.5025 445.5175 
L 2549.5025 445.5175 
z
" style="fill: #d2e21b; opacity: 0.9"/>
   </g>
   <g id="text_101">
    <!-- M15 -->
    <g transform="translate(2594.3025 456.7175) scale(0.16 -0.16)">
     <use xlink:href="#ArialMT-4d"/>
     <use xlink:href="#ArialMT-31" transform="translate(83.300781 0)"/>
     <use xlink:href="#ArialMT-35" transform="translate(138.916016 0)"/>
    </g>
   </g>
   <g id="patch_55">
    <path d="M 2549.5025 479.35 
L 2581.5025 479.35 
L 2581.5025 468.15 
L 2549.5025 468.15 
z
" style="fill: #fde725; opacity: 0.9"/>
   </g>
   <g id="text_102">
    <!-- M16 -->
    <g transform="translate(2594.3025 479.35) scale(0.16 -0.16)">
     <use xlink:href="#ArialMT-4d"/>
     <use xlink:href="#ArialMT-31" transform="translate(83.300781 0)"/>
     <use xlink:href="#ArialMT-36" transform="translate(138.916016 0)"/>
    </g>
   </g>
  </g>
  <g id="legend_2">
   <g id="patch_56">
    <path d="M 2450.4775 320.9225 
L 2482.4775 320.9225 
L 2482.4775 309.7225 
L 2450.4775 309.7225 
z
" style="fill: #440154; opacity: 0.9"/>
   </g>
   <g id="text_103">
    <!-- M1 -->
    <g transform="translate(2495.2775 320.9225) scale(0.16 -0.16)">
     <use xlink:href="#ArialMT-4d"/>
     <use xlink:href="#ArialMT-31" transform="translate(83.300781 0)"/>
    </g>
   </g>
   <g id="patch_57">
    <path d="M 2450.4775 343.555 
L 2482.4775 343.555 
L 2482.4775 332.355 
L 2450.4775 332.355 
z
" style="fill: #481a6c; opacity: 0.9"/>
   </g>
   <g id="text_104">
    <!-- M2 -->
    <g transform="translate(2495.2775 343.555) scale(0.16 -0.16)">
     <use xlink:href="#ArialMT-4d"/>
     <use xlink:href="#ArialMT-32" transform="translate(83.300781 0)"/>
    </g>
   </g>
   <g id="patch_58">
    <path d="M 2450.4775 366.1875 
L 2482.4775 366.1875 
L 2482.4775 354.9875 
L 2450.4775 354.9875 
z
" style="fill: #472f7d; opacity: 0.9"/>
   </g>
   <g id="text_105">
    <!-- M3 -->
    <g transform="translate(2495.2775 366.1875) scale(0.16 -0.16)">
     <use xlink:href="#ArialMT-4d"/>
     <use xlink:href="#ArialMT-33" transform="translate(83.300781 0)"/>
    </g>
   </g>
   <g id="patch_59">
    <path d="M 2450.4775 388.82 
L 2482.4775 388.82 
L 2482.4775 377.62 
L 2450.4775 377.62 
z
" style="fill: #414487; opacity: 0.9"/>
   </g>
   <g id="text_106">
    <!-- M4 -->
    <g transform="translate(2495.2775 388.82) scale(0.16 -0.16)">
     <use xlink:href="#ArialMT-4d"/>
     <use xlink:href="#ArialMT-34" transform="translate(83.300781 0)"/>
    </g>
   </g>
   <g id="patch_60">
    <path d="M 2450.4775 411.4525 
L 2482.4775 411.4525 
L 2482.4775 400.2525 
L 2450.4775 400.2525 
z
" style="fill: #39568c; opacity: 0.9"/>
   </g>
   <g id="text_107">
    <!-- M5 -->
    <g transform="translate(2495.2775 411.4525) scale(0.16 -0.16)">
     <use xlink:href="#ArialMT-4d"/>
     <use xlink:href="#ArialMT-35" transform="translate(83.300781 0)"/>
    </g>
   </g>
   <g id="patch_61">
    <path d="M 2450.4775 434.085 
L 2482.4775 434.085 
L 2482.4775 422.885 
L 2450.4775 422.885 
z
" style="fill: #31688e; opacity: 0.9"/>
   </g>
   <g id="text_108">
    <!-- M6 -->
    <g transform="translate(2495.2775 434.085) scale(0.16 -0.16)">
     <use xlink:href="#ArialMT-4d"/>
     <use xlink:href="#ArialMT-36" transform="translate(83.300781 0)"/>
    </g>
   </g>
   <g id="patch_62">
    <path d="M 2450.4775 456.7175 
L 2482.4775 456.7175 
L 2482.4775 445.5175 
L 2450.4775 445.5175 
z
" style="fill: #2a788e; opacity: 0.9"/>
   </g>
   <g id="text_109">
    <!-- M7 -->
    <g transform="translate(2495.2775 456.7175) scale(0.16 -0.16)">
     <use xlink:href="#ArialMT-4d"/>
     <use xlink:href="#ArialMT-37" transform="translate(83.300781 0)"/>
    </g>
   </g>
   <g id="patch_63">
    <path d="M 2450.4775 479.35 
L 2482.4775 479.35 
L 2482.4775 468.15 
L 2450.4775 468.15 
z
" style="fill: #23888e; opacity: 0.9"/>
   </g>
   <g id="text_110">
    <!-- M8 -->
    <g transform="translate(2495.2775 479.35) scale(0.16 -0.16)">
     <use xlink:href="#ArialMT-4d"/>
     <use xlink:href="#ArialMT-38" transform="translate(83.300781 0)"/>
    </g>
   </g>
   <g id="patch_64">
    <path d="M 2549.5025 320.9225 
L 2581.5025 320.9225 
L 2581.5025 309.7225 
L 2549.5025 309.7225 
z
" style="fill: #1f988b; opacity: 0.9"/>
   </g>
   <g id="text_111">
    <!-- M9 -->
    <g transform="translate(2594.3025 320.9225) scale(0.16 -0.16)">
     <use xlink:href="#ArialMT-4d"/>
     <use xlink:href="#ArialMT-39" transform="translate(83.300781 0)"/>
    </g>
   </g>
   <g id="patch_65">
    <path d="M 2549.5025 343.555 
L 2581.5025 343.555 
L 2581.5025 332.355 
L 2549.5025 332.355 
z
" style="fill: #22a884; opacity: 0.9"/>
   </g>
   <g id="text_112">
    <!-- M10 -->
    <g transform="translate(2594.3025 343.555) scale(0.16 -0.16)">
     <use xlink:href="#ArialMT-4d"/>
     <use xlink:href="#ArialMT-31" transform="translate(83.300781 0)"/>
     <use xlink:href="#ArialMT-30" transform="translate(138.916016 0)"/>
    </g>
   </g>
   <g id="patch_66">
    <path d="M 2549.5025 366.1875 
L 2581.5025 366.1875 
L 2581.5025 354.9875 
L 2549.5025 354.9875 
z
" style="fill: #35b779; opacity: 0.9"/>
   </g>
   <g id="text_113">
    <!-- M11 -->
    <g transform="translate(2594.3025 366.1875) scale(0.16 -0.16)">
     <use xlink:href="#ArialMT-4d"/>
     <use xlink:href="#ArialMT-31" transform="translate(83.300781 0)"/>
     <use xlink:href="#ArialMT-31" transform="translate(131.541016 0)"/>
    </g>
   </g>
   <g id="patch_67">
    <path d="M 2549.5025 388.82 
L 2581.5025 388.82 
L 2581.5025 377.62 
L 2549.5025 377.62 
z
" style="fill: #54c568; opacity: 0.9"/>
   </g>
   <g id="text_114">
    <!-- M12 -->
    <g transform="translate(2594.3025 388.82) scale(0.16 -0.16)">
     <use xlink:href="#ArialMT-4d"/>
     <use xlink:href="#ArialMT-31" transform="translate(83.300781 0)"/>
     <use xlink:href="#ArialMT-32" transform="translate(138.916016 0)"/>
    </g>
   </g>
   <g id="patch_68">
    <path d="M 2549.5025 411.4525 
L 2581.5025 411.4525 
L 2581.5025 400.2525 
L 2549.5025 400.2525 
z
" style="fill: #7ad151; opacity: 0.9"/>
   </g>
   <g id="text_115">
    <!-- M13 -->
    <g transform="translate(2594.3025 411.4525) scale(0.16 -0.16)">
     <use xlink:href="#ArialMT-4d"/>
     <use xlink:href="#ArialMT-31" transform="translate(83.300781 0)"/>
     <use xlink:href="#ArialMT-33" transform="translate(138.916016 0)"/>
    </g>
   </g>
   <g id="patch_69">
    <path d="M 2549.5025 434.085 
L 2581.5025 434.085 
L 2581.5025 422.885 
L 2549.5025 422.885 
z
" style="fill: #a5db36; opacity: 0.9"/>
   </g>
   <g id="text_116">
    <!-- M14 -->
    <g transform="translate(2594.3025 434.085) scale(0.16 -0.16)">
     <use xlink:href="#ArialMT-4d"/>
     <use xlink:href="#ArialMT-31" transform="translate(83.300781 0)"/>
     <use xlink:href="#ArialMT-34" transform="translate(138.916016 0)"/>
    </g>
   </g>
   <g id="patch_70">
    <path d="M 2549.5025 456.7175 
L 2581.5025 456.7175 
L 2581.5025 445.5175 
L 2549.5025 445.5175 
z
" style="fill: #d2e21b; opacity: 0.9"/>
   </g>
   <g id="text_117">
    <!-- M15 -->
    <g transform="translate(2594.3025 456.7175) scale(0.16 -0.16)">
     <use xlink:href="#ArialMT-4d"/>
     <use xlink:href="#ArialMT-31" transform="translate(83.300781 0)"/>
     <use xlink:href="#ArialMT-35" transform="translate(138.916016 0)"/>
    </g>
   </g>
   <g id="patch_71">
    <path d="M 2549.5025 479.35 
L 2581.5025 479.35 
L 2581.5025 468.15 
L 2549.5025 468.15 
z
" style="fill: #fde725; opacity: 0.9"/>
   </g>
   <g id="text_118">
    <!-- M16 -->
    <g transform="translate(2594.3025 479.35) scale(0.16 -0.16)">
     <use xlink:href="#ArialMT-4d"/>
     <use xlink:href="#ArialMT-31" transform="translate(83.300781 0)"/>
     <use xlink:href="#ArialMT-36" transform="translate(138.916016 0)"/>
    </g>
   </g>
  </g>
 </g>
 <defs>
  <clipPath id="p35e1740181">
   <rect x="73.915" y="99.2" width="1108.99" height="668.12"/>
  </clipPath>
  <clipPath id="pa038efb3a5">
   <rect x="1260.835" y="99.2" width="1108.99" height="668.12"/>
  </clipPath>
 </defs>
</svg>
